<?xml version="1.0" encoding="utf-8"?>
<!-- Generator: Adobe Illustrator 15.1.0, SVG Export Plug-In . SVG Version: 6.00 Build 0)  -->
<!DOCTYPE svg PUBLIC "-//W3C//DTD SVG 1.1//EN" "http://www.w3.org/Graphics/SVG/1.1/DTD/svg11.dtd">
<svg version="1.1" id="Layer_1" xmlns="http://www.w3.org/2000/svg" xmlns:xlink="http://www.w3.org/1999/xlink" x="0px" y="0px"
	 width="302.164px" height="313.394px" viewBox="0 0 302.164 313.394" enable-background="new 0 0 302.164 313.394"
	 xml:space="preserve">
<g>
	<g id="g5241_175_">
		<path id="path35_181_" fill="#3C6EAF" d="M297.137,156.504c0-79.041-64.068-143.116-143.113-143.116
			c-78.999,0-143.05,64.022-143.104,143.018l-0.005-0.005v110.746l0.005,0.007c0.041,17.936,14.586,32.453,32.533,32.453
			c0.051,0,0.102-0.005,0.156-0.005l0.009,0.005h110.466l0,0c79.018-0.033,143.059-64.088,143.059-143.103H297.137z"/>
	</g>
	<g id="g5241_174_">
		<path id="path35_180_" fill="#294172" d="M294.137,149.504c0-79.041-64.068-143.116-143.113-143.116
			C72.024,6.388,7.974,70.41,7.919,149.405L7.914,149.4v110.746l0.005,0.007c0.041,17.936,14.586,32.453,32.533,32.453
			c0.051,0,0.102-0.005,0.156-0.005l0.009,0.005h110.466l0,0c79.018-0.033,143.059-64.088,143.059-143.103H294.137z"/>
	</g>
	<g>
		<path fill="#3C6EAF" d="M42.828,144.314c0-53.769,33.451-99.721,80.677-118.189C69.733,38.753,29.701,87.023,29.701,144.651
			c0,59.174,42.215,108.482,98.172,119.463C78.356,246.831,42.828,199.726,42.828,144.314z"/>
		<path fill="#8AA9D4" d="M273.2,144.651c0-67.244-54.513-121.753-121.754-121.753c-9.615,0-18.969,1.119-27.941,3.227
			C76.279,44.594,42.828,90.546,42.828,144.314c0,55.411,35.528,102.517,85.045,119.8c7.628,1.497,15.507,2.289,23.573,2.289
			C218.688,266.403,273.2,211.892,273.2,144.651z"/>
	</g>
</g>
<ellipse fill="#3C6EAF" cx="169.696" cy="195.353" rx="84.517" ry="45.458"/>
<g>
	<g>
		<path fill="#EDC58D" d="M85.005,203.693v19.158c0,3.293,4,5.556,9,5.626v-30.835C89.005,197.727,85.005,200.399,85.005,203.693z"
			/>
		<path fill="#E6AB5D" d="M94.687,228.484c4.998,0,9.318-2.286,9.318-5.633v-19.158c0-3.346-4.32-6.209-9.318-6.209h-0.412
			c-0.078,0-0.27,0.157-0.27,0.157v30.836c0,0.002,0.191,0.007,0.27,0.007H94.687z"/>
	</g>
	<g>
		<path fill="#EDC58D" d="M215.441,197.484h-0.413c-4.998,0-9.023,2.863-9.023,6.209v19.158c0,3.347,4.025,5.633,9.023,5.633h0.413
			c0.687,0,1.563-0.047,1.563-0.131v-30.565C217.005,197.691,216.128,197.484,215.441,197.484z"/>
		<path fill="#E6AB5D" d="M224.005,222.852v-19.158c0-2.886-3-5.296-7-5.905v30.565
			C221.005,227.832,224.005,225.738,224.005,222.852z"/>
	</g>
	<polygon fill="#B195C5" points="85.15,146.307 101.005,126.484 210.387,126.484 229.005,146.727 229.005,195.484 85.226,195.484 	
		"/>
	<ellipse fill="#CAB8D8" cx="155.593" cy="107.031" rx="57.233" ry="73.625"/>
	<polygon fill="#9B7CB7" points="94.103,188.484 118.011,163.484 193.64,163.484 212.827,188.484 	"/>
	<path fill="#CAB8D8" d="M217.005,197.284c0,7.009-5.697,12.2-12.95,12.2h-96.881c-7.254,0-13.169-5.191-13.169-12.2v-0.181
		c0-7.008,5.915-12.619,13.169-12.619h96.881c7.253,0,12.95,5.611,12.95,12.619V197.284z"/>
	<ellipse fill="#CAB8D8" cx="85.183" cy="177.897" rx="13.178" ry="32.077"/>
	<ellipse fill="#CAB8D8" cx="226.209" cy="177.897" rx="13.178" ry="32.077"/>
	
		<ellipse transform="matrix(0.7071 0.7072 -0.7072 0.7071 126.4834 -24.2308)" fill="#CAB8D8" cx="92.488" cy="140.55" rx="5.598" ry="20.922"/>
	<path fill="#CAB8D8" d="M222.472,136.576c8.205,8.136,13.094,16.51,10.916,18.706c0.231-0.234-8.303-0.351-18.799-10.756
		c-8.204-8.136-13.092-16.511-10.914-18.706C205.85,123.625,214.266,128.441,222.472,136.576z"/>
	<ellipse fill="#9B7CB7" cx="84.172" cy="180.764" rx="2.984" ry="6.29"/>
	<ellipse fill="#9B7CB7" cx="226.461" cy="180.764" rx="2.984" ry="6.29"/>
	<path fill="none" stroke="#9B7CB7" stroke-width="1.7628" stroke-linecap="round" stroke-miterlimit="10" d="M227.625,189.611
		c1.836,2.913-0.676,10.697-0.676,10.697"/>
	<path fill="none" stroke="#9B7CB7" stroke-width="1.7628" stroke-linecap="round" stroke-miterlimit="10" d="M82.771,170.917
		c-1.373-3.159,2.292-10.472,2.292-10.472"/>
	<path fill="none" stroke="#9B7CB7" stroke-width="1.7628" stroke-linecap="round" stroke-miterlimit="10" d="M231.74,181.039
		c1.56-2.256,5.655-0.998,5.655-0.998"/>
	<path fill="none" stroke="#9B7CB7" stroke-width="1.7628" stroke-linecap="round" stroke-miterlimit="10" d="M89.833,181.921
		c1.561-2.256,5.654-0.999,5.654-0.999"/>
	<path fill="none" stroke="#9B7CB7" stroke-width="1.7628" stroke-linecap="round" stroke-miterlimit="10" d="M221.556,180.955
		c-1.844-2.182-6.672-0.706-6.672-0.706"/>
	<path fill="none" stroke="#9B7CB7" stroke-width="1.7628" stroke-linecap="round" stroke-miterlimit="10" d="M80.53,180.955
		c-1.845-2.182-6.673-0.706-6.673-0.706"/>
	<path fill="none" stroke="#9B7CB7" stroke-width="1.7628" stroke-linecap="round" stroke-miterlimit="10" d="M82.771,191.296
		c-1.373,3.159,2.292,10.472,2.292,10.472"/>
	<path fill="none" stroke="#9B7CB7" stroke-width="1.7628" stroke-linecap="round" stroke-miterlimit="10" d="M226.365,170.366
		c2.05-2.768,0.13-10.718,0.13-10.718"/>
	<g>
		
			<rect x="135.102" y="133.462" transform="matrix(0.6039 -0.7971 0.7971 0.6039 -38.9184 197.4264)" fill="#E09228" width="88.141" height="8.815"/>
		<polygon fill="#E6AB5D" points="233.569,117.154 208.02,150.878 193.821,134.591 214.047,107.894 		"/>
		<polygon fill="#E6AB5D" points="183.688,79.363 158.139,113.086 177.661,122.348 197.889,95.65 		"/>
		
			<rect x="178.756" y="99.87" transform="matrix(0.6039 -0.7971 0.7971 0.6039 -14.1054 201.3258)" fill="#E09228" width="33.494" height="29.968"/>
	</g>
	<rect x="129.813" y="49.829" fill="none" width="64.889" height="32.951"/>
	<text transform="matrix(1 0 0 1 129.814 72.835)" fill="#9B7CB7" font-family="'LiberationSans-Regular'" font-size="31.7309">IRC</text>
</g>
</svg>
