<?xml version="1.0" encoding="utf-8"?>
<!-- Generator: Adobe Illustrator 15.1.0, SVG Export Plug-In . SVG Version: 6.00 Build 0)  -->
<!DOCTYPE svg PUBLIC "-//W3C//DTD SVG 1.1//EN" "http://www.w3.org/Graphics/SVG/1.1/DTD/svg11.dtd">
<svg version="1.1" id="Layer_1" xmlns="http://www.w3.org/2000/svg" xmlns:xlink="http://www.w3.org/1999/xlink" x="0px" y="0px"
	 width="308px" height="314.667px" viewBox="0 0 308 314.667" enable-background="new 0 0 308 314.667" xml:space="preserve">
<g>
	<g>
		<g id="g5241_203_">
			<path id="path35_209_" fill="#3C6EAF" d="M299.798,162.686c0-79.041-64.068-143.116-143.113-143.116
				c-78.999,0-143.05,64.022-143.104,143.018l-0.005-0.005v110.746l0.005,0.007c0.041,17.936,14.586,32.453,32.533,32.453
				c0.051,0,0.102-0.005,0.156-0.005l0.009,0.005h110.466l0,0c79.018-0.033,143.059-64.088,143.059-143.103H299.798z"/>
		</g>
		<g id="g5241_202_">
			<path id="path35_208_" fill="#294172" d="M296.798,155.686c0-79.041-64.068-143.116-143.113-143.116
				c-78.999,0-143.05,64.022-143.104,143.018l-0.005-0.005v110.746l0.005,0.007c0.041,17.936,14.586,32.453,32.533,32.453
				c0.051,0,0.102-0.005,0.156-0.005l0.009,0.005h110.466l0,0c79.018-0.033,143.059-64.088,143.059-143.103H296.798z"/>
		</g>
		<g>
			<path fill="#3C6EAF" d="M49.996,250.769c4.444,0,8.532,1.482,11.837,3.956c-3.61-4.821-9.35-7.956-15.837-7.956
				c-10.933,0-19.794,8.863-19.794,19.797c0,6.486,3.135,12.227,7.957,15.838c-2.475-3.305-3.957-7.394-3.957-11.838
				C30.202,259.632,39.063,250.769,49.996,250.769z"/>
			<path fill="#A7BFDF" d="M65.79,266.566c0-4.446-1.483-8.536-3.957-11.841c-3.305-2.474-7.393-3.956-11.837-3.956
				c-10.933,0-19.794,8.863-19.794,19.797c0,4.444,1.482,8.533,3.957,11.838c3.304,2.473,7.393,3.956,11.837,3.956
				C56.928,286.36,65.79,277.497,65.79,266.566z"/>
		</g>
		<g>
			<path fill="#3C6EAF" d="M45.49,150.497c0-53.769,33.451-99.721,80.677-118.189C72.395,44.935,32.363,93.206,32.363,150.833
				c0,59.174,42.215,108.482,98.172,119.463C81.018,253.013,45.49,205.908,45.49,150.497z"/>
			<path fill="#8AA9D4" d="M275.862,149.833c0-67.244-54.513-121.753-121.754-121.753c-9.615,0-18.969,1.119-27.941,3.227
				C78.941,49.776,45.49,95.728,45.49,149.497c0,55.411,35.528,102.517,85.045,119.8c7.628,1.497,15.507,2.289,23.573,2.289
				C221.349,271.585,275.862,217.074,275.862,149.833z"/>
		</g>
		<text transform="matrix(1 0 0 1 26.2017 281.5649)" font-family="'BaskOldFace'" font-size="57.4636">II</text>
	</g>
	<g>
		
			<image overflow="visible" opacity="0.35" width="110" height="133" xlink:href="1952EBDB.png"  transform="matrix(1 0 0 1 52.6665 73.6665)">
		</image>
		<g>
			<g>
				<g>
					<path fill="#7091CB" d="M119.249,94.462c3.596,1.41,5.367,5.467,3.958,9.062s-5.466,5.366-9.062,3.957
						c-3.594-1.409-5.366-5.466-3.957-9.061S115.655,93.053,119.249,94.462z"/>
				</g>
				<g>
					<path fill="#E4F4D8" d="M113.02,187.018l28.387-72.409l-0.755-0.296l-12.326-28.388L93.953,96.006l-0.41-0.161l-28.387,72.409
						L113.02,187.018z M122.341,92.33c3.405,1.335,5.085,5.179,3.749,8.585c-1.335,3.406-5.179,5.084-8.585,3.749
						c-3.405-1.335-5.084-5.178-3.749-8.584C115.092,92.673,118.936,90.995,122.341,92.33z"/>
				</g>
				<g>
					<path fill="#EFF7E9" d="M116.088,188.221l28.387-72.409l-0.477-0.187l-15.673-29.7L97.299,97.318l-0.075-0.029l-28.386,72.409
						L116.088,188.221z M125.688,93.642c3.406,1.335,5.085,5.18,3.75,8.585c-1.336,3.406-5.18,5.085-8.586,3.75
						c-3.405-1.335-5.084-5.178-3.749-8.584S122.282,92.307,125.688,93.642z"/>
				</g>
			</g>
		</g>
	</g>
	<g>
		
			<image overflow="visible" opacity="0.35" width="123" height="126" xlink:href="1952EBD9.png"  transform="matrix(1 0 0 1 131.6665 137.6665)">
		</image>
		<g>
			<g>
				<g>
					<path fill="#7091CB" d="M155.86,162.215c2.99-2.443,7.396-2,9.839,0.99c2.443,2.99,2,7.395-0.99,9.838
						c-2.989,2.443-7.394,2-9.837-0.989C152.428,169.064,152.872,164.659,155.86,162.215z"/>
				</g>
				<g>
					<path fill="#E4F4D8" d="M233.495,212.995l-49.215-60.223l-0.627,0.513l-30.787-3.164l-8.053,34.903l-0.342,0.279l49.215,60.224
						L233.495,212.995z M155.516,158.475c2.834-2.314,7.008-1.895,9.322,0.938c2.314,2.833,1.895,7.006-0.938,9.322
						c-2.833,2.314-7.005,1.895-9.32-0.938S152.684,160.791,155.516,158.475z"/>
				</g>
				<g>
					<path fill="#EFF7E9" d="M236.046,210.91l-49.214-60.224l-0.396,0.324l-33.57-0.889l-5.27,32.629l-0.063,0.052l49.214,60.223
						L236.046,210.91z M158.3,156.201c2.833-2.315,7.007-1.895,9.321,0.938c2.314,2.833,1.895,7.006-0.938,9.321
						c-2.833,2.314-7.006,1.896-9.32-0.938C155.047,162.689,155.467,158.516,158.3,156.201z"/>
				</g>
			</g>
		</g>
	</g>
	<g>
		
			<image overflow="visible" opacity="0.35" width="125" height="152" xlink:href="1952EBDF.png"  transform="matrix(1 0 0 1 137.6665 109.6665)">
		</image>
		<g>
			<path fill="none" stroke="#000000" stroke-width="1.2764" stroke-linecap="round" stroke-miterlimit="10" d="M161.046,166.276
				c0,0-25.012-43.859,2.326-43.123c23.084,0.622,5.735,53.925,28.417,53.777c16.563-0.107,51.873-26.05,51.873,6.153
				c0,22.354-104.998,31.329-76.386,59.94"/>
		</g>
	</g>
	<g>
		
			<image overflow="visible" opacity="0.35" width="135" height="84" xlink:href="1952EBD8.png"  transform="matrix(1 0 0 1 112.6665 42.6665)">
		</image>
		<g>
			<path fill="none" stroke="#000000" stroke-width="1.2764" stroke-linecap="round" stroke-miterlimit="10" d="M126.09,100.915
				c0,0,53.557-12.482,41.187,3.34c-15.138,19.364-41.88-63.039,29.849-45.977c12.213,2.905,39.083,17.581,29.088,32.674
				c-16.875,25.479-37.23-9.373-37.23-9.373"/>
		</g>
	</g>
	<g>
		<path d="M87.522,162.379c-0.103,0.313-0.303,0.545-0.6,0.695c-0.296,0.15-0.601,0.173-0.914,0.07
			c-0.313-0.104-0.546-0.303-0.696-0.6s-0.173-0.602-0.071-0.915l4.863-14.824c0.104-0.313,0.303-0.546,0.6-0.696
			c0.296-0.15,0.602-0.173,0.914-0.07c0.314,0.103,0.547,0.302,0.696,0.599c0.15,0.297,0.173,0.602,0.07,0.915l-2.057,6.272
			l19.385,6.358c0.313,0.103,0.546,0.304,0.695,0.599c0.15,0.297,0.174,0.602,0.071,0.916c-0.103,0.313-0.303,0.545-0.6,0.695
			c-0.296,0.15-0.602,0.174-0.915,0.07l-19.385-6.359L87.522,162.379z"/>
		<path d="M114.265,142.071c1.073,2.119,1.249,4.281,0.524,6.486c-0.723,2.204-2.119,3.831-4.188,4.877
			c-2.069,1.047-4.208,1.209-6.411,0.486c-2.205-0.723-3.831-2.118-4.878-4.189c-1.048-2.07-1.21-4.206-0.486-6.412
			c0.723-2.204,2.12-3.83,4.188-4.877c2.07-1.048,4.207-1.209,6.411-0.487l6.843,2.245c0.313,0.102,0.545,0.302,0.695,0.599
			c0.15,0.296,0.174,0.602,0.07,0.915c-0.103,0.313-0.303,0.545-0.599,0.695c-0.297,0.15-0.602,0.174-0.916,0.071L114.265,142.071z
			 M101.106,144.069c-0.518,1.578-0.402,3.104,0.346,4.581c0.746,1.477,1.908,2.474,3.486,2.991c1.577,0.518,3.104,0.402,4.58-0.345
			c1.477-0.748,2.475-1.909,2.991-3.487c0.518-1.577,0.402-3.104-0.345-4.581c-0.747-1.476-1.909-2.474-3.486-2.991
			c-1.577-0.517-3.104-0.402-4.581,0.345C102.621,141.33,101.624,142.491,101.106,144.069z"/>
		<path d="M120.25,123.826c0.013,0.024,0.025,0.05,0.039,0.075c1.047,2.07,1.209,4.207,0.485,6.41
			c-0.724,2.206-2.119,3.832-4.189,4.879c-2.069,1.047-4.206,1.209-6.411,0.486c-2.205-0.724-3.831-2.119-4.878-4.189
			s-1.209-4.207-0.485-6.411c0.723-2.205,2.118-3.831,4.188-4.879c2.07-1.046,4.207-1.208,6.411-0.485l7.982,2.619
			c1.662,0.545,2.91,1.618,3.744,3.217c1.124,2.222,1.298,4.514,0.521,6.881c-0.777,2.366-2.273,4.106-4.491,5.221
			c-0.812,0.418-1.636,0.704-2.478,0.86c-0.207,0.059-0.426,0.05-0.653-0.025c-0.314-0.102-0.546-0.302-0.696-0.599
			c-0.15-0.296-0.174-0.602-0.071-0.916c0.104-0.313,0.301-0.548,0.595-0.704c0.135-0.06,0.276-0.104,0.421-0.13
			c0.607-0.117,1.207-0.325,1.801-0.625c1.628-0.824,2.726-2.1,3.292-3.83c0.568-1.729,0.439-3.408-0.385-5.036
			c-0.662-1.061-1.445-1.737-2.348-2.034L120.25,123.826z M107.091,125.824c-0.519,1.578-0.403,3.105,0.344,4.581
			c0.747,1.478,1.91,2.474,3.486,2.991c1.579,0.518,3.105,0.402,4.582-0.344c1.477-0.748,2.473-1.91,2.99-3.487
			c0.518-1.578,0.403-3.104-0.345-4.581c-0.746-1.476-1.91-2.474-3.486-2.99c-1.577-0.518-3.104-0.403-4.58,0.344
			C108.606,123.085,107.608,124.247,107.091,125.824z"/>
	</g>
</g>
</svg>
