<?xml version="1.0" encoding="utf-8"?>
<!-- Generator: Adobe Illustrator 15.1.0, SVG Export Plug-In . SVG Version: 6.00 Build 0)  -->
<!DOCTYPE svg PUBLIC "-//W3C//DTD SVG 1.1//EN" "http://www.w3.org/Graphics/SVG/1.1/DTD/svg11.dtd">
<svg version="1.1" id="Layer_1" xmlns="http://www.w3.org/2000/svg" xmlns:xlink="http://www.w3.org/1999/xlink" x="0px" y="0px"
	 width="308px" height="314.667px" viewBox="0 0 308 314.667" enable-background="new 0 0 308 314.667" xml:space="preserve">
<g>
	<g>
		<g id="g5241_205_">
			<path id="path35_211_" fill="#3C6EAF" d="M300.798,162.686c0-79.041-64.068-143.116-143.113-143.116
				c-78.999,0-143.05,64.022-143.104,143.018l-0.005-0.005v110.746l0.005,0.007c0.041,17.936,14.586,32.453,32.533,32.453
				c0.051,0,0.102-0.005,0.156-0.005l0.009,0.005h110.466l0,0c79.018-0.033,143.059-64.088,143.059-143.103H300.798z"/>
		</g>
		<g id="g5241_204_">
			<path id="path35_210_" fill="#294172" d="M297.798,155.686c0-79.041-64.068-143.116-143.113-143.116
				c-78.999,0-143.05,64.022-143.104,143.018l-0.005-0.005v110.746l0.005,0.007c0.041,17.936,14.586,32.453,32.533,32.453
				c0.051,0,0.102-0.005,0.156-0.005l0.009,0.005h110.466l0,0c79.018-0.033,143.059-64.088,143.059-143.103H297.798z"/>
		</g>
		<g>
			<path fill="#3C6EAF" d="M50.996,250.769c4.444,0,8.532,1.482,11.837,3.956c-3.61-4.821-9.35-7.956-15.837-7.956
				c-10.933,0-19.794,8.863-19.794,19.797c0,6.486,3.135,12.227,7.957,15.838c-2.475-3.305-3.957-7.394-3.957-11.838
				C31.202,259.632,40.063,250.769,50.996,250.769z"/>
			<path fill="#A7BFDF" d="M66.79,266.566c0-4.446-1.483-8.536-3.957-11.841c-3.305-2.474-7.393-3.956-11.837-3.956
				c-10.933,0-19.794,8.863-19.794,19.797c0,4.444,1.482,8.533,3.957,11.838c3.304,2.473,7.393,3.956,11.837,3.956
				C57.928,286.36,66.79,277.497,66.79,266.566z"/>
		</g>
		<g>
			<path fill="#3C6EAF" d="M46.49,150.497c0-53.769,33.451-99.721,80.677-118.189C73.395,44.935,33.363,93.206,33.363,150.833
				c0,59.174,42.215,108.482,98.172,119.463C82.018,253.013,46.49,205.908,46.49,150.497z"/>
			<path fill="#8AA9D4" d="M276.862,149.833c0-67.244-54.513-121.753-121.754-121.753c-9.615,0-18.969,1.119-27.941,3.227
				C79.941,49.776,46.49,95.728,46.49,149.497c0,55.411,35.528,102.517,85.045,119.8c7.628,1.497,15.507,2.289,23.573,2.289
				C222.349,271.585,276.862,217.074,276.862,149.833z"/>
		</g>
		<text transform="matrix(1 0 0 1 19.7173 278.5854)" font-family="'BaskOldFace'" font-size="57.4636">IV</text>
	</g>
	<g>
		
			<image overflow="visible" opacity="0.35" width="81" height="81" xlink:href="1E701A51.png"  transform="matrix(1 0 0 1 160.6431 72.6431)">
		</image>
		<g>
			<g>
				<g opacity="0.32">
					<path fill="#7091CB" d="M198.77,138.524l20.533-37.691l3.954,2.153l-6.632-17.6l-18.037,4.161l-4.413-2.403l-20.533,37.691
						L198.77,138.524z M216.114,86.747c1.801,0.98,2.465,3.233,1.484,5.033c-0.98,1.8-3.234,2.463-5.033,1.482
						c-1.8-0.979-2.463-3.233-1.482-5.032C212.063,86.431,214.315,85.768,216.114,86.747z"/>
				</g>
				<g>
					<path fill="#E4F4D8" d="M201.528,135.955l19.963-36.645l3.238,1.765l-4.608-15.764l-18.765,3.029l-3.944-2.15l-19.965,36.645
						L201.528,135.955z M217.884,85.83c1.705,0.929,2.333,3.063,1.404,4.769c-0.929,1.704-3.063,2.334-4.768,1.404
						c-1.705-0.928-2.334-3.063-1.405-4.769C214.045,85.531,216.179,84.901,217.884,85.83z"/>
				</g>
				<g>
					<path fill="#EFF7E9" d="M202.575,136.525l19.963-36.644l3.865,2.105l-6.282-16.675l-17.089,3.941l-4.574-2.491l-19.963,36.644
						L202.575,136.525z M219.559,86.742c1.704,0.928,2.333,3.063,1.404,4.769c-0.928,1.704-3.063,2.334-4.768,1.404
						c-1.703-0.928-2.334-3.063-1.405-4.768C215.719,86.443,217.856,85.813,219.559,86.742z"/>
				</g>
			</g>
		</g>
	</g>
	<g>
		
			<image overflow="visible" opacity="0.35" width="83" height="62" xlink:href="1E701A53.png"  transform="matrix(1 0 0 1 128.6431 103.6431)">
		</image>
		<g>
			<g>
				<g opacity="0.32">
					<path fill="#7091CB" d="M196.667,121.667h-42v-2.666l-12.284,14.243l12.284,13.849v3.574h42V121.667z M144.954,133.042
						c0-2.048,1.661-3.71,3.71-3.71c2.048,0,3.71,1.662,3.71,3.71c0,2.049-1.662,3.71-3.71,3.71
						C146.615,136.752,144.954,135.091,144.954,133.042z"/>
				</g>
				<g>
					<path fill="#E4F4D8" d="M193.667,121.667h-41v-3.042l-11.637,11.587l11.637,15.028v3.427h41V121.667z M143.301,131.928
						c0-1.941,1.574-3.515,3.515-3.515c1.942,0,3.516,1.574,3.516,3.515s-1.573,3.515-3.516,3.515
						C144.875,135.442,143.301,133.869,143.301,131.928z"/>
				</g>
				<g>
					<path fill="#EFF7E9" d="M193.667,119.667h-41v-2.949l-11.637,13.494l11.637,13.121v4.334h41V119.667z M143.301,130.021
						c0-1.941,1.574-3.515,3.515-3.515c1.942,0,3.516,1.574,3.516,3.515c0,1.94-1.573,3.515-3.516,3.515
						C144.875,133.536,143.301,131.961,143.301,130.021z"/>
				</g>
			</g>
		</g>
	</g>
	<g>
		
			<image overflow="visible" opacity="0.35" width="83" height="61" xlink:href="1E701A56.png"  transform="matrix(1 0 0 1 131.6431 80.6431)">
		</image>
		<g>
			<g>
				<g opacity="0.32">
					<path fill="#7091CB" d="M199.667,97.667h-42v-2.518l-12.283,14.244l12.283,13.849v3.425h42V97.667z M147.868,109.191
						c0-2.049,1.662-3.711,3.711-3.711s3.709,1.662,3.709,3.711c0,2.047-1.66,3.709-3.709,3.709S147.868,111.238,147.868,109.191z"
						/>
				</g>
				<g>
					<path fill="#E4F4D8" d="M196.667,96.667h-41v-1.894l-11.638,11.587l11.638,15.028v2.279h41V96.667z M146.216,108.076
						c0-1.943,1.573-3.516,3.515-3.516s3.516,1.573,3.516,3.516c0,1.94-1.574,3.514-3.516,3.514S146.216,110.017,146.216,108.076z"
						/>
				</g>
				<g>
					<path fill="#EFF7E9" d="M196.667,95.667h-41v-2.801l-11.638,13.495l11.638,13.121v2.186h41V95.667z M146.216,106.168
						c0-1.941,1.573-3.515,3.515-3.515s3.516,1.574,3.516,3.515s-1.574,3.515-3.516,3.515S146.216,108.109,146.216,106.168z"/>
				</g>
			</g>
		</g>
	</g>
	<g>
		
			<image overflow="visible" opacity="0.35" width="86" height="63" xlink:href="1E701A57.png"  transform="matrix(1 0 0 1 174.6431 136.6431)">
		</image>
		<g>
			<g>
				<g opacity="0.32">
					<path fill="#7091CB" d="M189.748,181.595l43.259-3.646l0.158,1.891l11.045-15.225l-13.402-12.769l-0.207-2.448l-43.259,3.645
						L189.748,181.595z M239.509,165.214c0.172,2.042-1.345,3.837-3.385,4.009c-2.043,0.172-3.838-1.344-4.009-3.385
						c-0.172-2.042,1.344-3.838,3.385-4.01C237.542,161.658,239.338,163.174,239.509,165.214z"/>
				</g>
				<g>
					<path fill="#E4F4D8" d="M193.281,182.168l41.528-3.5l0.118,1.402l10.622-12.525l-12.856-13.997l-0.144-1.7l-41.529,3.499
						L193.281,182.168z M241.249,166.186c0.163,1.936-1.272,3.636-3.207,3.799c-1.934,0.162-3.635-1.273-3.797-3.209
						c-0.164-1.934,1.272-3.633,3.207-3.797C239.385,162.817,241.086,164.252,241.249,166.186z"/>
				</g>
				<g>
					<path fill="#EFF7E9" d="M193.427,183.899l41.528-3.5l0.131,1.572l10.463-14.426l-12.697-12.097l-0.229-2.735l-41.529,3.5
						L193.427,183.899z M241.409,168.086c0.164,1.935-1.273,3.636-3.207,3.798c-1.934,0.163-3.635-1.272-3.797-3.207
						c-0.164-1.934,1.272-3.634,3.207-3.797C239.545,164.717,241.247,166.153,241.409,168.086z"/>
				</g>
			</g>
		</g>
	</g>
	<g>
		
			<image overflow="visible" opacity="0.35" width="75" height="86" xlink:href="1E701A52.png"  transform="matrix(1 0 0 1 95.6431 115.6431)">
		</image>
		<g>
			<g>
				<g opacity="0.32">
					<path fill="#7091CB" d="M154.717,171.133L132.352,134.5l-0.184,0.111l-18.557-3.063l-5.42,17.701l-0.263,0.16l22.366,36.634
						L154.717,171.133z M116.143,135.308c1.75-1.068,4.033-0.516,5.101,1.233c1.068,1.749,0.515,4.032-1.234,5.101
						c-1.747,1.066-4.03,0.515-5.099-1.234C113.842,138.66,114.395,136.375,116.143,135.308z"/>
				</g>
				<g>
					<path fill="#E4F4D8" d="M153.871,167.459l-21.743-35.616l-0.879,0.536l-15.955-3.894l-6.762,17.762l0.189-0.116l21.744,35.617
						L153.871,167.459z M116.235,133.317c1.656-1.012,3.819-0.488,4.83,1.168c1.013,1.657,0.489,3.82-1.168,4.833
						c-1.656,1.01-3.819,0.488-4.832-1.17C114.055,136.492,114.579,134.329,116.235,133.317z"/>
				</g>
				<g>
					<path fill="#EFF7E9" d="M154.889,166.838l-21.744-35.617l-0.27,0.163l-17.582-2.899l-5.133,16.768l-0.422,0.257l21.744,35.617
						L154.889,166.838z M117.862,132.324c1.656-1.012,3.82-0.489,4.832,1.168s0.487,3.82-1.169,4.833
						c-1.656,1.011-3.819,0.488-4.831-1.169C115.682,135.498,116.207,133.334,117.862,132.324z"/>
				</g>
			</g>
		</g>
	</g>
	<g>
		
			<image overflow="visible" opacity="0.35" width="83" height="59" xlink:href="1E701A5D.png"  transform="matrix(1 0 0 1 67.6431 140.6431)">
		</image>
		<g>
			<g>
				<g opacity="0.32">
					<path fill="#7091CB" d="M135.667,156.667h-42v-0.762l-12.283,14.243l12.283,13.849v-0.33h42V156.667z M85.578,169.946
						c0-2.049,1.661-3.711,3.71-3.711c2.05,0,3.71,1.662,3.71,3.711s-1.66,3.71-3.71,3.71
						C87.239,173.656,85.578,171.995,85.578,169.946z"/>
				</g>
				<g>
					<path fill="#E4F4D8" d="M132.667,153.667h-41v1.862L80.03,167.115l11.637,15.028v-0.477h41V153.667z M83.926,168.832
						c0-1.942,1.572-3.516,3.514-3.516s3.516,1.573,3.516,3.516c0,1.941-1.574,3.515-3.516,3.515S83.926,170.773,83.926,168.832z"/>
				</g>
				<g>
					<path fill="#EFF7E9" d="M132.667,153.667h-41v-0.045L80.03,167.115l11.637,13.122v0.43h41V153.667z M83.926,166.924
						c0-1.941,1.572-3.515,3.514-3.515s3.516,1.573,3.516,3.515c0,1.94-1.574,3.515-3.516,3.515S83.926,168.865,83.926,166.924z"/>
				</g>
			</g>
		</g>
	</g>
	<g>
		
			<image overflow="visible" opacity="0.35" width="85" height="59" xlink:href="1E701A5E.png"  transform="matrix(1 0 0 1 113.6431 138.6431)">
		</image>
		<g>
			<g>
				<g opacity="0.32">
					<path fill="#7091CB" d="M183.667,153.667h-44v-0.015l-12.283,14.244l12.283,13.849v0.922h44V153.667z M132.045,167.694
						c0-2.049,1.662-3.711,3.711-3.711s3.71,1.662,3.71,3.711s-1.661,3.709-3.71,3.709S132.045,169.743,132.045,167.694z"/>
				</g>
				<g>
					<path fill="#E4F4D8" d="M178.667,153.667h-41v-0.391l-11.637,11.588l11.637,15.027v0.775h41V153.667z M130.394,166.58
						c0-1.942,1.573-3.515,3.515-3.515s3.516,1.572,3.516,3.515c0,1.94-1.574,3.515-3.516,3.515S130.394,168.52,130.394,166.58z"/>
				</g>
				<g>
					<path fill="#EFF7E9" d="M178.667,151.667h-41v-0.298l-11.637,13.495l11.637,13.12v1.683h41V151.667z M130.394,164.672
						c0-1.941,1.573-3.516,3.515-3.516s3.516,1.574,3.516,3.516c0,1.939-1.574,3.514-3.516,3.514S130.394,166.612,130.394,164.672z"
						/>
				</g>
			</g>
		</g>
	</g>
	<g>
		
			<image overflow="visible" opacity="0.35" width="83" height="78" xlink:href="1E701A5F.png"  transform="matrix(1 0 0 1 149.6431 129.6431)">
		</image>
		<g>
			<g>
				<g opacity="0.32">
					<path fill="#7091CB" d="M180.868,192.438l32.076-28.521l1.09,1.226l-0.285-18.806l-18.381-2.188l-1.438-1.616l-32.076,28.521
						L180.868,192.438z M211.342,148.747c1.361,1.53,1.225,3.876-0.308,5.238c-1.531,1.361-3.876,1.224-5.237-0.308
						c-1.361-1.53-1.224-3.875,0.308-5.237C207.635,147.078,209.981,147.215,211.342,148.747z"/>
				</g>
				<g>
					<path fill="#E4F4D8" d="M184.333,190.952l31.187-27.729l0.548,0.617l0.996-16.393l-18.682-3.498l-1.084-1.219l-31.186,27.727
						L184.333,190.952z M213.317,148.481c1.291,1.451,1.16,3.672-0.291,4.962c-1.451,1.29-3.672,1.159-4.962-0.292
						s-1.159-3.671,0.292-4.962C209.807,146.901,212.028,147.031,213.317,148.481z"/>
				</g>
				<g>
					<path fill="#EFF7E9" d="M185.125,191.842l31.186-27.729l1.022,1.15l-0.271-17.817l-17.415-2.073l-1.559-1.753l-31.185,27.728
						L185.125,191.842z M214.585,149.906c1.289,1.45,1.159,3.673-0.292,4.963c-1.45,1.29-3.672,1.161-4.963-0.291
						c-1.289-1.45-1.158-3.673,0.291-4.963C211.073,148.326,213.295,148.457,214.585,149.906z"/>
				</g>
			</g>
		</g>
	</g>
	<g>
		
			<image overflow="visible" opacity="0.35" width="61" height="85" xlink:href="1E701A54.png"  transform="matrix(1 0 0 1 105.6431 118.6431)">
		</image>
		<g>
			<g>
				<g opacity="0.32">
					<path fill="#7091CB" d="M148.525,187.432l-1.658-42.891l2.257-0.087l-14.707-11.724l-13.365,12.809l-2.777,0.107l1.657,42.892
						L148.525,187.432z M134.735,135.773c2.048-0.079,3.771,1.516,3.851,3.564s-1.517,3.771-3.563,3.852
						c-2.047,0.079-3.771-1.517-3.85-3.565C131.092,137.577,132.689,135.852,134.735,135.773z"/>
				</g>
				<g>
					<path fill="#E4F4D8" d="M149.578,183.811l-1.612-41.698l1.441-0.057l-12.027-11.18l-14.567,12.208l-2.247,0.087l1.61,41.698
						L149.578,183.811z M135.786,134.079c1.939-0.075,3.573,1.438,3.648,3.376c0.074,1.94-1.438,3.574-3.377,3.648
						c-1.939,0.076-3.573-1.437-3.648-3.376C132.334,135.787,133.846,134.153,135.786,134.079z"/>
				</g>
				<g>
					<path fill="#EFF7E9" d="M150.77,183.766l-1.613-41.7l2.156-0.082l-13.934-11.107l-12.662,12.134l-2.962,0.115l1.612,41.698
						L150.77,183.766z M137.69,134.005c1.941-0.075,3.574,1.437,3.649,3.376s-1.437,3.574-3.377,3.649
						c-1.938,0.074-3.571-1.438-3.648-3.378C134.239,135.714,135.752,134.08,137.69,134.005z"/>
				</g>
			</g>
		</g>
	</g>
	<g>
		
			<image overflow="visible" opacity="0.35" width="76" height="87" xlink:href="6633CDCA.png"  transform="matrix(1 0 0 1 106.6431 62.6431)">
		</image>
		<g>
			<g>
				<g opacity="0.32">
					<path fill="#7091CB" d="M166.733,118.92L143.547,82.8l2.529-1.624l-18.621-2.643l-5.02,17.818l-2.969,1.905l23.186,36.121
						L166.733,118.92z M128.743,80.167c1.725-1.107,4.021-0.607,5.127,1.118c1.107,1.725,0.606,4.02-1.118,5.127
						c-1.724,1.105-4.02,0.605-5.126-1.119C126.518,83.569,127.02,81.273,128.743,80.167z"/>
				</g>
				<g>
					<path fill="#E4F4D8" d="M165.804,115.268l-22.542-35.118l1.844-1.183l-16.038-3.534l-6.36,17.912l-2.521,1.619l22.541,35.117
						L165.804,115.268z M128.789,78.173c1.634-1.048,3.81-0.574,4.856,1.06c1.049,1.635,0.575,3.809-1.059,4.857
						c-1.633,1.049-3.809,0.574-4.855-1.059C126.681,81.397,127.156,79.223,128.789,78.173z"/>
				</g>
				<g>
					<path fill="#EFF7E9" d="M166.808,114.623l-22.542-35.117l2.443-1.57l-17.642-2.502l-4.755,16.88l-3.124,2.006l22.541,35.116
						L166.808,114.623z M130.394,77.144c1.634-1.048,3.808-0.574,4.856,1.059c1.049,1.634,0.574,3.809-1.06,4.857
						c-1.632,1.049-3.808,0.575-4.856-1.06C128.287,80.367,128.76,78.192,130.394,77.144z"/>
				</g>
			</g>
		</g>
	</g>
	<g>
		
			<image overflow="visible" opacity="0.35" width="84" height="77" xlink:href="6633CDCD.png"  transform="matrix(1 0 0 1 65.6431 94.6431)">
		</image>
		<g>
			<g>
				<g opacity="0.32">
					<path fill="#7091CB" d="M117.749,107.463L83.274,133.03l-0.223-0.299l-1.382,18.757l18.115,3.808l0.533,0.718l34.476-25.567
						L117.749,107.463z M85.338,148.516c-1.221-1.646-0.875-3.97,0.77-5.19c1.646-1.221,3.97-0.876,5.19,0.77
						c1.221,1.645,0.876,3.969-0.77,5.189C88.882,150.506,86.559,150.162,85.338,148.516z"/>
				</g>
				<g>
					<path fill="#E4F4D8" d="M114.166,108.636l-33.517,24.857l0.264,0.355l-2.445,16.239l18.299,5.139l0.217,0.292l33.518-24.856
						L114.166,108.636z M83.347,148.605c-1.156-1.559-0.829-3.76,0.729-4.917c1.56-1.157,3.761-0.831,4.918,0.729
						c1.155,1.559,0.828,3.76-0.73,4.917S84.503,150.164,83.347,148.605z"/>
				</g>
				<g>
					<path fill="#EFF7E9" d="M113.457,107.678l-33.52,24.857l-0.161-0.218l-1.309,17.771l17.162,3.607l0.643,0.866l33.52-24.856
						L113.457,107.678z M82.211,147.073c-1.156-1.56-0.829-3.761,0.73-4.917c1.559-1.156,3.76-0.83,4.916,0.73
						c1.156,1.558,0.83,3.76-0.729,4.917C85.57,148.958,83.368,148.632,82.211,147.073z"/>
				</g>
			</g>
		</g>
	</g>
	<g>
		
			<image overflow="visible" opacity="0.35" width="84" height="76" xlink:href="6633CDCE.png"  transform="matrix(1 0 0 1 105.6431 92.6431)">
		</image>
		<g>
			<g>
				<g opacity="0.32">
					<path fill="#7091CB" d="M174.296,127.95l-38.456-19.063l0.435-0.876l-17.331,7.307l4.854,17.863l-0.665,1.344l38.455,19.063
						L174.296,127.95z M123.196,117.2c0.91-1.836,3.137-2.587,4.973-1.676c1.836,0.91,2.586,3.136,1.676,4.971
						c-0.91,1.836-3.136,2.587-4.972,1.676C123.038,121.261,122.287,119.034,123.196,117.2z"/>
				</g>
				<g>
					<path fill="#E4F4D8" d="M171.622,125.292l-37.389-18.533l0.072-0.146l-15.572,5.214l3.752,18.632l-0.43,0.868l37.389,18.534
						L171.622,125.292z M122.21,115.468c0.862-1.741,2.972-2.451,4.711-1.59c1.739,0.863,2.45,2.971,1.589,4.711
						c-0.862,1.739-2.972,2.449-4.711,1.587C122.061,119.314,121.348,117.206,122.21,115.468z"/>
				</g>
				<g>
					<path fill="#EFF7E9" d="M172.151,124.225l-37.388-18.534l0.389-0.786l-16.419,6.923l4.6,16.924l-0.748,1.507l37.389,18.533
						L172.151,124.225z M123.058,113.759c0.862-1.74,2.971-2.451,4.71-1.589c1.739,0.862,2.45,2.971,1.588,4.71
						c-0.861,1.739-2.971,2.451-4.709,1.587C122.907,117.606,122.196,115.497,123.058,113.759z"/>
				</g>
			</g>
		</g>
	</g>
	<g>
		
			<image overflow="visible" opacity="0.35" width="78" height="84" xlink:href="6633CDCC.png"  transform="matrix(1 0 0 1 166.6431 95.6431)">
		</image>
		<g>
			<g>
				<g opacity="0.32">
					<path fill="#7091CB" d="M229.633,143.915l-30.025-30.672l1.445-1.414l-18.771,1.186l-1.305,18.465l-1.816,1.778l30.024,30.672
						L229.633,143.915z M184.763,115.261c1.465-1.433,3.814-1.407,5.248,0.057c1.434,1.464,1.407,3.813-0.058,5.247
						c-1.464,1.433-3.813,1.408-5.246-0.056C183.274,119.043,183.299,116.695,184.763,115.261z"/>
				</g>
				<g>
					<path fill="#E4F4D8" d="M227.984,140.525l-29.19-29.821l0.861-0.842l-16.422-0.212l-2.6,18.829l-1.438,1.408l29.191,29.82
						L227.984,140.525z M184.405,113.3c1.387-1.358,3.612-1.333,4.97,0.054c1.358,1.388,1.335,3.613-0.052,4.971
						c-1.389,1.357-3.613,1.333-4.972-0.054C182.995,116.884,183.017,114.659,184.405,113.3z"/>
				</g>
				<g>
					<path fill="#EFF7E9" d="M228.835,139.69l-29.19-29.82l1.371-1.343l-17.783,1.122l-1.236,17.496l-1.947,1.907l29.189,29.821
						L228.835,139.69z M185.768,111.967c1.387-1.358,3.612-1.334,4.971,0.053c1.357,1.387,1.334,3.614-0.055,4.971
						c-1.387,1.357-3.611,1.334-4.971-0.053C184.356,115.55,184.381,113.324,185.768,111.967z"/>
				</g>
			</g>
		</g>
	</g>
	<g>
		
			<image overflow="visible" opacity="0.35" width="84" height="79" xlink:href="6633CDCB.png"  transform="matrix(1 0 0 1 129.6431 48.6431)">
		</image>
		<g>
			<g>
				<g opacity="0.32">
					<path fill="#7091CB" d="M162.479,111.908l30.848-29.845l1.839,1.902l-1.075-18.778l-18.458-1.412l-2.203-2.277l-30.847,29.845
						L162.479,111.908z M191.873,67.613c1.425,1.472,1.386,3.821-0.085,5.246c-1.475,1.424-3.822,1.385-5.248-0.086
						c-1.424-1.473-1.385-3.822,0.088-5.247S190.45,66.141,191.873,67.613z"/>
				</g>
				<g>
					<path fill="#E4F4D8" d="M165.877,110.278l29.992-29.016l1.271,1.316l0.308-16.42l-18.813-2.709l-1.834-1.896L146.809,90.57
						L165.877,110.278z M193.834,67.265c1.351,1.395,1.314,3.62-0.08,4.97c-1.396,1.351-3.621,1.313-4.971-0.082
						s-1.313-3.62,0.082-4.97C190.26,65.834,192.486,65.87,193.834,67.265z"/>
				</g>
				<g>
					<path fill="#EFF7E9" d="M166.707,111.134l29.991-29.015l1.769,1.829l-1.018-17.79l-17.487-1.338l-2.331-2.409l-29.991,29.017
						L166.707,111.134z M195.161,68.635c1.351,1.396,1.313,3.621-0.082,4.971c-1.395,1.35-3.62,1.313-4.97-0.083
						c-1.35-1.394-1.313-3.618,0.082-4.97C191.586,67.204,193.812,67.241,195.161,68.635z"/>
				</g>
			</g>
		</g>
	</g>
	<g>
		
			<image overflow="visible" opacity="0.35" width="81" height="81" xlink:href="6633CDD5.png"  transform="matrix(1 0 0 1 164.6431 70.6431)">
		</image>
		<g>
			<g>
				<g opacity="0.32">
					<path fill="#7091CB" d="M230.176,111.039l-37.582-20.734l2.174-3.941l-17.635,6.538l4.065,18.06l-2.427,4.4l37.582,20.733
						L230.176,111.039z M178.49,93.42c0.991-1.794,3.247-2.446,5.041-1.457c1.795,0.99,2.446,3.248,1.456,5.042
						c-0.988,1.792-3.246,2.445-5.041,1.456C178.153,97.47,177.5,95.213,178.49,93.42z"/>
				</g>
				<g>
					<path fill="#E4F4D8" d="M227.62,108.268L191.082,88.11l1.781-3.228l-15.786,4.524l2.93,18.779l-2.172,3.934l36.538,20.158
						L227.62,108.268z M177.583,91.646c0.938-1.7,3.076-2.318,4.775-1.379c1.699,0.938,2.317,3.075,1.38,4.776
						c-0.938,1.699-3.076,2.316-4.776,1.378C177.262,95.483,176.645,93.345,177.583,91.646z"/>
				</g>
				<g>
					<path fill="#EFF7E9" d="M228.196,107.223l-36.537-20.157l2.125-3.854l-16.707,6.195l3.85,17.11l-2.516,4.559l36.539,20.158
						L228.196,107.223z M178.503,89.976c0.938-1.7,3.075-2.316,4.776-1.38c1.699,0.938,2.317,3.075,1.379,4.776
						c-0.938,1.7-3.076,2.317-4.775,1.379C178.184,93.813,177.565,91.675,178.503,89.976z"/>
				</g>
			</g>
		</g>
	</g>
	<g>
		
			<image overflow="visible" opacity="0.35" width="84" height="61" xlink:href="6633CDD6.png"  transform="matrix(1 0 0 1 120.6431 65.6431)">
		</image>
		<g>
			<g>
				<g opacity="0.32">
					<path fill="#7091CB" d="M189.667,81.667h-43v-1.431l-12.283,14.243l12.283,13.849v3.339h43V81.667z M138.653,94.277
						c0-2.049,1.662-3.71,3.711-3.71s3.71,1.661,3.71,3.71c0,2.048-1.661,3.709-3.71,3.709S138.653,96.326,138.653,94.277z"/>
				</g>
				<g>
					<path fill="#E4F4D8" d="M186.667,81.667h-42v-1.807L133.03,91.446l11.637,15.028v3.193h42V81.667z M137.001,93.163
						c0-1.942,1.574-3.516,3.515-3.516c1.942,0,3.516,1.574,3.516,3.516c0,1.94-1.573,3.515-3.516,3.515
						C138.576,96.677,137.001,95.103,137.001,93.163z"/>
				</g>
				<g>
					<path fill="#EFF7E9" d="M186.667,79.667h-42v-1.714L133.03,91.446l11.637,13.121v4.1h42V79.667z M137.001,91.255
						c0-1.942,1.574-3.515,3.515-3.515c1.942,0,3.516,1.573,3.516,3.515c0,1.94-1.573,3.515-3.516,3.515
						C138.576,94.77,137.001,93.196,137.001,91.255z"/>
				</g>
			</g>
		</g>
	</g>
	<path fill="none" stroke="#000000" stroke-width="0.8682" stroke-linecap="round" stroke-miterlimit="10" d="M87.44,170.439
		c0,0,2.096,29.166-8.973,18.099c-11.068-11.068-10.803-17.803-21.954-18.668c-25.312-1.965-21.935-28.281-4.894-26.249"/>
	<path fill="none" stroke="#000000" stroke-width="0.8682" stroke-linecap="round" stroke-miterlimit="10" d="M87.128,147.802
		c0,0-33.893,6.35-20.583,12.832c13.31,6.481,15.139,14.097,8.742,20.494S68.7,183.92,56.1,184.871
		c-15.563,1.173-7.61,28.796,10.445,23.573c7.65-2.213,21.053,5.647,21.053,5.647"/>
	<path fill="none" stroke="#000000" stroke-width="0.8682" stroke-linecap="round" stroke-miterlimit="10" d="M238.202,171.884
		c0,0,23.69-17.659,23.69,0.944c0,15.709-31.558,7.96-16.343,25.189c5.063,5.733,2.967,15.648-10.751,15.648
		s-6.668-21.229-20.765-21.229"/>
	<path fill="none" stroke="#000000" stroke-width="0.8682" stroke-linecap="round" stroke-miterlimit="10" d="M218.334,89.782
		c0,0,15.983-15.671,15.983-4.864s-10.778,37.827,0,32.209c27.574-14.371,44.265,31.666,24.69,31.666
		c-14.67,0-16.082-22.126-16.435-2.527"/>
	<path fill="none" stroke="#000000" stroke-linecap="round" stroke-miterlimit="10" d="M195.667,73.167c0,0,19.984-12,19.984,0
		c0,14,0.307,14.885-7.66,22.854c-7.968,7.967,1.104,18.014,6.043,22.953s-2.946,27.605-11.033,17.481"/>
	<path fill="none" stroke="#000000" stroke-width="0.8682" stroke-linecap="round" stroke-miterlimit="10" d="M144.032,91.255
		c0,0,19.027,0.416,19.027,11.179c0,10.762-18.184,21.989-7.381,27.646c10.803,5.657,32.771,12.799,27.849,17.722"/>
	<path fill="none" stroke="#000000" stroke-width="0.8682" stroke-linecap="round" stroke-miterlimit="10" d="M123.058,113.759
		c0,0-13.385,20.754,3.683,26.034c17.066,5.28,22.317,22.058,13.023,19.004c-9.293-3.054-19.605,17.665-11.115,19.976"/>
	<path fill="none" stroke="#000000" stroke-width="0.8682" stroke-linecap="round" stroke-miterlimit="10" d="M129.334,82
		c0,0-19.596-19.324-19.596-3.466c0,15.858,6.157,25.146-3.227,25.146s-22.216,17.091-18.914,20.393"/>
</g>
</svg>
