<?xml version="1.0" encoding="utf-8"?>
<!-- Generator: Adobe Illustrator 15.1.0, SVG Export Plug-In . SVG Version: 6.00 Build 0)  -->
<!DOCTYPE svg PUBLIC "-//W3C//DTD SVG 1.1//EN" "http://www.w3.org/Graphics/SVG/1.1/DTD/svg11.dtd">
<svg version="1.1" id="Layer_1" xmlns="http://www.w3.org/2000/svg" xmlns:xlink="http://www.w3.org/1999/xlink" x="0px" y="0px"
	 width="302.164px" height="313.394px" viewBox="0 0 302.164 313.394" enable-background="new 0 0 302.164 313.394"
	 xml:space="preserve">
<g>
	<g id="g5241_171_">
		<path id="path35_177_" fill="#3C6EAF" d="M297.137,160.504c0-79.041-64.068-143.116-143.113-143.116
			c-78.999,0-143.05,64.022-143.104,143.018l-0.005-0.005v110.746l0.005,0.007c0.041,17.936,14.586,32.453,32.533,32.453
			c0.051,0,0.102-0.005,0.156-0.005l0.009,0.005h110.466l0,0c79.018-0.033,143.059-64.088,143.059-143.103H297.137z"/>
	</g>
	<g id="g5241_170_">
		<path id="path35_176_" fill="#294172" d="M294.137,153.504c0-79.041-64.068-143.116-143.113-143.116
			c-78.999,0-143.05,64.022-143.104,143.018L7.914,153.4v110.746l0.005,0.007c0.041,17.936,14.586,32.453,32.533,32.453
			c0.051,0,0.102-0.005,0.156-0.005l0.009,0.005h110.466l0,0c79.018-0.033,143.059-64.088,143.059-143.103H294.137z"/>
	</g>
	<g>
		<path fill="#3C6EAF" d="M47.334,248.587c4.444,0,8.532,1.482,11.837,3.956c-3.61-4.821-9.35-7.956-15.837-7.956
			c-10.933,0-19.794,8.863-19.794,19.797c0,6.486,3.135,12.227,7.957,15.838c-2.475-3.305-3.957-7.394-3.957-11.838
			C27.54,257.45,36.401,248.587,47.334,248.587z"/>
		<path fill="#A7BFDF" d="M63.128,264.384c0-4.446-1.483-8.536-3.957-11.841c-3.305-2.474-7.393-3.956-11.837-3.956
			c-10.933,0-19.794,8.863-19.794,19.797c0,4.444,1.482,8.533,3.957,11.838c3.304,2.473,7.393,3.956,11.837,3.956
			C54.267,284.178,63.128,275.314,63.128,264.384z"/>
	</g>
	<g>
		<path fill="#3C6EAF" d="M42.828,148.314c0-53.769,33.451-99.721,80.677-118.189C69.733,42.753,29.701,91.023,29.701,148.651
			c0,59.174,42.215,108.482,98.172,119.463C78.356,250.831,42.828,203.726,42.828,148.314z"/>
		<path fill="#8AA9D4" d="M273.2,147.651c0-67.244-54.513-121.753-121.754-121.753c-9.615,0-18.969,1.119-27.941,3.227
			C76.279,47.594,42.828,93.546,42.828,147.314c0,55.411,35.528,102.517,85.045,119.8c7.628,1.497,15.507,2.289,23.573,2.289
			C218.688,269.403,273.2,214.892,273.2,147.651z"/>
	</g>
	<text transform="matrix(1 0 0 1 34.0557 275.4033)" fill="#79D632" font-family="'BaskOldFace'" font-size="57.4636">I</text>
</g>
<path fill="none" stroke="#7091CB" stroke-width="5" stroke-miterlimit="10" d="M87.567,163.659c0,0-39.537-8.163-9.127-29.175
	c14.772-10.207,22.626-12.521,16.97-27.232c-1.33-3.458-9.525-25.634,18.039-25.634c6.528,0,34.2,47.59,62.559,39.26
	s41.471-32.105,41.471-32.105"/>
<g>
	<path fill="#7091CB" d="M245.005,137.484h-124v-1.064l-35.12,40.727l35.12,39.598v1.74h124V137.484z M100.156,176.568
		c0-5.858,4.75-10.607,10.608-10.607s10.607,4.749,10.607,10.607c0,5.857-4.749,10.607-10.607,10.607
		S100.156,182.426,100.156,176.568z"/>
</g>
<g>
	<path fill="#E4F4D8" d="M234.005,134.484h-118v0.859l-33.274,33.131l33.274,42.971v1.039h118V134.484z M95.432,173.382
		c0-5.551,4.5-10.051,10.05-10.051c5.551,0,10.05,4.5,10.05,10.051c0,5.55-4.499,10.05-10.05,10.05
		C99.932,183.432,95.432,178.932,95.432,173.382z"/>
</g>
<g>
	<path fill="#EFF7E9" d="M234.005,129.484h-118v0.406l-33.274,38.584l33.274,37.516v0.494h118V129.484z M95.432,167.928
		c0-5.551,4.5-10.051,10.05-10.051c5.551,0,10.05,4.5,10.05,10.051c0,5.55-4.499,10.05-10.05,10.05
		C99.932,177.978,95.432,173.478,95.432,167.928z"/>
</g>
<g>
	<path fill="#294172" d="M139.005,153.701c0-0.604,0.212-1.117,0.638-1.543c0.424-0.426,0.939-0.639,1.543-0.639
		s1.118,0.213,1.543,0.639s0.639,0.939,0.639,1.543v26.385h15.27c0.604,0,1.118,0.213,1.544,0.638
		c0.425,0.426,0.638,0.94,0.638,1.544s-0.213,1.118-0.638,1.543c-0.426,0.426-0.94,0.639-1.544,0.639h-17.452
		c-0.315,0-0.604-0.055-0.864-0.164c-0.261-0.11-0.491-0.266-0.689-0.465c-0.2-0.197-0.354-0.428-0.463-0.688
		s-0.164-0.549-0.164-0.864V153.701z"/>
	<path fill="#294172" d="M192.473,167.984c0,4.541-1.612,8.424-4.837,11.648c-3.211,3.211-7.088,4.816-11.628,4.816
		c-4.556,0-8.438-1.605-11.648-4.816s-4.816-7.094-4.816-11.648c0-4.541,1.606-8.418,4.816-11.628
		c3.224-3.224,7.106-4.837,11.648-4.837c4.527,0,8.404,1.613,11.628,4.837c1.619,1.619,2.83,3.39,3.633,5.31
		C192.071,163.588,192.473,165.693,192.473,167.984z M176.008,155.883c-1.702,0-3.256,0.295-4.661,0.885
		c-1.407,0.59-2.707,1.482-3.9,2.676s-2.082,2.49-2.666,3.89c-0.583,1.399-0.875,2.95-0.875,4.651c0,3.348,1.182,6.201,3.541,8.562
		s5.213,3.54,8.562,3.54c3.347,0,6.201-1.18,8.562-3.54c2.359-2.36,3.54-5.214,3.54-8.562c0-3.334-1.181-6.181-3.54-8.541
		C182.194,157.07,179.342,155.883,176.008,155.883z"/>
	<path fill="#294172" d="M195.663,153.701c0-0.604,0.211-1.117,0.637-1.543s0.939-0.639,1.543-0.639
		c0.605,0,1.119,0.213,1.545,0.639c0.425,0.426,0.639,0.939,0.639,1.543v26.385h15.27c0.604,0,1.118,0.213,1.544,0.638
		c0.425,0.426,0.639,0.94,0.639,1.544s-0.214,1.118-0.639,1.543c-0.426,0.426-0.94,0.639-1.544,0.639h-17.453
		c-0.314,0-0.604-0.055-0.863-0.164c-0.261-0.11-0.49-0.266-0.689-0.465c-0.199-0.197-0.354-0.428-0.463-0.688
		c-0.11-0.261-0.164-0.549-0.164-0.864V153.701z"/>
</g>
<g>
	<path fill="none" stroke="#294172" stroke-width="2" stroke-linecap="round" stroke-miterlimit="10" d="M204.571,79.78
		c-28.299,51.476-64.542,23.637-75.047-5.779c-11.587-32.446-64.607-9.453-45.793,27.816c13.461,26.666-21.44,26.667-31.56,40.68
		c-16.617,23.009,21.158,34.187,34.478,36.197c23.968,3.618,10.167-9.04,10.167-9.04"/>
	<path fill="none" stroke="#294172" stroke-width="2" stroke-linecap="round" stroke-miterlimit="10" d="M71.787,171.727
		c0,0-0.387,3.398,2.131,0.881c2.518-2.519,2.241-1.964,2.241,0.929c0,8.225,0.634,6.401,3.551,1.515c0,0,1.917-4.887,5.406-4.887"
		/>
</g>
</svg>
