<?xml version="1.0" encoding="utf-8"?>
<!-- Generator: Adobe Illustrator 15.1.0, SVG Export Plug-In . SVG Version: 6.00 Build 0)  -->
<!DOCTYPE svg PUBLIC "-//W3C//DTD SVG 1.1//EN" "http://www.w3.org/Graphics/SVG/1.1/DTD/svg11.dtd">
<svg version="1.1" id="Layer_1" xmlns="http://www.w3.org/2000/svg" xmlns:xlink="http://www.w3.org/1999/xlink" x="0px" y="0px"
	 width="308px" height="314.667px" viewBox="0 0 308 314.667" enable-background="new 0 0 308 314.667" xml:space="preserve">
<g>
	<g>
		<g id="g5241_207_">
			<path id="path35_213_" fill="#3C6EAF" d="M298.798,162.686c0-79.041-64.068-143.116-143.113-143.116
				c-78.999,0-143.05,64.022-143.104,143.018l-0.005-0.005v110.746l0.005,0.007c0.041,17.936,14.586,32.453,32.533,32.453
				c0.051,0,0.102-0.005,0.156-0.005l0.009,0.005h110.466l0,0c79.018-0.033,143.059-64.088,143.059-143.103H298.798z"/>
		</g>
		<g id="g5241_206_">
			<path id="path35_212_" fill="#294172" d="M295.798,155.686c0-79.041-64.068-143.116-143.113-143.116
				c-78.999,0-143.05,64.022-143.104,143.018l-0.005-0.005v110.746l0.005,0.007c0.041,17.936,14.586,32.453,32.533,32.453
				c0.051,0,0.102-0.005,0.156-0.005l0.009,0.005h110.466l0,0c79.018-0.033,143.059-64.088,143.059-143.103H295.798z"/>
		</g>
		<g>
			<path fill="#3C6EAF" d="M48.996,250.769c4.444,0,8.532,1.482,11.837,3.956c-3.61-4.821-9.35-7.956-15.837-7.956
				c-10.933,0-19.794,8.863-19.794,19.797c0,6.486,3.135,12.227,7.957,15.838c-2.475-3.305-3.957-7.394-3.957-11.838
				C29.202,259.632,38.063,250.769,48.996,250.769z"/>
			<path fill="#A7BFDF" d="M64.79,266.566c0-4.446-1.483-8.536-3.957-11.841c-3.305-2.474-7.393-3.956-11.837-3.956
				c-10.933,0-19.794,8.863-19.794,19.797c0,4.444,1.482,8.533,3.957,11.838c3.304,2.473,7.393,3.956,11.837,3.956
				C55.928,286.36,64.79,277.497,64.79,266.566z"/>
		</g>
		<g>
			<path fill="#3C6EAF" d="M44.49,150.497c0-53.769,33.451-99.721,80.677-118.189C71.395,44.935,31.363,93.206,31.363,150.833
				c0,59.174,42.215,108.482,98.172,119.463C80.018,253.013,44.49,205.908,44.49,150.497z"/>
			<path fill="#8AA9D4" d="M274.862,149.833c0-67.244-54.513-121.753-121.754-121.753c-9.615,0-18.969,1.119-27.941,3.227
				C77.941,49.776,44.49,95.728,44.49,149.497c0,55.411,35.528,102.517,85.045,119.8c7.628,1.497,15.507,2.289,23.573,2.289
				C220.349,271.585,274.862,217.074,274.862,149.833z"/>
		</g>
		<text transform="matrix(1 0 0 1 34.7173 281.5854)" font-family="'BaskOldFace'" font-size="57.4636">I</text>
	</g>
	<path fill="none" stroke="#7091CB" stroke-width="5" stroke-miterlimit="10" d="M92.229,161.841c0,0-39.537-0.997-9.127-22.008
		c14.772-10.207,35.363-18.345,18.73-45.578c-1.931-3.162-4.934-33.36,20.794-18.971c5.698,3.187,10.865,39.671,49.808,42.67
		c29.438,2.267,48.818-31.743,48.818-31.743"/>
	<g>
		<path fill="#7091CB" d="M245.667,135.667h-120v-1.064l-35.12,40.726l35.12,39.598v1.74h120V135.667z M104.817,174.75
			c0-5.858,4.75-10.607,10.608-10.607s10.607,4.749,10.607,10.607c0,5.857-4.749,10.607-10.607,10.607
			S104.817,180.608,104.817,174.75z"/>
	</g>
	<g>
		<path fill="#E4F4D8" d="M238.667,132.667h-118v0.859l-33.274,33.131l33.274,42.971v1.039h118V132.667z M100.093,171.564
			c0-5.551,4.5-10.051,10.05-10.051c5.551,0,10.051,4.5,10.051,10.051c0,5.55-4.5,10.05-10.051,10.05
			C104.593,181.614,100.093,177.114,100.093,171.564z"/>
	</g>
	<g>
		<path fill="#EFF7E9" d="M238.667,127.667h-118v0.406l-33.274,38.584l33.274,37.516v0.494h118V127.667z M100.093,166.11
			c0-5.551,4.5-10.05,10.05-10.05c5.551,0,10.051,4.5,10.051,10.05c0,5.55-4.5,10.05-10.051,10.05
			C104.593,176.16,100.093,171.66,100.093,166.11z"/>
	</g>
	<g>
		<path fill="none" stroke="#294172" stroke-width="2" stroke-linecap="round" stroke-miterlimit="10" d="M209.233,77.962
			c-28.299,51.476-64.541,23.637-75.047-5.779c-11.588-32.446-64.607-9.453-45.793,27.816c13.461,26.665-21.44,26.667-31.56,40.68
			c-16.617,23.009,21.158,34.187,34.478,36.197c23.968,3.618,10.167-9.04,10.167-9.04"/>
		<path fill="none" stroke="#294172" stroke-width="2" stroke-linecap="round" stroke-miterlimit="10" d="M76.449,169.909
			c0,0-0.387,3.398,2.131,0.881c2.518-2.519,2.241-1.964,2.241,0.929c0,8.225,0.634,6.401,3.551,1.515c0,0,1.917-4.887,5.406-4.887"
			/>
	</g>
</g>
<g>
	<path fill="#294172" d="M132.198,145.456c-0.604,0.005-1.121-0.206-1.556-0.633c-0.434-0.425-0.651-0.939-0.656-1.542
		c-0.004-0.603,0.205-1.122,0.632-1.556c0.427-0.434,0.942-0.651,1.544-0.658l28.517-0.23c0.603-0.004,1.122,0.206,1.556,0.632
		c0.433,0.425,0.652,0.941,0.655,1.542c0.006,0.605-0.205,1.124-0.632,1.557c-0.427,0.434-0.942,0.651-1.544,0.656l-12.065,0.099
		l0.304,37.29c0.004,0.603-0.209,1.122-0.632,1.554c-0.425,0.434-0.94,0.652-1.544,0.658c-0.604,0.005-1.121-0.207-1.557-0.633
		c-0.431-0.426-0.649-0.941-0.655-1.543l-0.302-37.291L132.198,145.456z"/>
	<path fill="#294172" d="M182.986,179.923c-3.046,3.097-6.688,4.663-10.931,4.696c-4.239,0.034-7.873-1.436-10.894-4.408
		c-3.022-2.974-4.552-6.583-4.584-10.821c-0.036-4.241,1.434-7.873,4.409-10.895c2.972-3.023,6.578-4.551,10.82-4.586
		c4.24-0.035,7.872,1.437,10.895,4.408c3.022,2.974,4.55,6.582,4.586,10.821l0.105,13.164c0.005,0.603-0.205,1.12-0.632,1.554
		c-0.425,0.434-0.941,0.652-1.544,0.656c-0.604,0.006-1.121-0.207-1.554-0.631c-0.434-0.427-0.653-0.941-0.658-1.547
		L182.986,179.923z M171.843,158.296c-3.036,0.025-5.612,1.116-7.732,3.273c-2.123,2.154-3.173,4.75-3.147,7.785
		c0.025,3.033,1.115,5.612,3.271,7.732c2.157,2.121,4.752,3.172,7.787,3.146c3.032-0.025,5.61-1.116,7.732-3.271
		c2.121-2.156,3.17-4.752,3.146-7.785c-0.025-3.034-1.116-5.613-3.272-7.734C177.471,159.32,174.877,158.272,171.843,158.296z"/>
	<path fill="#294172" d="M218.083,179.639c-0.036,0.037-0.071,0.074-0.109,0.112c-2.974,3.022-6.581,4.551-10.819,4.583
		c-4.243,0.035-7.875-1.434-10.897-4.408c-3.021-2.973-4.548-6.58-4.584-10.82c-0.034-4.242,1.434-7.875,4.409-10.896
		c2.974-3.022,6.581-4.551,10.821-4.584c4.241-0.036,7.872,1.433,10.896,4.408c3.022,2.975,4.55,6.581,4.584,10.822l0.125,15.354
		c0.025,3.198-1.104,5.985-3.388,8.364c-3.192,3.244-7.062,4.883-11.614,4.92c-4.552,0.035-8.439-1.541-11.665-4.732
		c-1.197-1.161-2.174-2.422-2.937-3.789c-0.223-0.324-0.335-0.708-0.337-1.146c-0.008-0.604,0.205-1.121,0.63-1.556
		c0.425-0.433,0.94-0.652,1.546-0.657c0.602-0.004,1.125,0.2,1.565,0.618c0.184,0.199,0.341,0.419,0.472,0.653
		c0.557,0.984,1.269,1.9,2.135,2.754c2.378,2.34,5.229,3.496,8.556,3.467c3.327-0.025,6.16-1.229,8.498-3.606
		c1.45-1.766,2.166-3.518,2.151-5.253L218.083,179.639z M206.941,158.013c-3.036,0.022-5.614,1.114-7.734,3.269
		c-2.123,2.156-3.169,4.754-3.146,7.785c0.025,3.037,1.115,5.613,3.271,7.736c2.158,2.121,4.751,3.168,7.786,3.144
		c3.034-0.024,5.612-1.114,7.732-3.271c2.121-2.154,3.171-4.754,3.146-7.785c-0.025-3.033-1.114-5.613-3.271-7.732
		C212.569,159.038,209.973,157.987,206.941,158.013z"/>
</g>
</svg>
