<?xml version="1.0" encoding="utf-8"?>
<!-- Generator: Adobe Illustrator 15.1.0, SVG Export Plug-In . SVG Version: 6.00 Build 0)  -->
<!DOCTYPE svg PUBLIC "-//W3C//DTD SVG 1.1//EN" "http://www.w3.org/Graphics/SVG/1.1/DTD/svg11.dtd">
<svg version="1.1" id="Layer_1" xmlns="http://www.w3.org/2000/svg" xmlns:xlink="http://www.w3.org/1999/xlink" x="0px" y="0px"
	 width="308px" height="314.667px" viewBox="0 0 308 314.667" enable-background="new 0 0 308 314.667" xml:space="preserve">
<g>
	<g>
		<g id="g5241_192_">
			<path id="path35_198_" fill="#3C6EAF" d="M299.798,160.686c0-79.041-64.068-143.116-143.113-143.116
				c-78.999,0-143.05,64.022-143.104,143.018l-0.005-0.005v110.746l0.005,0.007c0.041,17.936,14.586,32.453,32.533,32.453
				c0.051,0,0.102-0.005,0.156-0.005l0.009,0.005h110.466l0,0c79.018-0.033,143.059-64.088,143.059-143.103H299.798z"/>
		</g>
		<g id="g5241_147_">
			<path id="path35_153_" fill="#294172" d="M296.798,153.686c0-79.041-64.068-143.116-143.113-143.116
				c-78.999,0-143.05,64.022-143.104,143.018l-0.005-0.005v110.746l0.005,0.007c0.041,17.936,14.586,32.453,32.533,32.453
				c0.051,0,0.102-0.005,0.156-0.005l0.009,0.005h110.466l0,0c79.018-0.033,143.059-64.088,143.059-143.103H296.798z"/>
		</g>
		<g>
			<path fill="#3C6EAF" d="M49.996,248.769c4.444,0,8.532,1.482,11.837,3.956c-3.61-4.821-9.35-7.956-15.837-7.956
				c-10.933,0-19.794,8.863-19.794,19.797c0,6.486,3.135,12.227,7.957,15.838c-2.475-3.305-3.957-7.394-3.957-11.838
				C30.202,257.632,39.063,248.769,49.996,248.769z"/>
			<path fill="#A7BFDF" d="M65.79,264.566c0-4.446-1.483-8.536-3.957-11.841c-3.305-2.474-7.393-3.956-11.837-3.956
				c-10.933,0-19.794,8.863-19.794,19.797c0,4.444,1.482,8.533,3.957,11.838c3.304,2.473,7.393,3.956,11.837,3.956
				C56.928,284.36,65.79,275.497,65.79,264.566z"/>
		</g>
		<g>
			<path fill="#3C6EAF" d="M45.49,148.497c0-53.769,33.451-99.721,80.677-118.189C72.395,42.935,32.363,91.206,32.363,148.833
				c0,59.174,42.215,108.482,98.172,119.463C81.018,251.013,45.49,203.908,45.49,148.497z"/>
			<path fill="#C5D4E9" d="M275.862,147.833c0-67.244-54.513-121.753-121.754-121.753c-9.615,0-18.969,1.119-27.941,3.227
				C78.941,47.776,45.49,93.728,45.49,147.497c0,55.411,35.528,102.517,85.045,119.8c7.628,1.497,15.507,2.289,23.573,2.289
				C221.349,269.585,275.862,215.074,275.862,147.833z"/>
		</g>
		<g>
			
				<image overflow="visible" opacity="0.75" width="51" height="94" xlink:href="2D9BADB0.png"  transform="matrix(1 0 0 1 23.6665 214.6665)">
			</image>
			<g>
				<text transform="matrix(1 0 0 1 35.7173 275.4038)" font-family="'BaskOldFace'" font-size="57.4636">I</text>
			</g>
		</g>
	</g>
	<path fill="none" stroke="#7091CB" stroke-width="2.8143" stroke-linecap="round" stroke-miterlimit="10" d="M229.954,51.133
		c0,0-33.634,1.959-33.634,57.801c0,55.844,0.626,111.855,0.626,111.855l51.188,5.708
		C248.134,226.498,277.745,97.974,229.954,51.133z"/>
	<path fill="#C5D4E9" d="M237.461,237.26c0,0,10.721-7.896,2.177-14.137c-8.544-6.239-13.394-4.979-17.456-9.193
		c-4.063-4.215-6.313,0.868-9.444,1.911c-3.133,1.043-1.138,2.818-5.696-1.911c-4.559-4.73-71.477,9.193-90.644,9.193
		C97.229,223.124,59.584,299.95,237.461,237.26z"/>
	<path fill="none" stroke="#7091CB" stroke-width="2.9637" stroke-miterlimit="10" d="M167.69,235.67c0,0-7.694,5.413-10.437,2.67
		s-6.14-2.67-6.14-2.67"/>
	<path fill="none" stroke="#7091CB" stroke-width="2.9637" stroke-miterlimit="10" d="M182.606,246.125c0,0,3.945,0.666,3.945-3.764
		c0-4.429,1.512-3.407,3.215-1.703c1.705,1.703,3.348,5.467,6.615,5.467c3.267,0,5.912-2.499,5.912-2.499l-17.296-5.286
		c0,0,5.513-0.224,3.065-2.67c-2.445-2.446-4.728-5.492-1.512-5.492c3.215,0,9.83,0.22,9.83,2.624c0,2.405-0.299,5.366,3.018,5.366
		c3.315,0,4.338,0.947,4.338,0.947s11.132,0.9,8.51-1.723c-2.623-2.622-6.125-7.215-1.695-7.215c4.429,0,6.896,5.492,6.896,5.492
		s0.258,5.67,4.006,5.67s6.664,0.34,6.664,0.34"/>
	<g>
		
			<image overflow="visible" opacity="0.75" width="92" height="167" xlink:href="2D9BADB1.png"  transform="matrix(1 0 0 1 107.7754 112.7754)">
		</image>
		<g>
			<path fill="#FFFFFF" d="M151.54,118.888c-3.387-3.387-9.326,2.77-11.1,4.544c-1.774,1.775-16.956,10.035-15.149,16.258
				c1.806,6.222,9.135,16.21,16.455,16.21c7.32,0-1.933,0.285-5.798,4.15c-3.865,3.864-18.132,0.454-21.366,8.525
				c-3.234,8.071-1.911,11.945,1.963,8.071c3.875-3.874-5.11,14.725,1.966,18.113c7.076,3.387,7.076,3.387,7.076,3.387
				s-13.551,18.758-7.855,18.213c5.695-0.544,5.695-0.544,5.695-0.544s-8.929,6.229-4.913,10.245
				c4.016,4.017,7.062,9.268,7.062,9.268s-1.174,4.563,0,8.298c1.174,3.737,4.961,15.536,4.961,15.536l-5.245,3.02
				c0,0-0.357,3.376,7.396,3.376c7.753,0,10.412-5.327,9.059-13.63c-1.354-8.302,0.293-10.146,3.735-13.588
				c3.441-3.441,8.465-12.496,8.465-12.496s3.686,7.979,8.061,6.958s0,11.028,0,11.028l3.873,13.836h-4.148
				c0,0,0.352,4.449,7.104,4.449c6.751,0,3.105,3.544,6.751-0.102c6.05-6.05,4.556-33.138,4.556-33.138l5.817-6.952
				c0,0-9.863-7.546-9.863-17.405c0-9.861,2.278-10.403,1.384-16.308c-0.893-5.904,7.55-3.817,3.775-11.107
				c-3.775-7.29-12.729-12.092-12.729-12.092s-11.459-0.021-6.52-4.961s12.803-2.116,12.061-7.253
				c-0.74-5.137-6.971-7.214-6.971-7.214l6.23-2.769l-3.115-5.882l3.115-4.942"/>
		</g>
	</g>
	<path fill="none" stroke="#7091CB" stroke-width="3" stroke-linecap="round" stroke-miterlimit="10" d="M214.742,91.464
		c0,0-3.913,17.333-3.913,27.424s-8.662,97.472-8.662,97.472s0-98.845,0-104.111c0-5.267,5.97-33.923,16.316-44.271
		c10.348-10.347,0.645-20.358,0.645-20.358"/>
	<polyline fill="none" stroke="#7091CB" stroke-width="3" stroke-linecap="round" stroke-miterlimit="10" points="215.167,95.667 
		215.167,151.751 215.167,215.667 	"/>
	
		<line fill="none" stroke="#7091CB" stroke-width="3" stroke-linecap="round" stroke-miterlimit="10" x1="222.167" y1="215.667" x2="222.167" y2="159.667"/>
	
		<line fill="none" stroke="#7091CB" stroke-width="2.9637" stroke-miterlimit="10" x1="224.561" y1="136.795" x2="229.117" y2="96.679"/>
	
		<line fill="none" stroke="#000000" stroke-width="2" stroke-linecap="round" stroke-miterlimit="10" x1="234.667" y1="125.667" x2="234.667" y2="137.667"/>
	
		<line fill="none" stroke="#7091CB" stroke-width="3" stroke-linecap="round" stroke-miterlimit="10" x1="228.167" y1="183.667" x2="228.167" y2="226.667"/>
	
		<line fill="none" stroke="#7091CB" stroke-width="3" stroke-linecap="round" stroke-miterlimit="10" x1="237.167" y1="201.667" x2="237.167" y2="226.667"/>
	
		<line fill="none" stroke="#000000" stroke-width="2" stroke-linecap="round" stroke-miterlimit="10" x1="243.667" y1="203.667" x2="243.667" y2="215.667"/>
	<path d="M227.447,48.528c0,0-21.158-12.505-21.158-6.253c0,6.253-3.339-1.902-7.493,2.251c-4.153,4.154-0.411,24.935-3.967,28.491
		c-3.556,3.556-8.456,7.542-4.014,11.983c4.442,4.443,4.014,11.463,4.014,11.463s6.332-38.037,13.418-38.037
		S227.447,48.528,227.447,48.528z"/>
	<path fill="none" stroke="#000000" stroke-width="2.371" stroke-linecap="round" stroke-miterlimit="10" d="M121.54,217.088
		c0,0-6.332,7.488-0.846,12.974c5.485,5.486,12.615,8.278,12.615,8.278"/>
	<path fill="none" stroke="#000000" stroke-width="2" stroke-linecap="round" stroke-miterlimit="10" d="M141.032,245.79
		c0,0,2.938,16.877,0,18.877c0,0-1.323,0-7.753,0s-13.208-2.93-7.396-2.93c5.811,0,3-0.026,4.311-5.714l-4.028-12.647"/>
	<path fill="none" stroke="#000000" stroke-width="2.371" stroke-linecap="round" stroke-miterlimit="10" d="M146.073,145.583
		c0,0-13.839,0.729-7.215-5.894"/>
	
		<line fill="none" stroke="#000000" stroke-width="2.371" stroke-linecap="round" stroke-miterlimit="10" x1="142.337" y1="142.648" x2="146.073" y2="139.69"/>
	<path fill="none" stroke="#000000" stroke-width="2.371" stroke-linecap="round" stroke-miterlimit="10" d="M151.848,136.795
		c0,0-0.459-5.646,3.833-9.938c4.294-4.294,4.294-4.294,4.294-4.294"/>
	<path fill="none" stroke="#000000" stroke-width="2" stroke-linecap="round" stroke-miterlimit="10" d="M126.675,176.234
		c0,0,5.992,10.841,5.992,5.704s0-6.271,0-6.271"/>
	<path fill="none" stroke="#000000" stroke-width="2" stroke-linecap="round" stroke-miterlimit="10" d="M121.155,118.365
		l2.512-1.628v5.971c5,0,6.617,2.959,6.617,2.959h2.383"/>
	<polyline fill="none" stroke="#000000" stroke-width="2.371" stroke-linecap="round" stroke-miterlimit="10" points="
		133.309,118.888 137.963,121.796 133.309,112.249 	"/>
	<path fill="none" stroke="#000000" stroke-width="2.371" stroke-linecap="round" stroke-miterlimit="10" d="M155.904,131.895
		c0,0,1.472,2.694,4.071,0.096c2.599-2.599-0.574-5.134-0.574-5.134"/>
	<path fill="none" stroke="#7091CB" stroke-width="2.9637" stroke-miterlimit="10" d="M104.097,251.493
		c8.908,0,15.48,1.963,17.442,0"/>
	<path fill="none" stroke="#7091CB" stroke-width="2.9637" stroke-miterlimit="10" d="M146.073,251.493c0,0,11.91,1.367,16.526-3.25
		"/>
	<path fill="none" stroke="#7091CB" stroke-width="3" stroke-linecap="round" stroke-miterlimit="10" d="M180.667,253.167h12.328
		l7.256-8.029c0,0,4.545,5.764,7.949,5.764s8.316-0.771,8.316-0.771"/>
	<path fill="none" stroke="#7091CB" stroke-width="2.7576" stroke-linecap="round" stroke-miterlimit="10" d="M186.352,255.134
		c0,0,11.309-2.682,13.63,0s8.616-0.596,8.616-0.596"/>
	<path fill="none" stroke="#7091CB" stroke-width="3" stroke-miterlimit="10" d="M238.008,234.713c0,0-5.663-2.448-3.85-4.086
		c1.814-1.636,3.707-2.432,0.305-2.432c-3.403,0-10.297-5.078-10.297-2.09s3,7.205,0,7.205s-7.734-3.512-6.037-5.042
		c1.697-1.531,7.611-3.805,4.664-3.805s-3.867,0.144-3.867-2.25c0-2.393-2.757-7.178-4.688-5.437
		c-1.928,1.74,0.091,3.643,0.091,4.839s-2.529,4.291-4.438,2.568c-1.908-1.723-2.961-3.427-2.961-0.307
		c0,3.122,2.202,6.694-2.032,6.694c-4.233,0-5.047-0.439-2.98-2.304c2.068-1.866,1.382-2.562,0.004-3.805s2.636-1.651,2.636-3.146
		c0-1.496,2.086-2.287-1.23-2.287c-3.314,0-3.933,1.192-5.256,0c-1.322-1.194-2.36-4.767-5.146-2.253
		c-2.785,2.513-3.854,3.941-1.864,5.736s3.127,2.453,1.864,3.592s-1.263,1.139-1.263,1.139"/>
	<path fill="none" stroke="#7091CB" stroke-width="2.6427" stroke-miterlimit="10" d="M210.13,243.626c0,0,3.069,1.065,3.917,0
		c0.846-1.064,2.191-0.702,3.126,0.474s1.962,0.988,4.367,0.988s5.655-3.104,5.655-1.041"/>
	<path fill="none" stroke="#7091CB" stroke-width="2.9637" stroke-miterlimit="10" d="M84.486,246.125c0,0,3.757-0.726,5.111-2.078
		c1.354-1.354,3.407,2.84,7.836,2.84c4.43,0,10.222,4.605,10.222,4.605"/>
	<path fill="none" stroke="#7091CB" stroke-width="2.9637" stroke-miterlimit="10" d="M82.442,241c0,0,5.371-0.781,6.473-1.884
		c1.102-1.102,8.002,1.305,10.576,3.879c2.573,2.573,12.449,3.131,12.449,3.131"/>
	<path fill="none" stroke="#7091CB" stroke-width="2.9637" stroke-miterlimit="10" d="M120.694,245.099c0,0-5.529,0.608-8.754-2.616
		s-3.825-5.738-6.197-3.367c-2.371,2.371-4.567,5.563-6.252,3.879"/>
	<path fill="none" stroke="#7091CB" stroke-width="2.9637" stroke-miterlimit="10" d="M120.694,241.663c0,0-1.734-2.547-4.15-2.547
		c-2.416,0-4.604,3.367-4.604,3.367"/>
	<polyline fill="none" stroke="#7091CB" stroke-width="3" stroke-miterlimit="10" points="77.667,240.167 80.525,240.167 
		84.835,241.399 	"/>
	<path fill="none" stroke="#7091CB" stroke-width="2.9637" stroke-miterlimit="10" d="M73.584,235.67c0,0,4.087-4.592,8.858-2.868
		c4.77,1.724,10.222,4.305,10.222,4.305"/>
	<path fill="none" stroke="#7091CB" stroke-width="2.9637" stroke-miterlimit="10" d="M103.504,237.107c0,0-7.273-2.44-9.137-4.305
		c-1.864-1.864-1.582-2.894-4.088-0.387s-2.506,2.507-2.506,2.507"/>
	<path fill="none" stroke="#7091CB" stroke-width="2.9637" stroke-miterlimit="10" d="M113.581,235.67c0,0-8.159-2.824-10.077-4.741
		c-1.918-1.919-6.313,3.089-6.313,3.089"/>
	<path fill="none" stroke="#7091CB" stroke-width="2.9637" stroke-miterlimit="10" d="M119.104,234.761c0,0-4.291-5.828-6.287-3.832
		c-1.995,1.995-5.163,3.089-5.163,3.089"/>
	<path fill="none" stroke="#7091CB" stroke-width="2.9637" stroke-miterlimit="10" d="M146.073,246.125l6.059-2.348
		c0,0,4.072,4.845,7.269,2.348"/>
	<path fill="none" stroke="#7091CB" stroke-width="2.9637" stroke-miterlimit="10" d="M147.272,240.799c0,0,6.837,2.46,8.409,0"/>
	<path fill="none" stroke="#000000" stroke-width="2.371" stroke-linecap="round" stroke-miterlimit="10" d="M94.368,69.617
		c0,0,2.72,1.547,3.938-1.6"/>
	<g>
		<path fill="none" stroke="#000000" stroke-width="2.371" stroke-linecap="round" stroke-miterlimit="10" d="M86.986,46.528
			c0,0-2.728,31.13-10.155,38.558c-7.428,7.427-13.444,30.22-13.444,52.104c0,21.884-14.013,60.059-14.013,60.059"/>
		<path fill="none" stroke="#000000" stroke-width="2" stroke-linecap="round" stroke-miterlimit="10" d="M68.061,179.801
			c0,0,1.597-36.415,1.597-53.09c0-16.673,5.579-34.762,9.247-45.844c3.666-11.081,6.762-30.172,6.762-30.172v56.043l-4.432,45.041"
			/>
		<path fill="none" stroke="#000000" stroke-width="2.371" stroke-linecap="round" stroke-miterlimit="10" d="M111.996,34.022
			c0,0-12.505,21.884-12.505,32.305s5.21,36.474,0,41.684"/>
		<path fill="none" stroke="#000000" stroke-width="2.371" stroke-linecap="round" stroke-miterlimit="10" d="M121.54,29.854
			c0,0-5.375,22.927-5.375,30.221S111.996,83,111.996,83"/>
		<path fill="none" stroke="#000000" stroke-width="2.9637" stroke-linecap="round" stroke-miterlimit="10" d="M47.689,181.105
			c0,0,8.303-0.009,8.303-4.332"/>
		<path fill="none" stroke="#000000" stroke-width="2.9637" stroke-linecap="round" stroke-miterlimit="10" d="M55.992,181.096
			c0,0,3.622,8.389,4.645,9.411"/>
		
			<line fill="none" stroke="#000000" stroke-width="2.9637" stroke-linecap="round" stroke-miterlimit="10" x1="60.637" y1="174.493" x2="58.314" y2="168.325"/>
		<path fill="none" stroke="#000000" stroke-width="2.9637" stroke-linecap="round" stroke-miterlimit="10" d="M49.374,171.409
			c0,0,7.065-2.76,8.941-6.796"/>
		<path fill="none" stroke="#000000" stroke-width="2.9637" stroke-linecap="round" stroke-miterlimit="10" d="M55.992,154.13
			c0,0,2.855,1.169,4.645-2.124c1.789-3.293,2.726,8.176,2.726,8.176"/>
		<path fill="none" stroke="#000000" stroke-width="2.9637" stroke-linecap="round" stroke-miterlimit="10" d="M51.841,148.607
			c0,0,11.293-3.649,11.293-5.917"/>
		<path fill="none" stroke="#000000" stroke-width="2.9637" stroke-linecap="round" stroke-miterlimit="10" d="M58.314,137.355
			c0,0,4.478-0.672,4.82-2.726"/>
		<path fill="none" stroke="#000000" stroke-width="2.9637" stroke-linecap="round" stroke-miterlimit="10" d="M55.992,128.156
			c0,0,7.143-0.245,7.143-3.359"/>
		<path fill="none" stroke="#000000" stroke-width="2.9637" stroke-linecap="round" stroke-miterlimit="10" d="M60.725,115.249
			c0,0,3.919,3.412,4.558,0"/>
		
			<line fill="none" stroke="#000000" stroke-width="2.9637" stroke-linecap="round" stroke-miterlimit="10" x1="65.283" y1="101.58" x2="68.18" y2="100.217"/>
		<path fill="none" stroke="#000000" stroke-width="2.9637" stroke-linecap="round" stroke-miterlimit="10" d="M66.732,84.204
			c0,0,7.531-0.414,10.525-3.407c2.993-2.993,2.496-1.352,2.496-1.352"/>
		<path fill="none" stroke="#000000" stroke-width="2.9637" stroke-linecap="round" stroke-miterlimit="10" d="M71.88,77.048
			c0,0,7.123-0.66,8.847-2.385"/>
		<path fill="none" stroke="#000000" stroke-width="2.9637" stroke-linecap="round" stroke-miterlimit="10" d="M80.727,91.699
			c0,0-3.044-2.536-3.47-4.575"/>
		
			<line fill="none" stroke="#000000" stroke-width="2.9637" stroke-linecap="round" stroke-miterlimit="10" x1="73.584" y1="110.098" x2="71.88" y2="107.128"/>
		<path fill="none" stroke="#000000" stroke-width="2.9637" stroke-linecap="round" stroke-miterlimit="10" d="M73.584,120.594
			c0,0-3.457-0.358-3.457-2.36"/>
		
			<line fill="none" stroke="#000000" stroke-width="2.9637" stroke-linecap="round" stroke-miterlimit="10" x1="73.584" y1="132.585" x2="69.658" y2="126.711"/>
		
			<line fill="none" stroke="#000000" stroke-width="2.9637" stroke-linecap="round" stroke-miterlimit="10" x1="71.88" y1="139.059" x2="69.521" y2="137.355"/>
		
			<line fill="none" stroke="#000000" stroke-width="2.9637" stroke-linecap="round" stroke-miterlimit="10" x1="73.584" y1="148.607" x2="69.31" y2="145.648"/>
		
			<line fill="none" stroke="#000000" stroke-width="3" stroke-linecap="round" stroke-miterlimit="10" x1="64.667" y1="151.167" x2="67.667" y2="151.167"/>
		
			<line fill="none" stroke="#000000" stroke-width="2.9637" stroke-linecap="round" stroke-miterlimit="10" x1="73.257" y1="160.183" x2="68.18" y2="155.797"/>
		
			<line fill="none" stroke="#000000" stroke-width="2.9637" stroke-linecap="round" stroke-miterlimit="10" x1="72.732" y1="168.01" x2="68.18" y2="163.05"/>
		<polyline fill="none" stroke="#000000" stroke-width="2.9637" stroke-linecap="round" stroke-miterlimit="10" points="
			87.772,139.589 83.124,137.355 77.257,141.823 		"/>
		
			<line fill="none" stroke="#000000" stroke-width="2.9637" stroke-linecap="round" stroke-miterlimit="10" x1="87.772" y1="131.222" x2="83.998" y2="129.648"/>
		
			<line fill="none" stroke="#000000" stroke-width="2.9637" stroke-linecap="round" stroke-miterlimit="10" x1="89.598" y1="124.796" x2="85.221" y2="118.234"/>
		
			<line fill="none" stroke="#000000" stroke-width="2.9637" stroke-linecap="round" stroke-miterlimit="10" x1="78.992" y1="119.737" x2="84.486" y2="116.006"/>
		<path fill="none" stroke="#000000" stroke-width="2.9637" stroke-linecap="round" stroke-miterlimit="10" d="M79.784,110.098
			c0,0,8.649-5.34,6.669-3.359"/>
		
			<line fill="none" stroke="#000000" stroke-width="2.9637" stroke-linecap="round" stroke-miterlimit="10" x1="89.598" y1="112.143" x2="85.885" y2="112.031"/>
		<path fill="none" stroke="#000000" stroke-width="2.371" stroke-linecap="round" stroke-miterlimit="10" d="M96.071,100.217
			c0,0,3.298,0.674,4.469-3.066"/>
		<path fill="none" stroke="#000000" stroke-width="2.9637" stroke-linecap="round" stroke-miterlimit="10" d="M92.664,95.106
			c0,0,7.876-2.53,7.876-5.693"/>
		<path fill="none" stroke="#000000" stroke-width="2.371" stroke-linecap="round" stroke-miterlimit="10" d="M105.743,87.125
			c0,0-5.203-0.683-5.203-4.124"/>
		<path fill="none" stroke="#000000" stroke-width="2.9637" stroke-linecap="round" stroke-miterlimit="10" d="M92.664,85.062
			c0,0,8.072-3.617,7.876-5.502"/>
		<path fill="none" stroke="#000000" stroke-width="2.371" stroke-linecap="round" stroke-miterlimit="10" d="M105.386,75.856
			c0,0-5.318-0.482-5.537-3.239"/>
		<path fill="none" stroke="#000000" stroke-width="2.371" stroke-linecap="round" stroke-miterlimit="10" d="M95.639,66.146
			c0,0,3.463,0.051,3.852-1.704"/>
		<path fill="none" stroke="#000000" stroke-width="2.371" stroke-linecap="round" stroke-miterlimit="10" d="M96.604,56.427
			c0,0,4.131-0.916,6.014-2.798"/>
		<path fill="none" stroke="#000000" stroke-width="2.371" stroke-linecap="round" stroke-miterlimit="10" d="M107.655,59.672
			c0,0-3.194-3.333-2.269-8.977"/>
		<path fill="none" stroke="#000000" stroke-width="2.371" stroke-linecap="round" stroke-miterlimit="10" d="M102.618,46.528
			c0,0,2.432-1.823,3.819-3.21"/>
		<path fill="none" stroke="#000000" stroke-width="2.371" stroke-linecap="round" stroke-miterlimit="10" d="M113.38,41.615
			c0,0-6.429,1.029-5.399,0"/>
		<path fill="none" stroke="#000000" stroke-width="2.371" stroke-linecap="round" stroke-miterlimit="10" d="M110.093,72.998
			c0,0,3.488-2.082,3.488-4.467"/>
		
			<line fill="none" stroke="#000000" stroke-width="2.371" stroke-linecap="round" stroke-miterlimit="10" x1="116.768" y1="74.664" x2="113.581" y2="72.998"/>
		<path fill="none" stroke="#000000" stroke-width="2.371" stroke-linecap="round" stroke-miterlimit="10" d="M121.54,71.017
			c0,0-6.366-3.85-6.366-6.575c0-2.726-9.242,1.938-7.305,0"/>
		
			<line fill="none" stroke="#000000" stroke-width="2.371" stroke-linecap="round" stroke-miterlimit="10" x1="120.694" y1="59.672" x2="116.544" y2="55.449"/>
		
			<line fill="none" stroke="#000000" stroke-width="2.371" stroke-linecap="round" stroke-miterlimit="10" x1="112.818" y1="53.629" x2="117.144" y2="48.087"/>
		
			<line fill="none" stroke="#000000" stroke-width="2.371" stroke-linecap="round" stroke-miterlimit="10" x1="121.54" y1="48.087" x2="118.301" y2="45.015"/>
		<path fill="none" stroke="#000000" stroke-width="2.371" stroke-linecap="round" stroke-miterlimit="10" d="M125.883,43.318
			c0,0-7.292-4.874-5.963-6.203"/>
	</g>
	<g>
		
			<image overflow="visible" opacity="0.75" width="80" height="192" xlink:href="2D9BADB7.png"  transform="matrix(1 0 0 1 207.7759 48.7754)">
		</image>
		<g>
			<path fill="#FFFFFF" d="M236.292,54.501c0,0-1.039,8.604-7.006,14.571s-16.516,3.637-16.516,11.974s8.35,13.229,11.791,16.669
				c3.439,3.44,7.175,15.571,7.175,15.571s-16.038-0.586-8.813,6.639c7.224,7.225,13.427,19.47,13.427,19.47
				s-17.835-1.042-17.835,6.252s8.376,34.605,8.376,34.605s3.292,24.414,12.783,24.414s9.376,0,9.376,0s-8.793,17.852-4.087,22.557
				C249.668,231.93,313.042,141.553,236.292,54.501z"/>
		</g>
	</g>
	<path fill="none" stroke="#000000" stroke-width="2" stroke-linecap="round" stroke-miterlimit="10" d="M236.292,53.501
		c0,0-1.039,8.604-7.006,14.571s-16.516,3.637-16.516,11.974s8.35,13.229,11.791,16.669c3.439,3.44,7.175,15.571,7.175,15.571
		s-16.038-0.586-8.813,6.639c7.224,7.225,13.427,19.47,13.427,19.47s-17.835-1.042-17.835,6.252s8.376,35.105,8.376,35.105
		s3.292,24.914,12.783,24.914s9.376,0,9.376,0s-8.793,17.352-4.087,22.058S313.042,140.553,236.292,53.501z"/>
	<path d="M217.854,81.125c0,0,3.016-6.703,8.851-6.703s20.866,5.786,16.642,10.011c-4.225,4.225-3.68,10.778-3.68,14.959
		c0,4.18,4,12.052,0,12.052s-10.22,1.306-10.22,4.561c0,3.256-13.264,1.803-6.639-4.822s8.777-6.638,8.777-6.638L217.854,81.125z"/>
	<path d="M249.642,157.99c-4.047-4.047-6.254,5.06-6.254,5.06s1.31,6.958,1.31,12.124c0,5.168,4.944,10.627,4.944,10.627
		l-4.388,12.719c-4.025-0.965-6.588-3.922-6.588-3.922v-19.037c0,0-10.22-0.483-10.22-9.969c0-9.486-5.275-24.159,5.264-24.159
		c10.537,0,16.058-4.208,16.058-4.208s12.898,6.543,12.898,0.954s0-5.638,0-5.638l9.404-1.727l-3.57-21.144
		c0,0-12.227,16.059-14.389,10.937c-2.162-5.121,0.001-11.771,0.001-11.771s-6.552-10.551-6.552-20.81c0,0-6.852,22.931-2.66,23.222
		c11.277,0.783-2.706,7.688-2.706,13.437c0,5.749-3.818,10.454-3.818,10.454l-3.214,1.573c0,0-18.369,1.833-17.834,6.877
		c0.533,5.046,11.567,58.697,21.051,61.305c3.896,1.07,7.047,0.238,9.041-1.115l1.629,0.172l16.326-24.148
		c0,0-10.864-6.921-15.733-11.791C244.773,163.141,253.688,162.038,249.642,157.99z"/>
	<path fill="none" stroke="#000000" stroke-width="2" stroke-linecap="round" stroke-miterlimit="10" d="M144.125,168.35
		c0,0,3.13,7.999,0.014,11.113c-3.115,3.115-3.107,3.135-3.107,3.135s-0.794,7.938-4.496,11.641
		c-3.702,3.702-11.559,5.904-17.433,0.03c-5.875-5.874-1.966-18.603-1.966-18.603s-5.197,9-5.197,0c0-6,2.418-14.662,5.197-11.885
		c2.779,2.78,10.404-3.977,19.403-3.977s17.507,3.653,26.059,3.653c8.552,0,12.358,3.177,15.474,6.292
		c3.114,3.115,6.229,13.387,3.461,13.387s-3.461,1.297-3.461,5.053c0,3.758-0.692,14.84-2.77,12.764
		c-2.076-2.077-4.627-2.726-7.613,0.261c-2.987,2.986-14.062,3.938-17.998,0.001c-3.936-3.936-7.615-6.375-7.615-6.375"/>
	<path fill="none" stroke="#000000" stroke-width="2.371" stroke-linecap="round" stroke-miterlimit="10" d="M167.69,168.426
		c0,0,3.27,18.304,0,26.415c-3.271,8.112,0,6.377,0,6.377"/>
	<path fill="none" stroke="#000000" stroke-width="2.371" stroke-linecap="round" stroke-miterlimit="10" d="M126.156,201.374
		c0,0-12.899,14.986-7.833,14.986s18.131-3.145,14.986,0c-3.145,3.146-5.035,9.554,0.482,9.554c5.517,0,20.746-3.566,20.746-0.069
		s1.586,6.958,8.062,6.958c6.475,0,11.319-6.889,11.319-6.889l6.23,4.148c0,0-1.49-0.272,2.457-4.218
		c3.945-3.945,3.945-3.945,3.945-3.945s-10.547-10.271-9.863-17.393"/>
	
		<line fill="none" stroke="#000000" stroke-width="2" stroke-linecap="round" stroke-miterlimit="10" x1="132.667" y1="202.667" x2="132.667" y2="215.667"/>
	<path fill="none" stroke="#000000" stroke-width="2" stroke-linecap="round" stroke-miterlimit="10" d="M157.667,209.667
		c0,0-3,16.178,0,16.178c2,0-2.493,4.428-2.493,4.428"/>
	<path fill="none" stroke="#000000" stroke-width="2.371" stroke-linecap="round" stroke-miterlimit="10" d="M167.69,204.506
		c0,0,0,17.258,6.229,21.407"/>
	<path fill="none" stroke="#000000" stroke-width="2" stroke-linecap="round" stroke-miterlimit="10" d="M138.722,190.726
		c0,0,16.945-1.12,16.945-5.825c0-4.707,0-5.234,0-5.234"/>
	<path fill="none" stroke="#000000" stroke-width="2.371" stroke-linecap="round" stroke-miterlimit="10" d="M141.032,182.598
		c0,0,2.515,3.122,6.298-0.66c3.783-3.783,3.783-3.783,3.783-3.783"/>
	<path fill="none" stroke="#000000" stroke-width="2" stroke-linecap="round" stroke-miterlimit="10" d="M126.667,235.667
		c0,0-6,8,0,8c5,0,14.318,0,14.318,0s2.24-2.458,5.088-5.306c2.848-2.848,8.58-7.179,5.291-10.468"/>
	<path fill="none" stroke="#000000" stroke-width="2" stroke-linecap="round" stroke-miterlimit="10" d="M179.885,230.198
		c0,0,0.48,26.151-2.018,30.36c-2.973,5.01-9.201-0.067-14.201-0.067c-8,0-6-2.824,0-2.824c3,0,2.807,0,2.807,0s-6.888-14-3.874-14
		c3.015,0,11.067,0,11.067,0"/>
	<path fill="none" stroke="#000000" stroke-width="2.371" stroke-linecap="round" stroke-miterlimit="10" d="M142.337,155.9
		c0,0-16.454-4.799-16.454-16.21s15.149-13.488,15.149-16.258c0-2.769,7.279-8.366,11.1-4.544c3.821,3.821,15.558,4.47,15.558,7.969
		c0,3.498,3.461,5.134,6.229,5.134c2.77,0-3.113,4.942-3.113,4.942l3.113,5.882l-6.229,2.769l6.229,2.077c0,0,2.77,8.24-3.113,8.24
		c-5.885,0-8.206,4.15-8.206,4.15S148.545,158.544,142.337,155.9z"/>
	<path fill="none" stroke="#000000" stroke-width="2.371" stroke-linecap="round" stroke-miterlimit="10" d="M99.491,171.196
		c0,0,12.449-6.37,12.449-11.146s8.754-11.006,8.754-8.237c0,2.77-0.623,4.087,5.189,4.087c5.811,0,11.179,3.527,11.179,9.758
		c0,6.229,0.787,15.985-4.057,11.143c-4.843-4.844-7.123-16.751-7.123-16.751"/>
	<path fill="none" stroke="#000000" stroke-width="2.371" stroke-linecap="round" stroke-miterlimit="10" d="M119.104,160.05
		c0,0,1.746,19.695,4.69,16.751c2.945-2.945,3.219-12.184,3.219-12.184"/>
	<path fill="none" stroke="#000000" stroke-width="2.371" stroke-linecap="round" stroke-miterlimit="10" d="M181.534,183.167
		c0,0,7.794,11.082,11.512,11.082c3.719,0,18.99-12.311,21.696-12.311s-9.052-0.956-18.36-0.956c-9.31,0-14.534-3.881-14.534-3.881"
		/>
	<path fill="none" stroke="#000000" stroke-width="2.371" stroke-linecap="round" stroke-miterlimit="10" d="M173.918,172.174
		c0,0,4.357,11.275,4.154,16.031"/>
</g>
</svg>
