<?xml version="1.0" encoding="utf-8"?>
<!-- Generator: Adobe Illustrator 15.1.0, SVG Export Plug-In . SVG Version: 6.00 Build 0)  -->
<!DOCTYPE svg PUBLIC "-//W3C//DTD SVG 1.1//EN" "http://www.w3.org/Graphics/SVG/1.1/DTD/svg11.dtd">
<svg version="1.1" id="Layer_1" xmlns="http://www.w3.org/2000/svg" xmlns:xlink="http://www.w3.org/1999/xlink" x="0px" y="0px"
	 width="308px" height="314.667px" viewBox="0 0 308 314.667" enable-background="new 0 0 308 314.667" xml:space="preserve">
<g>
	<g id="g5241_198_">
		<path id="path35_204_" fill="#3C6EAF" d="M299.798,159.686c0-79.041-64.068-143.116-143.113-143.116
			c-78.999,0-143.05,64.022-143.104,143.018l-0.005-0.005v110.746l0.005,0.007c0.041,17.936,14.586,32.453,32.533,32.453
			c0.051,0,0.102-0.005,0.156-0.005l0.009,0.005h110.466l0,0c79.018-0.033,143.059-64.088,143.059-143.103H299.798z"/>
	</g>
	<g id="g5241_195_">
		<path id="path35_201_" fill="#294172" d="M296.798,152.686c0-79.041-64.068-143.116-143.113-143.116
			c-78.999,0-143.05,64.022-143.104,143.018l-0.005-0.005v110.746l0.005,0.007c0.041,17.936,14.586,32.453,32.533,32.453
			c0.051,0,0.102-0.005,0.156-0.005l0.009,0.005h110.466l0,0c79.018-0.033,143.059-64.088,143.059-143.103H296.798z"/>
	</g>
	<g>
		<path fill="#3C6EAF" d="M49.996,247.769c4.444,0,8.532,1.482,11.837,3.956c-3.61-4.821-9.35-7.956-15.837-7.956
			c-10.933,0-19.794,8.863-19.794,19.797c0,6.486,3.135,12.227,7.957,15.838c-2.475-3.305-3.957-7.394-3.957-11.838
			C30.202,256.632,39.063,247.769,49.996,247.769z"/>
		<path fill="#A7BFDF" d="M65.79,263.566c0-4.446-1.483-8.536-3.957-11.841c-3.305-2.474-7.393-3.956-11.837-3.956
			c-10.933,0-19.794,8.863-19.794,19.797c0,4.444,1.482,8.533,3.957,11.838c3.304,2.473,7.393,3.956,11.837,3.956
			C56.928,283.36,65.79,274.497,65.79,263.566z"/>
	</g>
	<g>
		<path fill="#3C6EAF" d="M45.49,147.497c0-53.769,33.451-99.721,80.677-118.189C72.395,41.935,32.363,90.206,32.363,147.833
			c0,59.174,42.215,108.482,98.172,119.463C81.018,250.013,45.49,202.908,45.49,147.497z"/>
		<path fill="#8AA9D4" d="M275.862,146.833c0-67.244-54.513-121.753-121.754-121.753c-9.615,0-18.969,1.119-27.941,3.227
			C78.941,46.776,45.49,92.728,45.49,146.497c0,55.411,35.528,102.517,85.045,119.8c7.628,1.497,15.507,2.289,23.573,2.289
			C221.349,268.585,275.862,214.074,275.862,146.833z"/>
	</g>
	<g>
		
			<image overflow="visible" opacity="0.75" width="83" height="84" xlink:href="6E8DDA23.png"  transform="matrix(1 0 0 1 9.6665 224.6665)">
		</image>
		<g>
			<text transform="matrix(1 0 0 1 21.7173 277.4038)" font-family="'BaskOldFace'" font-size="48">IX</text>
		</g>
	</g>
</g>
<g>
	
		<image overflow="visible" opacity="0.75" width="59" height="58" xlink:href="6E8DDA21.png"  transform="matrix(1 0 0 1 220.6665 111.6665)">
	</image>
	<g>
		<path fill="#FFFFFF" d="M256.09,126.36c-0.235,0.235-0.535,0.464-0.877,0.687c-0.02-1.613-0.949-3.857-2.087-4.995
			c-2.327-2.327-5.099,5.617-5.833,6.352l0.532,1.49c-0.699-0.09-1.893,0.446-3.233,1.227c0.152-0.284,0.183-0.454,0.035-0.454
			c-1.066,0-3.637,0.136-3.637-3.33s-2.095-5.465-3.294-6.665c-1.2-1.2-1.509,2.399-1.509,5.08c0,1.634,0.56,6.912,0.997,10.329
			c-0.019,0-0.036,0.585-0.056,0.585h-4.411c-1.98,0-3.584,2.02-3.584,4s1.604,4,3.584,4h4.411c0.87,0,1.667-1.313,2.287-1.826
			c0,0,0.609,4.459,5.31,4.459c4.699,0,12.557-0.116,10.492-2.181c-2.065-2.065-7.393-5.841-7.393-7.793
			c0-0.466-0.589-0.718-1.456-0.69c1.121-0.917,2.138-1.984,2.807-2.965c0.139,0.084,0.286,0.127,0.444,0.156
			c-1.018,1.113,0.376,1.949,0.376,1.949s8.094-1.104,6.893-2.303c-0.155-0.156-0.359-0.294-0.598-0.411
			c0.256-0.13,0.498-0.301,0.72-0.522C257.011,132.54,258.045,124.404,256.09,126.36z"/>
	</g>
</g>
<g>
	
		<image overflow="visible" opacity="0.75" width="39" height="41" xlink:href="6E8DDA27.png"  transform="matrix(1 0 0 1 172.6665 38.6665)">
	</image>
	<g>
		<g>
			<path d="M184.667,50.167c0-0.276-0.224-0.5-0.5-0.5h-1c-0.276,0-0.5,0.224-0.5,0.5l0,0c0,0.276,0.224,0.5,0.5,0.5h1
				C184.443,50.667,184.667,50.443,184.667,50.167L184.667,50.167z"/>
			<path d="M190.667,50.289c0-0.609,0.109-1.103-0.5-1.103s-0.5,0.494-0.5,1.103v1.378h-4.1c-1.066,0-1.931,0.435-1.931,1.5
				c0,1.066,0.864,1.5,1.931,1.5h0.34c-0.037,0-0.24,0.305-0.24,0.45v0.271c0,0.206,0.042,0.401,0.115,0.58
				c-0.069,0.198-0.115,0.408-0.115,0.631v1.168c0,0.083,0.189-0.1,0.201,0.9h-0.971c-0.393,0-0.23-0.34-0.23,0.052v0.237
				c0,0.391-0.162,0.711,0.23,0.711h2.843h0.064h1.189c0.392,0,0.673-0.32,0.673-0.711v-0.237c0-0.131-0.045-0.246-0.107-0.352
				c0.064-0.189,0.107-0.39,0.107-0.6v-0.1h0.724c0.838,0,0.276-1.439,0.276-2.279v-0.271c0-0.432,0.439-0.819,0.148-1.096
				c0.291-0.338,0.783-0.771,0.783-1.25c0-0.024-0.473-0.046-0.474-0.069c0.002-0.023-0.458-0.045-0.458-0.069v-0.827
				c0-0.069-0.008-0.135-0.021-0.201c0.014-0.068,0.021-0.139,0.021-0.212V50.289z"/>
		</g>
	</g>
</g>
<g>
	
		<image overflow="visible" opacity="0.75" width="201" height="200" xlink:href="6E8DDA20.png"  transform="matrix(1 0 0 1 26.6665 30.6665)">
	</image>
	<g>
		<g>
			<path d="M119.693,141.451c0.002,0.07-0.004,0.116-0.028,0.108C119.817,141.74,119.739,141.457,119.693,141.451z"/>
			<path d="M116.945,137.423l0.038-0.01C116.942,137.405,116.838,137.397,116.945,137.423z"/>
			<path d="M66.17,82.275l-0.022,0.361C66.292,82.352,66.17,82.275,66.17,82.275z"/>
			<path d="M64.107,97.418c0.025,0.027,0.049,0.053,0.071,0.077C64.333,97.571,64.5,97.567,64.107,97.418z"/>
			<path d="M64.178,97.496c-0.024-0.012-0.048-0.024-0.067-0.039C64.497,97.842,64.425,97.77,64.178,97.496z"/>
			<path d="M156.89,111.667c-1.417,1,0.267,5.821,1.388,6.943c1.122,1.121,1.389-2.418,1.389-2.418s0-2.524,0-4.524
				S156.89,111.667,156.89,111.667z"/>
			<path d="M172.922,122.209c-0.92-0.92-3.384,2.462-4.465,3.543s-0.022,2.499,1.068,3.59c1.092,1.09,2.141,1.325,3.141,1.325
				s0-3.396,0-4.307C172.667,125.448,173.846,123.129,172.922,122.209z"/>
			<path d="M153.167,146.798c0.457,0,0.5-0.371,0.5-0.828v-0.293c1-0.093,1-0.625,1-1.273v-0.175c0-0.713-0.285-0.563-0.998-0.563
				h-0.176c-0.713,0-0.826-0.15-0.826,0.563v0.175c0,0.204,0.051,0.394,0.136,0.565c-0.086,0.129-0.136,0.285-0.136,0.451v0.551
				C152.667,146.427,152.709,146.798,153.167,146.798z"/>
			<path d="M150.667,169.487v-1.732c0-0.609-0.891-1.104-1.5-1.104s-1.5,0.494-1.5,1.104v1.654c-1,0-1.868,0.988-1.868,2.206
				s1.156,2.206,2.375,2.206c0,0.609,0.637,1.103,1.247,1.103c0.609,0,1.246-0.493,1.246-1.103v-0.078
				c1-0.246,1.654-1.102,1.654-2.128S151.667,169.733,150.667,169.487z"/>
			<path d="M205.006,150.667h-1.379c-0.059,0-0.023,0.01-0.081,0.013c0.014-0.051,0.12-0.104,0.12-0.159v-0.276
				c0-0.38-0.485,0.422-0.865,0.422h-3.585c-0.05,0-0.55-1.093-0.55-1.083v-1.812c0-0.05-0.008-0.099-0.016-0.146
				c0.008-0.048,0.016-0.097,0.016-0.147v-4.642c0,0.062,0.769,0.83,0.963,0.83h1.683c-0.018,0-0.028-0.146-0.028-0.051
				c0,0.762,0.617,1.051,1.379,1.051h1.103c0.762,0,1.38-0.654,1.38-1.416c0-0.704-0.529-0.879-1.21-0.964
				c0.002-0.006,0.003,0.38,0.006,0.38h1.312c0.549,0,0.414-1.277,0.414-1.827v-0.215c0-0.55,0.135-0.958-0.414-0.958h-2.865h-2.758
				h-0.826c0,0-0.703-3.219,0.018-3.941c0.721-0.721,2.638-0.915,1.319-2.233c-0.81-0.809-2.685-1.235-4.015-1.441
				c0.134-0.59-0.085-1.104-0.363-1.381c-1.178-1.178,0.904-1.244,2.904-1.244c1,0,0-1.465,0-1.465s-0.244-2.659,0.905-2.659
				c1.15,0-0.025-3.25-1.866-3.25c-1.84,0-1.595,0.883-2.478-0.001c-0.884-0.884-2.851,0.042-3.886-0.994s0.705-3.222,0.015-3.913
				c-0.365-0.366-0.981-1.271-1.719-2.043c0.751-0.289,1.416-1.101,1.953-1.638c0.92-0.92,1.843,1.172,2.765,1.172
				c0.92,0,1.149-2.551,2.301-2.551c1.15,0,3.132-0.043,1.612-1.563c-1.52-1.521,0.461-3.039-2.53-3.039
				c-2.992,0-3.308,0.69-4.458-0.46c-1.151-1.15-1.614-4.903-2.614-4.903s-1-2.475,0-2.475s1.584,2.435,2.963,2.435
				c1.381,0,1.824-1.959,2.744-1.959c0.921,0,1.834-0.69,0.683-1.841c-1.149-1.15-1.845-2.07-4.146-2.07s-3.854,1.63-5.254,0.229
				s-3.262-3.221-3.262-5.292c0-2.07-0.84-4.832-4.29-4.832c-2.168,0-5.438-0.276-6.438-0.48v-2.169h0.159
				c1.345,0,1.841-1.931,1.841-3.276v-0.091c0-0.275,0.539-0.633,0.455-0.633h1.545l0,0v0.837c0,1.101-1.129,3.163-1.129,4.163
				c0,2,2.205,0,2.205,0c1.941,0,2.814-4.576,2.997-5.652c0.021-0.073,0.036-0.197,0.036-0.278c0-0.368-0.242-0.747-0.575-0.854
				c-0.11-0.649-0.673-1.216-1.354-1.216h-2.207c-0.666,0-1.223,0-1.35,1h-1.407c-0.142,0-0.275,0.04-0.393,0.104
				c-0.213-0.061-0.433-0.104-0.664-0.104h-0.065c-0.439,0-0.864-0.709-1.204-1.005c-1.27-1.104-2.119-3.81-2.119-5.113
				c0-1.305-1.345-0.841-1.345-0.841c0-0.609-0.494-1.041-1.104-1.041h-3.925c-0.182-1-0.759-1-1.452-1h-6.342
				c-0.294,0-0.566,0.362-0.798,0.508c-0.353-0.474-0.911-0.508-1.546-0.508h-0.924c0.061-1,0.664-0.996,0.664-1.145V64.75
				c0-0.303,0.269-0.839,0.269-1.327c0-0.914-1.025-1.756-1.939-1.756h-1.241c-0.325-1-1.222-1-2.292-1h-1.756
				c-0.078,0-0.04-0.435-0.04-0.429v-0.856c0-1.063-1.046-1.715-2.107-1.715h-0.016c-0.092,0,0.123-0.193,0.123-0.182v-4.208
				c0-0.962-2-1.747-3-1.862v-2.823c0-0.478,0.159-0.876-0.274-1.009c-0.322-0.419-0.437-0.862-0.663-1.088
				c-0.51-0.509-3.287-0.918-3.999-1.63c0-0.979-1.733-0.652-2.55-1.467c-0.813-0.815-0.377-0.734-1.599-1.957
				c-1.223-1.222-6.18,3.749-7.811,5.379c-1.63,1.63-2.438,5.706-2.438,5.706s-2.195,4.646-2.93,5.379
				c-0.732,0.733-3.097,5.47-4.074,6.448c-0.978,0.979-4.682,3.314-4.682,3.314h-3.333c-0.603,0-1.647-0.345-1.647,0.258v-0.126
				c0-0.048-0.008-0.093-0.015-0.138c0.007-0.045,0.015-0.091,0.015-0.139V64.49c0-0.27-0.111-0.512-0.288-0.688
				c0.181-0.279,0.288-0.61,0.288-0.968v-6.893c0-0.99-0.245-2.275-1.235-2.275h-0.276c-0.482,0-0.488,0.675-1.488,0.986v-0.227
				c0,0-2.541,0.291-3.109-0.276c-0.565-0.567-1.801-1.174-2.975,0s-6.38,1.652-7.037,0.995c-0.658-0.658-1.938-1.813-2.757-0.995
				s-1.296,3.267-1.296,4.733s-0.738,1.631-0.738,2.445c0,0.346-0.357,1.309-0.77,2.389l0.774-2.389c0,0-3.443,3.131-4.363,3.131
				s-2.071-0.92-2.071-0.92s-2.224,1.61-4.793,1.61c-2.568,0-7.149,0.92-7.149,2.992c0,2.071-2.552,6.805-2.552,6.805
				s-4.991,5.819-4.991,7.33c0,1.511,0.538,1.971-1.147,1.971c-1.684,0-5.251,0.345-3.984,1.61c1.266,1.266,2.071,0.812,2.071,2.706
				c0,1.896-0.532,4.427-2.338,4.427c-1.805,0-5.485-0.46-5.485,1.38c0,1.842,2.069,1.647,2.069,3.355s0.691,1.247,1.382,1.937
				c0.67,0.67-0.174,1.772-0.225,2.678c-0.541,0.653-1.178,1.403-1.847,2.154c-1.84,2.07-0.229,2.301-1.38,6.03
				c-0.586,1.897-0.218,2.927,0.286,3.482c-0.749,2.083-1.253,4.901-1.253,6.133c0,2.07-1.104,4.601-2.024,3.681
				c-0.921-0.921-2.761,2.76-2.761,4.142c0,1.381,2.761-0.23,2.761,2.706s0.92,1.896,0.92,4.427c0,1.093,0.432,2.099,1.031,2.89
				c-0.157,0.219-0.249,0.485-0.249,0.774v2.843c0,0.737,0.595,2.064,1.332,2.064h0.087c0.737,0,0.581-1.327,0.581-2.064v-1.92
				c1,0.005,0.475,0.013,0.521,0.013c1.381,0,2.019-6.212,2.019-9.028s-1.069-8.463-0.384-9.148
				c0.687-0.686-0.156-2.571-0.156-2.571v-3.98c2,0.059,2.217,0.013,2.562-0.331c0.795-0.795,0.295-2.035,1.39-3.13
				c1.094-1.095-1.26-1.953-1.26-4.013s1.44-3.461,1.44-3.461s0.49,2.879,1.869,1.498c1.382-1.381,4.403-5.864,2.562-5.864
				c-1.841,0-3.466,2-3.466,0c0-3,3.067-9.046,3.067-10.756c0,0,6.159-7.97,7.552-11.421c1.392-3.451,4.136-8.356,5.517-8.356
				s6.896-1.004,7.815-1.924s0.912-0.543,0.912-0.543h2.608c-0.271,0-0.468,0.965-0.468,1.324c0,0.749-1.277,2.389-2.165,3.598
				c-0.443,0.187-0.809,0.479-0.875,0.973c-0.006,0.002-0.061-0.113-0.061-0.111v-1.204c0-0.305-0.193-0.553-0.5-0.553
				c-0.305,0-0.5,0.248-0.5,0.553V72.9c0,0.154,0.055,0.4,0.156,0.5c-0.024,0.052-0.053,0.267-0.073,0.267h-0.438
				c-1.336,0-2.645,0.868-2.645,2.204v0.124c0,0.169,0.07,0.333,0.104,0.492c-0.686,0.375-1.104,1.093-1.104,1.928v5.515
				c0,0.245,0.11,0.478,0.186,0.698c-0.206-0.093-0.404-0.146-0.645-0.146c-0.682,0-1.252,0.454-1.505,1.043
				c-0.028,0.028-0.042,0.143-0.089,0.143h-1.165c-0.387,0-0.723,0.166-0.911,0.473c-0.058,0.003,0.03-0.016-0.026-0.013
				c0.003-0.037,0.155-0.091,0.155-0.128v-0.275c0-0.686-0.845-1.056-1.53-1.056h-1.104l0.115-1.938
				c-0.077,0.154-0.23,0.318-0.528,0.617c-0.539,0.539-1.262,1.34-1.409,1.875c-0.073,0.159-0.544,0.313-0.544,0.501v0.275
				c0,0.685,1.405,1.669,2.091,1.669h0.501c0.269,0,0.649,0.086,1.033,0.167c-0.009,0.056-0.018,0.004-0.018,0.062
				c-1.085,1.086-3.27,2.704-3.27,4.911c-0.533,0-1.338,0.378-1.338,0.911v0.138c0,0-1,0.494-1,1.103v0.552
				c0,0.208,0.221,0.042,0.32,0.208c-0.053-0.009-0.052,0.343-0.107,0.343c-0.608,0-1.213,0.494-1.213,1.103v1.104
				c0,0.608,0.765,1.103,1.373,1.103c0.609,0,1.238-0.494,1.238-1.103l0.703-0.873c0.026,0.009,0.071,0.015,0.093,0.023
				c-0.191-0.214-0.862-0.51-1.103-0.805c-0.385-0.472,0.695-0.494,0.695-1.103v-0.844h0.987c0.533,0,0.013-0.139,0.013-0.673
				v-0.276c0,0,1.027-2.619,2.132-3.722c1.103-1.103,2.995-1.103,2.995-1.103l-0.172-0.425c0.179-0.197,0.409-0.801,0.409-0.801
				h0.583c0.023,0,0.046,0.057,0.068,0.054c0.226,0.645,0.772,1.141,1.493,1.141c0.195,0,0.491-0.009,0.491-0.07v1.755
				c0,0.026,0.067,0.007,0.07,0.033c-0.956,0.244-1.603,2.087-1.603,2.087h-0.011c-1.212,0-2.457,1.069-2.457,2.281v1.677
				c0,0.005,0.132,0.038,0.132,0.043c-0.091-0.013-0.051-0.001-0.146-0.001h-1.104c-1.066,0-1.93,0.837-1.93,1.903
				c0,0.983,0.934,1.773,1.885,1.893c-0.02,0.097,0.162,0.184,0.162,0.287v1.418c0,0-1.021,2.08-1.021,3.417
				s-1.269,0.321-1.903,0.956c-0.634,0.634-1.075,3.391-1.075,3.86v5.266h-0.528c-0.457,0-0.828,0.543-0.828,1s0.371,1,0.828,1
				h0.902c-0.383,0-1.444,2.669-2.524,2.984c-1.48,0-2.85,0.877-2.85,2.358v0.15c0,1.481,1.536,3.507,3.017,3.507h0.729
				c-0.062,0-0.745-0.468-0.745-0.273v0.882c0,0.63-1.076,1.627-0.914,2.646c0.089,0.552,0.914,0.958,0.914,1.257v1.28
				c0,0.261,0.065,0.504,0.173,0.723c-0.107,0.196-0.173,0.417-0.173,0.656v1.379c0-0.609-0.392-1.104-1-1.104
				c-0.609,0-1,0.494-1,1.104v1.449h-1.492c-0.457,0-0.827,0.197-0.827,0.654c0,0.179,0.059,0.257,0.155,0.393
				c-0.097,0.188-0.155,0.373-0.155,0.599c0,0.762,0.616,1.354,1.378,1.354h1.104c0.762,0,1.379-0.791,1.379-1.552
				c0-0.095-0.01-0.448-0.028-0.448h0.311c-0.175,0-0.823,0.823-0.823,1.135v4.165c0-0.01,0.451,0.701,0.402,0.701h-0.274
				c-0.382,0-1.128-0.42-1.128-0.039v3.361v0.17v0.053c0,0.05,0.456-0.545,0.466,0.455h-0.027c-0.61,0-1.104,0.336-1.104,0.945
				c0,0.024-0.335-0.033-0.333-0.009c-0.952,0.235-2.002,1.01-2.002,2.034v0.044c0,1.207,1.659,1.986,2.864,1.986h0.587
				c-0.004,0-0.451,0.288-0.451,0.335v2.896v0.138v1.319c0-0.047-0.141,0.014-0.332,0.014c-1.219,0-1.987,1.298-1.987,2.298h-0.122
				c-0.847,0-1.559,0.502-1.559,1.348v1.898c0,0.848,0.712,1.754,1.559,1.754h0.243c0.186,0,0.359-0.147,0.523-0.208
				c0.399,0.4,0.905,0.594,1.515,0.594c1.219,0,2.16-1.043,2.16-2.262v-3.308c0-0.01-0.055-0.018-0.055-0.028
				c0.632-0.126,1.055-0.683,1.055-1.352v-0.98c0-0.191,0-0.542,0-0.95v-7.822c1,0.062,0.73,0.102,0.924,0.102
				c0.262,0,0.691-0.065,0.911-0.173c0.199,0.368,0.654,0.915,1.082,0.983c0.173,0.646,0.851,1.404,1.553,1.404h0.274
				c0.839,0,1.256-1.238,1.256-2.076v-2.481c0-0.838-0.417-1.442-1.256-1.442h-0.165c-0.127-1-0.684-1.14-1.35-1.14
				c-0.213,0-0.563,0.032-0.742,0.118c-0.299-0.416-0.487-0.707-1.487-0.707v-2.785c1-0.128,1-0.684,1-1.352v-1.766
				c0,0.567,1.547,0.631,2.331,0.631h0.552c1.371,0,2.481-0.63,2.481-2.001c0-1.37-1.11-1.999-2.481-1.999h-0.552
				c-0.784,0-2.331-0.284-2.331,0.284v-0.112c0-0.048-0.286-0.095-0.29-0.142c0.346-0.304,0.29-0.743,0.29-1.237v-6.066
				c0-0.403,0.324-0.77,0.083-1.057l0.583-0.241c0.518-0.487,1.334-1.169,1.334-1.936v-0.15c0-0.001,0-0.001,0-0.002l0.693-2.319
				c0.039-0.077-0.052-0.159-0.026-0.245l0.036-0.238l0.124-0.073c0.001-0.027,0.173-0.053,0.173-0.081v-0.414
				c0,0.089,0.052,0.029,0.297,0.029h0.275c0.112,0,0.223,0.211,0.33,0.19c0.22,0.351,0.605,0.81,1.049,0.81h0.827
				c0.685,0,1.222-0.896,1.222-1.58v-0.276c0-0.685-0.537-1.144-1.222-1.144h-0.778v-1.063c0-0.942,0-1.706-1-1.778v-5.391
				c0,0,0.541-1.61,2.288,0.138c1.747,1.748,1.977,2.412,3.561,0.828c1.586-1.586,3.188-3.054,0.886-3.86
				c-2.305-0.808-4.734-2.437-5.734-1.38v-3.599c1-0.068,1-0.588,1-1.227v0.331h1.331c0.221,0,0.426-0.058,0.61-0.152
				c0.204,0.096,0.43,0.152,0.671,0.152h0.311c0.348,0,1.027,1,1.819,1h0.827c1.142,0,1.431-1.567,1.431-2.709v-0.275
				c0-1.142-0.289-2.015-1.431-2.015h-0.827c-0.168,0-0.328,0.025-0.484,0.063c-0.135-0.035-0.273-0.063-0.42-0.063h-0.838v-1h0.285
				c0.576,0,1.715-0.071,1.715-0.647v-0.366c0-0.383,0.768-1.086,0.768-1.9c0-0.44-0.516-0.849-0.738-1.192
				c0.22-0.281-0.029-0.629-0.029-1.013v-0.653c1-0.228,1.104-0.834,1.104-1.554c0-0.718-0.104-1.325-1.104-1.553v-0.652
				c0-0.1-0.063-0.195-0.08-0.29c0.672-0.378,1.08-1.09,1.08-1.916v-5.515c0-0.008,0.265-0.014,0.265-0.021
				c1.165-0.103,2.218-0.792,2.319-1.958c0.008,0,0.148,0.231,0.156,0.231h0.26v1.472c0,0.457,0.318,0.828,0.775,0.828
				c0.097,0,0.225-0.02,0.225-0.05v1.98c0,0.458,0.451,0.862,0.795,1.113c-0.006,0.065,0.205,0.128,0.205,0.196v0.14
				c0,0.2,0.041,0.388,0.108,0.564c-0.067,0.143-0.108,0.301-0.108,0.469v4.088c0,0.231-1,0.614-1,1.05v4.062
				c0,0.016,0.281,0.031,0.281,0.046c-0.339,0.303-0.281,0.737-0.281,1.228v4.419c0,0.15,0.027,0.293,0.064,0.431
				c-0.037,0.126-0.064,0.256-0.064,0.394v9.926c0,0.473,0.437,0.889,0.798,1.138c-0.377,0.537-0.502,1.19-0.502,1.896
				c0,0.768,0.313,1.473,0.755,2.035c-0.434,0.487-0.681,1.122-0.681,1.825l-0.463,0.902c-0.115-0.852-0.632,1.456-1.031,1.855
				c-2.166,2.166-2.705-0.82-3.606,0.081c-0.9,0.902-3.648,5.139-3.648,7.881c0,2.741,1.379,10.963,1.379,12.163
				c0,1.199,0,3.313,0,3.313c0,3.139,0.359,5.164,0.881,6.458c-0.555,0.83-0.881,1.828-0.881,2.902v5.445
				c-1,1.126-1.477,2.92-1.406,4.708c-0.182,0.338-0.293,0.794-0.439,1.396c-1.248,5.103-0.317,8.155,0.552,13.809
				c0.678,4.402,0.015,12.334,0.015,12.334c-0.001-0.003-6.321-7.839-10.073-4.087c-6.746,6.746-1.167,13.941-0.461,13.917
				c-0.099,1.068-0.336,3.032-0.907,3.604c-2.276,2.275,1.374,5.627,1.374,5.627c1.613,1.611,2.347-3.797,2.347-3.797
				s0-4.657,0-6.407s-0.07-3.325,1.154-4.55c1.226-1.225,3.001,2.8,3.001,7s-0.564,5.601,1.535,7.7s1.81-5.95,1.81-7.7
				c0-1.232,0.553-2.457,1.594-2.347c0.248,0.311,2.233,2.841,2.233,5.137c0,2.45,2.288,7.362,2.288,5.259s-1.143-2.801,1.658-2.801
				s4.893-0.699,3.143-2.449c-1.749-1.75,0.683-4.374,0.683-4.374s2.901,0.175,2.901,1.926c0,1.75,0,4.158,0,4.158
				s1.443,4.745,3.771-0.205c0.705-1.504,2.393-1.504,2.393-1.504c0,0.001,0.169-0.88,0.393-2.113
				c0.007,0.003,0.194,0.005,0.201,0.007c0.189,1.138,1.242,2.283,1.242,2.283v2.083c0,0-0.641,1.278,1.586,1.964
				s5.046,0.342,6.074-0.686c1.026-1.027,4.237-1.713,4.922-1.027c0.686,0.686,1.348,1.027,2.889,1.027
				c1.542,0,4.535,0.449,5.128,1.042c0.592,0.593,2.394,1.18,3.079,1.18s1.624,1.805,2.395,1.033
				c0.771-0.771,1.392-6.956-0.002-8.35s-4.797-3.471-4.797-5.354c0-1.885,0.514-5.312-1.715-5.312
				c-2.226,0-4.453,5.396-4.453,3.812c0-1.585,0-8.78-1.028-7.752c-0.781,0.781-3.346,2.538-5.132,1.65
				c1.027-1.189-0.491-6.711-0.491-7.475c0-0.857,1.169-2.764,2.025-2.764c0.857,0,0.345-5.335-0.856-6.537
				c-1.197-1.197-4.358-2.921-4.378-2.933c0.02-1.206-0.076-2.418-0.076-2.956c0-1.047,0.415-3.691-0.458-4.818
				c0.193-2.479,0.558-7.299,0.558-8.432c0-1.541-1.197-2.843-1.778-3.424c-0.582-0.582-1.93-1.715-1.93-3.174
				c0-1.023-0.57-1.717-1.081-2.476c0.813-2.527,0.836-4.117-0.022-5.659c-1.532-2.753-0.064-4.903-2.131-4.903
				c0,0-0.113-0.662-0.58-1.397c1.188-0.307,2.254-1.376,2.254-2.66v-3.86c0-0.899,0-1.69-1-2.194c0-0.911,0-2.36,0-3.144
				c0-1.2,2.555-2.53,3.926-2.53c0.871,0,2.096-1.718,2.963-2.973c0.37-0.353,0.597-1.035,0.773-1.526
				c0.001-0.001-0.053-0.257-0.053-0.257h-0.002c0.121,0,0.191-0.47,0.191-0.857c0-0.179-0.018-0.231-0.046-0.403
				c0.693-0.5,1.149-1.25,1.149-2.169c0-0.1-0.02-0.164-0.029-0.259c0.672-0.378,1.132-1.075,1.132-1.901
				c0-0.007-0.331-0.007-0.331-0.015c0.932-0.108,1.326-0.883,1.326-1.845v-0.111c0-0.278,0.267-0.539,0.157-0.776
				c0.742-0.02,1.538-0.248,1.825-0.887c0.021,0,0.206,0.224,0.227,0.224h0.761c1.466,0,3.03-1.623,3.03-3.088v-0.21
				c0-0.396-0.092-0.768-0.247-1.105c0.153-0.3,0.247-0.635,0.247-0.996v-1.602h2.021c0.312,0,0.969,1,1.737,1h0.552
				c0.297,0-0.311-0.022-0.311-0.143v2.003c0-0.391,0.82,0.14,0.43,0.14h-0.238c-0.391,0-1.191-0.53-1.191-0.14v2.996
				c0,0.108,0.27,0.208,0.313,0.299c-0.035,0.141-0.122,0.285-0.133,0.433c-0.629,0.11-1.18,0.657-1.18,1.319v1.093h-3.48
				c-0.913,0-1.654,0-1.654,2h-0.636c-0.867,0-2.229,0.128-2.229,0.995v0.169c0,0.867,1.362,1.836,2.229,1.836h2.479
				c-0.118,0,0.292,0.357,0.292,0.699v0.827c0,0.456-0.113,0.856,0.092,1.23c-0.057,0.083-0.344-0.756-0.386,0.244h-0.049
				c-0.38,0-0.657,0.352-0.657,0.732v2.082c0,0.069-2,0.589-2,1.226v1.93c0,0.644,0.939,1.167,1.566,1.229
				c-0.002,0.051,0.434,0.099,0.434,0.151v1.93c0,0.241,0.016-0.28,0.084,1.72h-0.943h-1.124h-0.53c-0.076,0-0.149-0.501-0.22-0.482
				c-0.108-0.019-0.218-0.291-0.331-0.291c-0.982,0-1.784,0.606-1.906,1.555c-0.099-0.015-0.098-0.094-0.199-0.094
				c-1.066,0-1.83,0.8-1.83,1.865v0.552c0,1.066,0.434,1.931,1.5,1.931s1.5-0.864,1.5-1.931v-0.304c1,0.014,0.511,0.028,0.605,0.028
				c1.066,0,2.096-0.676,2.096-1.742c0-0.095,0.15-0.088,0.137-0.088h0.303h2.779c0.062,0,0.121-0.008,0.179-0.021
				c0.071,0.007,0.14,0.021,0.214,0.021h0.275c0.033,0-0.021-0.197,0.012-0.198c-0.316,0.323-0.6,0.576-0.6,1.063v5.131
				c0-0.189-1.044-0.306-1.447-0.306c-1.219,0-2.553,0.988-2.553,2.207v2.104h0.74c-0.54,0-1.74-0.012-1.74,0.528v3.008
				c0,0.54,1.2,0.464,1.74,0.464h0.25c0.541,0,1.01,0.076,1.01-0.464v-2.085c1,0.189,0.596,0.305,1,0.305s1-0.116,1-0.305v1.271
				v4.411c0,0.639,1,1.158,1,1.228v2.357c0,0.369,0.414,0.282,0.633,1.282h-0.355c0-1-0.529-1.261-1.139-1.261
				s-1.139,0.335-1.139,0.945v1.898v0.063v1.899c0,0.608,0.529,1.331,1.139,1.331s1.139-0.875,1.139-0.875h0.723v2.301
				c0,0.488,1,0.922,1,1.225v0.474h-1.559c-0.643,0-1.17,0.46-1.251,1.082c-0.005,0,0.229-0.013,0.224-0.013
				c-0.914,0-1.414,0.729-1.414,1.644v1.103c0,0.914,0.586,1.655,1.5,1.655s1.5-0.741,1.5-1.655v-0.816h1.318
				c0.699,0,0.682-0.855,0.682-1.555v-0.223c0-0.197-0.05-0.383-0.13-0.549c0.082-0.128,0.13-0.28,0.13-0.442v-0.377
				c1-0.229,1-0.834,1-1.553v-2.301h2.1c1.049,0,1.9-1.307,1.9-2.355v-0.063c0-1.048-0.852-1.582-1.9-1.582h-2.869
				c0.219-1-0.23-0.913-0.23-1.282v-4.734c0,0.448,1.557,1.016,2.202,1.016h-1.202v0.547c0,0.762,1.239,0.271,2,0.271
				s2,0.49,2-0.271v-1.654c0-0.083,0.01-0.11,0.028-0.108c-0.012-0.224-0.117-0.719-0.029-0.719c0.608,0,1.103-0.494,1.103-1.104
				c0-0.608,0.115-1.103-0.493-1.103l-0.61-1.068c0-0.532-0.432-0.791-0.965-0.791h-0.276c-0.532,0-0.965,0.259-0.965,0.791
				l-0.476,0.164c0.022,0.005,0.025,0.045-0.038,0.045h-0.076c-0.646,0-2.202,0.045-2.202,0.492v-0.322c0-0.469,0-0.883-1-1.161
				V130.5c1,0.189,1.044,0.306,1.447,0.306c1.22,0,2.553-0.987,2.553-2.206v-1.654c0-0.191,0.311-0.278,0.266-0.278h0.354
				c0.762,0,1.379-0.238,1.379-1s-0.617-1-1.379-1h-1.104c-0.403,0-0.764-0.547-1.016-0.271c-0.292-0.594-0.896-1.729-1.603-1.729
				h-0.276c-0.256,0-0.465,0.264-0.684,0.361c0.01-0.097,0.063,0.018,0.063-0.081v-1.93c0-1.295-1.117-2.35-2.412-2.35h-0.275
				c-0.242,0-0.313,0.053-0.313,0.121v-1.081c0-0.173-0.036-0.339-0.101-0.489c0.059-0.102,0.101-0.213,0.101-0.338v-0.6
				c0,0.116,0.142,0.386,0.433,0.386h0.035c1.032,0,1.678-0.918,1.716-1.941c0.002-0.001-0.184-0.102-0.184-0.102v0.464
				c0,0.972,1,1.768,1,1.903v0.579c0,0.913,1.086,1.654,2,1.654c0.913,0,2-0.741,2-1.654v-1.124c1,0.011,0.479,0.221,0.551,0.221
				h0.139c0.723,0,1.311-0.787,1.311-1.509v-0.138c0-0.724-0.588-1.353-1.311-1.353h-0.139c-0.079,0-0.328,0.031-0.402,0.044
				c0.012-0.074-0.148-0.129-0.148-0.208v-0.138c0-0.724-0.243-1.698-0.967-1.698h-0.689c-0.441,0-0.829,0.415-1.066,0.749
				c-0.099,0.002-0.711,0.111-0.805,0.126c0.025-0.146-0.473-0.196-0.473-0.349v-0.827c0-0.537-0.162-1.035-0.439-1.45
				c0.271-0.282,0.439-0.663,0.439-1.085v-0.169c0-0.283,0.438-0.545,0.305-0.774c0.131-0.237,0.472-0.506,0.472-0.796
				c0-0.008,0.126-0.016,0.126-0.024c0.089-0.016,0.239,0.248,0.321,0.215c0.183,0.057,0.437,0.384,0.638,0.384h0.553
				c0.769,0,1.426,0,1.737-2h0.604c1.295,0,2.244-0.729,2.244-2.023v-0.272c0-1.295-0.949-1.704-2.244-1.704h-0.756v-5.881
				c0-0.426-0.43-0.774-0.844-0.818c-0.035-0.076-0.022-0.15-0.068-0.221c0.511-0.281,0.912-0.818,0.912-1.442v-0.565
				c1-0.07,1-0.589,1-1.227v-0.275c0-0.379-0.227-0.714-0.494-0.942c0.59-0.33,0.967-0.964,0.967-1.688
				c0-1.066-0.89-1.94-1.957-1.94h-0.304c0.015,0,0.029-0.078,0.029-0.172c0-1.066-0.865-1.828-1.931-1.828h-1.103
				c-0.769,0-1.428,0-1.737,1h-1.061c-0.449,0-0.604,0.182-0.848,0.521c-0.191-0.335-0.563-0.653-0.563-0.849v-1.562
				c1-0.342,1-1.25,1-2.329v-0.552c0-0.784-0.197-2.229-0.765-2.229h1.215c0.762,0,1.378-0.238,1.378-1s-0.616-1-1.378-1h-4.716
				c-0.035-1-0.486-0.568-0.582-0.714c0.141-0.269-0.152-0.798-0.152-1.123v-1.163c0,0,0.748,0,0.734,0h0.875
				c0.527,0,0.977-0.026,1.203-0.462c0.287,0.119,0.601,0.462,0.933,0.462h0.653c1.069,0,1.968-2,2.292-3h0.414
				c0.971,0,1.768-1,1.902-1h0.304c0.762,0,1.378-0.931,1.378-1.692c0-0.104-0.015-0.36-0.038-0.458
				c1.142-1.167,2.545-2.675,3.047-3.176c0.896-0.896,1.437-4.96,2.385-5.908c0.947-0.948,1.853-2.302,1.853-3.606
				c0-1.304,0.979-1.64,0.979-2.944c0-1.304,1.304-1.635,2.771-3.103c1.467-1.467,2.69-1.551,3.423-0.817
				c0.734,0.733,1.631,1.303,2.283,1.956c0.025,0.025,0.051,0.039,0.078,0.048c0.401,0.251,1.96,1.425,2.976,1.425
				c1.137,0,1.557,1.885,1.557,1.885v4.283c0,0.228-1,0.834-1,1.554v1.936c0,0.227-0.177,0.468-0.215,0.863
				c-0.154-0.088-0.009-0.245-0.199-0.245h-0.087c-0.247,0-0.471,0.189-0.651,0.331c-0.196-0.142-0.418-0.179-0.665-0.179
				c-1.317,0-1.792,2.906-1.792,3.61s-2.444,2.495-4.017,2.495c-0.968,0-1.282,1.048-1.53,1.852
				c-0.611,0.298-0.844,0.927-0.844,1.652v0.186c0,0.05-0.511,0.053-0.507,0.053c-0.006,0-0.08,0-0.084,0
				c-1.395,0-3.409,1.226-3.409,2.62v1.142c0,1.089,1.505,2.015,2.532,2.37c-0.126,0.252,0.468,0.535,0.468,0.837v0.11
				c0,0.674,0.115,1.261,0.648,1.59l0.916,2.653l-0.581,5.678c-0.474,0-0.843,0-0.919,0c-1.295,0-2.435,2.65-2.435,2.65
				c0.011,0.012,0.024-0.061,0.036-0.05c-0.53,0.192-0.91,0.56-0.91,1.156c0,0.762,0.616,1.244,1.378,1.244h0.707
				c0.478,1,0.908,2.163,1.775,2.163c1.375,0-0.411-2.021,0.691-0.917c0.36,0.359,0.692,0.732,0.692,1.015v3.607
				c0-0.098-0.773-0.163-1.243-0.163c-2.1,0-2.966,2.501-2.966,2.501l-0.32-0.003c-0.669,0.376-1.471,1.086-1.471,1.909v0.01
				c0,1.216,1.74,1.879,2.957,1.879h3.391c-0.045,0-0.348,0.682-0.348,0.874v7.126h0.246c-0.9,0-1.246,0.772-1.246,1.672v0.049
				c0,0.496,0.033,0.934,0.383,1.233c-0.398,1.131-1.223,3.286-1.223,3.879c0,0.815-1.317,0.936-2.253,0
				c-0.937-0.935-0.574,2.306-1.902,3.634c-1.327,1.327-0.664,2.234-0.012,2.887c0.651,0.652,2.737,1.113,3.526,0.326
				c0.788-0.789-0.066-1.678,1.123-0.489c0.217,0.217,0.441,0.457,0.67,0.701l-0.679,1.867c0,0-3.934,3.137-3.934,5.438
				s1.926,1.5,2.967,2.541c1.041,1.042,0.966,1.811,0.966,1.811s-1.79,0.614-0.64,1.765c0.215,0.215,0.351,0.351,0.432,0.432
				c0,0,0.026,0.026,0.107,0.107c0.027,0.027,0.06,0.06,0.101,0.101c0.64,0.64-2.859,2.266-3.603,3.008
				c-0.741,0.742,0,5.039,0,5.039h3.326c0,0,0.644-2.593,1.644-2.593s0-2.316,0-3.467c0-1.151,0.482-2.156,1.863-2.156
				c1.379,0,0.137-6.51,0.137-6.51v-5.515l-0.086-0.09c0.018-0.012,0.015-0.019,0.029-0.033c0.334-0.335,0.547-0.176,0.904,0.046
				c0.543,0.83,1.177,1.665,1.267,1.175c0.039-0.215,0.154-0.474,0.309-0.742c1.344-0.108,1.221-1.575,2.971,0.173
				c0.565,0.566,1.606,1.121,1.606,1.593v1.118h-0.733c-0.762,0-1.378,0.239-1.378,1s0.616,1,1.378,1h-1.931
				c-0.608,0-1.103,0.493-1.103,1.103s0.223,1.103,0.833,1.103c0,1.218,0.934,2.206,1.934,2.206v3.589h-0.708h-0.256h-0.147
				c-0.305,0-0.553-0.168-0.553,0.136c0,0.026-0.156-0.16-0.152-0.134c-0.004,0.026-0.184-0.16-0.184-0.134v1.133h0.199
				c-0.533,0-0.199-0.297-0.199,0.236v0.152c-2,0.07-2,0.588-2,1.227v1.93c0,0.234,0.134,0.451,0.247,0.637
				c-0.114,0.174-0.149,0.937-0.149,1.16c0,0.609,0.526,1.658,1.136,1.658h2.846c-0.052,0-0.079-0.786-0.079-0.61v0.102
				c0,0.083,0.012,0.162,0.024,0.242c-0.013,0.039-0.024,0.077-0.024,0.121v1.146h-0.146c-0.534,0-0.854,0.527-0.854,1.061v2.364
				c0-0.011-0.248-0.425-0.319-0.425h-0.137c-0.183,0-0.355,0.239-0.513,0.307c-0.16-0.066-0.402-0.003-0.587-0.003
				c-0.762,0-1.444,0.717-1.444,1.479v3.861c0,0.761,0.74,1.378,1.5,1.378s1.5-0.617,1.5-1.378v-1.952
				c0-0.024,0.236,0.069,0.367-0.003c0.154,0.106,0.284,0.312,0.486,0.312h0.275c0.533,0,0.871-0.719,0.871-1.252v-2.758v-1.93
				v-1.053c0,0.052,0.419-0.007,0.595-0.007h0.103c0.885,0,1.303-0.623,1.303-1.508v-0.102c0-0.176,0.265,0.61,0.213,0.61h0.087
				c0.608,0,1.104-1.049,1.104-1.658c0-0.148-0.232-0.567-0.286-0.697c0.051-0.1-0.117-0.485-0.117-0.604v-4.022
				c0-0.412,0.069-0.018-0.343-0.018h-0.163c-0.411,0-1.494-0.395-1.494,0.018v3.982h-3.126c0.006-1,0.126-0.408,0.126-0.455v-1.93
				c0-0.047-0.12,0.385-0.126,0.385h0.152c0.002,0,0.004,0,0.006,0c0.001,0,0.003,0,0.004,0h0.256c0.386,0,0.708-0.836,0.708-1.222
				v-0.266v-0.276v-0.236h1.094c0.076,0,0.148-0.016,0.214-0.043c0.09,0.025,0.183,0.043,0.281,0.043h0.113
				c0.214,0,0.411-0.064,0.578-0.174c0.186,0.108,0.4,0.174,0.631,0.174h0.226c0.7,0,0.863-1.295,0.863-1.994v-2.984
				c0-0.67-0.321-1.214-0.982-1.257c0.047-0.18,0.182-0.365,0.182-0.56c0-0.05,0.039-0.096,0.036-0.146
				c0.336-0.188,0.592-0.544,0.592-0.957c0-0.609-0.47-1.103-1.078-1.103h0.413h0.275h0.139c0.761,0,1.378-0.618,1.378-1.379
				c0-0.023-0.483-0.045-0.484-0.069c0.001-0.023-0.47-0.046-0.47-0.069v-0.282c1-0.028,0.682-0.07,0.754-0.141
				c0.74-0.741-1.141-4.238-1.141-5.379c0-0.464-0.155-2.532-0.517-4.823c0.029,0.002-0.087,0.008-0.058,0.008
				c0.608,0,0.961-0.494,0.961-1.103v-6.827c0-0.223,0-0.602,0-1.031v-2.146c1-0.246,3-1.101,3-2.128v-3.631h-0.238
				c0.191,0,0.543,0,0.95,0h1.288v5.386c0,0.815,0.305,1.477,1.102,1.541c0.053,0.09-0.102,0.186-0.102,0.289v3.86
				c0,0,1.088,2.543,0.234,3.396c-0.852,0.853-2.508,1.84-0.897,3.451c1.609,1.61,1.452,3.222,1.452,4.832
				c0,0.645,0.238,1.732,0.576,2.73c-0.236,0.226-0.365,0.542-0.365,0.895v2.62h-1.496c-0.381,0-0.504,0.308-0.504,0.688v0.276
				c0,0.105-0.064,0.203-0.022,0.293c-0.689,0.294-1.219,0.997-1.219,1.794c0,1.066,0.817,1.949,1.883,1.949h0.855
				c0.093,0,0.503,1.152,0.503,1.424v3.641c0,0.27-1,0.908-1,1.653v0.276c0,0.745,0.787,1.006,1.435,1.006h-0.068
				c0,2,0.634,1.457,0.634,1.68v3.32h0.048c-0.567,0-1.048,0.106-1.048,0.674v0.326h-1.634c-0.306,0-0.552,0.195-0.552,0.5
				s0.246,0.5,0.552,0.5h2.682h-0.048v2.886v1.973c0-0.028-0.149,0.142-0.293,0.142h-0.821c-1.144,0-1.886,0.743-1.886,1.887v0.27
				c0,1.145,0.742,1.844,1.886,1.844h0.821c0.144,0,0.293,0.213,0.293,0.186v2.248c0,0.305,0.193,0.551,0.5,0.551
				c0.303,0,0.5-0.246,0.5-0.551v-2.879c0-0.024,0.154-0.166,0.176-0.191c0.148,0.436,0.669,0.637,1.153,0.637h0.552
				c0.609,0,1.103-0.391,1.103-1s-0.493-1-1.103-1h-0.552c-0.202,0-0.778,0.07-0.942,0.165c0-0.007-0.387-0.002-0.387-0.009v-0.162
				c2-0.128,2-0.685,2-1.351v-2.757c0-0.762-0.791-1.379-1.553-1.379c-0.094,0-0.447,0.01-0.447,0.028v-1.131
				c0,0,0.174-0.013,0.203-0.018c0.063,0.008,0.179,0.018,0.243,0.018c0.046,0,0.119-0.009,0.165-0.014
				c0.046,0.006,0.164,0.014,0.212,0.014c0.608,0,1.177-0.494,1.177-1.103v-0.276v-3.034v-2.233c1,0.018,0.354,0.027,0.447,0.027
				c0.762,0,1.553-0.617,1.553-1.379v-1.104c0-0.761-0.514-1.378-1.275-1.378c-0.313,0-0.725,0.107-0.725,0.282v-3.208h1.26
				c1.065,0,1.931-0.934,1.931-2c0-1.065-0.865-2-1.931-2h-0.542c0.451,0,1.282-0.61,1.282-1.062v-0.018
				c0-0.452-0.831-0.92-1.282-0.92h-2.718v-3.211c2-1.878,0.67-5.788,1.586-6.703c1.082-1.082,2.499-2.831,1.63-3.7
				s-3.56-0.533-3.56-1.684c0-1.151,1.121-5.156,1.121-5.156s1.646-1.165,1.646-2.606c0.883,0,1.577-0.714,1.577-1.596v-0.117
				c0-0.882-0.627-1.227-1.509-1.227h-2.876c-0.173,0-0.615-0.334-0.615-0.284v-4.046c0-0.858-0.572-1.67-1.43-1.67h-0.202
				c-0.316,0-0.516,0.153-0.761,0.315c-0.19-0.159-0.607-0.199-0.607-0.199v-0.046c0-0.889-0.904-1.07-1.794-1.07h-0.06
				c0.004-1-0.146-0.629-0.146-0.677v-0.827c0-0.517,0.054-0.979-0.297-1.306c0.007-0.07,0.297-0.139,0.297-0.211v-1.943
				c0,0.004-0.301-0.036-0.253-0.036h0.274c0.397,0,0.979,0.055,0.979-0.163v-0.065c0,0,1.184,1.567,2.104,1.567
				c0.92,0-0.987-4.441-2.044-4.787c-0.004-0.001,0.003-0.104,0.001-0.104c-0.295-0.214-0.647-0.447-1.04-0.447h-0.274
				c-0.048,0,0.253,0.2,0.253,0.203v-1.393V89.72c0-0.436-0.206-0.82-0.522-1.072c0.321-0.384,0.522-0.871,0.522-1.41v-0.565
				c0,0.004-0.301-0.006-0.253-0.006h0.274c0,0,3.364,4.012,3.364,2.631s-0.001-4.122-1.682-5.299
				c-0.003-0.001-0.004,0.421-0.006,0.42c-0.253-0.684-0.904-0.752-1.677-0.752h-0.274c-0.048,0,0.253-0.83,0.253-0.826v-1.117
				c0-0.917-0.756-1.703-1.553-2.036l-1.394-1.272c0-0.469-0.054-0.89-1.054-1.191v-0.001c0-0.779,0-1.696-1-2.33v-1.165
				c0-0.45,0-0.845-1-1.097v-7.182c1,0.174,0.412,0.282,0.725,0.282c0.762,0,1.275-0.618,1.275-1.38v-0.928c1-0.229,1-0.834,1-1.553
				v-0.82c0,0.978,1.208,2.019,2.151,2.142c0.104,1.247,1.613,2.475,2.889,2.475h1.756c0.078,0,0.204-0.504,0.204-0.51v1.238
				c0,0.851,0.712,2.272,1.563,2.272h0.223c0.177,0,0.343-0.401,0.5-0.455c0.099,0.274,0.315,0.307,0.592,0.402
				c-0.396,0.354-0.651,0.771-0.651,1.344c0,0,0.238,4.357,0.827,4.946c0.589,0.588,2.356,4.867,2.356,5.74
				c0,0.872,0.677,4.125,0.677,4.125s-2.758,3.136-2.758,4.682c0,1.3,1.099,1.58,1.565,1.637c0.443,0.943,2.105,1.601,2.105,1.652
				v1.53c0,0.508,1,0.963,1,1.289v1.18c0,0.794,0,1.476,1,1.826v0.255c0,0.297,0.06,0.58,0.166,0.838
				c-0.103,0.205-0.166,0.434-0.166,0.678v2.481c0,0.693,0,1.272,1,1.452v1.168c0,0.914,0.99,1.654,1.904,1.654l0.697,0.951
				c0.104,0.659,0.794,1.624,1.481,1.624h1.104c0.761,0,1.379-1.078,1.379-1.839c0-0.761-0.618-1.609-1.379-1.609
				c-1.126-0.586-1.231-2.32-1.231-2.32c0-0.719,0.045-1.441-0.955-1.669v-1.51c1-0.382,1-1.086,1-1.9v-0.017
				c0-0.013,0.197-0.043,0.332-0.09c0.12,0.065-0.025,0.106,0.119,0.106c0.457,0,0.549-0.37,0.549-0.827v-0.99v-0.225v-2.094
				c0-0.456-0.043-0.827-0.5-0.827s-0.5,0.371-0.5,0.827v0.292c0-0.004-0.3-0.309-0.356-0.309h-0.644v0.167c0-0.793,0-1.475-2-1.826
				v-0.668c0-0.6-0.52-1.127-0.973-1.452c0.122-0.321-0.027-0.666-0.027-1.03v-0.276c0-0.507,0.383-0.978,0.152-1.392
				c0.213-0.421,0.604-0.841,0.636-1.228c0.142-1.727-1.247-0.857-1.247-2.206s-1.313-3.704-1.313-5.239s-1.07-2.705-1.07-3.584
				c0-0.578-0.458-2.945-0.784-4.508c0.043-0.03,0.089-0.131,0.128-0.165c0.275,0.289,0.671,0.406,1.103,0.406h6.204h0.138h3.098
				c1.078,2,2.831,5.028,2.831,5.028s0.874,2.974,1.563,3.664c0,1.07,1.563,2.002,1.563,2.329v2.93c0,0.434-0.309,1.05-0.941,1.05
				h-1.219c-0.148,0,0.16,0.057,0.16,0.116v-0.923c0-0.457-1.043-0.827-1.5-0.827s-1.5,0.371-1.5,0.827v3.309
				c0,0.457,0.756,0.827,1.213,0.827c0.047,0,0.327-0.006,0.373-0.014c0.56,0.651,1.414,0.099,1.414,0.099v-1.414h1.218
				c0.294,0,0.687-0.021,0.863-0.228c0.26,0.06,0.919,0.238,0.919,0.306v10.626c0,0.213-0.069,0.731,0.036,0.9
				c-0.768,0.082-1.568,0.396-1.998,1.396h-0.51c-0.609,0-1.103,0.173-1.103,0.782c0,0.088,0.013,0.013,0.032,0.095
				c-0.353,0.249-0.584,0.468-0.584,0.934c0,0.761,0.617,1.188,1.379,1.188h1.104c0.068,0,0.134,0.214,0.2,0.204
				c0.45,0.353,1.012,0.796,1.628,0.796h0.815v1.425v0.966v1.24c0,0.609,0,1.104,1,1.104v2.266h-0.611
				c-0.361,0-0.697,0.064-0.999,0.219c-0.277-0.154-0.354-0.264-0.695-0.264c-1.064,0-1.694,0.849-1.694,1.915v0.552
				c0,1.066,0.63,1.93,1.694,1.93c0.341,0,0.536-0.095,0.813-0.249c0.262,0.134,0.493,0.219,0.802,0.239l0.553,1.75
				c0,0,1.597,3.681,1.597,1.84s1.531-0.407,2.063-2.357c0.177-0.653,0.476-1.575,0.742-1.575h1.19c0.609,0,1.104-0.891,1.104-1.5
				c0-0.61-0.494-1.5-1.104-1.5h-1.409c-0.294-1-0.626-0.858-1.205-1.006c0.003-0.025,0.159-0.028,0.159-0.055v-2.757
				c0-0.609,0-1.103-2-1.103v-1.654c0-0.202,0.536,0.575,0.441,0.575h1.67c0.686,0,0.889-1.682,0.889-2.367v-0.112
				c1-0.347,1-1.026,1-1.818v-0.276c0-1.142-0.471-1.427-1.612-1.427h-0.276c-0.117,0-0.231,0.067-0.344,0.086
				c-0.479-0.686-1.273-1.086-2.175-1.086h-0.806c0.095-1-0.787-1.094-0.787-1.296v-9.997c1-0.186,3.431-0.913,4.445,0.102
				c1.151,1.15,4.406,2.792,4.406,3.942c0,1.151-0.442,2.892,1.054,4.387c1.496,1.495,3.861,4.494,4.896,5.529
				c0.914,0.915,0.167,7.864,0.994,10.5c-1.554,0.019,0.459,4.222,1.145,4.908c0.687,0.687-2.048,1.837-4.247,1.837
				c-2.2,0-3.17,2.858-1.905,4.124c1.267,1.266,3.978-0.037,6.277-0.037c0,0-0.586,2.833-0.586,3.984c0,1.15,1.38,2.016,2.91,2.016
				s2.611,2.816,2.611,4.657c0,0.315,0.106,0.412,0.27,0.364c-0.015,0.825,0.157,1.478,0.729,1.478c2.206,0,0.827,2.5,2.48,2.5h0.72
				c-0.55,0-1.2,0.408-1.2,0.958v0.215c0,0.55,0.65,1.827,1.2,1.827h-0.021c-0.538,0-1.18-0.396-1.18,0.143v1.507
				c0-0.762-0.739-1.378-1.5-1.378s-1.5,0.617-1.5,1.378v0.946c0-0.07-0.008,0.404-0.254,0.404h-0.25
				c-1.302,0-2.496,0.532-2.496,1.834v0.802c0,0.051,0.151-0.636,0.154,1.364h-1.67c-0.305,0-0.551,0.195-0.551,0.5
				s0.246,0.5,0.551,0.5h1.104c-0.609,0-1.104-0.109-1.104,0.5c0,0.609,0.494,0.5,1.104,0.5h2.205c0.61,0,1.207-0.261,1.207-0.87
				c0-0.005,0-0.079,0-0.084c1-0.051,1.422-0.521,1.809-1.164c0.203-0.082,0.319-0.295,0.319-0.526c0-0.011-0.018-0.028-0.019-0.038
				c0.094,0.015,0.075,0.024,0.173,0.024c0.297,0,0.718-0.077,0.718-0.197v2.399v1.654v2.886c0,0.386,0,0.716,0,0.874v3.134
				c0,0.233,0.097,0.443,0.254,0.594c-0.157,0.171-0.254,0.396-0.254,0.646v0.276c0,0.458,0.544,0.84,0.973,0.938
				c-0.126,0.306,0.027,0.64,0.027,0.991v0.827c0,0.395,0.248,0.599,0.402,0.934c-0.109-0.078-0.086-0.299-0.231-0.299H197.7h-0.139
				h-0.895v-3.116c0-0.229,0.572,0.116,0.344,0.116h-0.276c-0.229,0-1.067-0.345-1.067-0.116v3.497c0,0.114-0.224,0.924-0.224,1.284
				c0,0.456,0.696,1.335,1.153,1.335h0.138h-0.067v-0.914c0-0.061-0.152,0.914-0.346,0.914h-0.552c-0.913,0-1.654,0.232-1.654,1.146
				c0,0.303,0.087,0.329,0.229,0.573c-0.142,0.245-0.229,0.424-0.229,0.728c0,0.912,0.741,1.553,1.654,1.553h0.552
				c0.276,0,0.534-0.074,0.764-0.194c0.124,0.119,0.291,0.194,0.477,0.194h0.276c0.38,0-0.171-0.36-0.171-0.741v-5.238
				c0-0.03,0.416,0.451,0.412,0.423c0.479,0.633,1.661,1.557,2.516,1.557h0.276c0.026,0-0.482-0.516-0.456-0.516
				c-0.136,0.199-0.748-0.068-0.748,0.19v0.275c0,0.686,1.622,2.05,2.307,2.05h0.828c0.685,0,0.865-1.364,0.865-2.05v-0.275
				c0-0.225-0.063-0.431-0.166-0.612c0.104-0.161,0.166-0.353,0.166-0.56v-1.503h0.926c0.305,0,0.553-0.195,0.553-0.5
				s-0.248-0.5-0.553-0.5h-0.926v-0.393c0-0.463-0.118-0.85-0.536-0.982c-0.102-0.271-0.29-0.516-0.468-0.734
				c0.027-0.09,0.004-0.184,0.004-0.282v-0.276c0-0.533-0.16-0.332-0.693-0.332h-2.945c0.03-1-0.361-0.812-0.361-0.908v-3.31
				c0-0.119-0.027-0.231-0.073-0.334c0.046-0.112,0.073-0.235,0.073-0.364v-1.333c0-0.093,0.902-0.751,1.084-0.751h0.431
				c0,0,0.247,0.702,0.551,0.702c0.031,0,0.058,0.533,0.087,0.528c0.305,1.273,1.442,2.77,2.809,2.77h0.039v0.713
				c0,0.305,0.195,0.552,0.5,0.552c0.303,0,0.5-0.247,0.5-0.552v-1.669c2-0.073,3-1.329,3-2.881v-0.275
				C207.667,151.955,206.606,150.667,205.006,150.667z M70.682,85.591c-0.009,0-0.017-0.003-0.025-0.004
				c0.018-0.02,0.026-0.031,0.041-0.047C70.691,85.557,70.687,85.575,70.682,85.591z M77.826,126.466
				c0-1.713,1.427-2.571,2.282-1.715c0.336,0.335,0.559,2.651,0.559,1.195v5.961c-1,1.655-0.254,3.859-0.06,5.325
				c-0.224,0.235-0.264,0.466-0.264,0.693c0,1.214,0.759,4.469,0.759,5.326s-1.169,2.056-1.169,3.274
				c-0.266-0.041-0.51,0.141-0.788,0.141h-0.029c-0.226,0-0.446-0.19-0.666-0.163c-0.21-2.225-0.422-5.076-0.422-7.072
				c0-3.94,1.155-7.962,0.414-8.704C77.699,129.985,77.826,128.179,77.826,126.466z M81.317,186.121
				c-0.012,0-0.096,0.002-0.094,0.004c-3.043,1.133-2.557-5.414-3.557-6.648c0-0.001,0-0.005,0-0.005s-1.381-5.234-1.807-7.443
				c-0.357-1.861,0.238-3.296,0.763-4.171c0.803-0.176,1.612-0.633,1.612-1.757c0-0.962,0.167-1.809,0.347-2.346
				c0.173,0.017,0.356-0.088,0.534-0.088h0.029c0.278,0,0.521,0.199,0.521,0.158v3.277c-1,0.652-1,1.567-1,2.583v3.86
				c0,1.139,0.627,2.152,1.455,2.809c-0.262,0.301-0.378,0.573-0.378,0.775c0,1.175,0.523,4.683,1.535,5.695
				C82.292,183.837,81.685,186.121,81.317,186.121z M97.667,197.913v-1.859c0-1.231,0.994-0.575,0.029-1.193l-0.181-1.737
				c0.016,0,0.093-0.002,0.108-0.002c0.018,0.025-0.063,0.052-0.045,0.078c0,0,3.088-0.266,3.088,0.934s-2,5.884,0,5.884
				c1,0,3.217,1.996,2.33,1.996s-3.823,0.086-4.595,0.856c-0.771,0.771-3.382,0.771-2.61,0
				C96.561,202.098,98.667,199.563,97.667,197.913z M96.558,172.468c-0.302,2.254,0.365,5.343,0.365,6.337
				c0,0.954-0.435,1.861-0.685,2.861h-1.572v-4.399c0-0.856,0.053-1.639-0.467-2.241c0.004-0.035,0.189-0.066,0.189-0.103
				c0,0-0.644-2.949,0.643-2.949C95.719,171.974,96.272,172.13,96.558,172.468z M95.124,168.891c-1.113,0-1.378-2.225-1.378-5.225
				h2.017C95.762,166.667,96.237,168.891,95.124,168.891z M93.746,153.359c1.408-1.409,1.978,1.199,1.978,2.399
				s-2.057-0.136-2.057-0.136v-1.103c0-0.355-0.033-0.691-0.154-1.003C93.577,153.474,93.68,153.424,93.746,153.359z M110.667,89.72
				c0,1.64,0.115-1.054,0.41-1.054h1.235c2.023,0,1.354,3.535,1.354,3.535v1.103c0,0.201,0.472,0.391,0.537,0.569
				c-1.853,0.33-2.537-0.097-3.537-0.515V89.72z M82.688,186.743c-0.212-0.179-0.41-0.327-0.593-0.437
				c0.281,0.055,0.621,0.117,0.987,0.177C82.946,186.562,82.815,186.649,82.688,186.743z M86.898,186.274
				c-0.785-1.217-1.12-4.125-2.278-5.283c-0.695-0.695-0.23-3.232,0.395-5.153c0.52-0.621,0.652-1.421,0.652-2.292v-3.86
				c0-0.642,0.01-1.242-0.285-1.763l0.554,0.037c0,0-0.252-5.433-1.61-7.871c-0.046-0.083,0.078-0.155,0.029-0.221
				c0.09-0.385,0.313-0.785,0.313-1.198V152c0-0.916,0.228-2.266,1.507-2.41c1.951-0.219,2.131,0.231,2.131,2.171
				c0,0.521-0.317,1.358-0.247,2.146c-0.043,0.196-0.391,0.4-0.391,0.611v1.103c0,1.113,0.945,2.065,1.892,2.501l-0.366,0.256
				c0,0,0.939,5.173,0.07,6.041c-0.867,0.867-1.815,3.897-1.067,4.646c0.748,0.749,0.845,4.755,0.845,5.857
				c0,0.03-0.267,0.062-0.259,0.093c-0.522,0.604-1.114,1.39-1.114,2.251v7.445c0,1.006,0.38,1.907,1.067,2.537
				c-0.006,0.108-0.067,0.216-0.067,0.325v0.065c0,0.48,0.297,1.042,0.267,1.625C88.696,187.917,88.124,186.797,86.898,186.274z
				 M88.965,130.667c-0.001,0,0.025,0,0.025,0c-0.814,0-1.088,1.31-1.156,1.827c-0.431,0.017-0.836-0.036-1.274,0.048
				c0.033-0.173,0.106-0.451,0.106-0.634v-12.969c0-0.579,1.051-1.362,1.416-1.728c0.686-0.686,0.767-1.848,0.767,0.714
				c0,2.393,1.365,4.557,1.555,4.833c-0.981,0.423-1.737,1.396-1.737,2.532v3.86C88.667,129.55,88.814,129.667,88.965,130.667z
				 M90.667,196.053v0.849c-1,0.989-1.807-2.042-1.807-2.042s2.164,0.088,2.105,0c0.002-0.005-0.118-0.01-0.116-0.015
				C90.788,195.144,90.667,195.524,90.667,196.053z M91.898,193.724c-0.768,0.326-1.226,0.59-1.339,1.079
				c0.102-0.522-1.893-1.224-1.893-1.828v-1.128C89.667,193.199,89.95,194.144,91.898,193.724z M106.307,78.667
				c-0.264,0-0.641,0.977-0.641,1.402v0.827v0.552v5.79v10.676c0,0.204-0.814,0.979-1.109,1.422
				c-0.135-0.059-0.177,0.331-0.334,0.331h-1.103c-0.609,0-1.104,0.07-1.104,0.679c0,0.205,0.211,0.183,0.308,0.347
				c-1.004,0.034-1.658,0.643-1.658,1.656v0.111c0,0.313-0.068,0.604,0.067,0.864c-0.719,0.222-1.324,1.423-1.384,2.201
				c-0.776,0.197-1.465,0.143-1.667,2.143H95.4c-0.19,0-0.733-1.107-0.733-1.071v-2.139c0-0.304,0-0.737,0-1.226v-4.963
				c0-0.2,0.133-0.389,0.066-0.566c0.984-0.078,1.934-0.892,1.934-1.896v-0.04c0-0.522,0-0.996-1-1.341v-1.314
				c1-0.31,1-0.969,1-1.737v-2.113c1,0.448,1.907,1.406,2.553,1.406h0.082c1.195,0,2.365-1.641,2.365-2.836v-1.185
				c0-1.02-1-1.868-3-2.099v-1.762c0-1.196,0.176-2.119-1.021-2.119h-0.081c-1.196,0-2.898,0.923-2.898,2.119v3.377
				c0,0.135-1,0.931-1,1.903v0.965c0,0.271-1,0.909-1,1.654v3.74c0,0.345,0,0.818,0,1.341v0.04c0,0.494,0.193,0.939,0.5,1.279
				c-0.309,0.3-0.5,0.718-0.5,1.183v3.369c-2,0.22-3,1.064-3,2.079v0.81c0,1.446-2.061,3.289-3.568,4.1
				c-0.33-0.292-0.38,0.041-0.855,0.041h-0.642c-0.281,0,0.065-0.959-0.935-0.849v-8.322c1-0.303,1-0.736,1-1.225v-4.419
				c0-0.244-0.057-0.475-0.152-0.683c0.094-0.178,0.152-0.377,0.152-0.591v-3.685v-0.377v-2.432c0,0.031,0.127,0.051,0.225,0.051
				c0.457,0,0.775-0.371,0.775-0.827v-0.552c0-0.457-0.318-0.827-0.775-0.827c-0.098,0-0.225,0.02-0.225,0.051v-0.133
				c1-0.205,1-0.796,1-1.502v-0.14c0-0.707,0-1.298-1-1.502v-3.115c0-0.762-1.014-1.379-1.775-1.379
				c-0.313,0-1.225,0.107-1.225,0.282v-0.436c0-0.19,0.801-0.211,0.801-0.618c0-0.608-0.246-0.771-0.854-0.771h-0.552
				c0-1-0.066-0.836-0.174-1.056c0.107-0.195,0.174-0.582,0.174-0.821c0-0.236-0.064-0.538-0.17-0.733
				c0.188-1.144,0.647-2.602,1.73-3.685c2.164-2.163,4.07-4.908,4.07-6.375s-2.248-1.801-1.106-1.638
				c1.141,0.163,5.071-0.776,6.212-0.776c1.14,0,4.744-1.916,5.559-1.916c0.586,0,1.311,0,3.311,0v5.168c0,0.943,1,1.708,1,1.778
				v2.909c0,0.048,0.007,0.094,0.014,0.139c-0.007,0.045-0.014,0.09-0.014,0.138v9.099c0,0.534,0.782,0.769,1.315,0.769h0.276
				c0.332,0,0.347-0.07,0.52-0.326c0.053,0.052-0.111,0.197-0.111,0.241c0,0.002,0,0.004,0,0.006c0,0.762,1.174,1.079,1.936,1.079
				H106.307z M107.003,70.667h-1.974c-0.304,0-0.363-0.421-1.363-0.254v-2.465c0,0.603,1.045,1.719,1.647,1.719h1.805
				c-0.083,0-0.452-0.124-0.452,0.148v0.103C106.667,69.995,106.996,69.667,107.003,70.667z M109.768,67.385h-0.178
				c-0.069-0.121-0.166-0.22-0.274-0.307l0.572,0.209C109.848,67.321,109.805,67.349,109.768,67.385z M125.731,91.099h-0.036
				c0.014-0.006,0.024-0.013,0.038-0.02C125.733,91.085,125.731,91.092,125.731,91.099z M127.667,101.667h-2.449l2.449-0.564
				V101.667z M128.043,94.076c-0.129-0.077-0.266-0.149-0.408-0.22h0.495C128.095,93.927,128.069,94,128.043,94.076z
				 M137.667,109.435v3.171v0.966v3.393c0-0.97-0.32-1.601-0.453-1.601c-0.551,0-0.292,4.811-1.053,7.169
				c-0.762,2.359-2.792,2.523-4.25,1.065c-1.107-1.108-1.472-4.964-1.589-6.754c0.101-0.05,0.198,0.216,0.285,0.147
				c0.344,0.22,0.754,0.675,1.19,0.675h1.103c1.218,0,2.206-1.282,2.206-2.5s-0.988-2.5-2.206-2.5h-1.233v-4.34
				c2,0.265,0.938,0.419,1.449,0.419c1.37,0,2.551-1.111,2.551-2.481v-0.377c1-0.115,0.871-0.208,1.066-0.483
				c0.271,0.088,0.823,0.263,1.121,0.263h-0.188v3.631c0,0.023,0.007,0.046,0.008,0.069
				C137.672,109.39,137.667,109.412,137.667,109.435z M137.667,83.7v1.211c0-0.264-0.578-0.43-1.004-0.43
				c-0.246,0-0.428,0.149-0.637,0.246c-0.179-0.094-0.331-0.061-0.547-0.061h-0.194c-0.708,0-1.618,0.388-1.618,1.097v2.399
				c0,0.708,0.91,2.504,1.618,2.504h0.194c0.646,0,1.177-1.093,1.264-1.716c0.007,0,0.012-0.304,0.018-0.304
				c0.47,0,0.518-0.35,0.82-0.665c0.088,0.322,0.086,0.458,0.086,0.702v3.794v0.275v6.673c0-0.035,0.392,0.241,0.206,0.241h-0.019
				c-0.448,0-0.865-0.03-1.24,0.161c-0.271-0.193-0.768-0.383-1.125-0.383c-0.914,0-1.822,0.667-1.822,1.581v1.13
				c0-0.011-0.014-0.028-0.107-0.028c-0.146,0-0.206,0.064-0.346,0.088c-0.393-0.366-0.832-0.55-1.41-0.55h-0.137v-6.983
				c0-0.799-0.421-1.484-1.112-1.778c0.013-0.041,0.062-0.081,0.07-0.123c0.364-0.467,0.591-1.046,0.591-1.684
				c0-0.617-0.549-1.18-0.549-1.639V79.225c0-0.082-0.01-0.162-0.024-0.24c0.011-0.08,0.024-0.158,0.024-0.24v-0.11
				c0-1.036-0.812-1.969-1.847-1.969h-0.228c0.277,0,0.074-0.749,0.074-1.238v-1.142c0-1.141,1.865-2.766,3.984-2.766
				c1.961,0,2.016,0.707,2.016,0.813v1.161c0,0.04,0.008,0.078,0.013,0.116c-0.004,0.039-0.013,0.076-0.013,0.116v4.411
				c0,0.762,0.836,1.379,1.598,1.379c0.127,0,0.257-0.022,0.373-0.054L137.667,83.7z M201.371,151.667h-0.087
				c0,0-0.504-0.504-0.809-0.504s-0.809,0.294-0.809,0.599v-0.095h1.065h1.208C201.724,151.667,201.536,151.667,201.371,151.667z"/>
			<path d="M49.212,143.667h-0.827c-1.142,0-2.719,0.197-2.719,1.34v0.275c0,0.139,0.34,0.274,0.365,0.405
				c-0.363,0.351-0.429,1.172-0.429,1.718c0,1.066,1.027,2.262,2.093,2.262h1.654c1.066,0,1.931-1.195,1.931-2.262
				c0-0.319,0.108-0.78-0.03-1.044c0.139-0.276,0.416-0.749,0.416-1.079v-0.275C51.667,143.864,50.355,143.667,49.212,143.667z"/>
			<path d="M52.667,138.667c0-0.552-0.447-1-1-1l0,0c-0.553,0-1,0.448-1,1l0,0c0,0.552,0.447,1,1,1l0,0
				C52.219,139.667,52.667,139.219,52.667,138.667L52.667,138.667z"/>
			<path d="M43.167,119.224c0.761,0,1.5-0.617,1.5-1.379v-3.309c0-0.761-0.739-1.378-1.5-1.378c-0.763,0-1.5,0.617-1.5,1.378v3.309
				C41.667,118.607,42.404,119.224,43.167,119.224z"/>
			<path d="M55.667,124.544v-6.781c0-0.716-0.003-1.097-0.72-1.097h-0.163c-0.717,0-1.117,0.381-1.117,1.097v1.01
				c0-0.062-0.255-0.101-0.448-0.101c-0.915,0-1.552,0.741-1.552,1.654v1.103c0,0.177-0.188,0.345-0.138,0.505
				c-0.389,0.354-0.862,0.857-0.862,1.426v2.757c0,1.065,0.935,1.931,2,1.931s2-0.865,2-1.931v-0.296
				c0,0.01,0.051,0.845,0.117,0.845h0.163C55.664,126.667,55.667,125.261,55.667,124.544z"/>
			<path d="M41.667,145.419v-0.552c0-0.972,0-1.768-2-1.902v-1.69c0-0.605,0.095-1.609-0.511-1.609h-0.015
				c-0.605,0-1.475,1.004-1.475,1.609v2.779c-1,0.072-1,0.592-1,1.231v0.268c0,0.687,0.833,1.113,1.52,1.113h0.01
				c0.189,0,0.539,1,0.945,1h0.015c0.124,0,0.241-0.184,0.353-0.221c0.15,0.037,0.187-0.016,0.348-0.016
				C40.92,147.429,41.667,146.486,41.667,145.419z"/>
			<path d="M41.667,149.004c-0.914,0-2,0.741-2,1.654v1.103c0,0.173,0.034,0.336,0.083,0.492c-0.049,0.15-0.083,0.307-0.083,0.474
				v0.688v0.139v1.516c0,0.914,1.086,1.655,2,1.655s2-0.741,2-1.655v-1.516v-0.139v-0.688c0-0.167-0.033-0.324-0.083-0.474
				c0.049-0.156,0.083-0.319,0.083-0.492v-1.103C43.667,149.745,42.581,149.004,41.667,149.004z"/>
		</g>
	</g>
</g>
<path fill="none" stroke="#294172" stroke-width="4" stroke-miterlimit="10" d="M66.246,216.875c0,0,42.546,1.592,50.751,0.006
	c8.203-1.585,27.217-1.582,21.828,8.246c-5.39,9.826-11.893,10.303-8.563,13.632c3.328,3.328,9.236,8.138,23.32,8.138
	c14.083,0,24.859,8.771,27.396,8.771s7.347,0,7.347,0l5.968,2.021"/>
<path fill="none" stroke="#294172" stroke-width="4" stroke-miterlimit="10" d="M207.902,252.391c0,0-0.296-3.805-4.1-3.805
	c-3.805,0-7.926-1.268-12.363-1.268s-9.51-1.902-12.68-1.902s-15.216-1.584-15.216-3.486s2.219-4.121-1.269-4.121
	s-22.189,3.337-22.189-1.66s3.17-4.363,3.17-5.631c0-1.269,1.309-3.184,2.88-4.755c1.572-1.571,3.184-5.059,0-8.242
	c-3.183-3.184-8.828-4.663-12.072-1.418"/>
<path fill="none" stroke="#294172" stroke-width="4" stroke-miterlimit="10" d="M72.667,226.667H97.33
	c0,0,15.253-3.777,19.653-3.777c4.399,0,12.483,2.705,8.838,6.35c-3.646,3.646-16.166,7.772-11.412,12.527
	c4.755,4.755,12.604,5.279,21.556,7.373c9.193,2.149,15.895,0.464,17.616,1.467c2.794,1.628,15.106,6.182,17.449,6.182
	c2.342,0,5.629,4.805,5.629,6.073"/>
<path fill="none" stroke="#294172" stroke-width="4" stroke-miterlimit="10" d="M75.418,229.567c0,0,5.147-2.193,7.341,0
	c2.194,2.193,16.75,0,18.336,0c1.584,0,12.996-2.371,12.996,0.975c0,3.111-6.82,4.905-10.461,5.607
	c-2.49,0.48-12.634,0.936-8.739,4.829c3.895,3.896,15.789,7.926,22.092,9.194c6.302,1.268,11.067,1.573,13.287,3.793
	c2.219,2.219,8.547-1.574,10.291,0.169c1.743,1.743,8.609,4.597,11.516,4.597c2.907,0,5.402-0.226,7.846,2.219"/>
<path fill="none" stroke="#294172" stroke-width="4" stroke-miterlimit="10" d="M153.491,219.167c0,0,2.835,3.456,2.835,6.31
	c0,2.852-5.567,5.346-4.271,6.641c1.295,1.296,10.192-0.058,11.478,1.228c1.284,1.284,7.449,0.608,8.882,1.099
	c2.143,0.733,2.539,6.479,5.709,6.479c3.169,0,2.854,3.744,4.757,3.744c1.901,0,4.892,0,4.892,0s23.225-3.781,25.224-1.782
	c1.999,1.998,6.974,2.777,6.974,2.777"/>
<path fill="none" stroke="#294172" stroke-width="4" stroke-miterlimit="10" d="M159.914,228.586c0,0,6.106-2.137,8.245,0.003
	c2.141,2.139,12.501,1.61,12.501,1.61s6.629,1.762,5.253,3.137c-1.375,1.375,9.789,0.633,10.916,1.76
	c1.125,1.126,11.073,4.57,11.073,4.57h6.342c0,0,7.945,0.224,9.847,0.224s2.535,0.386,2.535,0.386"/>
<path fill="none" stroke="#020202" stroke-width="3" stroke-linecap="round" stroke-miterlimit="10" d="M256.09,128.36
	c-0.235,0.235-0.535,0.464-0.877,0.687c-0.02-1.613-0.949-3.857-2.087-4.995c-2.327-2.327-5.099,5.617-5.833,6.352l0.532,1.49
	c-0.699-0.09-1.893,0.446-3.233,1.227c0.152-0.284,0.183-0.454,0.035-0.454c-1.066,0-3.637,0.136-3.637-3.33
	s-2.095-5.465-3.294-6.665c-1.2-1.2-1.509,2.399-1.509,5.08c0,1.634,0.56,6.662,0.997,10.079c-0.019,0-0.036,0.335-0.056,0.335
	h-4.411c-1.98,0-3.584,2.02-3.584,4s1.604,4,3.584,4h4.411c0.87,0,1.667-1.063,2.287-1.576c0,0,0.609,4.584,5.31,4.584
	c4.699,0,12.557-0.053,10.492-2.118c-2.065-2.065-7.393-5.81-7.393-7.762c0-0.466-0.589-0.703-1.456-0.675
	c1.121-0.917,2.138-1.977,2.807-2.957c0.139,0.084,0.286,0.131,0.444,0.16c-1.018,1.112,0.376,1.951,0.376,1.951
	s8.094-1.103,6.893-2.302c-0.155-0.155-0.359-0.293-0.598-0.41c0.256-0.131,0.498-0.301,0.72-0.522
	C257.011,134.54,258.045,126.404,256.09,128.36z"/>
<g>
	
		<image overflow="visible" opacity="0.75" width="40" height="42" xlink:href="6E8DDA2E.png"  transform="matrix(1 0 0 1 209.6665 69.6665)">
	</image>
	<g>
		<path d="M229.667,81.723c0-1.066-1.434-1.93-2.5-1.93s-2.5,0.864-2.5,1.93v1.103c0,0.298,0.68,0.841,0.8,0.841h-0.289
			c-0.155,0-0.485,0-0.868,0h-0.828c-0.392,0-0.728-0.047-0.879,0.289c-0.041,0.005-0.007-0.131-0.046-0.123
			c0.015-0.058,0.11-0.255,0.11-0.318V83.24c0-0.243-0.133-0.447-0.324-0.569c0.199-0.225,0.324-0.518,0.324-0.842v-0.762
			c0-0.703-0.721-1.4-1.424-1.4h-0.211c-0.703,0-1.365,0.697-1.365,1.4v0.762c0,0.324,0.125,0.617,0.324,0.842
			c-0.19,0.122-0.324,0.326-0.324,0.569v0.275c0,0.381,0.4,1.151,0.781,1.151h1.248c-0.176,0-0.283,0.413-0.283,0.724
			c0,0.762,0.617,1.276,1.379,1.276h0.752c-0.567,0-0.877,0.205-0.877,0.772v0.15c0,0.259,0.099,0.493,0.257,0.673
			c-0.162,0.251-0.257,0.548-0.257,0.868v0.076c0,0.893,0.573,2.46,1.466,2.46h1.179c0.268,0,0.517-0.072,0.739-0.187
			c0.122,0.113,0.284,0.187,0.464,0.187h0.275c0.381,0,0.877-1.153,0.877-1.533v-1.467h0.439c0.567,0,1.561-0.51,1.561-1.078v-0.15
			c0-0.568-0.993-0.772-1.561-0.772h-0.352c0.762,0,1.38-0.744,1.38-1.506c0-0.395,0.099-0.813-0.169-1.064
			c0.268-0.332,0.701-0.812,0.701-1.271V81.723z"/>
	</g>
</g>
<g>
	
		<image overflow="visible" opacity="0.75" width="41" height="43" xlink:href="6E8DDA2F.png"  transform="matrix(1 0 0 1 205.6665 108.6665)">
	</image>
	<g>
		<path d="M225.108,125.04c0.021-0.098-0.174-0.197-0.174-0.301c0-0.023-0.141-0.046-0.142-0.069
			c0.002-0.023-0.126-0.045-0.126-0.069v-0.276c0-0.533-0.377-1.658-0.91-1.658h-0.413h-0.552h-1.125v0.418c0-0.587,0-1.118-1-1.542
			v-1.215c0-0.762-0.24-1.379-1-1.379c-0.764,0-1,0.617-1,1.379v0.428c-1,0.341-3,1.25-3,2.329v1.24v0.276v3.998
			c0,1.37,1.631,2.482,3,2.482c1.371,0,3-1.112,3-2.482v-2.933h0.029c0.251,0,0.646,1,1.096,1h0.305c-0.02,0-0.43-0.368-0.43-0.273
			v1.103c0,0.761,1.239,1.379,2,1.379c0.763,0,2-0.618,2-1.379v-1.103C226.667,125.714,225.754,125.153,225.108,125.04z"/>
	</g>
</g>
<g>
	
		<image overflow="visible" opacity="0.75" width="45" height="38" xlink:href="6E8DDA22.png"  transform="matrix(1 0 0 1 218.6665 153.6665)">
	</image>
	<g>
		<g>
			<path d="M242.387,166.667h-1.7c0.01,0-0.021-0.38-0.021-0.429v-0.276c0-0.38-0.261-1.295-0.641-1.295h-2.62c0,0-0.494-1-1.103-1
				h-6.066c-0.609,0-1.103,0.891-1.103,1.5s0.493,1.5,1.103,1.5h2.785c0.065,0,0.329,1,0.661,1h0.072
				c-0.463,0-0.761,0.621-0.761,1.285c0,1.219,0.987,2.021,2.205,2.021c1.219,0,2.206-0.71,2.206-1.929
				c0-0.664-0.298-1.377-0.761-1.377h0.906c-0.09,0,0.115-0.4,0.115-0.206v0.036c0,0.6,0.225,1.17,0.825,1.17h3.896
				c0.599,0,1.279-0.57,1.279-1.17v-0.036C243.667,166.862,242.986,166.667,242.387,166.667z"/>
			<path d="M239.667,170.663c0-0.551-0.445-0.996-0.994-0.996h-1.012c-0.549,0-0.994,0.445-0.994,0.996v0.008
				c0,0.551,0.445,0.996,0.994,0.996h1.012c0.549,0,0.994-0.445,0.994-0.996V170.663z"/>
		</g>
	</g>
</g>
<g>
	
		<image overflow="visible" opacity="0.75" width="42" height="42" xlink:href="6E8DDA25.png"  transform="matrix(1 0 0 1 152.6665 136.6665)">
	</image>
	<g>
		<path d="M173.985,153.416c0-0.651-0.453-1.328-1.061-1.472c-0.492-0.69-1.295-1.277-2.209-1.277h-0.078
			c-0.343,0-0.668,0.071-0.972,0.187c-0.236-0.115-0.5-0.187-0.781-0.187h-0.521l0,0h1.761c0.305,0,0.553-0.195,0.553-0.5
			s-0.248-0.5-0.553-0.5h-2.231c-0.132-2-1.168-3-2.44-3h-0.03c-1.362,0-2.756,1.512-2.756,2.875v2.234c0,1.273,1,2.31,2,2.441
			v2.646c0,0.685,1.051,1.804,1.736,1.804h0.276c0.684,0,1.987-1.119,1.987-1.804v-2.196h-0.531c0.415,1,1.379,1,2.502,1h0.078
			c1.189,0,2.191-0.378,2.56-1.443C173.697,153.988,173.985,153.934,173.985,153.416z"/>
	</g>
</g>
<g>
	
		<image overflow="visible" opacity="0.75" width="40" height="47" xlink:href="6E8DDA26.png"  transform="matrix(1 0 0 1 220.6665 181.6665)">
	</image>
	<g>
		<path d="M239.198,201.667h-0.162c0.016,0-0.369-0.27-0.369-0.41v-0.827c0-1.915-1-3.492-3-3.698v-3.608
			c0-0.761-0.74-1.379-1.5-1.379c-0.764,0-1.5,0.618-1.5,1.379v4.213c-1,0.667-2,1.804-2,3.094v0.827
			c0,0.621,0.155,1.205,0.422,1.719c-0.263,0.424-0.422,0.918-0.422,1.453v0.552c0,1.522,1.477,2.757,3,2.757s3-1.234,3-2.757
			v-0.325c1-0.121,0.615-0.43,0.846-0.607c0.26,0.461,0.843,0.619,1.41,0.619h0.275c0.838,0,1.469-0.366,1.469-1.203v-0.276
			C240.667,202.35,240.036,201.667,239.198,201.667z"/>
	</g>
</g>
<g>
	
		<image overflow="visible" opacity="0.75" width="48" height="36" xlink:href="FA808710.png"  transform="matrix(1 0 0 1 135.6665 176.6665)">
	</image>
	<g>
		<g>
			<path d="M158.544,187.667h-5.878v-0.361c0-0.289-0.976-0.639-1.266-0.639h-5.016c-0.291,0-0.719,0.35-0.719,0.639v0.054
				c0,0.289,0.428,0.308,0.719,0.308h2.386c-0.096,0-0.153,0.459-0.153,0.66c0,0.217,0.064,0.472,0.172,0.642
				c-0.108,0.242-0.172,0.325-0.172,0.606c0,0.096,0.015,0.092,0.028,0.092h-1.821c-0.533,0-1.158,0.854-1.158,1.388v0.276
				c0,0.533,0.625,1.336,1.158,1.336h3.034c0.385,0,0.713,0,0.868-1h3.681c0.525,0,1,0,1.348,0h0.583c0.914,0,1.653-2,1.653-2h0.553
				c0.608,0,1.103-0.391,1.103-1S159.153,187.667,158.544,187.667z"/>
			<path d="M162.128,186.667h-1.654c-0.456,0-0.827,0.543-0.827,1s0.371,1,0.827,1h1.654c0.457,0,0.827-0.543,0.827-1
				S162.585,186.667,162.128,186.667z"/>
		</g>
	</g>
</g>
<g>
	
		<image overflow="visible" opacity="0.75" width="42" height="42" xlink:href="FA808717.png"  transform="matrix(1 0 0 1 174.6665 201.6665)">
	</image>
	<g>
		<g>
			<path d="M194.135,216.667h-0.041c-0.088,0,0.572-0.641-0.428-0.632v-1.404c0-1.065-0.779-2.274-1.844-2.274
				c-0.971,0-1.682,1.311-1.816,1.311h-0.13c-0.858,0-1.21,1.384-1.21,2.24v0.76h-1.722c-0.762,0-1.378,0.238-1.378,1
				s0.616,1,1.378,1h3.31c0.096,0,0.188,0.04,0.277,0.022c0.295,0.3,0.688,0.593,1.124,0.649c0.118,1.25,1.157,2.328,2.438,2.328
				h0.041c1.359,0,2.531-1.244,2.531-2.604v-0.593C196.667,217.112,195.495,216.667,194.135,216.667z"/>
			<path d="M192.667,222.667c0-0.552-0.447-1-1-1h-3c-0.553,0-1,0.448-1,1l0,0c0,0.553,0.447,1,1,1h3
				C192.219,223.667,192.667,223.219,192.667,222.667L192.667,222.667z"/>
		</g>
	</g>
</g>
<polyline fill="none" stroke="#000000" stroke-width="2.2059" stroke-linecap="round" stroke-miterlimit="10" points="
	224.446,145.97 231.339,142.938 236.027,138.801 "/>
</svg>
