<?xml version="1.0" encoding="utf-8"?>
<!-- Generator: Adobe Illustrator 15.1.0, SVG Export Plug-In . SVG Version: 6.00 Build 0)  -->
<!DOCTYPE svg PUBLIC "-//W3C//DTD SVG 1.1//EN" "http://www.w3.org/Graphics/SVG/1.1/DTD/svg11.dtd">
<svg version="1.1" id="Layer_1" xmlns="http://www.w3.org/2000/svg" xmlns:xlink="http://www.w3.org/1999/xlink" x="0px" y="0px"
	 width="308px" height="314.667px" viewBox="0 0 308 314.667" enable-background="new 0 0 308 314.667" xml:space="preserve">
<g>
	<g id="g5241_214_">
		<path id="path35_220_" fill="#3C6EAF" d="M299.798,158.686c0-79.041-64.068-143.116-143.113-143.116
			c-78.999,0-143.05,64.022-143.104,143.018l-0.005-0.005v110.746l0.005,0.007c0.041,17.936,14.586,32.453,32.533,32.453
			c0.051,0,0.102-0.005,0.156-0.005l0.009,0.005h110.466l0,0c79.018-0.033,143.059-64.088,143.059-143.103H299.798z"/>
	</g>
	<g id="g5241_213_">
		<path id="path35_219_" fill="#294172" d="M296.798,151.686c0-79.041-64.068-143.116-143.113-143.116
			c-78.999,0-143.05,64.022-143.104,143.018l-0.005-0.005v110.746l0.005,0.007c0.041,17.936,14.586,32.453,32.533,32.453
			c0.051,0,0.102-0.005,0.156-0.005l0.009,0.005h110.466l0,0c79.018-0.033,143.059-64.088,143.059-143.103H296.798z"/>
	</g>
	<g>
		<path fill="#3C6EAF" d="M49.996,246.769c4.444,0,8.532,1.482,11.837,3.956c-3.61-4.821-9.35-7.956-15.837-7.956
			c-10.933,0-19.794,8.863-19.794,19.797c0,6.486,3.135,12.227,7.957,15.838c-2.475-3.305-3.957-7.394-3.957-11.838
			C30.202,255.632,39.063,246.769,49.996,246.769z"/>
		<path fill="#A7BFDF" d="M65.79,262.566c0-4.446-1.483-8.536-3.957-11.841c-3.305-2.474-7.393-3.956-11.837-3.956
			c-10.933,0-19.794,8.863-19.794,19.797c0,4.444,1.482,8.533,3.957,11.838c3.304,2.473,7.393,3.956,11.837,3.956
			C56.928,282.36,65.79,273.497,65.79,262.566z"/>
	</g>
	<g>
		<path fill="#3C6EAF" d="M45.49,146.497c0-53.769,33.451-99.721,80.677-118.189C72.395,40.935,32.363,89.206,32.363,146.833
			c0,59.174,42.215,108.482,98.172,119.463C81.018,249.013,45.49,201.908,45.49,146.497z"/>
		<path fill="#8AA9D4" d="M275.862,145.833c0-67.244-54.513-121.753-121.754-121.753c-9.615,0-18.969,1.119-27.941,3.227
			C78.941,45.776,45.49,91.728,45.49,145.497c0,55.411,35.528,102.517,85.045,119.8c7.628,1.497,15.507,2.289,23.573,2.289
			C221.349,267.585,275.862,213.074,275.862,145.833z"/>
	</g>
	<g>
		
			<image overflow="visible" opacity="0.75" width="65" height="84" xlink:href="A1CB16F4.png"  transform="matrix(1 0 0 1 17.6665 222.6665)">
		</image>
		<g>
			<text transform="matrix(1 0 0 1 29.7173 275.4038)" font-family="'BaskOldFace'" font-size="48">X</text>
		</g>
	</g>
</g>
<g>
	<ellipse fill="#FFFFFF" cx="156.121" cy="218.467" rx="4.393" ry="4.052"/>
	<g>
		
			<image overflow="visible" opacity="0.75" width="149" height="196" xlink:href="A1CB16F5.png"  transform="matrix(1 0 0 1 40.5879 68.5879)">
		</image>
		<g>
			<path fill="#FFFFFF" d="M156.128,139.148c-0.387,0-0.769,0.01-1.146,0.026c-0.384-6.214-2.518-11.357-5.409-13.504
				c-1.655-9.795-6.886-16.953-13.086-16.953c-0.791,0-1.566,0.123-2.32,0.347c-1.157-1.861-2.554-3.337-4.106-4.327
				c0.05-0.454,0.085-0.914,0.085-1.385c0-2.82-0.925-5.374-2.421-7.229c0.012-0.302,0.032-0.601,0.032-0.907
				c0-9.14-5.203-16.549-11.622-16.549s-11.622,7.409-11.622,16.549c0,0.199,0.016,0.391,0.021,0.587
				c-0.656-0.165-1.347-0.259-2.063-0.259c-2.633,0-4.943,1.2-6.277,3.009c-0.222,0.076-0.442,0.156-0.662,0.239
				c-1.223-1.531-2.776-2.772-4.545-3.635c-0.411-5.48-3.213-9.723-6.614-9.723c-3.128,0-5.747,3.593-6.468,8.434
				c-0.642-0.025-1.307-0.04-1.995-0.04c-4.674,0-8.463,0.609-8.463,1.361c0,0.751,3.789,1.361,8.463,1.361
				c0.501,0,0.988-0.008,1.466-0.022c-0.388,0.297-0.76,0.612-1.111,0.949c-4.063,0.211-7.497,2.167-9.015,4.904
				c-2.966,1.097-5.192,5.697-5.192,11.208c0,0.037,0.002,0.073,0.002,0.11c-2.663,0.604-4.707,3.867-4.772,7.845
				c-2.455,1.573-4.163,5.007-4.163,9.001c0,2.066,0.457,3.984,1.238,5.573c-1.81,5.093-2.965,12.854-2.965,21.553
				c0,12.88,2.533,23.708,5.969,26.853c0.475,5.098,3.045,8.997,6.154,8.997c2.367,0,4.426-2.259,5.483-5.587
				c0.896,1.221,1.846,2.375,2.841,3.469c-0.232,1.729-0.356,3.534-0.356,5.395c0,0.27,0.006,0.537,0.011,0.804
				c-1.77,2.071-2.886,5.039-2.886,8.349c0,6.256,3.965,11.326,8.854,11.326c0.375,0,0.741-0.04,1.104-0.097
				c1.53,1.293,3.231,2.02,5.022,2.02c0.86,0,1.698-0.168,2.507-0.483c-0.391,1.796-0.615,3.812-0.615,5.952
				c0,4.521,0.982,8.512,2.484,10.951c-1.035,0.626-1.647,1.386-1.647,2.208c0,2.128,4.071,3.853,9.095,3.853
				c1.679,0,3.246-0.196,4.596-0.532c0.703,1.154,1.957,1.933,3.402,1.933c2.209,0,3.999-1.798,3.999-4.016s-1.79-4.016-3.999-4.016
				c-0.43,0-0.837,0.086-1.226,0.213c-1.617-0.766-3.941-1.254-6.54-1.282c1.007-2.389,1.631-5.617,1.646-9.183
				c3.549,1.948,7.587,3.056,11.873,3.056c0.2,0,0.396-0.011,0.595-0.015c2.253,3.276,5.316,5.301,8.698,5.301
				c3.987,0,7.531-2.811,9.823-7.176c0.773,0.373,1.587,0.585,2.431,0.585c1.618,0,3.131-0.747,4.437-2.029
				c0.973,4.03,3.597,6.925,6.689,6.925c3.921,0,7.099-4.641,7.099-10.365c0-0.384-0.018-0.761-0.045-1.133
				c1.771-1.514,2.835-3.436,2.835-5.531c0-4.871-5.727-8.819-12.791-8.819c-0.037,0-0.073,0.004-0.11,0.004
				c-0.263-1.016-0.594-1.966-0.977-2.85c0.673-1.64,1.087-3.853,1.087-6.296c0-2.102-0.309-4.031-0.822-5.576
				c0.296-1.465,0.504-3,0.614-4.588c4.052-5.976,6.504-13.729,6.504-22.208c0-2.297-0.183-4.539-0.525-6.709
				c0.602,0.265,1.225,0.417,1.865,0.417c3.01,0,5.647-3.083,7.151-7.716c0.778,0.069,1.581,0.107,2.404,0.107
				c6.783,0,12.283-2.47,12.283-5.517C168.412,141.619,162.912,139.148,156.128,139.148z"/>
		</g>
	</g>
	<ellipse fill="#FFFFFF" cx="175.12" cy="143.256" rx="3.684" ry="7.875"/>
	<path fill="#FFFFFF" d="M131.417,232.512c-1.958,0-3.753,0.367-5.158,0.979c-0.843-0.609-1.871-0.979-2.99-0.979
		c-2.834,0-5.13,2.296-5.13,5.129c0,2.832,2.296,5.128,5.13,5.128c1.721,0,3.235-0.854,4.165-2.155
		c1.178,0.352,2.536,0.554,3.983,0.554c4.501,0,8.149-1.938,8.149-4.327C139.566,234.45,135.917,232.512,131.417,232.512z"/>
	<ellipse fill="#FFFFFF" cx="144.252" cy="239.26" rx="4.687" ry="2.42"/>
	<ellipse fill="#FFFFFF" cx="111.367" cy="243.081" rx="3.954" ry="1.401"/>
	<g>
		
			<image overflow="visible" opacity="0.75" width="107" height="141" xlink:href="A1CB16F3.png"  transform="matrix(1 0 0 1 168.5884 130.5879)">
		</image>
		<g>
			<path fill="#FFFFFF" d="M244.431,199.077c5.219,0,9.45-5.963,9.45-13.32c0-5.826-2.66-10.767-6.356-12.574
				c0.001-0.063,0.008-0.124,0.008-0.188c0-5.292-3.739-9.583-8.353-9.583c-4.612,0-8.352,4.291-8.352,9.583
				c0,2.623,0.92,4.998,2.408,6.729c-1.943,0.592-3.622,2.111-4.786,4.197c0.018-0.314,0.046-0.626,0.046-0.945
				c0-4.813-2.123-9.102-5.435-11.905c0.44-1.138,0.69-2.44,0.69-3.825c0-1.261-0.213-2.448-0.582-3.51
				c3.066-1.219,5.298-4.926,5.298-9.313c0-5.015-2.915-9.14-6.659-9.676c-1.048-2.283-2.678-3.758-4.514-3.758
				c-2.23,0-4.159,2.175-5.103,5.341c-1.53-0.422-3.19-0.662-4.934-0.662c-7.475,0-13.532,4.258-13.532,9.511
				c0,4.526,4.502,8.307,10.528,9.268c-2.757,1.012-4.93,4.427-5.615,8.792c-0.056,0.027-0.111,0.057-0.167,0.085
				c-0.153-0.002-0.304-0.012-0.459-0.012c-0.085,0-0.168,0.006-0.253,0.007c-0.809-3.246-3.497-5.634-6.698-5.634
				c-3.838,0-6.95,3.431-6.95,7.661c0,0.322,0.023,0.637,0.059,0.949c-3.318,1.742-5.369,4.104-5.369,6.713
				c0,4.342,5.655,8.016,13.451,9.251c0.02,1.564,0.459,3.021,1.202,4.263c-5.252,0.594-9.343,5.264-9.343,10.94
				c0,4.425,2.489,8.229,6.073,9.978c-0.19,1.445-0.302,2.957-0.302,4.523c0,6.843,1.939,12.757,4.764,15.656
				c-0.573,1.274-0.921,2.924-0.921,4.73c0,0.303,0.013,0.599,0.031,0.892c-1.129-0.298-2.438-0.471-3.838-0.471
				c-4.221,0-7.644,1.548-7.644,3.458s3.423,3.459,7.644,3.459c2.236,0,4.242-0.438,5.64-1.13c0.585,0.682,1.27,1.081,2.005,1.081
				c2.119,0,3.838-3.264,3.838-7.289c0-1.267-0.171-2.458-0.471-3.496c2.541-1.449,4.611-5.165,5.633-10.012
				c1.255,2.281,3.188,3.861,5.412,4.216c-0.256,1.19-0.402,2.519-0.402,3.927c0,5.043,1.834,9.13,4.097,9.13
				s4.098-4.087,4.098-9.13c0-0.354-0.011-0.701-0.028-1.045c1.873-2.228,3.222-8.388,3.222-15.656c0-0.488-0.009-0.97-0.021-1.447
				c3.371-3.578,5.526-9.017,5.526-15.111c0-4.322-1.096-8.304-2.93-11.538c0.461-0.638,0.884-1.308,1.245-2.02
				c-0.007,0.184-0.021,0.364-0.021,0.55c0,5.964,3.409,10.833,7.721,11.235c-0.332,0.79-0.522,1.666-0.522,2.591
				c0,1.145,0.288,2.215,0.784,3.139c-0.491,1.233-0.784,2.742-0.784,4.377c0,4.15,1.867,7.515,4.17,7.515
				c2.304,0,4.17-3.364,4.17-7.515c0-0.625-0.047-1.228-0.126-1.808c2.011-0.987,3.41-3.169,3.41-5.708
				c0-2.975-1.92-5.46-4.493-6.105c0.039-0.057,0.076-0.114,0.115-0.172C242.215,198.781,243.297,199.077,244.431,199.077z
				 M210.835,167c-0.773-1.05-1.679-1.857-2.674-2.344c1.655-0.077,3.228-0.359,4.667-0.817c-0.346,1.031-0.545,2.178-0.546,3.391
				C211.811,167.111,211.327,167.042,210.835,167z"/>
		</g>
	</g>
</g>
<g>
	<path d="M91.667,102.801l-1.643-0.574c-0.271-0.104-6.725-2.599-6.725-8.779c0-1.602-1.583-2.035-4.845-2.354
		c-1.861-0.182-3.349-0.325-3.784-1.533c-0.375-1.035,0.386-1.976,1.097-2.68c1.533-1.518,3.323-2.287,5.321-2.287
		c3.843,0,7.553,2.879,9.994,5.295c2.838,2.81,2.548,4.179,1.626,6.179c-0.522,1.135-1.042,2.546-1.042,5.13V102.801z M77.078,88.71
		c0.441,0.08,1.063,0.141,1.563,0.189c2.551,0.249,6.821,0.665,6.821,4.548c0,3.122,2.259,5.044,3.811,5.995
		c0.229-2.008,0.82-3.294,1.278-4.288c0.683-1.483,0.844-1.836-1.046-3.706c-3.03-2.999-6.021-4.649-8.421-4.649
		c-1.407,0-2.633,0.537-3.749,1.641C77.231,88.542,77.146,88.633,77.078,88.71z"/>
</g>
<g>
	<path d="M168.574,143.458c-0.068,0-0.136-0.005-0.204-0.013c-3.166-0.38-13.493-2.032-13.493-7.3
		c0-3.364-7.024-15.339-13.336-21.637c-5.745-5.732-9.778-6.725-9.82-6.734c-0.895-0.209-1.46-1.097-1.258-1.985
		c0.204-0.888,1.085-1.452,1.984-1.258c0.198,0.042,4.941,1.117,11.476,7.639c6.249,6.235,14.31,18.981,14.31,23.976
		c0,1.54,5.667,3.417,10.542,4.004c0.92,0.11,1.575,0.938,1.463,1.849C170.133,142.84,169.41,143.458,168.574,143.458z"/>
</g>
<g>
	<path d="M134.551,137.619c-1.017,0-2.063-0.077-3.098-0.153c-1.048-0.077-2.132-0.157-3.162-0.157c-2.962,0-4.763-0.61-5.507-1.866
		c-0.706-1.191-0.098-2.34-0.026-2.466c0.3-0.532,0.979-0.914,1.516-0.617c0.538,0.296,0.729,1.307,0.43,1.307
		c0.002,0,0.002,0,0.002,0c0.001,0-0.069,0.358,0.007,0.476c0.05,0.079,0.576,0.865,3.579,0.865c1.113,0,2.239,0.131,3.328,0.211
		c2.818,0.208,5.481,0.428,6.941-0.914c1.033-0.948,1.537-2.671,1.537-5.292c0-5.67,0.497-8.107,0.938-10.262
		c0.313-1.532,0.582-2.852,0.582-5.166c0-0.61,0.499-1.102,1.113-1.102c0.615,0,1.114,0.495,1.114,1.104
		c0,2.534-0.304,4.026-0.626,5.605c-0.419,2.053-0.894,4.381-0.894,9.833c0,3.268-0.736,5.53-2.248,6.92
		C138.614,137.29,136.648,137.619,134.551,137.619z"/>
</g>
<g>
	<path d="M105.889,147.894c-0.286,0-0.571-0.107-0.789-0.323l-5.033-4.98c-3.709-3.67-5.201-14.842-6.778-26.669
		c-0.675-5.052-1.372-10.276-2.23-14.507c-2.739-13.508-0.127-35.287-0.014-36.207c0.075-0.604,0.634-1.032,1.239-0.962
		c0.611,0.073,1.047,0.622,0.973,1.227c-0.027,0.223-2.681,22.351-0.014,35.509c0.872,4.302,1.574,9.563,2.255,14.651
		c1.392,10.433,2.971,22.258,6.146,25.399l5.032,4.98c0.437,0.431,0.437,1.129,0,1.56
		C106.458,147.787,106.173,147.894,105.889,147.894z"/>
</g>
<g>
	<path d="M84.453,102.38l-0.686-0.089c-1.293-0.167-12.748-1.738-16.356-5.308c-1.131-1.119-1.1-2.136-0.875-2.793
		c0.911-2.664,7.111-3.681,8.99-3.93l0.146-0.009c5.413,0,8.851,1.285,10.216,3.82c1.839,3.414-0.933,7.567-1.052,7.742
		L84.453,102.38z M75.747,92.456c-3.447,0.468-6.822,1.625-7.1,2.441c-0.02,0.055,0.057,0.247,0.34,0.527
		c2.433,2.408,10.577,4.027,14.339,4.58c0.554-1.032,1.496-3.233,0.592-4.901C82.986,93.381,80.162,92.466,75.747,92.456z"/>
</g>
<g>
	<path d="M66.129,108.085C66.128,108.085,66.128,108.085,66.129,108.085c-1.057,0-1.877-0.284-2.442-0.843
		c-1.001-0.992-1.508-2.158-1.504-3.467c0.009-3.24,3.206-6.371,4.924-8.052l0.305-0.299c0.433-0.428,1.033-0.646,1.783-0.646
		c3.383,0,10.62,4.954,11.436,5.518l1.39,0.963l-1.446,0.879C80.174,102.38,70.73,108.085,66.129,108.085z M69.195,96.983
		c-0.181,0-0.246,0.029-0.246,0.03l-0.274,0.277c-1.382,1.353-4.257,4.168-4.264,6.491c0,0.71,0.277,1.332,0.854,1.901
		c0.124,0.123,0.447,0.197,0.864,0.197c2.792,0,8.52-2.903,11.777-4.744C74.971,99.242,70.911,96.983,69.195,96.983z"/>
</g>
<g>
	<path d="M88.479,197.581c-0.319,0-0.634-0.129-0.864-0.386c-1.85-2.065-1.769-11.352-0.973-27.766
		c0.146-2.958,0.258-5.294,0.258-6.497c0-5.274,5.545-13.699,9.145-14.041c-0.264-0.93-1.68-3.295-4.677-6.261
		c-3.965-3.924-7.079-12.699-7.189-13.071l-0.512-0.16v-14.622c0-0.64,0.854-1.158,1.5-1.158c0.647,0,1.5,0.519,1.5,1.158v14.282
		c0,1.176,2.943,8.689,6.22,11.933c1.5,1.482,6.37,6.512,5.319,9.023c-0.148,0.355-0.609,1.181-1.971,1.181
		c-1.463,0-7.011,6.712-7.011,11.736c0,1.259-0.108,3.62-0.251,6.608c-0.354,7.271-1.177,24.302,0.39,26.118
		c0.416,0.484,0.371,1.218-0.113,1.635C89.025,197.485,88.752,197.581,88.479,197.581z"/>
</g>
<g>
	<path d="M79.991,182.43c-0.392,0-0.772-0.205-0.975-0.57c-8.811-15.808-12.603-45.602-12.603-52.904
		c0-8.067,8.817-21.974,9.192-22.562c0.327-0.516,1.016-0.669,1.536-0.343s0.676,1.005,0.349,1.521
		c-0.089,0.139-8.848,13.952-8.848,21.384c0,8.627,4.318,37.476,12.323,51.84c0.298,0.533,0.103,1.203-0.438,1.497
		C80.359,182.386,80.174,182.43,79.991,182.43z"/>
</g>
<g>
	<path d="M66.075,196.611c-0.099,0-0.192-0.005-0.28-0.014c-2.399-0.236-4.478-3.327-7.111-7.239
		c-1.663-2.473-3.549-5.275-5.547-7.25c-4.614-4.57-4.239-14.453-3.76-26.965c0.163-4.264,0.331-8.672,0.331-13.333
		c0-18.497,13.328-35.325,13.896-36.033c0.383-0.478,1.082-0.556,1.565-0.178c0.482,0.379,0.563,1.072,0.18,1.549
		c-0.134,0.167-13.412,16.947-13.412,34.662c0,4.702-0.169,9.132-0.334,13.416c-0.457,11.975-0.818,21.433,3.11,25.322
		c2.153,2.13,4.104,5.029,5.826,7.588c1.935,2.875,4.127,6.134,5.478,6.267c0.101,0.01,0.339,0.032,0.724-0.349
		c2.756-2.727,6.482-17.733,7.687-23.285c0.129-0.597,0.722-0.976,1.323-0.848c0.603,0.128,0.985,0.714,0.854,1.31
		c-0.456,2.108-4.57,20.704-8.289,24.382C67.51,196.412,66.691,196.611,66.075,196.611z"/>
</g>
<g>
	<path d="M58.393,188.05c-0.073,0-0.148-0.007-0.224-0.021c-0.603-0.123-0.991-0.704-0.869-1.301
		c0.022-0.116,2.396-11.6,4.924-20.604c2.57-9.163,7.063-15.242,7.251-15.497c0.365-0.489,1.063-0.592,1.558-0.231
		s0.601,1.052,0.235,1.542c-0.044,0.059-4.442,6.025-6.897,14.776c-2.505,8.93-4.864,20.34-4.888,20.454
		C59.375,187.691,58.911,188.05,58.393,188.05z"/>
</g>
<g>
	<path d="M64.381,156.796c-0.284,0-0.571-0.108-0.788-0.323c-9.291-9.194-12.855-22.004-13.003-22.544
		c-0.161-0.589,0.191-1.193,0.785-1.352c0.595-0.159,1.205,0.19,1.365,0.777c0.036,0.128,3.57,12.792,12.43,21.559
		c0.434,0.431,0.434,1.129,0,1.56C64.952,156.688,64.666,156.796,64.381,156.796z"/>
</g>
<g>
	<path d="M98.411,233.975c-2.265,0-7.787-2.374-9.092-5.49c-0.566-1.356-0.271-2.703,0.827-3.792
		c0.739-0.731,1.488-1.796,0.858-2.714c-0.883-1.285-3.767-1.835-6.651-0.604c-4.882,2.086-8.729-1.998-11.815-5.281
		c-0.583-0.617-1.133-1.202-1.682-1.745c-3.83-3.79-1.829-20.023-1.59-21.861c0.08-0.604,0.631-1.032,1.25-0.952
		c0.608,0.078,1.039,0.631,0.961,1.234c-0.854,6.53-1.351,17.739,0.955,20.02c0.577,0.571,1.165,1.196,1.734,1.803
		c3.54,3.762,6.098,6.127,9.304,4.759c3.653-1.56,7.772-0.95,9.378,1.39c1.126,1.641,0.705,3.7-1.124,5.512
		c-0.576,0.568-0.506,1.004-0.346,1.389c0.842,2.012,5.409,4.128,7.032,4.128c0.66,0,2.03-1.102,3.13-1.986
		c2.257-1.815,5.346-4.3,7.787-1.886c2.578,2.552,6.896,4.77,11.273,3.34c1.868-0.609,3.942-1.629,5.772-2.529
		c3.437-1.689,5.708-2.809,7.157-1.92c0.427,0.263,0.937,0.803,0.937,1.89c0,1.919,1.93,2.505,8.264,2.505
		c3.619,0,8.521-3.567,9.677-6.332c0.254-0.607,0.264-1.033,0.028-1.266c-2.222-2.197-13.359-17.025-13.359-22.411
		c0-5.164,2.711-8.209,2.827-8.336l0.71-0.782l0.823,0.666c5.133,4.157,10.595,7.56,12.185,7.633
		c-0.135-1.33-1.887-5.305-3.317-8.549c-3.921-8.897-8.803-19.971-6.313-25.815c3.757-8.816,18.216-24.275,18.829-24.93
		c0.419-0.446,1.124-0.471,1.574-0.057c0.452,0.415,0.477,1.112,0.059,1.559c-0.148,0.156-14.804,15.826-18.409,24.285
		c-2.117,4.973,2.949,16.47,6.304,24.077c3.191,7.238,4.232,9.805,2.996,11.028c-1.332,1.319-4.047,0.446-9.075-2.922
		c-2.159-1.446-4.18-2.983-5.312-3.865c-0.668,1.086-1.651,3.168-1.651,6.008c0,4.171,9.943,18.118,12.707,20.853
		c0.525,0.52,1.283,1.688,0.455,3.668c-1.45,3.463-6.935,7.692-11.521,7.692c-4.676,0-10.28,0-10.28-4.709c0-0.001,0-0.001,0-0.001
		c-1,0.034-3.469,1.209-5.089,2.006c-1.896,0.933-4.153,1.99-6.169,2.649c-5.342,1.743-10.556-0.858-13.604-3.875
		c-0.945-0.936-2.615,0.254-4.831,2.038C101.386,232.77,99.862,233.975,98.411,233.975z"/>
</g>
<g>
	<path d="M117.644,185.806c-5.352,0-20.242-6.712-20.873-6.997c-0.56-0.253-0.806-0.907-0.549-1.461
		c0.255-0.554,0.916-0.799,1.476-0.545c4.178,1.891,15.906,6.797,19.946,6.797c5.273,0,17.708-5.755,17.708-9.727
		c0-1.592,0.376-3.807,0.809-6.369c0.932-5.518,2.211-13.074-0.48-15.739l-4.454-4.415c-0.049-0.059-5.907-6.632-22.238,0.451
		c-0.565,0.245-1.222-0.009-1.47-0.567c-0.246-0.557,0.011-1.208,0.573-1.453c17.457-7.57,24.167-0.621,24.819,0.126l4.345,4.299
		c3.503,3.466,2.171,11.337,1.104,17.662c-0.4,2.363-0.777,4.596-0.777,6.005C137.582,180.003,123.073,185.806,117.644,185.806z"/>
</g>
<g>
	<path d="M120.95,177.745c-0.526,0-0.994-0.371-1.094-0.9c-0.113-0.6,0.287-1.176,0.892-1.287l6.206-1.143
		c0.609-0.109,1.187,0.283,1.299,0.883c0.113,0.598-0.285,1.174-0.891,1.285l-6.206,1.143
		C121.085,177.738,121.018,177.745,120.95,177.745z"/>
</g>
<g>
	<path d="M113.502,251.129c-0.559,0-1.041-0.27-1.105-0.832l-9.778-85.631c-0.007,0-0.014,0-0.021,0c-3.364,0-8.98-4.841-12.4-8.023
		c-0.449-0.417-0.469-1.189-0.049-1.632c0.422-0.444,1.126-0.502,1.576-0.085c5.502,5.119,10.429,7.873,11.062,7.244l1.637-1.627
		l10.188,89.365c0.069,0.605-0.37,1.148-0.981,1.217C113.586,251.13,113.544,251.129,113.502,251.129z"/>
</g>
<g>
	<path d="M91.043,140.435c0,0-8.537,13.861-8.537,22.232c0,8.373,0.219,24.723,0.219,24.723l-7.059-20.971v-19.546l12.23-10.667
		L91.043,140.435z"/>
</g>
<g>
	<path d="M85.676,129.232c0,0-1.772-0.69-4.563-0.601c-2.481,0.08-4.565,3.93-4.565,3.93l0.216-7.508l7.148-4.223L85.676,129.232z"
		/>
</g>
<g>
	<path d="M100.447,115.693c-0.057,0-0.109-0.001-0.165-0.003c-3.483-0.13-7.325-4.432-7.751-4.922
		c-0.502-0.577-0.436-1.446,0.146-1.943s1.462-0.432,1.964,0.144c1.31,1.501,4.027,3.905,5.746,3.967
		c0.354,0.009,0.62-0.083,0.86-0.322c1.933-1.911,2.81-4.801,3.122-6.096l-4.783-4.7l-0.042-0.507
		c-0.048-0.595-1.114-14.627,5.723-21.393c4.118-4.074,8.415-4.688,11.295-4.49c3.513,0.245,7.038,1.882,9.674,4.491
		c2.858,2.829,2.45,5.655,2.121,7.924c-0.302,2.078-0.407,3.318,0.919,4.631c2.198,2.175,3.961,4.855,4.84,7.354
		c1.106,3.149,0.738,5.852-1.039,7.609c-0.509,0.502-1.079,1.136-1.683,1.806c-2.379,2.642-5.076,5.635-8.124,5.722
		c-1.295,0.033-2.512-0.471-3.562-1.51c-0.546-0.539-0.546-1.411,0-1.949c0.542-0.539,1.424-0.539,1.969,0
		c0.657,0.651,1.176,0.716,1.515,0.704c1.846-0.053,4.319-2.796,6.124-4.8c0.63-0.7,1.228-1.362,1.791-1.92
		c1.256-1.243,0.898-3.272,0.378-4.756c-0.734-2.088-2.295-4.447-4.178-6.31c-2.377-2.352-2.006-4.913-1.708-6.971
		c0.302-2.084,0.541-3.73-1.332-5.584c-2.168-2.146-5.048-3.49-7.9-3.689c-3.294-0.227-6.458,1.045-9.13,3.689
		c-5.279,5.225-5.066,16.256-4.946,18.724l5.085,4.995l-0.113,0.697c-0.032,0.208-0.855,5.123-4.045,8.28
		C102.468,115.304,101.513,115.693,100.447,115.693z"/>
</g>
<g>
	<path d="M95.557,124.137c0,0,6.676-7.35,6.676-10.548c0-3.2-5.986-1.214-5.986-1.214s0.984,5.576-2.66,5.576
		C89.941,117.951,95.557,124.137,95.557,124.137z"/>
</g>
<g>
	<path d="M98.411,162.943c0,0-2.791,13.412-1.176,18.385c1.613,4.972,3.1,9.456,6.191,8.437c3.091-1.021,2.463,5.744,2.463,5.744
		s-8.837-4.182-10.9-8.561c-2.064-4.378-2.135-7.169-4.054-7.169c-7.031,0-1.104-22.969,0.026-24.086
		c1.129-1.117-1.053,9.531,1.395,11.953C93.84,169.116,93.473,150.177,98.411,162.943z"/>
</g>
<g>
	<path d="M163.792,153.181c-2.025,0-4.298-0.157-6.346-0.353l0.227-2.306c4.115,0.393,9.067,0.471,10.051-0.027
		c0.006-0.136-0.164-0.513-0.268-0.742c-0.364-0.804-1.043-2.302,0.278-3.609c0.962-0.952,2.281-4.739,2.399-6.073
		c-0.196-0.162-0.343-0.383-0.412-0.642c-0.467-1.722,3.198-3.94,3.234-3.962c2.227-1.271,3.462-0.57,3.998-0.038
		c1.286,1.272,1.783,2.998,1.241,4.297c-0.364,0.867-1.136,1.386-2.066,1.386c-0.031,0-0.063,0.003-0.098,0.008
		c1.362,0.333,2.488,0.874,2.823,1.748c0.124,0.323,0.316,1.397-0.564,2.269c-1.941,1.921-2.483,2.529-4.315,2.529h-3.308v-3h3.308
		c0.911,0,1.011-0.001,2.314-1.281c-0.782-0.276-2.31,0.281-3.732-0.719h-0.72c-0.649,2-1.679,4.222-2.448,4.983
		c-0.127,0.126-0.181,0.244,0.203,1.091c0.343,0.756,0.979,2.196-0.214,3.376C168.598,152.888,166.399,153.181,163.792,153.181z
		 M172.302,138.912c0.008,0.014,0.013,0.029,0.02,0.043c0.151,0.362,0.171,0.901,0.093,1.542c0.835-0.643,2.354-1.659,3.636-1.699
		c0.079-0.261-0.02-1.007-0.75-1.73C174.8,136.891,173.086,138.05,172.302,138.912z"/>
</g>
<g>
	<path d="M176.358,152.549c-0.088,0-0.176-0.003-0.265-0.012c-2.708-0.239-5.693-4.304-6.264-5.117l1.828-1.259
		c1.177,1.67,3.391,4.07,4.634,4.18c0.17,0.016-0.189-0.021-0.071-0.135c1.557-1.542,1.446-4.522,1.446-5.54v-0.573l0.93-0.328
		c0.657-0.461,1.887-1.444,1.941-2.091c0.01-0.105,0.117-0.235-0.077-0.428c-1.662-1.646-3.206-2.451-3.223-2.459l1.029-1.97
		c0.077,0.038,1.955,0.976,3.869,2.87c0.618,0.613,0.913,1.367,0.843,2.18c-0.133,1.477-1.467,2.761-2.201,3.359
		c-0.087,1.299-0.507,4.537-2.53,6.539C177.727,152.281,177.079,152.549,176.358,152.549z"/>
</g>
<g>
	<path d="M150.33,152.364c-0.255,0-0.514-0.069-0.746-0.214c-0.647-0.408-0.842-1.259-0.429-1.902
		c0.222-0.345,5.47-8.508,8.98-11.982c0.545-0.538,1.428-0.538,1.97,0.001c0.544,0.538,0.544,1.41,0,1.949
		c-3.293,3.258-8.545,11.426-8.599,11.509C151.242,152.137,150.791,152.364,150.33,152.364z"/>
</g>
<g>
	<path d="M148.83,197.962c0,0,1.813-4.312-0.01-6.115s-1.767-8.055-1.767-10.544s-2.502-11.735,1.283-17.515
		c3.784-5.779,7.33-8.184,4.637-8.184c-2.692,0-4.848,2.979-5.656,3.778c-0.808,0.799-1.078-0.989-1.078-3.692
		s2.384-12.443,3.838-13.881s6.827-3.652,6.479-5.605c-0.35-1.953-0.41-7.009-1.829-5.605c-1.419,1.403-5.524,3.743-5.524,5.605
		s-3.231,7.052-4.309,10.587c-1.077,3.533-0.954,11.398-2.162,12.593c-1.206,1.195-4.025,5.604-2.947,9.73
		c1.076,4.127,1.883,10.789,1.883,13.72s0,5.934,0,5.934s0.82,4.853,1.789,5.813C144.426,195.541,148.83,197.962,148.83,197.962z"/>
</g>
<g>
	<path d="M77.699,176.641c0,0,2.292,14.822,4.402,19.847c1.555,3.702,11.372,7.909,19.155,7.909
		C109.041,204.397,85.359,203.758,77.699,176.641z"/>
</g>
<g>
	<path d="M85.676,220.179c-0.472,0-0.91-0.299-1.062-0.767c-3.007-9.263-0.138-20.045-0.016-20.499
		c0.16-0.589,0.774-0.936,1.365-0.778c0.594,0.157,0.946,0.763,0.787,1.35c-0.027,0.105-2.816,10.619-0.016,19.254
		c0.188,0.58-0.134,1.2-0.721,1.387C85.902,220.162,85.789,220.179,85.676,220.179z"/>
</g>
<g>
	<path d="M96.746,205.811c0,0,1.698,13.132,3.45,14.863c1.749,1.732,5.745,7.533,5.745,7.533s-5.894,6.283-7.53,4.665
		c-1.636-1.619-1.116-3.138-1.116-5.803s-2.306-9.327-2.306-12.258S94.881,207.657,96.746,205.811z"/>
</g>
<g>
	<path d="M125.505,221.778c-0.419,0-0.823-0.237-1.011-0.641c-0.132-0.283-3.263-7.039-4.643-15.144
		c-1.389-8.167-0.048-14.497,0.01-14.763c0.13-0.596,0.72-0.973,1.323-0.846c0.601,0.128,0.984,0.714,0.854,1.31
		c-0.012,0.061-1.305,6.204,0.012,13.933c1.329,7.815,4.435,14.517,4.466,14.585c0.259,0.552,0.016,1.208-0.544,1.463
		C125.823,221.745,125.663,221.778,125.505,221.778z"/>
</g>
<g>
	<path d="M102.253,156.77c-0.521,0-0.996-0.347-1.132-0.869c-0.162-0.619,0.214-1.251,0.841-1.411
		c0.387-0.1,3.571-0.902,5.529-1.038c-0.029-0.069-0.061-0.143-0.094-0.218c-1.577,0.322-4.003,0.615-5.165-0.279
		c-0.48-0.37-0.746-0.906-0.746-1.508c-0.176-0.292-1.608-0.72-3.112-0.763l-4.448-0.126l3.934-2.056
		c0.02-0.011,2.09-1.101,3.533-2.529c0.007-0.007,0.014-0.013,0.019-0.019c-0.235-0.222-0.826-0.538-1.324-0.695
		c-0.616-0.193-0.956-0.844-0.762-1.454c0.196-0.61,0.855-0.947,1.47-0.753c0.603,0.188,2.597,0.923,2.965,2.421
		c0.107,0.43,0.155,1.28-0.711,2.137c-0.475,0.47-0.997,0.902-1.504,1.283c1.122,0.394,2.135,1.082,2.268,2.282
		c0.633,0.161,2.365-0.005,3.898-0.391l0.815-0.204l0.456,0.697c0.546,0.835,1.37,2.407,0.742,3.55
		c-0.188,0.344-0.664,0.92-1.725,0.92c-1.317,0-4.383,0.711-5.454,0.984C102.449,156.758,102.351,156.77,102.253,156.77z"/>
</g>
<g>
	<path d="M104.413,159.993c-1.018,0-2.014-0.361-2.646-0.71c-0.537-0.297-0.729-0.969-0.43-1.5c0.3-0.531,0.977-0.721,1.513-0.426
		c0.343,0.185,1.729,0.753,2.302,0.185c0.901-0.892,1.56-2.654,1.736-3.258c0.172-0.584,0.789-0.919,1.381-0.751
		c0.59,0.17,0.931,0.782,0.759,1.367c-0.081,0.277-0.838,2.756-2.299,4.202C106.063,159.759,105.23,159.993,104.413,159.993z"/>
</g>
<g>
	<path d="M103.552,162.887c-0.244,0-0.489-0.079-0.695-0.242c-0.48-0.38-0.56-1.074-0.175-1.55l2.335-2.891
		c0.384-0.477,1.086-0.554,1.566-0.173c0.48,0.38,0.56,1.074,0.176,1.549l-2.336,2.892
		C104.204,162.745,103.878,162.887,103.552,162.887z"/>
</g>
<g>
	<path d="M107.959,153.011c-0.362,0-0.719-0.175-0.933-0.498c-0.338-0.508-0.194-1.19,0.317-1.525
		c0.722-0.475,1.358-1.225,1.325-1.46c0,0-0.063-0.146-0.47-0.35c-2.438-1.215-3.5-1.284-3.51-1.284c-0.616,0-1.1-0.493-1.1-1.103
		c0-0.609,0.515-1.102,1.13-1.102c0.239,0,1.58,0.072,4.482,1.52c1.332,0.664,1.655,1.56,1.692,2.193
		c0.102,1.757-1.92,3.163-2.325,3.427C108.382,152.953,108.168,153.011,107.959,153.011z"/>
</g>
<g>
	<path d="M128.921,145.277c-0.521,0-0.929-0.012-1.158-0.02c-0.614-0.023-1.093-0.535-1.071-1.144
		c0.022-0.607,0.546-1.082,1.154-1.061c2.637,0.099,6.788-0.191,7.776-1.134c0.013-0.013,0.079-0.077,0.079-0.108
		c0-0.773-0.871-1.125-2.724-1.69c-1.169-0.356-2.376-0.726-3.312-1.45c-0.484-0.375-0.57-1.069-0.189-1.548
		c0.379-0.479,1.079-0.563,1.563-0.188c0.612,0.473,1.619,0.782,2.594,1.079c1.914,0.585,4.295,1.313,4.295,3.798
		c0,0.636-0.262,1.222-0.762,1.696C135.533,145.066,131.163,145.277,128.921,145.277z"/>
</g>
<g>
	<path d="M138.411,147.894c-2.396,0-6.319-0.135-6.358-0.137c-0.614-0.021-1.096-0.532-1.073-1.141
		c0.021-0.608,0.547-1.092,1.151-1.063c0.039,0,3.925,0.136,6.28,0.136c1.044-0.273,3.918-4.994,5.465-7.53
		c1.438-2.361,2.68-4.401,3.586-5.297c1.263-1.249,1.787-6.623,1.756-9.934c-0.007-0.608,0.488-1.262,1.104-1.262
		c0.003,0,0.007,0,0.01,0c0.61,0,1.109,0.637,1.115,1.242c0.014,1.484-0.034,9.088-2.41,11.438
		c-0.711,0.706-2.004,2.863-3.252,4.914C142.222,145.104,140.334,147.894,138.411,147.894z"/>
</g>
<g>
	<path d="M131.41,192.702c-0.55,0-1.046-0.205-1.439-0.594c-1.433-1.418-2.757-8.72-0.016-11.539l0.219-0.225l0.302-0.086
		c0.118-0.033,2.904-0.817,4.862-0.817c2.49,0,2.759,1.35,2.759,1.931c0,1.187-0.369,6.346-2.068,8.029
		c-0.172,0.17-0.362,0.368-0.564,0.58C134.24,191.256,132.854,192.702,131.41,192.702z M131.454,182.395
		c-1.414,1.908-0.617,6.813,0.084,7.951c0.576-0.238,1.717-1.427,2.228-1.96c0.218-0.228,0.424-0.44,0.607-0.624
		c0.688-0.681,1.306-3.776,1.375-5.984c-0.1-0.012-0.234-0.021-0.41-0.021C134.06,181.757,132.204,182.201,131.454,182.395z"/>
</g>
<g>
	<path d="M144.133,232.621c-0.351,0-0.704-0.108-1.007-0.335c-0.521-0.391-12.761-9.703-14.167-22.976
		c-1.365-12.896,0.174-18.111,0.24-18.327c0.267-0.875,1.2-1.367,2.084-1.103c0.884,0.266,1.381,1.189,1.112,2.063
		c-0.011,0.038-1.392,4.936-0.112,17.021c1.258,11.861,12.745,20.596,12.859,20.684c0.736,0.551,0.881,1.589,0.324,2.316
		C145.138,232.395,144.639,232.621,144.133,232.621z"/>
</g>
<g>
	<path d="M141.211,228.405c0,0,7.797,2.172,9.119-4.533c0.692-3.504,4.204,0.73,2.652,2.268
		C151.429,227.676,146.642,233.78,141.211,228.405z"/>
</g>
<g>
	<path d="M100.586,142.958c-0.513,0-0.983-0.336-1.128-0.849c-0.173-0.616,0.192-1.254,0.815-1.426
		c5.016-1.377,12.604-3.836,13.77-4.99c0.492-0.486,1.034-0.97,1.561-1.437c0.304-0.271,0.683-0.61,1.011-0.918
		c-0.286-0.248-0.453-0.815-0.453-1.199c0-1.86,5.595-4.474,6.764-4.474h2.045c0.647,0,1.17,0.859,1.17,1.499
		s-0.522,1.501-1.17,1.501h-2.045c-0.573,0-2.405,0.774-3.582,1.518c0.069,0.101,0.12,0.138,0.159,0.236
		c0.444,1.149-0.602,2.048-2.333,3.591c-0.504,0.448-1.023,0.894-1.472,1.337c-2.023,2.004-12.682,4.996-14.796,5.576
		C100.795,142.954,100.69,142.958,100.586,142.958z"/>
</g>
<g>
	<path d="M117.823,121.932c-0.545,0-1.021-0.396-1.102-0.944c-0.259-1.764-0.956-4.576-1.698-5.311
		c-0.292-0.106-1.576,0.307-2.194,0.506c-1.378,0.445-2.567,0.829-3.462,0.187c-0.26-0.187-0.697-0.626-0.697-1.471
		c0-0.579-0.141-0.679-0.559-0.973c-0.475-0.335-1.267-0.895-1.267-2.16c-0.112-0.25-1.187-0.707-2.271-0.852
		c-0.609-0.083-1.037-0.636-0.957-1.24c0.083-0.602,0.637-1.03,1.251-0.945c0.702,0.092,4.206,0.671,4.206,3.037
		c0,0.08,0.011,0.108,0.011,0.108c0.028,0.049,0.205,0.174,0.321,0.256c0.508,0.358,1.326,0.937,1.472,2.326
		c0.368-0.08,0.882-0.246,1.263-0.369c1.565-0.505,3.34-1.079,4.462,0.032c1.524,1.508,2.204,5.724,2.325,6.554
		c0.088,0.603-0.333,1.161-0.943,1.248C117.93,121.929,117.875,121.932,117.823,121.932z"/>
</g>
<g>
	<path d="M105.889,100.256c-0.285,0-0.563-0.146-0.72-0.406c-0.235-0.393-0.104-0.9,0.292-1.133l4.984-2.918
		c0.044-0.61,0.229-1.61,0.924-2.338c0.523-0.55,1.245-0.84,2.089-0.84c2.704,0,4.731,2.285,4.816,2.382
		c0.303,0.346,0.265,0.868-0.085,1.167c-0.349,0.298-0.876,0.261-1.178-0.084c-0.015-0.017-1.62-1.81-3.554-1.81
		c-0.506,0-0.741,0.182-0.87,0.317c-0.439,0.457-0.497,1.339-0.482,1.639l0.025,0.498l-0.435,0.258l-5.384,3.154
		C106.18,100.219,106.034,100.256,105.889,100.256z"/>
</g>
<g>
	<path d="M120.95,94.275c-0.369,0-0.708-0.245-0.807-0.616c-0.117-0.441,0.148-0.894,0.596-1.011
		c1.588-0.415,6.879-1.62,8.239,0.329c0.263,0.376,0.169,0.891-0.211,1.151c-0.379,0.259-0.9,0.166-1.163-0.21
		c-0.417-0.598-3.486-0.44-6.439,0.33C121.092,94.266,121.022,94.275,120.95,94.275z"/>
</g>
<g>
	<path d="M105.481,97.907c-1.001,0-1.833-0.132-2.276-0.485c-0.313-0.249-0.487-0.599-0.487-0.984c0-0.456,0.374-0.827,0.835-0.827
		c0.367,0,0.679,0.233,0.791,0.559c0.778,0.255,3.811-0.054,6.748-0.702c0.45-0.098,0.896,0.182,0.996,0.628
		c0.101,0.445-0.183,0.886-0.634,0.986C109.804,97.447,107.345,97.907,105.481,97.907z"/>
</g>
<g>
	<path d="M105.247,96.805c-0.154-0.182-1.417-1.861,1.415-4.664c0.453-0.449,4.52-4.355,7.399-3.173
		c1.36,0.557,2.049,2.064,2.049,4.479c0,0.456-0.375,0.827-0.834,0.827c-0.463,0-0.836-0.371-0.836-0.827
		c0-1.156-0.177-2.606-1.019-2.952c-1.214-0.496-3.786,1.043-5.579,2.815c-1.424,1.411-1.406,2.268-1.278,2.479l-0.675,0.486
		L105.247,96.805z"/>
</g>
<g>
	<path d="M113.506,110.648c-0.046,0-0.091-0.004-0.138-0.011c-0.843-0.135-3.633-0.699-4.136-2.239c-0.152-0.467-0.164-1.194,0.65-2
		c2.03-2.009,6.234-5.769,6.273-5.807l1.51-1.287v1.894c0,0.987,2.086,1.135,3.391,1.135c1.143,0,1.648-0.897,2.313-2.165
		c0.253-0.481,0.447-0.904,0.735-1.226c0.047-0.669-0.972-3.16-2.224-5.463l-0.112-0.191l0.003-0.217
		c0.03-1.557,1.099-4.775,4.93-5.813c0.445-0.119,0.903,0.139,1.024,0.579c0.122,0.44-0.141,0.895-0.586,1.016
		c-3.084,0.836-3.601,3.341-3.684,4.058c3.152,5.86,2.209,6.795,1.896,7.104c-0.152,0.15-0.354,0.54-0.553,0.916
		c-0.639,1.217-1.603,3.057-3.85,3.057c-2.374,0-3.938-0.45-4.676-1.341c-1.328,1.227-3.787,3.514-5.212,4.922
		c-0.224,0.221-0.239,0.333-0.239,0.334c0.095,0.301,1.373,0.869,2.813,1.103c0.456,0.073,0.765,0.499,0.689,0.949
		C114.262,110.359,113.908,110.648,113.506,110.648z"/>
</g>
<g>
	<path d="M129.511,109.255c0,0,0.442-3.918-1.22-5.563s-3.67-2.495-3.67-2.495l0.141-1.769c0,0,4.749,3.271,4.749,1.769
		c0-1.502,1.705-4.115,1.705-4.115S137.21,105.223,129.511,109.255z"/>
</g>
<g>
	<path d="M117.644,106.983c0,0,4.56,3.617,5.919,2.272c1.358-1.345,3.142-2.003,1.941-3.189
		C124.307,104.88,122.282,102.392,117.644,106.983z"/>
</g>
<g>
	<path d="M110.904,246.232c-2.386,0-5.488-0.929-6.971-2.396c-0.793-0.673-5.864-0.618-9.219-0.582
		c-6.033,0.066-9.798,0.039-11.134-1.282c-2.461-2.437-1.26-6.251,0.572-8.14c0.397-1.239-0.836-7.596-2.235-12.879
		c-0.156-0.588,0.2-1.191,0.795-1.346c0.601-0.154,1.205,0.199,1.36,0.787c2.314,8.746,2.9,13.765,1.738,14.914
		c-0.982,0.972-2.227,3.547-0.654,5.104c0.8,0.732,6.267,0.673,9.533,0.638c5.876-0.065,9.539-0.039,10.818,1.228
		c1.613,1.598,5.814,2.026,6.633,1.59c0.303-0.287,0.854-0.662,1.852-1.332c0.704-0.476,2.046-1.377,2.945-2.104
		c-0.068,0.001-0.14,0.001-0.209,0.002c-3.753,0.021-7.299,0.043-9.56-2.193c-2.125-2.104-5.54-5.815-5.683-5.973
		c-0.415-0.451-0.381-1.148,0.073-1.558c0.458-0.411,1.163-0.377,1.575,0.073c0.035,0.038,3.522,3.831,5.611,5.898
		c1.602,1.584,4.698,1.568,7.969,1.547c0.368-0.002,0.738-0.005,1.108-0.005c1.176,0,1.891,0.381,2.123,1.13
		c0.429,1.377-1.103,2.582-4.701,5.004c-0.624,0.42-1.4,0.943-1.563,1.104C113.146,245.992,112.118,246.232,110.904,246.232z"/>
</g>
<g>
	<path d="M121.539,243.702c-1.407,0-2.54-0.355-3.387-1.063c-1.223-1.022-1.482-2.543-1.442-3.329l-0.179-6.14
		c-0.018-0.609,0.467-1.117,1.08-1.135c0.61-0.024,1.128,0.463,1.146,1.071l0.184,6.245l-0.005,0.056
		c-0.003,0.027-0.041,0.979,0.671,1.561c0.763,0.623,2.209,0.699,4.182,0.22c2.685-0.654,4.101-1.117,5.135-1.455
		c1.49-0.486,2.172-0.709,4.297-0.709c2.002,0,3.855,0.279,5.346,0.503c1.057,0.158,1.969,0.296,2.646,0.296
		c0.647,0,1.44,0.141,2.281,0.29c1.351,0.24,3.395,0.603,3.969,0.033c0.406-0.401,0.546-1.024,0.339-1.517
		c-0.233-0.557-0.883-0.864-1.83-0.864c-2.949,0-6.673-0.568-8.317-2.161c-0.572-0.333-3.293-0.46-4.925-0.536
		c-3.483-0.163-5.494-0.296-6.358-1.149c-0.875-0.866-2.315-1.652-2.798-1.883c-0.555-0.264-0.789-0.922-0.521-1.471
		c0.267-0.549,0.933-0.78,1.487-0.515c0.083,0.04,2.06,0.989,3.378,2.28c0.572,0.332,3.287,0.459,4.916,0.535
		c3.488,0.162,5.504,0.296,6.368,1.151c0.772,0.767,3.347,1.542,6.77,1.542c1.88,0,3.297,0.813,3.889,2.228
		c0.55,1.313,0.22,2.889-0.823,3.919c-1.396,1.384-3.809,0.955-5.938,0.577c-0.738-0.131-1.438-0.255-1.887-0.255
		c-0.847,0-1.835-0.148-2.982-0.321c-1.488-0.224-3.176-0.478-5.01-0.478c-1.768,0-2.191,0.139-3.599,0.599
		c-1.009,0.329-2.532,0.827-5.3,1.501C123.3,243.577,122.371,243.702,121.539,243.702z"/>
</g>
<g>
	<path d="M176.315,166.35c-0.042,0-0.082-0.002-0.125-0.006c-0.61-0.067-1.051-0.612-0.984-1.218
		c0.52-4.662,0.717-10.356,0.128-11.427c-0.294-0.535-0.094-1.205,0.446-1.496c0.541-0.29,1.219-0.094,1.511,0.441
		c1.197,2.174,0.402,10.288,0.13,12.725C177.358,165.932,176.875,166.35,176.315,166.35z"/>
</g>
<g>
	<path d="M164.667,177.318c-0.646,0-1-0.519-1-1.158v-7.044c0-3.154,3.391-15.625,3.512-16.154c0.143-0.624,1.045-1.016,1.673-0.874
		c0.631,0.141,0.444,0.762,0.302,1.385c-0.809,3.536-3.486,13.238-3.486,15.644v7.044
		C165.667,176.799,165.312,177.318,164.667,177.318z"/>
</g>
<g>
	<path d="M154.726,130.6c0,0,5.576,5.918,7.565,5.918s5.068,1.283,5.068,1.283l3.664,1.402l-0.28,2.607
		C170.744,141.81,151.198,145.77,154.726,130.6z"/>
</g>
<g>
	<path d="M152.981,134.901c-0.029,0-0.059-0.002-0.086-0.003c-1.623-0.074-3.859-2.538-4.744-3.594l1.713-1.409
		c1.16,1.38,2.662,2.716,3.152,2.802c-0.065-0.011-0.264,0.014-0.418,0.166l1.576,1.56
		C153.861,134.732,153.439,134.901,152.981,134.901z"/>
</g>
<g>
	<path d="M75.515,124.172c-0.563,0-1.046-0.419-1.107-0.985c-0.379-3.493-1.125-3.904-1.133-3.907l0,0
		c-0.322,0-1.288,0.962-1.933,2.091c-0.302,0.53-0.98,0.717-1.518,0.42c-0.535-0.299-0.727-0.97-0.424-1.5
		c0.481-0.851,2.224-3.594,4.331-3.168c2.07,0.42,2.642,3.528,2.891,5.83c0.067,0.605-0.376,1.149-0.988,1.215
		C75.594,124.169,75.554,124.172,75.515,124.172z"/>
</g>
<g>
	<path d="M93.588,106.175c0,0,3.158-4.027,3.158-6.691c0-2.665,0.688-4.876,1.659-3.914c0.973,0.963,1.889,0.766,2.059-2.469
		c0.251-4.798,0.251-4.93,0.251-4.93s-5.727,7.496-5.727,5.496s-2.628,0-2.628,0S92.06,107.688,93.588,106.175z"/>
</g>
<g>
	<path d="M58.437,137.988c0.063,0.567-0.349,1.077-0.915,1.139l-0.138,0.015c-0.567,0.063-1.077-0.347-1.14-0.914l-0.495-4.522
		c-0.063-0.567,0.347-1.077,0.914-1.139l0.14-0.016c0.566-0.062,1.076,0.347,1.139,0.914L58.437,137.988z"/>
</g>
<g>
	<path d="M62.981,144.761c0.207,0.887-0.354,1.905-1.249,1.905h-0.011c-0.896,0-1.791-0.278-1.997-1.165l-0.376-1.586
		c-0.207-0.889,0.353-1.754,1.25-1.958l0.01,0.007c0.897-0.204,1.792,0.317,1.997,1.206L62.981,144.761z"/>
</g>
<g>
	<path d="M65.667,149.866c0,0.442-0.1,0.8-0.546,0.8h-0.404c-0.446,0-1.05-0.358-1.05-0.8v-1.399c0-0.442,0.604-0.8,1.05-0.8h0.404
		c0.446,0,0.546,0.358,0.546,0.8V149.866z"/>
</g>
<g>
	<path d="M68.667,145.84c0,0.457-0.08,0.827-0.542,0.827h-1.36c-0.461,0-1.098-0.37-1.098-0.827v-0.346
		c0-0.457,0.637-0.827,1.098-0.827h1.36c0.462,0,0.542,0.37,0.542,0.827V145.84z"/>
</g>
<g>
	<path d="M57.667,174.289c0,0.761-0.617,1.378-1.378,1.378h-0.244c-0.761,0-1.378-0.617-1.378-1.378v-2.244
		c0-0.761,0.617-1.378,1.378-1.378h0.244c0.761,0,1.378,0.617,1.378,1.378V174.289z"/>
</g>
<g>
	<path d="M58.667,166.94c0,0.401-0.326,0.727-0.729,0.727h-0.543c-0.402,0-0.729-0.325-0.729-0.727v-4.546
		c0-0.402,0.326-0.728,0.729-0.728h0.543c0.402,0,0.729,0.325,0.729,0.728V166.94z"/>
</g>
<g>
	<path d="M62.763,159.131c-0.074,0.91-0.88,1.589-1.801,1.516l0,0c-0.92-0.074-1.605-0.872-1.532-1.781l0.136-1.649
		c0.075-0.91,0.881-1.589,1.801-1.516l0,0c0.92,0.074,1.605,0.872,1.531,1.782L62.763,159.131z"/>
</g>
<g>
	<path d="M99.743,138.095c-0.795,0-1.537-0.221-2.118-0.798c-0.437-0.43-0.437-1.128-0.001-1.559c0.435-0.43,1.141-0.43,1.574,0
		c0.585,0.577,3.056-0.424,4.876-1.706c0.5-0.353,1.196-0.237,1.554,0.258c0.357,0.497,0.242,1.184-0.259,1.537
		C104.703,136.298,102.007,138.095,99.743,138.095z"/>
</g>
<g>
	<path d="M105.85,133.528c-0.449,0-0.877-0.258-1.07-0.691c-0.261-0.584,0.006-1.269,0.598-1.527
		c2.681-1.173,5.823-2.819,6.454-3.504c0.063-0.305,0.23-0.581,0.483-0.797c0.32-0.274,1.281-1.094,8.025-0.146
		c0.803-0.781,2.531-2.206,4.517-2.279c1.175-0.044,2.245,0.396,3.129,1.268c0.456,0.453,0.456,1.186,0,1.638
		c-0.458,0.453-1.197,0.453-1.656,0c-0.427-0.422-0.881-0.612-1.386-0.591c-1.339,0.05-2.858,1.462-3.287,1.953l-0.421,0.484
		l-0.639-0.094c-2.507-0.372-5.55-0.619-6.615-0.458c-0.424,0.797-1.975,2.159-7.658,4.645
		C106.17,133.496,106.008,133.528,105.85,133.528z"/>
</g>
<g>
	<path d="M122.924,124.172c-0.512,0-0.973-0.349-1.087-0.863l-1.152-5.118c-0.134-0.595,0.245-1.184,0.845-1.316
		c0.6-0.132,1.196,0.242,1.33,0.837l1.15,5.118c0.135,0.595-0.242,1.184-0.844,1.315
		C123.084,124.164,123.004,124.172,122.924,124.172z"/>
</g>
<g>
	<path d="M126.921,121.932c-2.736,0-4.22-3.177-4.378-3.54c-0.248-0.558,0.009-1.208,0.573-1.452c0.562-0.244,1.22,0.01,1.466,0.567
		c0.259,0.576,1.244,2.22,2.339,2.22c0.615,0,1.113,0.493,1.113,1.103S127.537,121.932,126.921,121.932z"/>
</g>
<g>
	<path d="M108.749,127.875c-1.479,0-2.092-0.65-2.246-1.195c-0.148-0.524-0.557-1.75,4.093-4.556
		c0.554-0.333,1.245-0.16,1.579,0.386c0.337,0.546,0.149,1.259-0.403,1.592c-0.742,0.447-1.085,0.958-1.663,1.406
		c2.116-0.185,4.559-0.891,4.559-2.439v-2.502c0-0.64,0.353-1.158,1-1.158s1,0.518,1,1.158v2.502
		C116.667,126.034,113.487,127.875,108.749,127.875z"/>
</g>
<g>
	<path d="M115.204,127.788c-0.278,0-0.557-0.102-0.771-0.308c-0.438-0.419-0.46-1.099-0.045-1.538
		c0.112-0.119,1.068-1.08,2.735-1.253c-0.122-0.626-0.243-1.62,0.545-2.399c1.405-1.391,4.015-0.445,4.522-0.243
		c0.57,0.229,0.846,0.872,0.616,1.436c-0.231,0.563-0.88,0.836-1.451,0.609c-0.891-0.353-1.924-0.429-2.112-0.243
		c-0.006,0.064,0.06,0.382,0.099,0.571c0.109,0.524,0.259,1.243-0.242,1.851c-0.323,0.396-0.813,0.596-1.455,0.596
		c-1.028,0-1.618,0.571-1.643,0.595C115.782,127.678,115.494,127.788,115.204,127.788z"/>
</g>
<g>
	<path d="M111.264,121.673c-0.613,0-1.127-0.473-1.166-1.086c-0.057-0.882-0.186-1.811-0.327-2.473
		c-0.941,0.781-1.735,1.23-1.776,1.254l-2.387,1.344l0.675-2.634c0.186-0.731,0.331-1.522,0.414-2.179
		c-0.282,0.48-0.882,0.706-1.422,0.506c-0.603-0.223-0.912-0.88-0.691-1.478c0.086-0.234,0.898-2.291,2.832-2.291
		c0.482,0,0.93,0.218,1.229,0.599c0.367,0.467,0.516,1.257,0.445,2.358c0.455-0.376,1.018-0.485,1.536-0.292
		c0.454,0.169,1.519,0.568,1.808,5.139c0.04,0.639-0.449,1.188-1.095,1.228C111.313,121.672,111.29,121.673,111.264,121.673z"/>
</g>
<g>
	<path d="M136.872,110.449c0,0,3.34,5.685,3.34,11.419s-6.031,14.65-3.343,14.65c2.688,0,7.798-5.9,7.798-11.859s0-8.419,0-8.419
		S139.245,108.247,136.872,110.449z"/>
</g>
<g>
	<path d="M159.165,221.667h-7.86c-0.647,0-1.172-0.36-1.172-1c0-0.641,0.524-1,1.172-1h7.725c-0.712-1-2.922-3.047-6.209-4.811
		c-4.322-2.317-10.612-10.896-12.742-13.912c-3.799,2.478-8.63-0.176-10.821-2.104c-0.483-0.424-0.527-1.161-0.099-1.64
		c0.43-0.478,1.169-0.524,1.652-0.1c0.229,0.199,5.364,4.605,8.685,1.316l1.005-0.996l0.793,1.167
		c0.08,0.118,7.983,11.695,12.645,14.194c2.344,1.257,8.281,4.969,7.614,7.572C161.414,220.89,160.921,221.667,159.165,221.667z"/>
</g>
<g>
	<path d="M141.211,196.611c-0.465,0-0.862-0.281-1.029-0.679c-0.58-0.674-3.869-3.203-6.696-5.243
		c-0.498-0.358-0.607-1.048-0.245-1.541c0.361-0.49,1.059-0.6,1.557-0.241c7.528,5.43,7.528,5.999,7.528,6.602
		C142.326,196.118,141.827,196.611,141.211,196.611z"/>
</g>
<g>
	<path d="M123.791,191.456c-1.576,0-2.964-0.222-3.626-0.877c-0.437-0.431-0.437-1.129-0.002-1.56s1.142-0.431,1.576-0.001
		c0.584,0.399,3.909,0.266,7.093-0.305c0.61-0.108,1.185,0.29,1.296,0.888c0.109,0.6-0.293,1.173-0.898,1.282
		C127.736,191.151,125.635,191.456,123.791,191.456z"/>
</g>
<g>
	<path d="M112.993,193.654c-1.693,0-3.11-0.771-3.61-1.967c-0.271-0.645-0.486-1.96,1.095-3.525
		c1.896-1.875,4.724-4.109,7.434-4.109c1.24,0,2.324,0.449,3.221,1.336l0.729,0.721l-0.669,0.774
		c-0.127,0.148-3.145,3.646-5.129,5.609C115.305,193.242,114.215,193.654,112.993,193.654z M117.911,186.258
		c-1.521,0-3.6,1.229-5.857,3.462c-0.465,0.461-0.705,0.901-0.611,1.123c0.105,0.254,0.702,0.605,1.551,0.605
		c0.619,0,1.163-0.188,1.494-0.516c1.312-1.298,3.153-3.36,4.197-4.551C118.445,186.298,118.19,186.258,117.911,186.258z"/>
</g>
<g>
	<path d="M102.281,205.595c-4.316,0-8.508-1.899-12.174-5.527c-9.499-9.399-14.729-26.716-14.729-48.761
		c0-2.039-0.006-4.07-0.01-6.079c-0.044-18.87-0.082-35.167,3.707-39.872c3.077-3.82,5.631-5.414,7.592-4.735
		c1.725,0.597,2.563,2.714,2.563,6.472c0,3.521,1.215,8.171,2.288,12.273c1.496,5.729,2.222,8.915,1.063,10.396
		c-0.391,0.501-0.975,0.903-1.645,0.903H87.52c-0.646,0-1.17-0.861-1.17-1.501s0.523-1.499,1.17-1.499h3.256
		c0.319-1-0.742-4.932-1.526-7.935c-1.106-4.237-2.36-8.931-2.36-12.746c0-3.11-0.625-4.104-0.995-4.231
		c-0.478-0.167-2.139,0.48-4.987,4.019c-3.278,4.069-3.238,20.769-3.199,38.435c0.006,2.012,0.009,4.051,0.009,6.092
		c0,21.424,4.988,38.165,14.045,47.126c3.47,3.434,7.251,5.06,11.236,4.829c4.854-0.281,8.393-3.182,9.586-4.677
		c0.841-1.053,1.22-1.999,1.095-2.736c-0.12-0.708-0.679-1.071-0.701-1.085c-0.538-0.343-0.707-1.054-0.372-1.59
		c0.337-0.538,1.037-0.715,1.584-0.393c0.149,0.088,1.468,0.907,1.786,2.619c0.269,1.438-0.255,2.992-1.555,4.621
		c-1.523,1.908-5.614,5.226-11.286,5.555C102.849,205.586,102.564,205.595,102.281,205.595z"/>
</g>
<g>
	<path d="M120.343,197.59c-0.245,0-0.491-0.08-0.697-0.242c-0.748-0.592-3.105-2.057-4.115-1.061c-0.433,0.432-1.14,0.432-1.575,0
		c-0.435-0.43-0.435-1.128,0.002-1.559c2.095-2.074,5.439-0.411,7.085,0.899c0.479,0.382,0.556,1.076,0.169,1.55
		C120.991,197.45,120.669,197.59,120.343,197.59z"/>
</g>
<g>
	<path d="M137.677,194.045c0,0,1.213-9.313,2.683-7.8c1.472,1.513,2.137,1.483,2.137,1.483S140.54,196.991,137.677,194.045z"/>
</g>
<g>
	<path d="M169.398,197.853c-0.681,0-1.354-0.106-2.003-0.317c-3.579-1.167-12.346-7.029-12.346-10.97
		c0-3.349,1.528-7.648,1.594-7.83l0.083-0.235l0.178-0.176c1.468-1.451,5.531-3.046,7.768-3.046c0.751,0,1.31,0.176,1.703,0.537
		c0.302,0.151,1.39,0.339,2.19,0.476c2.909,0.5,6.894,1.184,7.815,3.99c0.127,0.385,0.275,0.814,0.435,1.275
		c1.373,3.98,3.256,9.43,0.784,11.876C175.682,195.331,172.747,197.853,169.398,197.853z M158.657,179.725
		c-0.316,0.94-1.379,4.301-1.379,6.841c0,2.354,7.331,7.74,10.813,8.874c2.217,0.724,4.764-0.43,7.933-3.565
		c1.488-1.475-0.337-6.763-1.317-9.604c-0.163-0.474-0.315-0.913-0.445-1.307c-0.507-1.544-3.858-2.12-6.077-2.499
		c-1.767-0.304-2.685-0.479-3.246-0.962c-0.046-0.009-0.131-0.02-0.267-0.02C163.133,177.484,159.873,178.718,158.657,179.725z"/>
</g>
<g>
	<path d="M173.02,196.77c-1.634,0-3.005-1.709-4.389-10.052c-0.755-4.552-1.165-9.164-1.17-9.21c-0.054-0.607,0.4-1.142,1.013-1.195
		c0.613-0.053,1.153,0.398,1.207,1.004c0.668,7.57,2.216,16.225,3.479,17.257c0.55,0.068,0.976,0.532,0.976,1.095
		C174.135,196.277,173.634,196.77,173.02,196.77z"/>
</g>
<g>
	<path d="M164.368,195.951c-0.165,0-0.333-0.036-0.491-0.113c-3.764-1.828-3.016-14.634-2.694-18.515
		c0.049-0.607,0.584-1.059,1.199-1.01c0.614,0.05,1.07,0.582,1.021,1.189c-0.596,7.267-0.152,15.573,1.457,16.355
		c0.554,0.269,0.781,0.93,0.509,1.476C165.174,195.724,164.779,195.951,164.368,195.951z"/>
</g>
<g>
	<path d="M156.163,189.957c-0.491,0-0.939-0.324-1.074-0.815c-0.16-0.588,0.191-1.193,0.785-1.353
		c8.263-2.209,17.373-5.042,18.884-6.114c0.111-0.306,0.357-0.56,0.694-0.672c0.586-0.194,1.213,0.115,1.412,0.692
		c0.114,0.339,0.079,0.708-0.098,1.036c-0.736,1.362-7.569,3.779-20.311,7.187C156.356,189.944,156.259,189.957,156.163,189.957z"/>
</g>
<g>
	<path d="M162.046,194.442c-0.421,0-0.822-0.235-1.011-0.637c-0.261-0.553-0.018-1.207,0.54-1.465
		c5.945-2.737,12.763-6.317,13.653-7.445c0.118-0.483,0.559-0.842,1.085-0.842c0.615,0,1.114,0.493,1.114,1.102
		c0,0.694,0,2.32-14.912,9.185C162.363,194.409,162.205,194.442,162.046,194.442z"/>
</g>
<g>
	<path d="M224.867,167.683c-1.464,0-2.281-1.249-3.004-2.352c-0.756-1.155-1.312-1.912-2.111-1.912
		c-0.551,0-1.971,0.499-3.342,0.982c-2.837,0.997-6.72,2.362-10.475,2.362c-2.401,0-4.482-0.566-6.188-1.686
		c-4.909-3.223-8.347-7.921-8.757-11.971c-0.217-2.137,0.424-4.014,1.852-5.427c3.523-3.486,9.79-5.915,13.208-5.915
		c1.185,0,2.073,0.285,2.641,0.846c0.026,0.028,0.072,0.071,0.257,0.071c0.566,0,1.504-0.399,2.496-0.821
		c1.536-0.653,3.274-1.394,5.132-1.394c0.666,0,1.31,0.1,1.909,0.296c3.371,1.101,13.652,7.884,14.671,14.749
		c0.31,2.076-0.114,5.098-3.88,7.707c-0.544,0.377-0.93,1.119-1.303,1.836C227.366,166.227,226.61,167.683,224.867,167.683z
		 M219.751,161.214c2.071,0,3.177,1.687,3.981,2.918c0.308,0.47,0.881,1.346,1.134,1.346c0.356,0,0.663-0.54,1.126-1.43
		c0.473-0.911,1.011-1.945,2.006-2.635c2.307-1.599,3.273-3.424,2.955-5.579c-0.86-5.783-10.319-12.046-13.167-12.977
		c-0.38-0.124-0.776-0.185-1.211-0.185c-1.397,0-2.914,0.646-4.25,1.215c-1.263,0.537-2.352,1.001-3.378,1.001
		c-0.735,0-1.353-0.242-1.834-0.717c-0.055-0.056-0.357-0.201-1.063-0.201c-2.916,0-8.634,2.302-11.631,5.269
		c-0.953,0.943-1.36,2.17-1.212,3.648c0.341,3.365,3.464,7.526,7.771,10.353c1.352,0.889,2.974,1.319,4.956,1.319
		c3.371,0,7.045-1.293,9.727-2.237C217.493,161.679,218.815,161.214,219.751,161.214z"/>
</g>
<g>
	<path d="M218.942,155.178c-0.48,0-0.925-0.312-1.067-0.792c-0.63-2.118-2.577-6.492-4.585-6.492c-2.049,0-3.872-0.761-5.203-1.318
		c-0.418-0.174-0.951-0.396-1.292-0.495c-0.141,0.81-0.012,2.825,0.32,4.715c0.106,0.599-0.299,1.171-0.904,1.275
		c-0.609,0.104-1.183-0.297-1.29-0.896c-0.448-2.538-0.759-5.785,0.31-6.842c0.954-0.944,2.299-0.382,3.723,0.212
		c1.221,0.51,2.741,1.145,4.337,1.145c4.214,0,6.478,7.25,6.723,8.077c0.173,0.583-0.165,1.196-0.756,1.367
		C219.152,155.165,219.045,155.178,218.942,155.178z"/>
</g>
<g>
	<path d="M212.284,155.178c-0.583,0-1.072-0.448-1.111-1.03c-0.11-1.673-0.54-10.14,1.807-12.617
		c0.508-0.539,1.14-0.823,1.827-0.823c0.615,0,1.115,0.494,1.115,1.102c0,0.61-0.5,1.104-1.115,1.104c-0.024,0-0.084,0-0.202,0.125
		c-1.243,1.313-1.456,7.203-1.209,10.966c0.041,0.607-0.424,1.132-1.038,1.172C212.332,155.178,212.307,155.178,212.284,155.178z"/>
</g>
<g>
	<path d="M200.142,150.711c-0.961,0-2.159-0.162-2.97-0.837c-0.58-0.483-0.885-1.15-0.885-1.93c0-0.609,0.497-1.103,1.114-1.103
		c0.614,0,1.113,0.494,1.113,1.103c0,0.167,0.049,0.207,0.093,0.243c0.436,0.365,1.815,0.367,2.644,0.229
		c0.606-0.102,1.183,0.301,1.286,0.9c0.104,0.6-0.303,1.169-0.908,1.272C201.42,150.625,200.844,150.711,200.142,150.711z"/>
</g>
<g>
	<path d="M201.44,199.077c-3.611,0-15.517-5.29-16.586-7.842c-0.255-0.611-0.149-1.242,0.283-1.693
		c0.427-0.682,0.739-4.211,0.926-6.325c0.441-4.976,0.637-6.57,1.85-7.007c0.524-0.188,1.092-0.05,1.519,0.373
		c0.457,0.452,0.457,1.186,0,1.638c-0.131,0.129-0.284,0.221-0.447,0.276c-0.243,1.012-0.445,3.313-0.588,4.922
		c-0.347,3.915-0.595,6.063-1.176,7.176c1.724,1.757,11.292,6.166,14.22,6.166c1.509,0,1.798-0.368,1.801-0.372
		c0.017-0.023,0.005-0.101-0.004-0.128l-0.886-1.704l1.98,0.11h3.787c0.394,0,1.739-2.835,1.63-17.379l-0.005-0.755
		c0-1.131-2.64-3.042-4.544-3.989c-0.577-0.287-0.812-0.981-0.521-1.553c0.289-0.571,0.99-0.802,1.569-0.516
		c0.975,0.483,5.838,3.044,5.838,6.063l0.004,0.743c0.087,11.486-0.637,17.198-2.347,18.902c-0.541,0.539-1.112,0.482-1.498,0.482
		h-2.746c-0.063,1-0.164,0.617-0.307,0.831C204.564,198.432,203.301,199.077,201.44,199.077z"/>
</g>
<g>
	<path d="M198.411,190.901c-0.079,0-0.158-0.008-0.237-0.025c-2.05-0.438-5.925-2.846-5.925-8.828c0-7.701,3.757-12.25,5.372-13.849
		c2.21-2.187,3.436-2.721,6.243-2.721c1.263,0,2.968,0.453,4.942,0.978c2.04,0.54,4.351,1.153,6,1.153
		c3.066,0,8.016-2.025,8.064-2.047c0.567-0.231,1.221,0.032,1.457,0.595c0.237,0.561-0.031,1.207-0.599,1.441
		c-0.22,0.091-5.411,2.217-8.923,2.217c-1.945,0-4.3-0.626-6.577-1.23c-1.748-0.464-3.396-0.901-4.365-0.901
		c-2.051,0-2.776,0.204-4.667,2.075c-1.42,1.404-4.721,5.412-4.721,12.289c0,5.717,4.126,6.664,4.167,6.674
		c0.604,0.128,0.985,0.714,0.855,1.31C199.384,190.547,198.923,190.901,198.411,190.901z"/>
</g>
<g>
	<path d="M187.439,190.901c-0.064,0-0.13-0.006-0.195-0.018c-0.483-0.084-4.773-0.886-6.671-2.762
		c-1.337-1.324-0.966-4.771-0.418-7.431c0.409-1.994,1.429-5.69,2.648-6.896c0.558-0.552,1.251-0.816,2.006-0.757
		c1.771,0.136,3.251,2.024,3.527,2.402c0.363,0.492,0.256,1.182-0.241,1.541c-0.495,0.359-1.192,0.252-1.557-0.238l0,0
		c-0.448-0.605-1.361-1.466-1.901-1.507c-0.056-0.003-0.131-0.01-0.26,0.118c-1.458,1.443-3.185,10.138-2.227,11.21
		c1.187,1.175,4.438,1.965,5.482,2.148c0.605,0.107,1.01,0.679,0.901,1.279C188.439,190.526,187.969,190.901,187.439,190.901z"/>
</g>
<g>
	<path d="M210.437,191.455c-0.428,0-0.833-0.243-1.02-0.652c-0.251-0.557,0.002-1.208,0.563-1.457
		c0.042-0.02,4.403-1.945,8.952-3.602c8.614-3.134,10.65-2.728,11.568-1.819c0.437,0.431,0.437,1.128,0,1.559
		c-0.419,0.416-1.094,0.43-1.529,0.043c-1.506-0.635-10.533,2.489-18.082,5.832C210.744,191.423,210.587,191.455,210.437,191.455z"
		/>
</g>
<g>
	<path d="M215.155,196.706c-1.257,0-2.342-0.077-3.114-0.245c-0.436-0.096-1.761-0.385-2.158-1.456
		c-0.212-0.572,0.085-1.205,0.663-1.415c0.53-0.193,1.117,0.041,1.371,0.526c1.739,1.196,13.88-0.363,15.263-1.562
		c0.456-0.451,0.421-0.605-0.025-1.476c-0.269-0.521-0.574-1.113-0.574-1.832c0-0.539,0.269-1.362,0.826-3.026
		c0.593-1.771,2.399-7.157,1.521-8.028c-2.08-2.059-4.103-9.182-4.327-9.987c-0.163-0.587,0.187-1.193,0.78-1.354
		c0.593-0.161,1.205,0.184,1.369,0.771c0.784,2.825,2.499,7.771,3.753,9.013c1.712,1.695,0.57,5.658-0.98,10.281
		c-0.309,0.918-0.69,2.061-0.712,2.352c0,0.169,0.167,0.496,0.33,0.813c0.436,0.846,1.246,2.42-0.391,4.041
		C227.286,195.568,219.979,196.706,215.155,196.706z"/>
</g>
<g>
	<path d="M210.928,194.442c-0.461,0-0.891-0.284-1.051-0.738c-0.205-0.575,0.104-1.204,0.684-1.404
		c17.268-5.967,17.818-4.435,18.183-3.422c0.206,0.574-0.096,1.205-0.675,1.408c-0.391,0.138-0.807,0.047-1.101-0.201
		c-1.648-0.127-9.271,2.084-15.672,4.297C211.174,194.423,211.05,194.442,210.928,194.442z"/>
</g>
<g>
	<path d="M247.506,200.473c-0.44,0-0.856-0.171-1.183-0.494c-0.436-0.431-0.436-1.128,0-1.559c0.328-0.326,0.808-0.406,1.212-0.241
		c1.038-0.827,3.334-5.169,4.813-9.668c1.406-4.266-3.768-10.576-4.844-11.642c-0.647-0.642-1.077-1.831-1.724-3.72
		c-0.561-1.638-1.258-3.677-2.046-4.458c-1.468-1.45-5.078-2.342-7.021-2.342c-2.946,0-3.656-5.391-3.803-7.043l-0.081-0.917
		l29.438-8.007c0.594-0.161,1.207,0.185,1.369,0.771c0.163,0.588-0.185,1.195-0.778,1.356l-27.621,7.512
		c0.32,2.189,1.02,4.02,1.477,4.123c2.249,0,6.537,0.949,8.596,2.988c1.157,1.145,1.881,3.262,2.582,5.31
		c0.37,1.079,0.874,2.559,1.188,2.868c0.074,0.074,7.387,7.813,5.388,13.884c-0.035,0.104-3.54,10.514-6.553,11.229
		C247.779,200.457,247.641,200.473,247.506,200.473z"/>
</g>
<g>
	<path d="M253.408,171.147c-0.564,0-1.048-0.425-1.106-0.993c-0.061-0.598,0.373-1.132,0.972-1.204
		c0.124-0.021,1.975-0.39,2.821-3.955c0.987-4.146-0.264-5.385-1.589-6.694c-1.921-1.904-3.121-4.264-3.271-6.403
		c-1.307-0.197-5.434,0.611-9.473,1.691c1.254,0.947,2.393,2.1,2.393,3.169c0,1.338-1.25,7.49-1.501,8.709
		c-0.123,0.597-0.715,0.979-1.313,0.861c-0.604-0.121-0.992-0.704-0.871-1.301c0.553-2.686,1.421-7.226,1.455-8.215
		c-0.209-0.502-1.781-1.762-3.354-2.682l-2.189-1.281l2.436-0.724c4.424-1.314,12.12-3.318,13.973-1.955
		c0.424,0.312,0.657,0.765,0.657,1.275c0,1.656,1.011,3.685,2.637,5.294c1.888,1.869,3.355,3.818,2.18,8.759
		c-1.244,5.236-4.602,5.627-4.743,5.641C253.482,171.145,253.445,171.147,253.408,171.147z"/>
</g>
<g>
	<path d="M247.238,164.646c0,0-0.06-6.531-0.06-7.925c0-0.469-0.979-1.77-2.053-2.729c-0.457-0.407-0.494-1.104-0.082-1.557
		c0.411-0.452,1.115-0.488,1.572-0.081c0.654,0.582,2.792,2.62,2.792,4.368c0,1.39,0.059,7.905,0.059,7.905L247.238,164.646z"/>
</g>
<g>
	<path d="M252.167,163.419c-0.646,0-1.5-0.519-1.5-1.158v-7.528c0-0.639,0.854-1.157,1.5-1.157s1.5,0.518,1.5,1.157v7.528
		C253.667,162.901,252.813,163.419,252.167,163.419z"/>
</g>
<g>
	<path d="M236.446,222.049c-0.514,0-0.6-0.184-0.947-0.525c-2.084-2.064-1.832-13.004-1.832-16.308v-0.333l-0.191-0.275
		c0.16-0.24,1.527-2.29,6.266-0.412c0.572,0.226,0.755,0.867,0.526,1.433c-0.229,0.565-0.924,0.841-1.494,0.614
		c-2.133-0.845-3.196-0.661-3.612-0.486c0.019,5.981,0.572,12.72,1.436,14.067c1.311-0.332,5.271-4.316,9.074-9.114l-0.585-0.576
		c-1.802-1.785-1.314-7.782-0.283-11.245c1.034-3.479,2.428-18.219,2.44-18.367c0.059-0.606,0.599-1.052,1.213-0.995
		c0.613,0.056,1.063,0.594,1.007,1.199c-0.06,0.615-1.429,15.104-2.523,18.786c-1.144,3.843-0.984,8.367-0.281,9.063l1.968,1.947
		l-0.594,0.767c-1.918,2.475-8.407,10.561-11.444,10.758C236.541,222.048,236.493,222.049,236.446,222.049z"/>
</g>
<g>
	<path d="M239.138,215.382c-0.542,0-1.017-0.392-1.102-0.937c-0.484-3.142-1.087-8.62,0.313-10.006
		c0.482-0.477,1.14-0.607,1.758-0.355c1.936,0.793,3.376,6.207,3.376,7.131c0,0.609-0.498,1.102-1.115,1.102
		c-0.613,0-1.113-0.492-1.113-1.102c-0.002-0.699-0.812-3.114-1.509-4.383c-0.126,1.453,0.05,4.407,0.492,7.28
		c0.095,0.603-0.325,1.165-0.933,1.256C239.249,215.377,239.191,215.382,239.138,215.382z"/>
</g>
<g>
	<path d="M234.28,180.754c-0.344,0-0.675-0.037-0.989-0.121c-1.03-0.275-1.792-0.983-2.205-2.051
		c-2.007-5.188-1.28-11.977,3.993-14.908c0.534-0.299,1.215-0.109,1.516,0.422c0.302,0.531,0.11,1.203-0.426,1.501
		c-4.66,2.592-4.349,8.715-3.002,12.198c0.199,0.512,0.466,0.646,0.703,0.709c1.479,0.397,4.766-1.505,6.618-2.981
		c0.479-0.382,1.182-0.307,1.566,0.166c0.386,0.475,0.313,1.167-0.168,1.55C241.395,177.631,237.385,180.754,234.28,180.754z"/>
</g>
<g>
	<path d="M241.187,201.888c-0.615,0-1.113-0.494-1.113-1.103c0-2.048,2.519-21.324,2.808-23.516c0.076-0.604,0.633-1.03,1.246-0.951
		c0.61,0.078,1.041,0.631,0.961,1.235c-0.774,5.915-2.787,21.62-2.787,23.231C242.301,201.394,241.803,201.888,241.187,201.888z"/>
</g>
<g>
	<path d="M234.022,197.853c-0.478,0-0.919-0.306-1.065-0.78c-0.181-0.582,0.151-1.198,0.739-1.377
		c1.473-0.446,8.935-2.526,11.175,0.387c0.374,0.484,0.278,1.177-0.212,1.545c-0.488,0.369-1.188,0.275-1.561-0.209
		c-0.921-1.195-5.672-0.545-8.75,0.387C234.24,197.837,234.13,197.853,234.022,197.853z"/>
</g>
<g>
	<path d="M251.068,195.727c-0.159,0-0.321-0.033-0.472-0.104l-2.774-1.285c-0.559-0.258-0.798-0.914-0.536-1.465
		c0.258-0.553,0.923-0.79,1.479-0.532l2.774,1.284c0.558,0.258,0.797,0.914,0.537,1.466
		C251.887,195.493,251.485,195.727,251.068,195.727z"/>
</g>
<g>
	<path d="M251.681,189.957c-0.427,0-0.835-0.245-1.019-0.658l-2.001-4.481c-0.249-0.558,0.004-1.208,0.567-1.455
		c0.563-0.246,1.222,0.006,1.471,0.563l2,4.482c0.25,0.557-0.005,1.208-0.568,1.454
		C251.985,189.925,251.833,189.957,251.681,189.957z"/>
</g>
<g>
	<path d="M181.882,207.92c-0.615,0-1.114-0.493-1.114-1.103c0-4.65,9.133-12.2,10.174-13.046c0.476-0.387,1.178-0.317,1.567,0.153
		c0.392,0.471,0.322,1.165-0.153,1.552c-3.618,2.939-9.359,8.617-9.359,11.341C182.997,207.427,182.499,207.92,181.882,207.92z"/>
</g>
<g>
	<path d="M183.591,215.382c-0.074,0-0.149-0.009-0.223-0.022c-0.604-0.122-0.993-0.703-0.87-1.301
		c1.866-9.089,9.843-15.3,10.182-15.56c0.484-0.372,1.185-0.286,1.561,0.195c0.378,0.48,0.29,1.173-0.194,1.547
		c-0.077,0.059-7.665,5.983-9.364,14.257C184.575,215.021,184.111,215.382,183.591,215.382z"/>
</g>
<g>
	<path d="M187.437,220.711c-0.614,0-1.113-0.494-1.113-1.103c0-7.549,9.851-17.909,10.269-18.347
		c0.423-0.442,1.129-0.459,1.575-0.041c0.447,0.419,0.465,1.117,0.042,1.559c-0.096,0.102-9.657,10.158-9.657,16.829
		C188.552,220.217,188.053,220.711,187.437,220.711z"/>
</g>
<g>
	<path d="M192.42,220.711c-0.064,0-0.13-0.006-0.195-0.018c-0.607-0.107-1.011-0.68-0.902-1.279
		c0.423-2.341,2.735-14.084,6.735-15.4c0.583-0.191,1.214,0.121,1.408,0.699s-0.122,1.201-0.707,1.394
		c-1.817,0.599-4.137,7.575-5.242,13.696C193.42,220.336,192.952,220.711,192.42,220.711z"/>
</g>
<g>
	<path d="M198.411,220.711c-0.069,0-0.137-0.006-0.207-0.019c-0.604-0.112-1.003-0.688-0.89-1.287
		c0.587-3.104,2.64-13.366,4.415-15.124c0.436-0.431,1.142-0.431,1.577,0c0.434,0.43,0.434,1.129,0,1.559
		c-0.882,0.872-2.661,7.932-3.804,13.971C199.404,220.341,198.936,220.711,198.411,220.711z"/>
</g>
<g>
	<path d="M202.516,219.379c-0.136,0-0.276-0.026-0.41-0.079c-0.572-0.226-0.851-0.867-0.625-1.432
		c1.637-4.064,4.23-11.136,4.23-12.808c0-0.609,0.499-1.103,1.114-1.103s1.113,0.493,1.113,1.103c0,2.642-3.938,12.508-4.387,13.623
		C203.379,219.116,202.959,219.379,202.516,219.379z"/>
</g>
<g>
	<path d="M194.414,240.303c-2.067,0-3.79-0.225-4.539-0.854c-0.413-0.348-0.642-0.818-0.642-1.328c0-1.363,0.662-5.604,1.032-7.862
		c-0.547-0.091-1.167-0.306-1.787-0.755c-1.913-1.384-2.883-4.354-2.883-8.826c0-0.639,0.524-1.158,1.172-1.158
		c0.646,0,1.169,0.52,1.169,1.158c0,4.843,1.204,6.437,1.924,6.957c0.722,0.521,1.428,0.332,1.435,0.33l1.826-0.574l-0.317,1.871
		c-0.317,1.865-1.106,6.75-1.216,8.513c1.417,0.503,6.934,0.105,11.909-0.643c0.028-2.282,0.333-7.508,2.435-9.589
		c1.263-1.297,3.469-13.495,4.87-24.539c0.08-0.635,0.682-1.085,1.306-1.005c0.643,0.079,1.097,0.659,1.017,1.294
		c-0.694,5.476-3.148,23.526-5.538,25.889c-1.403,1.391-1.815,6.203-1.744,8.909l0.027,1.01l-1.007,0.164
		C202.448,239.657,197.933,240.303,194.414,240.303z"/>
</g>
<g>
	<path d="M212.284,221.847c-0.235,0-0.474-0.073-0.676-0.227c-0.488-0.37-0.582-1.061-0.21-1.544
		c0.048-0.064,4.546-6.041,4.546-15.016c0-0.609,0.5-1.103,1.114-1.103c0.616,0,1.115,0.493,1.115,1.103
		c0,9.756-4.799,16.088-5.003,16.352C212.95,221.698,212.62,221.847,212.284,221.847z"/>
</g>
<g>
	<path d="M218.945,219.379c-0.086,0-0.172-0.011-0.258-0.03c-0.599-0.141-0.97-0.734-0.829-1.327
		c0.816-3.414,2.933-12.742,2.933-14.874c0-0.608,0.499-1.103,1.115-1.103c0.615,0,1.112,0.494,1.112,1.103
		c0,2.776-2.685,14.1-2.99,15.382C219.906,219.038,219.45,219.379,218.945,219.379z"/>
</g>
<g>
	<path d="M190.835,234.25c1.808,1.791,8.855,2.797,11.682,0s2.534-1.377,2.534-1.377l-0.379,5.513c0,0-14.483,2.527-14.27,0
		C190.619,235.857,190.835,234.25,190.835,234.25z"/>
</g>
<g>
	<path d="M215.538,235.049c-1.831,0-3.618-0.247-4.666-0.676c-1.28-0.525-1.55-1.303-1.55-1.861c0-0.652-1.663-2.166-3.152-3.082
		c-0.521-0.322-0.682-1.001-0.357-1.519c0.325-0.517,1.014-0.675,1.537-0.353c0.946,0.584,3.959,2.597,4.187,4.702
		c1.263,0.846,7.329,0.755,8.263-0.169c1.517-1.5,2.386-4.011,2.386-6.888c0-3.657,4.083-10.691,4.547-11.481
		c0.311-0.525,0.992-0.703,1.524-0.396c0.531,0.307,0.712,0.981,0.401,1.507c-1.18,2.005-4.243,7.777-4.243,10.371
		c0,3.457-1.106,6.536-3.039,8.447C220.386,234.629,217.924,235.049,215.538,235.049z"/>
</g>
<g>
	<path d="M240.089,174.988c-1.585,0-3.371-0.749-4.697-2.062c-0.735-0.728-1.063-1.613-0.948-2.561
		c0.3-2.453,3.606-4.502,3.981-4.729c0.527-0.314,1.212-0.148,1.53,0.371c0.32,0.521,0.152,1.199-0.373,1.514
		c-0.155,0.094-0.32,0.201-0.488,0.318c0.866-0.016,2.395,0.097,3.472,1.029c0.742,0.642,1.135,1.556,1.135,2.641
		c0,1.497-0.737,2.657-2.024,3.185C241.193,174.893,240.653,174.988,240.089,174.988z M237.51,169.194
		c-0.462,0.496-0.802,1.006-0.854,1.438c-0.024,0.188-0.004,0.424,0.312,0.735c1.283,1.271,2.965,1.654,3.856,1.291
		c0.278-0.114,0.647-0.357,0.647-1.147c0-0.588-0.21-0.84-0.368-0.978c-0.622-0.542-1.946-0.514-2.358-0.462
		C238.152,170.145,237.623,169.756,237.51,169.194z"/>
</g>
<g>
	<path d="M245.833,194.052c-0.272,0-0.544,0.053-0.766-0.138l-1.621-1.248h-10.221c-0.646,0-1.171-0.861-1.171-1.5
		c0-0.641,0.524-1.5,1.171-1.5h11.094l2.282,2.158c0.487,0.42,0.54,1.248,0.115,1.73
		C246.487,193.819,246.161,194.052,245.833,194.052z"/>
</g>
<g>
	<path d="M237.521,192.078c-0.168,0-0.34-0.038-0.5-0.117c-0.55-0.273-0.771-0.937-0.494-1.48l1.079-2.122
		c0.044-0.092,0.182-0.468-0.022-1.469c-0.487-2.412-2.354-5.689-2.371-5.723c-0.305-0.529-0.117-1.203,0.419-1.502
		c0.535-0.302,1.215-0.114,1.518,0.415c0.085,0.146,2.063,3.621,2.619,6.376c0.248,1.228,0.192,2.174-0.173,2.893l-1.077,2.122
		C238.322,191.856,237.93,192.078,237.521,192.078z"/>
</g>
<g>
	<path d="M247.112,189.956c-0.274,0-0.547-0.099-0.762-0.298c-0.048-0.043-4.769-4.3-6.886-2.205c-0.436,0.431-1.141,0.431-1.575,0
		c-0.435-0.432-0.435-1.129,0-1.56c2.928-2.9,7.653-0.009,9.984,2.156c0.449,0.416,0.471,1.112,0.049,1.557
		C247.704,189.838,247.408,189.956,247.112,189.956z"/>
</g>
<g>
	<path d="M248.107,184.212c-0.062,0-0.123-0.005-0.188-0.017c-0.063-0.011-6.22-1.046-9.319-1.046c-0.613,0-1.113-0.493-1.113-1.103
		s0.5-1.103,1.113-1.103c3.287,0,9.435,1.034,9.695,1.077c0.606,0.104,1.014,0.673,0.91,1.273
		C249.112,183.833,248.64,184.212,248.107,184.212z"/>
</g>
<g>
	<path d="M232.125,189.798c-1.172-1.178,1.173-8.032,1.173-8.032c-0.902-0.893-1.687-4.877-4.726,4.313
		c-1.188,3.592-0.906,5.118,0.094,5.582v1.52c0,0.293,0.172,0.564,0.307,0.804c-0.445,0.521-0.85,0.864-1.322,0.864
		c0,0-2,1.77-2,5.938c0,4.166-2.362,9.338-2.362,11.549s4.401,3.942,6.421,1.944c2.018-1.998,4.31-8.793,4.31-12.258
		C234.019,198.557,233.854,188.088,232.125,189.798z"/>
</g>
<g>
	<path d="M224.868,163.412c-0.383,0-0.757-0.196-0.963-0.549c-0.311-0.525-0.131-1.201,0.401-1.507l5.378-3.099
		c0.534-0.306,1.215-0.128,1.523,0.398c0.311,0.526,0.131,1.201-0.401,1.508l-5.378,3.098
		C225.25,163.363,225.058,163.412,224.868,163.412z"/>
</g>
<g>
	<path d="M224.867,158.356c-0.452,0-0.878-0.274-1.044-0.719c-0.215-0.571,0.08-1.205,0.657-1.417l7.257-2.664
		c0.578-0.212,1.22,0.08,1.434,0.651c0.215,0.571-0.08,1.205-0.657,1.417l-7.258,2.663
		C225.127,158.334,224.997,158.356,224.867,158.356z"/>
</g>
<g>
	<path d="M224.866,154.275c-0.504,0-0.961-0.341-1.082-0.849c-0.143-0.592,0.228-1.186,0.827-1.327l5.378-1.264
		c0.596-0.142,1.198,0.226,1.341,0.818s-0.229,1.187-0.827,1.328l-5.378,1.264C225.039,154.265,224.952,154.275,224.866,154.275z"/>
</g>
<g>
	<path d="M228.66,151.886c-0.177,0-0.357-0.042-0.525-0.129l-3.792-2.012c-0.543-0.287-0.748-0.955-0.457-1.492
		c0.291-0.537,0.964-0.74,1.509-0.452l3.792,2.01c0.543,0.288,0.747,0.956,0.457,1.492
		C229.442,151.675,229.058,151.886,228.66,151.886z"/>
</g>
<g>
	<path d="M233.102,143.392c-0.941,0-2.436,1.019-2.436,2.276c0,0.002,0,0.004,0,0.008c0-0.002,0.643-0.008,0.598-0.008
		c-0.104,0,0.162,0.008,0.063,0.018c-0.209-0.471-0.296-0.756-0.591-0.756c-0.666,0-1.112,1.459-1.112,3.258
		c0,1.8,0.584,3.259,1.251,3.259c0.665,0,1.229-1.459,1.229-3.259c0-0.085,0.008-0.169,0.006-0.253
		c0.364-0.016,0.704-0.095,0.98-0.224c0.223,0.145,0.471,0.232,0.738,0.232c0.939,0,1.342-1.02,1.342-2.276
		C235.17,144.411,234.043,143.392,233.102,143.392z"/>
</g>
<g>
	<path d="M197.771,249.686c-0.068,0-0.118-0.02-0.15-0.02h-11.731c-0.622,0-1.164-0.216-1.528-0.641
		c-0.313-0.363-0.479-0.838-0.479-1.389c0-1.966,2.174-4.972,4.854-4.972c1.547,0,3.254-2.436,3.837-3.618
		c0.285-0.573,0.984-0.812,1.565-0.529c0.58,0.281,0.822,0.976,0.538,1.551c-0.249,0.502-2.529,4.918-5.94,4.918
		c-0.556,0-1.185,0.51-1.728,1.155c-0.445,0.532-0.668-0.476-0.75,1.524h11.389c0.923,0,3.539-0.322,4.28-1.042
		c0.156-0.151,0.739-0.434,0.739-0.635v-6.71c0-0.64,0.354-1.158,1-1.158s1,0.519,1,1.158v6.71c0,0.822-0.668,1.557-1.273,2.143
		C201.881,249.596,198.542,249.686,197.771,249.686z"/>
</g>
<g>
	<path d="M207.362,247.287c-0.831,0-1.286-0.383-1.533-0.773c-1.442-2.278,3.766-7.731,3.819-7.784
		c1.695-1.678,1.445-4.648,1.44-4.678c-0.061-0.605,0.386-1.146,0.998-1.208s1.16,0.38,1.22,0.986
		c0.017,0.163,0.381,4.021-2.084,6.459c-1.4,1.387-2.847,3.548-3.296,4.672c0.013-0.004,0.026-0.009,0.039-0.013
		c3.971-1.363,7.285-2.146,9.093-2.146c0.89-0.155,3.732-3.911,3.732-6.792c0-1.371-0.245-1.891-0.344-2.044
		c-0.479-0.06-0.881-0.426-0.961-0.922c-0.095-0.601,0.318-1.166,0.927-1.261c0.179-0.029,0.813-0.08,1.441,0.453
		c0.783,0.662,1.164,1.896,1.164,3.773c0,3.7-3.508,8.997-5.96,8.997c-1.194,0-4.018,0.531-8.362,2.023
		C208.168,247.212,207.728,247.287,207.362,247.287z"/>
</g>
<g>
	<path d="M177.636,179.667h-6.928l3.761-5.086c-1.037-0.572-2.536-1.657-4.574-3.674c-0.699-0.692-2.003-1.986-1.264-3.188
		c0.818-1.333,2.773-0.787,7.115,0.577c0.844,0.265,1.641,0.515,2.326,0.706c4.383,1.224,5.923,6.006,5.987,6.209
		c0.19,0.61-0.154,1.259-0.772,1.447c-0.613,0.189-1.271-0.151-1.463-0.761c-0.017-0.05-1.247-3.792-4.387-4.667
		c-0.724-0.201-1.537-0.458-2.399-0.729c-0.905-0.284-2.159-0.679-3.186-0.944c2.867,2.774,4.312,3.268,4.559,3.336l2.447-0.139
		l-1.612,2.156l-1.916,2.756h2.306c0.646,0,1.17,0.36,1.17,1C178.806,179.305,178.282,179.667,177.636,179.667z"/>
</g>
<g>
	<path d="M190.403,177.484c-2.048,0-5.641-3.253-7.601-5.192c-0.532-0.527-0.669-1.271-0.367-1.99
		c0.859-2.054,5.41-4.062,8.18-4.062c1.122,0,1.995,0.302,2.593,0.894c2.164,2.141,3.129,3.753,3.168,3.82l0.359,0.605l-0.403,0.578
		C194.938,174.134,192.316,177.484,190.403,177.484z M184.607,170.957c2.748,2.683,5.064,4.29,5.772,4.321
		c0.595-0.134,2.252-1.855,3.682-3.787c-0.429-0.596-1.223-1.604-2.429-2.799c-0.157-0.154-0.536-0.246-1.018-0.246
		C188.403,168.446,185.285,170.09,184.607,170.957z"/>
</g>
<g>
	<path d="M154.677,73.802c-1.295,0-1.908-0.324-2.256-0.607c-1.298-0.31-6.393-0.09-10.557,0.329
		c-1.058,0.111-2.007-0.667-2.113-1.727c-0.106-1.06,0.667-2.006,1.726-2.113c9.907-0.999,12.262-0.311,13.093,0.266
		c1.62,0.111,7.584-1.667,8.754-2.837c0.269-0.269,0.589-0.643,0.927-1.039c1.336-1.562,2.998-3.507,5.305-3.597
		c1.257-0.052,2.411,0.455,3.455,1.498c0.574,0.574,1.081,1.139,1.526,1.636c0.57,0.637,1.344,1.497,1.708,1.668
		c0.088-0.041,0.297-0.165,0.638-0.505c0.834-0.834,1.521-1.829,2.185-2.79c1.387-2.006,2.819-4.08,5.42-4.08
		c1.61,0,3.18,1.092,4.842,2.248c0.892,0.62,2.525,1.755,3.157,1.78c2.297-2.245,5.512-1.602,7.515-0.654
		c2.808-0.723,9.127-1.956,11.78,0.697c0.739,0.611,4.584,0.411,6.649,0.303c3.896-0.203,6.975-0.364,8.55,1.21
		c0.754,0.753,0.754,1.975,0,2.729c-0.737,0.736-1.92,0.754-2.676,0.051c-0.752-0.392-3.827-0.232-5.674-0.136
		c-3.982,0.209-7.745,0.404-9.578-1.429c-0.89-0.891-5.357-0.476-8.755,0.491l-0.808,0.23l-0.718-0.436
		c-0.017-0.009-2.493-1.394-3.601-0.285c-2.482,2.481-5.697,0.248-8.045-1.385c-0.813-0.565-2.175-1.512-2.656-1.557
		c-0.56,0-1.408,1.228-2.228,2.414c-0.728,1.052-1.551,2.243-2.632,3.325c-1.142,1.141-2.262,1.683-3.465,1.65
		c-1.867-0.051-3.136-1.466-4.481-2.963c-0.435-0.484-0.883-0.985-1.385-1.485c-0.232-0.234-0.438-0.373-0.573-0.372
		c-0.622,0.025-1.858,1.471-2.522,2.25c-0.389,0.454-0.756,0.885-1.133,1.26c-1.579,1.58-5.497,2.791-6.66,3.125
		C157.224,73.588,155.726,73.802,154.677,73.802z"/>
</g>
<g>
	<path d="M185.915,74.662c-0.357,0-0.709-0.174-0.922-0.495c-0.334-0.508-0.195-1.192,0.313-1.528l5.299-3.502l-0.831-0.955
		l-11.098,4.707c-0.561,0.236-1.208-0.024-1.445-0.585s0.023-1.208,0.586-1.445l12.571-5.333l3.531,4.064l-7.397,4.889
		C186.335,74.603,186.124,74.662,185.915,74.662z"/>
</g>
<g>
	<path d="M209.16,74.662c-0.123,0-0.248-0.021-0.37-0.064l-9.39-3.353c-0.574-0.205-0.873-0.835-0.668-1.409
		c0.205-0.574,0.838-0.873,1.409-0.667l9.39,3.353c0.574,0.204,0.872,0.835,0.667,1.409
		C210.038,74.381,209.613,74.662,209.16,74.662z"/>
</g>
<g>
	<path d="M217.457,72.976c-0.071,0-0.145-0.006-0.219-0.022l-8.295-1.667c-0.597-0.12-0.984-0.702-0.863-1.298
		c0.12-0.596,0.698-0.982,1.298-0.863l8.295,1.667c0.598,0.12,0.985,0.701,0.863,1.298
		C218.432,72.615,217.971,72.976,217.457,72.976z"/>
</g>
<g>
	<path d="M234.122,75.667h-9.266c-0.959,0-1.737-0.541-1.737-1.5s0.778-1.5,1.737-1.5h9.266c0.959,0,1.737,0.541,1.737,1.5
		S235.081,75.667,234.122,75.667z"/>
</g>
<g>
	<path d="M167.243,74.662c-0.434,0-0.844-0.256-1.018-0.682c-0.234-0.563,0.033-1.207,0.597-1.439
		c1.042-0.432,4.028-1.832,5.312-3.113c0.43-0.431,1.127-0.431,1.559,0s0.432,1.129,0,1.559c-1.856,1.856-5.859,3.522-6.028,3.592
		C167.526,74.635,167.383,74.662,167.243,74.662z"/>
</g>
<g>
	<path d="M208.642,78.667h-33.009c-0.639,0-1.158-0.86-1.158-1.499c0-0.64,0.52-1.501,1.158-1.501h33.009
		c0.639,0,1.157,0.861,1.157,1.501C209.799,77.806,209.281,78.667,208.642,78.667z"/>
</g>
<g>
	<path d="M230.068,80.667h-55.013c-0.641,0-1.159-0.36-1.159-1s0.519-1,1.159-1h55.013c0.64,0,1.158,0.36,1.158,1
		S230.708,80.667,230.068,80.667z"/>
</g>
<g>
	<path d="M231.804,84.667h-35.323c-0.639,0-1.158-0.861-1.158-1.5c0-0.641,0.52-1.5,1.158-1.5h35.323c0.642,0,1.158,0.859,1.158,1.5
		C232.962,83.805,232.446,84.667,231.804,84.667z"/>
</g>
<g>
	<path d="M227.75,89.667c-0.008,0-0.016,0-0.023,0c-0.135,0-13.582-0.564-26.996-0.998c-27.563-0.89-28.113-1.573-28.598-2.058
		c-0.432-0.431-0.432-1.196,0-1.626c0.363-0.363,0.918-0.454,1.339-0.204c2.658,0.788,33.838,1.715,54.303,2.162
		c0.607,0.014,1.092,0.777,1.077,1.385C228.839,88.929,228.348,89.667,227.75,89.667z"/>
</g>
<g>
	<path d="M193.806,93.829c-0.572,0-1.055-0.441-1.099-1.021c-0.046-0.607,0.41-1.136,1.018-1.181
		c0.131-0.01,13.297-0.991,26.606-1.647c27.39-1.35,28.651-0.086,29.331,0.594c0.431,0.43,0.431,1.129,0,1.559
		c-0.415,0.414-1.075,0.429-1.508,0.048c-2.539-1.379-29.81-0.185-54.267,1.645C193.862,93.827,193.833,93.829,193.806,93.829z"/>
</g>
<g>
	<path d="M215.225,96.647c-0.551,0-1.026-0.413-1.094-0.974c-0.072-0.604,0.36-1.152,0.965-1.225
		c5.495-0.655,33.116-3.718,37.149,0.315c0.431,0.431,0.431,1.129,0,1.56c-0.431,0.431-1.129,0.431-1.56,0
		c-2.399-2.4-22.104-1.26-35.329,0.315C215.312,96.643,215.269,96.647,215.225,96.647z"/>
</g>
<g>
	<path d="M220.022,100.532c-0.568,0-1.052-0.438-1.099-1.014c-0.049-0.607,0.403-1.138,1.011-1.187
		c9.149-0.739,24.798-1.68,26.798,0.319c0.43,0.43,0.43,1.129,0,1.559c-0.42,0.42-1.096,0.431-1.529,0.03
		c-1.557-0.962-13.959-0.609-25.092,0.29C220.082,100.531,220.051,100.532,220.022,100.532z"/>
</g>
</svg>
