<?xml version="1.0" encoding="utf-8"?>
<!-- Generator: Adobe Illustrator 15.1.0, SVG Export Plug-In . SVG Version: 6.00 Build 0)  -->
<!DOCTYPE svg PUBLIC "-//W3C//DTD SVG 1.1//EN" "http://www.w3.org/Graphics/SVG/1.1/DTD/svg11.dtd">
<svg version="1.1" id="Layer_1" xmlns="http://www.w3.org/2000/svg" xmlns:xlink="http://www.w3.org/1999/xlink" x="0px" y="0px"
	 width="308px" height="314.667px" viewBox="0 0 308 314.667" enable-background="new 0 0 308 314.667" xml:space="preserve">
<g>
	<g id="g5241_187_">
		<path id="path35_193_" fill="#3C6EAF" d="M305.798,158.686c0-79.041-64.068-143.116-143.113-143.116
			c-78.999,0-143.05,64.022-143.104,143.018l-0.005-0.005v110.746l0.005,0.007c0.041,17.936,14.586,32.453,32.533,32.453
			c0.051,0,0.102-0.005,0.156-0.005l0.009,0.005h110.466l0,0c79.018-0.033,143.059-64.088,143.059-143.103H305.798z"/>
	</g>
	<g id="g5241_186_">
		<path id="path35_192_" fill="#294172" d="M302.798,151.686c0-79.041-64.068-143.116-143.113-143.116
			c-78.999,0-143.05,64.022-143.104,143.018l-0.005-0.005v110.746l0.005,0.007c0.041,17.936,14.586,32.453,32.533,32.453
			c0.051,0,0.102-0.005,0.156-0.005l0.009,0.005h110.466l0,0c79.018-0.033,143.059-64.088,143.059-143.103H302.798z"/>
	</g>
	<g>
		<path fill="#3C6EAF" d="M55.996,246.769c4.444,0,8.532,1.482,11.837,3.956c-3.61-4.821-9.35-7.956-15.837-7.956
			c-10.933,0-19.794,8.863-19.794,19.797c0,6.486,3.135,12.227,7.957,15.838c-2.475-3.305-3.957-7.394-3.957-11.838
			C36.202,255.632,45.063,246.769,55.996,246.769z"/>
		<path fill="#A7BFDF" d="M71.79,262.566c0-4.446-1.483-8.536-3.957-11.841c-3.305-2.474-7.393-3.956-11.837-3.956
			c-10.933,0-19.794,8.863-19.794,19.797c0,4.444,1.482,8.533,3.957,11.838c3.304,2.473,7.393,3.956,11.837,3.956
			C62.928,282.36,71.79,273.497,71.79,262.566z"/>
	</g>
	<g>
		<path fill="#3C6EAF" d="M51.49,146.497c0-53.769,33.451-99.721,80.677-118.189C78.395,40.935,38.363,89.206,38.363,146.833
			c0,59.174,42.215,108.482,98.172,119.463C87.018,249.013,51.49,201.908,51.49,146.497z"/>
		<path fill="#C5D4E9" d="M281.862,145.833c0-67.244-54.513-121.753-121.754-121.753c-9.615,0-18.969,1.119-27.941,3.227
			C84.941,45.776,51.49,91.728,51.49,145.497c0,55.411,35.528,102.517,85.045,119.8c7.628,1.497,15.507,2.289,23.573,2.289
			C227.349,267.585,281.862,213.074,281.862,145.833z"/>
	</g>
	<g>
		
			<image overflow="visible" opacity="0.75" width="91" height="94" xlink:href="FB7E1883.png"  transform="matrix(1 0 0 1 13.6665 215.6665)">
		</image>
		<g>
			<text transform="matrix(1 0 0 1 25.7173 275.5854)" font-family="'BaskOldFace'" font-size="57.4636">IV</text>
		</g>
	</g>
</g>
<g>
	<g>
		<g>
			<path fill="#294172" d="M253.344,69.974c-5.785,0-13.499,10.605-18.319,10.605c-4.821,0-12.534-0.964-12.534-0.964
				s-3.369,3.889-6.423,6.943c-3.055,3.055-34.469,21.108-43.429,21.108c0,0,0,0-0.002,0c-4.189-4-8.057-7.697-9.921-9.561
				c-5.785-5.785-11.566-0.119-21.207-0.119c-9.642,0-9.15-8.285-5.777-11.659c3.373-3.374-10.59-5.898-10.59-5.898
				c-5.374-5.374,0.933-9.48,0.933-9.48l10.379,2.728c0,0,9.872-15.271,4.935-15.271c0,0-7.292,0.59-9.976,1.359
				c-0.396-2.08-2.585-4.854-5.359-7.627c-5.542-5.543-15.406,0-15.406,0s3.856-0.484,9.642,5.301
				c5.784,5.785-9.642,5.787-17.355,5.787s-4.347-5.787-4.347-5.787l-9.921,12.395v3.997l-11.292-3.857l-5.448,3.564l5.847,6.128
				h5.879l5.762,6.274c0,0-10.212,6.433-19.372,15.593c-7.221,7.22,0.965,25.006,4.754,32.182c-0.521,1.125-0.505,2.095-1.158,2.748
				c-4.821,4.821-10.971-7.949-14.971-7.949c-7,0,0,12.807,0,23.135c0,2.238-0.81,9.424-1.149,10.563l9.08-10.566
				c0,0-4.258-3.837-0.146-7.95c4.114-4.113,15.361,9.184,20.182,14.004c4.82,4.822,12.333-7.726,12.333-15.439
				c0-7.418,11.159-13.229,12.019-13.666c-5.795,22.267-18.583,29.794-8.042,40.336c9.465,9.464,14.458,5.173,14.458,5.173
				s-4.301-11.569-4.301-22.454c0-10.884,6.565-26.974,6.565-26.974s0,0.256,0,9.897c0,9.642-1.316,40.196,5.034,46.545
				c6.35,6.351,10.794,9.377,10.794,9.377s-2.781,22.176-2.781,29.889s10.661-4.957,10.661-4.957l0.757-8.76c-0.024,0-0.4,0-4.559,0
				c-4.82,0,3.989-19.042,10.606-25.658c6.616-6.617,0.964-4.08-4.821-4.08s5.785-11.537,12.166-28.891
				c6.381-17.355,2.826-23.124,2.826-30.401c0-7.278,0,0.008,6.314,6.322c6.313,6.314-4.916,19.288-9.141,31.822
				c-4.225,12.534,0,13.148,0,13.148l16.76-9.149l-11.507,29.888h3.888l10.512-8.481l-5.785-5.086c0,0,11.518-18.406,17.251-24.139
				c5.733-5.733-9.537-0.021-16.286-0.021c-6.75,0,9.643-15.441,15.427-21.226c3.141-3.14-2.81-10.832-9.832-18.131
				c0,0,30.56-14.164,35.863-19.468c5.303-5.303,2.892,4.82,7.713,0c4.821-4.821,5.612,1.48,8.677-1.584
				C233.269,88.466,259.129,69.974,253.344,69.974z"/>
		</g>
	</g>
	<g>
		<g>
			
				<image overflow="visible" opacity="0.75" width="117" height="133" xlink:href="FB7E1881.png"  transform="matrix(1 0 0 1 156.4404 129.4404)">
			</image>
			<g>
				<path fill="#FFFFFF" d="M215.731,213.311l-11.304,4.958c0,0,0.46,2.38-5.183,5.798s-13.079,7.658-13.079,7.658
					s-8.815-3.03-13.263-4.921c-5.338-2.269-10.52,2.513-10.231-4.237c0.105-2.481,4.532-0.279,9.416-0.279
					s14.272-8.977,14.272-8.977s-1.612-5.133-0.194-6.551c1.417-1.418,7.895,0,7.895,0s-4.364-8.888-0.05-8.888
					c4.317,0,10.035-0.048,10.035-0.048l0.382-5.316c0,0,4.532,5.58,12.948,1.377c8.416-4.202,13.141-1.925,8.416-4.202
					c-4.724-2.278-9.29-5.747-9.29-5.747s-1.36,6.434-4.059,3.221c-2.696-3.213-4.889-5.845-8.563-9.521
					c-4.195-4.195-14.446-14.861-8.583-14.861s9.131,1.92,9.131,1.92s0.263-2.288,3.677-2.288s14.017,5.034,14.017,5.034
					s-7.89-8.021-6.987-13.578c0.9-5.557,1.457-14.782,8.691-13.348c8.539,1.693,11.906-5.919,12.229-5.596
					c0.323,0.321,14.321,8.5,17.041,13.436c2.722,4.936,1.545,18.285-0.746,18.285s6.773,0.413,8.285,7.768
					c1.512,7.355-0.773,17.5-2.691,17.5c-3.715,0-0.895,7.818-5.386,9.256c-4.491,1.44-5.367-0.498-5.367-0.498
					s-0.205,5.61,4.291,7.719c4.497,2.109,6.536,2.498,3.858,2.498c-2.679,0-0.838,3.238-8.077,5.979s-11.208,3.768-11.208,3.768
					s-0.548,4.495-2.743,6.689c-3.845,3.846-7.103,2.938-7.103,2.938s3.904,4.846,0.712,6.616c-3.272,1.812-4.909,0.004-5.814,6.134
					c-1.296,8.798-13.551,7.325-21.86,5.011c-6.674-1.857,8.147-7.238,8.147-7.238l3.367-8.623c0,0-4.598-1.984-2.655-7.611
					c1.943-5.627,8.331-11.074,3.74-11.232"/>
			</g>
		</g>
		<path d="M248.09,142.978c0,0-4.752,10.277-0.531,14.499c4.221,4.221,7.107,8.826,7.107,2.58s-4-6.246,0-6.246
			c6,0,20.056-4.909,16.097-4.909c-3.958,0-17.218,2.742-17.218,2.742l-1.074-2.742c0,0,18.47-15.007,13.018-15.007
			c-5.454,0-12.909,15.082-12.909,15.082S251.032,140.037,248.09,142.978"/>
		<path fill="none" stroke="#000000" stroke-width="1.6452" stroke-linecap="round" stroke-miterlimit="10" d="M222.864,166.696
			c0,0,9.879,4.769,18.319,4.144c9.615-0.713,14.462-5.011,14.462-13.567s-16.281-26.237-22.177-20.344
			c-5.894,5.894-4.819,4.075-10.604,4.075S207.554,157.47,222.864,166.696z"/>
		<path fill="none" stroke="#000000" stroke-width="1.6452" stroke-linecap="round" stroke-miterlimit="10" d="M230.112,162.553
			c0,0,0.758,6.903,8.589,1.21c3.545-2.577-1.257-3.869-1.257-3.869"/>
		<path fill="none" stroke="#000000" stroke-width="1.6452" stroke-linecap="round" stroke-miterlimit="10" d="M240.005,149.001
			c0,0-3.347-2.794-0.509-12.073"/>
		<path fill="none" stroke="#000000" stroke-width="1.6452" stroke-linecap="round" stroke-miterlimit="10" d="M234.616,146.465
			c0,0-0.701-3.993-2.224-5.515s-1.522-1.522-1.522-1.522l-0.758,5.683"/>
		<path fill="none" stroke="#000000" stroke-width="2" stroke-linecap="round" stroke-miterlimit="10" d="M241.667,188.667
			c0,0-6.983,0-12.885,0s-2.574,3.358-8.261-0.985c-3.378-2.579-2.587-8.311-4.567-3.333c-1.609,4.047-2.706,4.126-6.757,0.076
			c-4.05-4.049-7.659-17.953-4.235-21.377c3.421-3.421,14.898,4.727,28.355,8.292c13.457,3.567,14.226-4.16,20.774-4.16
			c3.965,0,7.506,10.492,7.506,15.126c0,4.635-1.095,12.654-3.875,9.875"/>
		<path fill="none" stroke="#000000" stroke-width="1.6452" stroke-linecap="round" stroke-miterlimit="10" d="M254.034,177.688
			c0,0,3.259,18.74-0.022,22.02c-3.278,3.28-8.694-0.006-14.36-0.006s-10.072-1.684-13.42-2.838
			c-11.049-3.808-0.987-6.633-0.987-6.633l-2.854-12.792"/>
		<path fill="none" stroke="#000000" stroke-width="1.6452" stroke-linecap="round" stroke-miterlimit="10" d="M205.295,177.207
			c0,0-3.376,1.808-7.18-4.653c-2.17-3.683-6.998-11.598-0.617-9.452c6.381,2.146,6.381,2.146,6.381,2.146"/>
		<path fill="none" stroke="#000000" stroke-width="2" stroke-linecap="round" stroke-miterlimit="10" d="M246.641,201.213
			c0,0,0.749,7.719,4.29,7.719c3.542,0,4.497,2.109,4.497,2.109s-5.883,6.366-8.716,6.366c-2.832,0-10.915,6.036-14.122,2.83
			c-3.205-3.207,0.002-9.075,0.002-9.075s-8.535,6.947-8.535,3.405c0-3.541-4.249-7.083-4.249-7.083s0.001,4.508-3.541,0.967
			c-3.542-3.543,0-6.785,0-6.785s-12.553,4-12.553,0s0.165-8.416,0.165-8.416s12.294,3.537,15.93-0.097"/>
		<path fill="none" stroke="#000000" stroke-width="1.6452" stroke-linecap="round" stroke-miterlimit="10" d="M219.809,213.86
			c0,0-3.949,0-7.914-0.438c-3.999-0.441-8.016-1.325-8.016-3.104"/>
		<path fill="none" stroke="#000000" stroke-width="1.6452" stroke-linecap="round" stroke-miterlimit="10" d="M198.696,213.86
			c0,0-0.122,4.957,5.184,4.957c5.305,0,8.016-5.395,8.016-5.395"/>
		<path fill="none" stroke="#000000" stroke-width="2" stroke-linecap="round" stroke-miterlimit="10" d="M203.498,198.374
			c0,0-6.538-3.769-10.035-0.273c-3.495,3.496,0.049,8.566,0.049,8.566s-7.894-3-7.894,0s0.194,6.872,0.194,6.872
			s13.444,5.165,13.444,9.89c0,4.724,4.623-4.691,4.623-4.691"/>
		<path fill="none" stroke="#000000" stroke-width="1.6452" stroke-linecap="round" stroke-miterlimit="10" d="M216.911,223.633
			c0,0,4.322,5.684,10.697,5.684s7.902-4.293,7.897-8.141c0,0-11.706,1.083-14.052-1.263"/>
		<path fill="none" stroke="#000000" stroke-width="1.6452" stroke-linecap="round" stroke-miterlimit="10" d="M215.182,213.86
			c0,0-7.628,5.002-7.628,11.232c0,7.461,12.765,11.233,17.724,11.233c4.958,0,2.33-6.729,2.33-6.729"/>
		<path fill="none" stroke="#000000" stroke-width="1.6452" stroke-linecap="round" stroke-miterlimit="10" d="M175.188,221.176
			c-3.005,3.005-12.749-2.893-12.749,1.623c0,4.518,4.249,4.553,9.915,4.553s10.904,6.998,13.264,4.922
			c5.011-4.408,9.283-3.866,13.078-7.659c3.793-3.792-12.884-10.755-12.884-10.755S180.245,216.12,175.188,221.176z"/>
		<path fill="none" stroke="#000000" stroke-width="1.6452" stroke-linecap="round" stroke-miterlimit="10" d="M198.696,248.564
			c3.119,3.12,13.193,0,18.215,0c5.023,0,2.304-6.177,5.335-9.208c3.032-3.03,9.837-3.03,3.032-3.03
			c-5.469,0-11.15-1.339-13.434-3.623c-2.283-2.283-3.368,8.624-3.368,8.624S195.222,245.09,198.696,248.564z"/>
		<path fill="none" stroke="#000000" stroke-width="1.6452" stroke-linecap="round" stroke-miterlimit="10" d="M200.355,168.052
			c0,0-5.059,3.271-5.059-1.709"/>
		
			<line fill="none" stroke="#000000" stroke-width="1.6452" stroke-linecap="round" stroke-miterlimit="10" x1="199.806" y1="174.956" x2="203.595" y2="172.553"/>
	</g>
	<path fill="none" stroke="#000000" stroke-width="1.6452" stroke-miterlimit="10" d="M209.197,184.493c0,0-6.626,11.005-9.94,7.689
		c-3.313-3.314,2.443-14.743,2.443-14.743s-13.108,3.819-7.383,3.819S209.197,184.493,209.197,184.493z"/>
	<path fill="none" stroke="#000000" stroke-width="1.6452" stroke-miterlimit="10" d="M176.107,162.738
		c0,0,11.647,7.365,18.642,0.372"/>
</g>
</svg>
