<?xml version="1.0" encoding="utf-8"?>
<!-- Generator: Adobe Illustrator 15.1.0, SVG Export Plug-In . SVG Version: 6.00 Build 0)  -->
<!DOCTYPE svg PUBLIC "-//W3C//DTD SVG 1.1//EN" "http://www.w3.org/Graphics/SVG/1.1/DTD/svg11.dtd">
<svg version="1.1" id="Layer_1" xmlns="http://www.w3.org/2000/svg" xmlns:xlink="http://www.w3.org/1999/xlink" x="0px" y="0px"
	 width="302.164px" height="313.394px" viewBox="0 0 302.164 313.394" enable-background="new 0 0 302.164 313.394"
	 xml:space="preserve">
<g>
	<g>
		<g id="g5241_167_">
			<path id="path35_173_" fill="#3C6EAF" d="M297.137,157.504c0-79.041-64.068-143.116-143.113-143.116
				c-78.999,0-143.05,64.022-143.104,143.018l-0.005-0.005v110.746l0.005,0.007c0.041,17.936,14.586,32.453,32.533,32.453
				c0.051,0,0.102-0.005,0.156-0.005l0.009,0.005h110.466l0,0c79.018-0.033,143.059-64.088,143.059-143.103H297.137z"/>
		</g>
		<g id="g5241_166_">
			<path id="path35_172_" fill="#294172" d="M294.137,150.504c0-79.041-64.068-143.116-143.113-143.116
				C72.024,7.388,7.974,71.41,7.919,150.405L7.914,150.4v110.746l0.005,0.007c0.041,17.936,14.586,32.453,32.533,32.453
				c0.051,0,0.102-0.005,0.156-0.005l0.009,0.005h110.466l0,0c79.018-0.033,143.059-64.088,143.059-143.103H294.137z"/>
		</g>
		<g>
			<path fill="#3C6EAF" d="M47.334,245.587c4.444,0,8.532,1.482,11.837,3.956c-3.61-4.821-9.35-7.956-15.837-7.956
				c-10.933,0-19.794,8.863-19.794,19.797c0,6.486,3.135,12.227,7.957,15.838c-2.475-3.305-3.957-7.394-3.957-11.838
				C27.54,254.45,36.401,245.587,47.334,245.587z"/>
			<path fill="#8AA9D4" d="M63.128,261.384c0-4.446-1.483-8.536-3.957-11.841c-3.305-2.474-7.393-3.956-11.837-3.956
				c-10.933,0-19.794,8.863-19.794,19.797c0,4.444,1.482,8.533,3.957,11.838c3.304,2.473,7.393,3.956,11.837,3.956
				C54.267,281.178,63.128,272.314,63.128,261.384z"/>
		</g>
		<g>
			<path fill="#3C6EAF" d="M42.828,145.314c0-53.769,33.451-99.721,80.677-118.189C69.733,39.753,29.701,88.023,29.701,145.651
				c0,59.174,42.215,108.482,98.172,119.463C78.356,247.831,42.828,200.726,42.828,145.314z"/>
			<path fill="#8AA9D4" d="M273.2,145.651c0-67.244-54.513-121.753-121.754-121.753c-9.615,0-18.969,1.119-27.941,3.227
				C76.279,45.594,42.828,91.546,42.828,145.314c0,55.411,35.528,102.517,85.045,119.8c7.628,1.497,15.507,2.289,23.573,2.289
				C218.688,267.403,273.2,212.892,273.2,145.651z"/>
		</g>
		<text transform="matrix(1 0 0 1 21.7725 266.3828)" fill="#E09228" font-family="'BaskOldFace'" font-size="57.4636">III</text>
	</g>
	<polygon fill-rule="evenodd" clip-rule="evenodd" fill="#7091CB" points="197.048,237.491 217.005,236.815 217.005,182.484 
		239.478,153.027 217.107,133.65 197.048,156.184 95.586,159.084 105.505,229.587 	"/>
	<ellipse fill-rule="evenodd" clip-rule="evenodd" fill="#7091CB" cx="123.404" cy="87.579" rx="31.179" ry="21.806"/>
	<path fill-rule="evenodd" clip-rule="evenodd" fill="#7091CB" d="M204.65,128.514c0,10.565-24.781,22.013-38.905,22.013
		c-14.123,0-12.24-11.447-12.24-22.013c0-10.564,11.449-19.129,25.572-19.129C193.201,109.385,204.65,117.949,204.65,128.514z"/>
	<ellipse fill-rule="evenodd" clip-rule="evenodd" fill="#7091CB" cx="204.653" cy="70.016" rx="23.758" ry="17.096"/>
	<ellipse fill-rule="evenodd" clip-rule="evenodd" fill="#7091CB" cx="142.116" cy="68.379" rx="11.389" ry="9.042"/>
	<ellipse fill-rule="evenodd" clip-rule="evenodd" fill="#7091CB" cx="195.039" cy="105.534" rx="6.041" ry="10.615"/>
	<g>
		<polygon fill="#E09228" points="113.104,163.457 95.785,181.484 209.448,181.484 189.944,163.614 		"/>
		<polygon fill="#E6AB5D" points="113.104,163.592 96.538,134.414 75.335,149.602 95.785,181.754 		"/>
		<polygon fill="#EDC58D" points="190.643,163.592 207.208,134.414 228.411,149.602 207.961,181.754 		"/>
		<rect x="114.005" y="162.484" fill="#E6AB5D" width="75" height="19"/>
	</g>
	<ellipse fill="#294172" cx="173.424" cy="54.821" rx="5.649" ry="6.053"/>
	<path fill="#E3EAF3" d="M185.409,48.7c-10.162,1.435-18.368,19.57-12.921,25.018c5.448,5.447,18.563,15.737,26.633,12.913
		c8.069-2.825,25.421-9.685,21.387-20.579C216.472,55.156,209.014,45.365,185.409,48.7z"/>
	<path fill="#294172" d="M222.928,53.639c0,3.633-2.456,7.235-6.298,7.235c-3.843,0-7.616-5.364-7.616-8.996
		c0-3.632,3.116-4.816,6.957-4.816C219.813,47.063,222.928,50.007,222.928,53.639z"/>
	<path fill="#294172" d="M198.313,61.612c0,0-3.632,4.439,0,8.07c3.632,3.632,15.334,1.614,11.701-2.017
		C206.384,64.033,204.568,55.357,198.313,61.612z"/>
	<ellipse cx="192.318" cy="72.859" rx="3.689" ry="1.262"/>
	<path fill="none" stroke="#3D3930" stroke-width="0.4921" stroke-linecap="round" stroke-miterlimit="10" d="M175.146,71.597
		c0,0,11.681,15.436,40.021,2.524"/>
	<circle cx="180.773" cy="66.512" r="1.721"/>
	<circle fill="#38342D" cx="203.657" cy="67.497" r="1.721"/>
	<circle fill="#FFFBF2" cx="180.896" cy="65.772" r="0.776"/>
	<circle fill="#FFFBF2" cx="203.875" cy="67.274" r="0.775"/>
	<path fill="#E3EAF3" d="M193.088,87.324l-2.943,7.642c0,0,5.703,4.269,8.839,1.134c3.134-3.134,3.134-3.134,3.134-3.134
		l-4.678-5.428L193.088,87.324z"/>
	<path fill="none" stroke="#3D3930" stroke-width="0.4921" stroke-linecap="round" stroke-miterlimit="10" d="M193.088,87.324
		l4.352,0.214c0,0-3.993,9.66,0,13.653c3.994,3.994,10.218,8.178,3.64,14.958s-1.093,13.347,0.857,15.297"/>
	<ellipse fill="#294172" cx="83.302" cy="63.258" rx="7.528" ry="8.065"/>
	<path fill="#E3EAF3" d="M99.273,55.102c-13.542,1.913-24.476,26.078-17.217,33.336c7.259,7.259,24.734,20.971,35.488,17.207
		c10.753-3.764,33.874-12.905,28.499-27.422C140.665,63.704,130.728,50.658,99.273,55.102z"/>
	<path fill="#294172" d="M149.269,61.683c0,4.84-3.272,9.641-8.393,9.641s-10.148-7.147-10.148-11.987s4.151-6.417,9.271-6.417
		C145.118,52.919,149.269,56.843,149.269,61.683z"/>
	<path fill="#294172" d="M116.47,72.307c0,0-4.841,5.915,0,10.754c4.839,4.839,20.432,2.151,15.592-2.688
		C127.224,75.534,124.804,63.973,116.47,72.307z"/>
	<ellipse cx="108.48" cy="87.295" rx="4.916" ry="1.681"/>
	<path fill="none" stroke="#3D3930" stroke-width="0.6558" stroke-linecap="round" stroke-miterlimit="10" d="M85.598,85.613
		c0,0,15.565,20.569,53.329,3.363"/>
	<circle cx="93.096" cy="78.837" r="2.293"/>
	<circle fill="#38342D" cx="123.59" cy="80.149" r="2.292"/>
	<circle fill="#FFFBF2" cx="93.259" cy="77.851" r="1.034"/>
	<circle fill="#FFFBF2" cx="123.881" cy="79.853" r="1.032"/>
	<path fill="#E3EAF3" d="M109.505,106.569l-3.922,10.184c0,0,7.601,5.689,11.778,1.512c4.177-4.177,4.177-4.177,4.177-4.177
		l-6.233-7.233L109.505,106.569z"/>
	<path fill="none" stroke="#3D3930" stroke-width="0.6558" stroke-linecap="round" stroke-miterlimit="10" d="M109.505,106.569
		l5.8,0.285c0,0-5.321,12.873,0,18.194c5.322,5.322,13.615,10.896,4.85,19.932s-1.456,17.785,1.144,20.384"/>
	<ellipse fill="#294172" cx="132.302" cy="105.258" rx="7.528" ry="8.065"/>
	<path fill="#E3EAF3" d="M148.273,97.102c-13.542,1.913-24.476,26.078-17.217,33.336c7.259,7.26,24.734,20.971,35.488,17.207
		c10.753-3.764,33.874-12.904,28.499-27.422C189.665,105.704,179.728,92.658,148.273,97.102z"/>
	<path fill="#294172" d="M198.269,103.683c0,4.84-3.272,9.641-8.393,9.641s-10.148-7.147-10.148-11.987s4.151-6.417,9.271-6.417
		C194.118,94.919,198.269,98.843,198.269,103.683z"/>
	<path fill="#294172" d="M165.47,114.307c0,0-4.841,5.915,0,10.754c4.839,4.839,20.432,2.151,15.592-2.688
		C176.224,117.534,173.804,105.973,165.47,114.307z"/>
	<ellipse cx="157.48" cy="129.295" rx="4.916" ry="1.682"/>
	<path fill="none" stroke="#3D3930" stroke-width="0.6558" stroke-linecap="round" stroke-miterlimit="10" d="M134.598,127.613
		c0,0,15.565,20.568,53.329,3.363"/>
	<circle cx="142.096" cy="120.837" r="2.293"/>
	<circle fill="#38342D" cx="172.59" cy="122.149" r="2.292"/>
	<circle fill="#FFFBF2" cx="142.259" cy="119.851" r="1.034"/>
	<circle fill="#FFFBF2" cx="172.881" cy="121.853" r="1.032"/>
	<path fill="#E3EAF3" d="M158.505,148.569l-3.922,10.184c0,0,7.601,5.688,11.778,1.512c4.177-4.177,4.177-4.177,4.177-4.177
		l-6.233-7.233L158.505,148.569z"/>
	<path fill="none" stroke="#3D3930" stroke-width="0.6558" stroke-linecap="round" stroke-miterlimit="10" d="M158.505,148.569
		l5.8,0.285c0,0-5.321,12.873,0,18.194c5.322,5.322,13.615,10.896,4.85,19.932s-1.456,17.785,1.144,20.384"/>
	<rect x="96.005" y="181.484" fill="#EDC58D" width="115" height="62"/>
	<g>
		<path fill="#E6AB5D" d="M141.34,216.891c-0.596,0-1.104-0.213-1.528-0.637c-0.424-0.423-0.636-0.934-0.636-1.527
			c0-0.596,0.212-1.105,0.636-1.528c0.424-0.424,0.933-0.636,1.528-0.636c1.786,0,3.313-0.636,4.585-1.908
			c1.271-1.271,1.906-2.799,1.906-4.584s-0.635-3.314-1.906-4.584c-1.271-1.271-2.799-1.908-4.585-1.908
			c-1.785,0-3.314,0.637-4.586,1.908c-1.27,1.27-1.906,2.799-1.906,4.584c0,0.596-0.212,1.105-0.636,1.528
			c-0.423,0.424-0.932,0.636-1.527,0.636s-1.105-0.212-1.528-0.636c-0.425-0.423-0.636-0.933-0.636-1.528
			c0-2.993,1.055-5.545,3.165-7.655c2.109-2.11,4.66-3.164,7.654-3.164c2.993,0,5.546,1.054,7.655,3.164s3.164,4.662,3.164,7.655
			c0,3.174-1.324,5.979-3.977,8.412c0.831,0.523,1.615,1.146,2.354,1.867c2.524,2.542,3.786,5.607,3.786,9.196
			s-1.267,6.649-3.8,9.184c-2.534,2.534-5.596,3.8-9.184,3.8s-6.65-1.266-9.183-3.8c-2.534-2.534-3.801-5.595-3.801-9.184
			c0-0.595,0.211-1.104,0.635-1.528s0.934-0.636,1.529-0.636c0.595,0,1.104,0.212,1.527,0.636s0.637,0.934,0.637,1.528
			c0,2.399,0.843,4.44,2.529,6.127c1.685,1.687,3.727,2.528,6.126,2.528c2.398,0,4.44-0.842,6.126-2.528
			c1.687-1.687,2.529-3.728,2.529-6.127c0-2.397-0.843-4.44-2.529-6.126C145.78,217.733,143.738,216.891,141.34,216.891z"/>
		<path fill="#E6AB5D" d="M158.651,216.891c0-8.656,1.777-14.814,5.328-18.476c2.111-2.11,4.662-3.164,7.656-3.164
			c2.993,0,5.544,1.054,7.655,3.164c3.553,3.661,5.329,9.819,5.329,18.476c0,8.655-1.776,14.814-5.329,18.475
			c-2.111,2.109-4.662,3.164-7.655,3.164c-2.994,0-5.545-1.055-7.656-3.164C160.429,231.705,158.651,225.546,158.651,216.891z
			 M171.636,199.578c-1.785,0-3.318,0.641-4.6,1.92c-2.704,3.049-4.057,8.18-4.057,15.393s1.353,12.343,4.057,15.391
			c1.281,1.281,2.814,1.92,4.6,1.92c1.784,0,3.318-0.639,4.599-1.92c2.704-3.048,4.058-8.178,4.058-15.391
			s-1.354-12.344-4.058-15.393C174.954,200.219,173.42,199.578,171.636,199.578z"/>
	</g>
	<g>
		<path fill="#294172" d="M139.717,213.182c-0.595,0-1.104-0.211-1.527-0.636c-0.425-0.423-0.637-0.933-0.637-1.528
			c0-0.595,0.212-1.104,0.637-1.527c0.423-0.424,0.933-0.637,1.527-0.637c1.786,0,3.313-0.635,4.585-1.906
			c1.272-1.271,1.906-2.801,1.906-4.585c0-1.786-0.634-3.313-1.906-4.585c-1.271-1.271-2.799-1.907-4.585-1.907
			c-1.784,0-3.313,0.636-4.585,1.907c-1.271,1.271-1.906,2.799-1.906,4.585c0,0.595-0.212,1.104-0.636,1.528
			s-0.934,0.635-1.528,0.635c-0.596,0-1.105-0.211-1.529-0.635c-0.423-0.424-0.635-0.934-0.635-1.528
			c0-2.993,1.055-5.545,3.164-7.655c2.11-2.109,4.662-3.164,7.655-3.164c2.994,0,5.545,1.055,7.655,3.164
			c2.11,2.11,3.165,4.662,3.165,7.655c0,3.174-1.325,5.978-3.977,8.412c0.829,0.523,1.614,1.146,2.354,1.866
			c2.523,2.543,3.787,5.609,3.787,9.197s-1.269,6.65-3.801,9.184c-2.533,2.533-5.595,3.8-9.184,3.8c-3.588,0-6.649-1.267-9.183-3.8
			c-2.535-2.533-3.801-5.596-3.801-9.184c0-0.596,0.211-1.104,0.636-1.529c0.423-0.423,0.933-0.635,1.528-0.635
			c0.595,0,1.104,0.212,1.528,0.635c0.423,0.425,0.636,0.934,0.636,1.529c0,2.398,0.842,4.44,2.528,6.127
			c1.687,1.686,3.729,2.529,6.127,2.529c2.398,0,4.44-0.844,6.128-2.529c1.685-1.687,2.528-3.729,2.528-6.127
			s-0.844-4.44-2.528-6.127C144.157,214.025,142.115,213.182,139.717,213.182z"/>
		<path fill="#294172" d="M157.028,213.182c0-8.656,1.776-14.813,5.329-18.475c2.11-2.109,4.663-3.164,7.655-3.164
			c2.993,0,5.545,1.055,7.654,3.164c3.553,3.661,5.329,9.818,5.329,18.475s-1.776,14.814-5.329,18.475
			c-2.109,2.111-4.661,3.165-7.654,3.165c-2.992,0-5.545-1.054-7.655-3.165C158.805,227.996,157.028,221.838,157.028,213.182z
			 M170.013,195.87c-1.785,0-3.318,0.641-4.599,1.921c-2.705,3.048-4.058,8.178-4.058,15.391s1.353,12.344,4.058,15.392
			c1.28,1.28,2.813,1.921,4.599,1.921s3.318-0.641,4.599-1.921c2.705-3.048,4.057-8.179,4.057-15.392s-1.352-12.343-4.057-15.391
			C173.331,196.511,171.798,195.87,170.013,195.87z"/>
	</g>
</g>
</svg>
