<?xml version="1.0" encoding="utf-8"?>
<!-- Generator: Adobe Illustrator 15.1.0, SVG Export Plug-In . SVG Version: 6.00 Build 0)  -->
<!DOCTYPE svg PUBLIC "-//W3C//DTD SVG 1.1//EN" "http://www.w3.org/Graphics/SVG/1.1/DTD/svg11.dtd">
<svg version="1.1" id="Layer_1" xmlns="http://www.w3.org/2000/svg" xmlns:xlink="http://www.w3.org/1999/xlink" x="0px" y="0px"
	 width="308px" height="314.667px" viewBox="0 0 308 314.667" enable-background="new 0 0 308 314.667" xml:space="preserve">
<g>
	<g>
		<g id="g5241_167_">
			<path id="path35_173_" fill="#3C6EAF" d="M298.798,162.686c0-79.041-64.068-143.116-143.113-143.116
				c-78.999,0-143.05,64.022-143.104,143.018l-0.005-0.005v110.746l0.005,0.007c0.041,17.936,14.586,32.453,32.533,32.453
				c0.051,0,0.102-0.005,0.156-0.005l0.009,0.005h110.466l0,0c79.018-0.033,143.059-64.088,143.059-143.103H298.798z"/>
		</g>
		<g id="g5241_166_">
			<path id="path35_172_" fill="#294172" d="M295.798,155.686c0-79.041-64.068-143.116-143.113-143.116
				c-78.999,0-143.05,64.022-143.104,143.018l-0.005-0.005v110.746l0.005,0.007c0.041,17.936,14.586,32.453,32.533,32.453
				c0.051,0,0.102-0.005,0.156-0.005l0.009,0.005h110.466l0,0c79.018-0.033,143.059-64.088,143.059-143.103H295.798z"/>
		</g>
		<g>
			<path fill="#3C6EAF" d="M48.996,250.769c4.444,0,8.532,1.482,11.837,3.956c-3.61-4.821-9.35-7.956-15.837-7.956
				c-10.933,0-19.794,8.863-19.794,19.797c0,6.486,3.135,12.227,7.957,15.838c-2.475-3.305-3.957-7.394-3.957-11.838
				C29.202,259.632,38.063,250.769,48.996,250.769z"/>
			<path fill="#8AA9D4" d="M64.79,266.566c0-4.446-1.483-8.536-3.957-11.841c-3.305-2.474-7.393-3.956-11.837-3.956
				c-10.933,0-19.794,8.863-19.794,19.797c0,4.444,1.482,8.533,3.957,11.838c3.304,2.473,7.393,3.956,11.837,3.956
				C55.928,286.36,64.79,277.497,64.79,266.566z"/>
		</g>
		<g>
			<path fill="#3C6EAF" d="M44.49,150.497c0-53.769,33.451-99.721,80.677-118.189C71.395,44.935,31.363,93.206,31.363,150.833
				c0,59.174,42.215,108.482,98.172,119.463C80.018,253.013,44.49,205.908,44.49,150.497z"/>
			<path fill="#8AA9D4" d="M274.862,150.833c0-67.244-54.513-121.753-121.754-121.753c-9.615,0-18.969,1.119-27.941,3.227
				C77.941,50.776,44.49,96.728,44.49,150.497c0,55.411,35.528,102.517,85.045,119.8c7.628,1.497,15.507,2.289,23.573,2.289
				C220.349,272.585,274.862,218.074,274.862,150.833z"/>
		</g>
		<text transform="matrix(1 0 0 1 26.4341 277.5649)" fill="#E09228" font-family="'BaskOldFace'" font-size="57.4636">II</text>
	</g>
	<polygon fill-rule="evenodd" clip-rule="evenodd" fill="#7091CB" points="198.709,242.673 218.667,241.998 218.667,187.667 
		241.139,158.209 218.769,138.833 198.709,161.366 97.248,164.266 107.167,234.769 	"/>
	<ellipse fill-rule="evenodd" clip-rule="evenodd" fill="#7091CB" cx="125.065" cy="92.761" rx="31.179" ry="21.806"/>
	<path fill-rule="evenodd" clip-rule="evenodd" fill="#7091CB" d="M206.312,133.696c0,10.565-24.781,22.012-38.905,22.012
		c-14.123,0-12.24-11.447-12.24-22.012s11.449-19.129,25.572-19.129C194.863,114.567,206.312,123.131,206.312,133.696z"/>
	<ellipse fill-rule="evenodd" clip-rule="evenodd" fill="#7091CB" cx="206.315" cy="75.198" rx="23.758" ry="17.096"/>
	<ellipse fill-rule="evenodd" clip-rule="evenodd" fill="#7091CB" cx="143.778" cy="73.561" rx="11.389" ry="9.041"/>
	<ellipse fill-rule="evenodd" clip-rule="evenodd" fill="#7091CB" cx="196.7" cy="110.716" rx="6.041" ry="10.615"/>
	<g>
		<polygon fill="#E09228" points="114.765,168.639 97.447,186.667 211.11,186.667 191.606,168.796 		"/>
		<polygon fill="#E6AB5D" points="114.765,168.774 98.2,139.596 76.997,154.784 97.447,186.936 		"/>
		<polygon fill="#EDC58D" points="192.304,168.774 208.87,139.596 230.073,154.784 209.623,186.936 		"/>
		<rect x="115.667" y="167.667" fill="#E6AB5D" width="75" height="19"/>
	</g>
	<ellipse fill="#294172" cx="175.085" cy="60.003" rx="5.649" ry="6.053"/>
	<path fill="#E3EAF3" d="M187.071,53.882c-10.162,1.435-18.368,19.57-12.921,25.018c5.448,5.447,18.563,15.737,26.633,12.913
		c8.069-2.825,25.421-9.685,21.387-20.579C218.133,60.338,210.675,50.547,187.071,53.882z"/>
	<path fill="#294172" d="M224.589,58.821c0,3.633-2.456,7.235-6.298,7.235c-3.843,0-7.616-5.364-7.616-8.996
		c0-3.632,3.116-4.815,6.957-4.815C221.474,52.245,224.589,55.189,224.589,58.821z"/>
	<path fill="#294172" d="M199.975,66.794c0,0-3.632,4.439,0,8.07c3.632,3.632,15.334,1.614,11.701-2.017
		C208.045,69.215,206.23,60.54,199.975,66.794z"/>
	<ellipse cx="193.979" cy="78.042" rx="3.689" ry="1.262"/>
	<path fill="none" stroke="#3D3930" stroke-width="0.4921" stroke-linecap="round" stroke-miterlimit="10" d="M176.808,76.779
		c0,0,11.681,15.436,40.021,2.524"/>
	<circle cx="182.435" cy="71.694" r="1.721"/>
	<circle fill="#38342D" cx="205.319" cy="72.679" r="1.721"/>
	<circle fill="#FFFBF2" cx="182.558" cy="70.954" r="0.776"/>
	<circle fill="#FFFBF2" cx="205.537" cy="72.457" r="0.775"/>
	<path fill="#E3EAF3" d="M194.75,92.506l-2.943,7.642c0,0,5.703,4.269,8.839,1.134c3.134-3.134,3.134-3.134,3.134-3.134
		l-4.678-5.428L194.75,92.506z"/>
	<path fill="none" stroke="#3D3930" stroke-width="0.4921" stroke-linecap="round" stroke-miterlimit="10" d="M194.75,92.506
		l4.352,0.214c0,0-3.993,9.66,0,13.653c3.994,3.994,10.218,8.178,3.64,14.958s-1.093,13.347,0.857,15.297"/>
	<ellipse fill="#294172" cx="84.964" cy="68.44" rx="7.528" ry="8.066"/>
	<path fill="#E3EAF3" d="M100.935,60.284C87.393,62.196,76.459,86.361,83.718,93.62c7.259,7.259,24.734,20.971,35.488,17.207
		c10.753-3.764,33.874-12.905,28.499-27.422C142.327,68.886,132.389,55.84,100.935,60.284z"/>
	<path fill="#294172" d="M150.93,66.865c0,4.84-3.272,9.641-8.393,9.641s-10.148-7.147-10.148-11.987s4.151-6.417,9.271-6.417
		C146.78,58.102,150.93,62.025,150.93,66.865z"/>
	<path fill="#294172" d="M118.131,77.489c0,0-4.841,5.915,0,10.754c4.839,4.839,20.432,2.15,15.592-2.688
		C128.885,80.716,126.465,69.155,118.131,77.489z"/>
	<ellipse cx="110.142" cy="92.477" rx="4.916" ry="1.681"/>
	<path fill="none" stroke="#3D3930" stroke-width="0.6558" stroke-linecap="round" stroke-miterlimit="10" d="M87.259,90.795
		c0,0,15.565,20.569,53.329,3.363"/>
	<circle cx="94.758" cy="84.019" r="2.293"/>
	<circle fill="#38342D" cx="125.252" cy="85.332" r="2.292"/>
	<circle fill="#FFFBF2" cx="94.92" cy="83.033" r="1.034"/>
	<circle fill="#FFFBF2" cx="125.542" cy="85.036" r="1.032"/>
	<path fill="#E3EAF3" d="M111.167,111.751l-3.922,10.184c0,0,7.601,5.689,11.778,1.512c4.177-4.177,4.177-4.177,4.177-4.177
		l-6.233-7.233L111.167,111.751z"/>
	<path fill="none" stroke="#3D3930" stroke-width="0.6558" stroke-linecap="round" stroke-miterlimit="10" d="M111.167,111.751
		l5.8,0.285c0,0-5.321,12.873,0,18.194c5.322,5.322,13.615,10.896,4.85,19.932c-8.766,9.036-1.456,17.785,1.144,20.384"/>
	<ellipse fill="#294172" cx="133.964" cy="110.44" rx="7.528" ry="8.066"/>
	<path fill="#E3EAF3" d="M149.935,102.284c-13.542,1.913-24.476,26.078-17.217,33.336c7.259,7.259,24.734,20.971,35.488,17.207
		c10.753-3.764,33.874-12.905,28.499-27.422C191.327,110.886,181.389,97.84,149.935,102.284z"/>
	<path fill="#294172" d="M199.93,108.865c0,4.84-3.272,9.641-8.393,9.641s-10.148-7.147-10.148-11.987s4.151-6.417,9.271-6.417
		C195.78,100.102,199.93,104.025,199.93,108.865z"/>
	<path fill="#294172" d="M167.131,119.49c0,0-4.841,5.915,0,10.754c4.839,4.839,20.432,2.15,15.592-2.688
		C177.885,122.716,175.465,111.156,167.131,119.49z"/>
	<ellipse cx="159.142" cy="134.477" rx="4.916" ry="1.681"/>
	<path fill="none" stroke="#3D3930" stroke-width="0.6558" stroke-linecap="round" stroke-miterlimit="10" d="M136.259,132.795
		c0,0,15.565,20.569,53.329,3.363"/>
	<circle cx="143.758" cy="126.019" r="2.293"/>
	<circle fill="#38342D" cx="174.252" cy="127.332" r="2.292"/>
	<circle fill="#FFFBF2" cx="143.92" cy="125.033" r="1.034"/>
	<circle fill="#FFFBF2" cx="174.542" cy="127.036" r="1.032"/>
	<path fill="#E3EAF3" d="M160.167,153.751l-3.922,10.184c0,0,7.601,5.688,11.778,1.512c4.177-4.177,4.177-4.177,4.177-4.177
		l-6.233-7.233L160.167,153.751z"/>
	<path fill="none" stroke="#3D3930" stroke-width="0.6558" stroke-linecap="round" stroke-miterlimit="10" d="M160.167,153.751
		l5.8,0.285c0,0-5.321,12.873,0,18.194c5.322,5.322,13.615,10.896,4.85,19.932s-1.456,17.785,1.144,20.384"/>
	<rect x="97.667" y="186.667" fill="#EDC58D" width="115" height="62"/>
	<g>
		<path fill="#E6AB5D" d="M143.001,222.073c-0.596,0-1.104-0.213-1.528-0.637c-0.424-0.423-0.636-0.934-0.636-1.527
			c0-0.596,0.212-1.105,0.636-1.528c0.424-0.424,0.933-0.636,1.528-0.636c1.786,0,3.313-0.636,4.585-1.908
			c1.271-1.271,1.906-2.799,1.906-4.584s-0.635-3.314-1.906-4.584c-1.271-1.271-2.799-1.908-4.585-1.908
			c-1.785,0-3.314,0.637-4.586,1.908c-1.27,1.27-1.906,2.799-1.906,4.584c0,0.596-0.212,1.105-0.636,1.528
			c-0.423,0.424-0.932,0.636-1.527,0.636s-1.105-0.212-1.528-0.636c-0.425-0.423-0.636-0.933-0.636-1.528
			c0-2.993,1.055-5.545,3.165-7.655c2.109-2.11,4.66-3.164,7.654-3.164c2.993,0,5.546,1.054,7.655,3.164s3.164,4.662,3.164,7.655
			c0,3.174-1.324,5.978-3.977,8.412c0.831,0.523,1.615,1.146,2.354,1.867c2.524,2.542,3.786,5.607,3.786,9.196
			s-1.267,6.649-3.8,9.184c-2.534,2.534-5.596,3.8-9.184,3.8s-6.65-1.266-9.183-3.8c-2.534-2.534-3.801-5.595-3.801-9.184
			c0-0.595,0.211-1.104,0.635-1.528c0.424-0.423,0.934-0.636,1.529-0.636c0.595,0,1.104,0.213,1.527,0.636
			c0.424,0.424,0.637,0.934,0.637,1.528c0,2.399,0.843,4.44,2.529,6.127c1.685,1.687,3.727,2.528,6.126,2.528
			c2.398,0,4.44-0.842,6.126-2.528c1.687-1.687,2.529-3.728,2.529-6.127c0-2.397-0.843-4.44-2.529-6.126
			C147.442,222.916,145.4,222.073,143.001,222.073z"/>
		<path fill="#E6AB5D" d="M160.313,222.073c0-8.656,1.777-14.814,5.328-18.476c2.111-2.11,4.662-3.164,7.656-3.164
			c2.993,0,5.544,1.054,7.655,3.164c3.553,3.661,5.329,9.819,5.329,18.476c0,8.655-1.776,14.814-5.329,18.475
			c-2.111,2.109-4.662,3.164-7.655,3.164c-2.994,0-5.545-1.055-7.656-3.164C162.09,236.887,160.313,230.728,160.313,222.073z
			 M173.297,204.76c-1.785,0-3.318,0.641-4.6,1.921c-2.704,3.048-4.057,8.179-4.057,15.392s1.353,12.343,4.057,15.391
			c1.281,1.281,2.814,1.92,4.6,1.92c1.784,0,3.318-0.639,4.599-1.92c2.704-3.048,4.058-8.178,4.058-15.391
			s-1.354-12.344-4.058-15.392C176.616,205.401,175.082,204.76,173.297,204.76z"/>
	</g>
	<g>
		<path fill="#294172" d="M141.378,218.365c-0.595,0-1.104-0.212-1.527-0.637c-0.425-0.423-0.637-0.933-0.637-1.528
			c0-0.595,0.212-1.104,0.637-1.527c0.423-0.424,0.933-0.637,1.527-0.637c1.786,0,3.313-0.635,4.585-1.906
			c1.272-1.271,1.906-2.801,1.906-4.585c0-1.786-0.634-3.313-1.906-4.585c-1.271-1.271-2.799-1.907-4.585-1.907
			c-1.784,0-3.313,0.636-4.585,1.907c-1.271,1.271-1.906,2.799-1.906,4.585c0,0.595-0.212,1.104-0.636,1.528
			s-0.934,0.635-1.528,0.635c-0.596,0-1.105-0.211-1.529-0.635c-0.423-0.424-0.635-0.934-0.635-1.528
			c0-2.993,1.055-5.545,3.164-7.655c2.11-2.109,4.662-3.164,7.655-3.164c2.994,0,5.545,1.055,7.655,3.164
			c2.11,2.11,3.165,4.662,3.165,7.655c0,3.174-1.325,5.978-3.977,8.412c0.829,0.523,1.614,1.146,2.354,1.866
			c2.523,2.543,3.787,5.609,3.787,9.197s-1.269,6.65-3.801,9.184c-2.533,2.533-5.595,3.8-9.184,3.8c-3.588,0-6.649-1.267-9.183-3.8
			c-2.535-2.533-3.801-5.596-3.801-9.184c0-0.596,0.211-1.104,0.636-1.529c0.423-0.423,0.933-0.635,1.528-0.635
			c0.595,0,1.104,0.212,1.528,0.635c0.423,0.425,0.636,0.934,0.636,1.529c0,2.398,0.842,4.44,2.528,6.127
			c1.687,1.686,3.729,2.529,6.127,2.529c2.398,0,4.44-0.844,6.128-2.529c1.685-1.687,2.528-3.729,2.528-6.127
			s-0.844-4.44-2.528-6.126C145.819,219.208,143.777,218.365,141.378,218.365z"/>
		<path fill="#294172" d="M158.69,218.365c0-8.657,1.776-14.814,5.329-18.476c2.11-2.109,4.663-3.164,7.655-3.164
			c2.993,0,5.545,1.055,7.654,3.164c3.553,3.661,5.329,9.818,5.329,18.476c0,8.655-1.776,14.813-5.329,18.475
			c-2.109,2.11-4.661,3.164-7.654,3.164c-2.992,0-5.545-1.054-7.655-3.164C160.466,233.178,158.69,227.02,158.69,218.365z
			 M171.674,201.052c-1.785,0-3.318,0.641-4.599,1.921c-2.705,3.048-4.058,8.178-4.058,15.392c0,7.212,1.353,12.343,4.058,15.391
			c1.28,1.28,2.813,1.921,4.599,1.921s3.318-0.641,4.599-1.921c2.705-3.048,4.057-8.179,4.057-15.391
			c0-7.214-1.352-12.344-4.057-15.392C174.993,201.693,173.459,201.052,171.674,201.052z"/>
	</g>
</g>
</svg>
