<?xml version="1.0" encoding="utf-8"?>
<!-- Generator: Adobe Illustrator 15.1.0, SVG Export Plug-In . SVG Version: 6.00 Build 0)  -->
<!DOCTYPE svg PUBLIC "-//W3C//DTD SVG 1.1//EN" "http://www.w3.org/Graphics/SVG/1.1/DTD/svg11.dtd">
<svg version="1.1" id="Layer_1" xmlns="http://www.w3.org/2000/svg" xmlns:xlink="http://www.w3.org/1999/xlink" x="0px" y="0px"
	 width="302.164px" height="313.394px" viewBox="0 0 302.164 313.394" enable-background="new 0 0 302.164 313.394"
	 xml:space="preserve">
<g>
	<g>
		<g id="g5241_173_">
			<path id="path35_179_" fill="#3C6EAF" d="M297.137,157.504c0-79.041-64.068-143.116-143.113-143.116
				c-78.999,0-143.05,64.022-143.104,143.018l-0.005-0.005v110.746l0.005,0.007c0.041,17.936,14.586,32.453,32.533,32.453
				c0.051,0,0.102-0.005,0.156-0.005l0.009,0.005h110.466l0,0c79.018-0.033,143.059-64.088,143.059-143.103H297.137z"/>
		</g>
		<g id="g5241_172_">
			<path id="path35_178_" fill="#294172" d="M294.137,150.504c0-79.041-64.068-143.116-143.113-143.116
				C72.024,7.388,7.974,71.41,7.919,150.405L7.914,150.4v110.746l0.005,0.007c0.041,17.936,14.586,32.453,32.533,32.453
				c0.051,0,0.102-0.005,0.156-0.005l0.009,0.005h110.466l0,0c79.018-0.033,143.059-64.088,143.059-143.103H294.137z"/>
		</g>
		<g>
			<path fill="#3C6EAF" d="M47.334,245.587c4.444,0,8.532,1.482,11.837,3.956c-3.61-4.821-9.35-7.956-15.837-7.956
				c-10.933,0-19.794,8.863-19.794,19.797c0,6.486,3.135,12.227,7.957,15.838c-2.475-3.305-3.957-7.394-3.957-11.838
				C27.54,254.45,36.401,245.587,47.334,245.587z"/>
			<path fill="#8AA9D4" d="M63.128,261.384c0-4.446-1.483-8.536-3.957-11.841c-3.305-2.474-7.393-3.956-11.837-3.956
				c-10.933,0-19.794,8.863-19.794,19.797c0,4.444,1.482,8.533,3.957,11.838c3.304,2.473,7.393,3.956,11.837,3.956
				C54.267,281.178,63.128,272.314,63.128,261.384z"/>
		</g>
		<g>
			<path fill="#3C6EAF" d="M42.828,145.314c0-53.769,33.451-99.721,80.677-118.189C69.733,39.753,29.701,88.023,29.701,145.651
				c0,59.174,42.215,108.482,98.172,119.463C78.356,247.831,42.828,200.726,42.828,145.314z"/>
			<path fill="#8AA9D4" d="M273.2,145.651c0-67.244-54.513-121.753-121.754-121.753c-9.615,0-18.969,1.119-27.941,3.227
				C76.279,45.594,42.828,91.546,42.828,145.314c0,55.411,35.528,102.517,85.045,119.8c7.628,1.497,15.507,2.289,23.573,2.289
				C218.688,267.403,273.2,212.892,273.2,145.651z"/>
		</g>
		<text transform="matrix(1 0 0 1 23.54 274.4033)" fill="#DF6495" font-family="'BaskOldFace'" font-size="57.4636">V</text>
	</g>
	<rect x="223.005" y="190.484" fill="#7091CB" width="24" height="24"/>
	<rect x="223.005" y="162.484" fill="#7091CB" width="24" height="24"/>
	<rect x="222.005" y="134.484" fill="#7091CB" width="24" height="24"/>
	<rect x="222.005" y="106.484" fill="#7091CB" width="24" height="24"/>
	<rect x="220.005" y="77.484" fill="#7091CB" width="24" height="24"/>
	<rect x="189.005" y="52.484" fill="#7091CB" width="24" height="24"/>
	<rect x="152.005" y="51.484" fill="#7091CB" width="24" height="24"/>
	<rect x="121.005" y="50.484" fill="#7091CB" width="24" height="24"/>
	<rect x="185.005" y="190.484" fill="#7091CB" width="24" height="24"/>
	<rect x="185.005" y="162.484" fill="#7091CB" width="24" height="24"/>
	<rect x="184.005" y="134.484" fill="#7091CB" width="24" height="24"/>
	<rect x="184.005" y="106.484" fill="#7091CB" width="24" height="24"/>
	<rect x="182.005" y="77.484" fill="#7091CB" width="24" height="24"/>
	<rect x="154.005" y="190.484" fill="#7091CB" width="24" height="24"/>
	<rect x="154.005" y="162.484" fill="#7091CB" width="24" height="24"/>
	<rect x="153.005" y="134.484" fill="#7091CB" width="24" height="24"/>
	<rect x="153.005" y="106.484" fill="#7091CB" width="24" height="24"/>
	<rect x="151.005" y="77.484" fill="#7091CB" width="24" height="24"/>
	<rect x="123.005" y="190.484" fill="#7091CB" width="24" height="24"/>
	<rect x="123.005" y="162.484" fill="#7091CB" width="24" height="24"/>
	<rect x="122.005" y="134.484" fill="#7091CB" width="24" height="24"/>
	<rect x="122.005" y="106.484" fill="#7091CB" width="24" height="24"/>
	<rect x="120.005" y="77.484" fill="#7091CB" width="24" height="24"/>
	<rect x="92.005" y="190.484" fill="#7091CB" width="24" height="24"/>
	<rect x="92.005" y="162.484" fill="#7091CB" width="24" height="24"/>
	<rect x="91.005" y="134.484" fill="#7091CB" width="24" height="24"/>
	<rect x="91.005" y="106.484" fill="#7091CB" width="24" height="24"/>
	<rect x="89.005" y="77.484" fill="#7091CB" width="24" height="24"/>
	<g>
		<g>
			<rect x="214.005" y="86.484" fill="#EDC58D" width="19" height="19"/>
			<polygon fill="#E6AB5D" points="232.876,86.484 214.315,86.484 228.201,84.484 239.222,84.484 			"/>
			<polygon fill="#E09228" points="239.005,83.732 233.005,86.486 233.005,105.047 239.005,98.978 			"/>
		</g>
		<g>
			<rect x="181.005" y="86.484" fill="#EDC58D" width="18" height="19"/>
			<polygon fill="#E6AB5D" points="199.468,86.484 180.907,86.484 194.793,84.484 205.813,84.484 			"/>
			<polygon fill="#E09228" points="206.005,83.732 199.005,86.486 199.005,105.047 206.005,98.978 			"/>
		</g>
		<g>
			<rect x="147.005" y="86.484" fill="#EDC58D" width="18" height="19"/>
			<polygon fill="#E6AB5D" points="165.604,86.484 147.044,86.484 160.929,84.484 171.95,84.484 			"/>
			<polygon fill="#E09228" points="172.005,83.732 165.005,86.486 165.005,105.047 172.005,98.978 			"/>
		</g>
		<g>
			<rect x="113.005" y="86.484" fill="#EDC58D" width="19" height="19"/>
			<polygon fill="#E6AB5D" points="131.739,86.484 113.18,86.484 127.065,84.484 138.086,84.484 			"/>
			<polygon fill="#E09228" points="138.005,83.732 132.005,86.486 132.005,105.047 138.005,98.978 			"/>
		</g>
		<g>
			<rect x="79.005" y="86.484" fill="#EDC58D" width="19" height="19"/>
			<polygon fill="#E6AB5D" points="97.876,86.484 79.315,86.484 93.201,84.484 104.222,84.484 			"/>
			<polygon fill="#E09228" points="104.005,83.732 98.005,86.486 98.005,105.047 104.005,98.978 			"/>
		</g>
		<g>
			<rect x="214.005" y="115.484" fill="#EDC58D" width="19" height="19"/>
			<polygon fill="#E6AB5D" points="232.876,115.484 214.315,115.484 228.201,113.484 239.222,113.484 			"/>
			<polygon fill="#E09228" points="239.005,112.732 233.005,115.486 233.005,134.047 239.005,127.978 			"/>
		</g>
		<g>
			<rect x="181.005" y="115.484" fill="#EDC58D" width="18" height="19"/>
			<polygon fill="#E6AB5D" points="199.468,115.484 180.907,115.484 194.793,113.484 205.813,113.484 			"/>
			<polygon fill="#E09228" points="206.005,112.732 199.005,115.486 199.005,134.047 206.005,127.978 			"/>
		</g>
		<g>
			<rect x="147.005" y="115.484" fill="#EDC58D" width="18" height="19"/>
			<polygon fill="#E6AB5D" points="165.604,115.484 147.044,115.484 160.929,113.484 171.95,113.484 			"/>
			<polygon fill="#E09228" points="172.005,112.732 165.005,115.486 165.005,134.047 172.005,127.978 			"/>
		</g>
		<g>
			<rect x="113.005" y="115.484" fill="#EDC58D" width="19" height="19"/>
			<polygon fill="#E6AB5D" points="131.739,115.484 113.18,115.484 127.065,113.484 138.086,113.484 			"/>
			<polygon fill="#E09228" points="138.005,112.732 132.005,115.486 132.005,134.047 138.005,127.978 			"/>
		</g>
		<g>
			<rect x="79.005" y="115.484" fill="#EDC58D" width="19" height="19"/>
			<polygon fill="#E6AB5D" points="97.876,115.484 79.315,115.484 93.201,113.484 104.222,113.484 			"/>
			<polygon fill="#E09228" points="104.005,112.732 98.005,115.486 98.005,134.047 104.005,127.978 			"/>
		</g>
		<g>
			<rect x="214.005" y="142.484" fill="#EDC58D" width="19" height="19"/>
			<polygon fill="#E6AB5D" points="233.275,142.484 214.716,142.484 228.601,140.484 239.622,140.484 			"/>
			<polygon fill="#E09228" points="239.005,139.732 233.005,142.486 233.005,161.047 239.005,154.978 			"/>
		</g>
		<g>
			<rect x="181.005" y="142.484" fill="#EDC58D" width="18" height="19"/>
			<polygon fill="#E6AB5D" points="199.868,142.484 181.308,142.484 195.192,140.484 206.214,140.484 			"/>
			<polygon fill="#E09228" points="206.005,139.732 199.005,142.486 199.005,161.047 206.005,154.978 			"/>
		</g>
		<g>
			<rect x="147.005" y="142.484" fill="#EDC58D" width="18" height="19"/>
			<polygon fill="#E6AB5D" points="166.003,142.484 147.443,142.484 161.329,140.484 172.351,140.484 			"/>
			<polygon fill="#E09228" points="172.005,139.732 165.005,142.486 165.005,161.047 172.005,154.978 			"/>
		</g>
		<g>
			<rect x="113.005" y="142.484" fill="#EDC58D" width="19" height="19"/>
			<polygon fill="#E6AB5D" points="132.14,142.484 113.579,142.484 127.465,140.484 138.485,140.484 			"/>
			<polygon fill="#E09228" points="138.005,139.732 132.005,142.486 132.005,161.047 138.005,154.978 			"/>
		</g>
		<g>
			<rect x="79.005" y="142.484" fill="#EDC58D" width="19" height="19"/>
			<polygon fill="#E6AB5D" points="98.276,142.484 79.716,142.484 93.601,140.484 104.622,140.484 			"/>
			<polygon fill="#E09228" points="104.005,139.732 98.005,142.486 98.005,161.047 104.005,154.978 			"/>
		</g>
		<g>
			<rect x="214.005" y="168.484" fill="#EDC58D" width="19" height="19"/>
			<polygon fill="#E6AB5D" points="232.876,168.484 214.315,168.484 228.201,166.484 239.222,166.484 			"/>
			<polygon fill="#E09228" points="239.005,165.732 233.005,168.486 233.005,187.047 239.005,180.978 			"/>
		</g>
		<g>
			<rect x="181.005" y="168.484" fill="#EDC58D" width="18" height="19"/>
			<polygon fill="#E6AB5D" points="199.468,168.484 180.907,168.484 194.793,166.484 205.813,166.484 			"/>
			<polygon fill="#E09228" points="206.005,165.732 199.005,168.486 199.005,187.047 206.005,180.978 			"/>
		</g>
		<g>
			<rect x="147.005" y="168.484" fill="#EDC58D" width="18" height="19"/>
			<polygon fill="#E6AB5D" points="165.604,168.484 147.044,168.484 160.929,166.484 171.95,166.484 			"/>
			<polygon fill="#E09228" points="172.005,165.732 165.005,168.486 165.005,187.047 172.005,180.978 			"/>
		</g>
		<g>
			<rect x="113.005" y="168.484" fill="#EDC58D" width="19" height="19"/>
			<polygon fill="#E6AB5D" points="131.739,168.484 113.18,168.484 127.065,166.484 138.086,166.484 			"/>
			<polygon fill="#E09228" points="138.005,165.732 132.005,168.486 132.005,187.047 138.005,180.978 			"/>
		</g>
		<g>
			<rect x="79.005" y="168.484" fill="#EDC58D" width="19" height="19"/>
			<polygon fill="#E6AB5D" points="97.876,168.484 79.315,168.484 93.201,166.484 104.222,166.484 			"/>
			<polygon fill="#E09228" points="104.005,165.732 98.005,168.486 98.005,187.047 104.005,180.978 			"/>
		</g>
		<g>
			<rect x="214.005" y="195.484" fill="#EDC58D" width="19" height="19"/>
			<polygon fill="#E6AB5D" points="232.876,195.484 214.315,195.484 228.201,193.484 239.222,193.484 			"/>
			<polygon fill="#E09228" points="239.005,192.732 233.005,195.486 233.005,214.047 239.005,207.978 			"/>
		</g>
		<g>
			<rect x="110.005" y="225.484" fill="#EDC58D" width="19" height="19"/>
			<polygon fill="#E6AB5D" points="128.876,225.484 110.315,225.484 124.201,223.484 135.222,223.484 			"/>
			<polygon fill="#E09228" points="135.005,222.732 129.005,225.486 129.005,244.047 135.005,237.978 			"/>
		</g>
		<g>
			<rect x="144.005" y="225.484" fill="#EDC58D" width="19" height="19"/>
			<polygon fill="#E6AB5D" points="162.876,225.484 144.315,225.484 158.201,223.484 169.222,223.484 			"/>
			<polygon fill="#E09228" points="169.005,222.732 163.005,225.486 163.005,244.047 169.005,237.978 			"/>
		</g>
		<g>
			<rect x="178.005" y="225.484" fill="#EDC58D" width="19" height="19"/>
			<polygon fill="#E6AB5D" points="196.876,225.484 178.315,225.484 192.201,223.484 203.222,223.484 			"/>
			<polygon fill="#E09228" points="203.005,222.732 197.005,225.486 197.005,244.047 203.005,237.978 			"/>
		</g>
		<g>
			<rect x="114.005" y="57.484" fill="#EDC58D" width="19" height="19"/>
			<polygon fill="#E6AB5D" points="132.876,57.484 114.315,57.484 128.201,55.484 139.222,55.484 			"/>
			<polygon fill="#E09228" points="139.005,54.732 133.005,57.486 133.005,76.047 139.005,69.978 			"/>
		</g>
		<g>
			<rect x="148.005" y="57.484" fill="#EDC58D" width="19" height="19"/>
			<polygon fill="#E6AB5D" points="166.876,57.484 148.315,57.484 162.201,55.484 173.222,55.484 			"/>
			<polygon fill="#E09228" points="173.005,54.732 167.005,57.486 167.005,76.047 173.005,69.978 			"/>
		</g>
		<g>
			<rect x="182.005" y="57.484" fill="#EDC58D" width="19" height="19"/>
			<polygon fill="#E6AB5D" points="200.876,57.484 182.315,57.484 196.201,55.484 207.222,55.484 			"/>
			<polygon fill="#E09228" points="207.005,54.732 201.005,57.486 201.005,76.047 207.005,69.978 			"/>
		</g>
		<g>
			<rect x="181.005" y="195.484" fill="#EDC58D" width="18" height="19"/>
			<polygon fill="#E6AB5D" points="199.468,195.484 180.907,195.484 194.793,193.484 205.813,193.484 			"/>
			<polygon fill="#E09228" points="206.005,192.732 199.005,195.486 199.005,214.047 206.005,207.978 			"/>
		</g>
		<g>
			<rect x="147.005" y="195.484" fill="#EDC58D" width="18" height="19"/>
			<polygon fill="#E6AB5D" points="165.604,195.484 147.044,195.484 160.929,193.484 171.95,193.484 			"/>
			<polygon fill="#E09228" points="172.005,192.732 165.005,195.486 165.005,214.047 172.005,207.978 			"/>
		</g>
		<g>
			<rect x="113.005" y="195.484" fill="#EDC58D" width="19" height="19"/>
			<polygon fill="#E6AB5D" points="131.739,195.484 113.18,195.484 127.065,193.484 138.086,193.484 			"/>
			<polygon fill="#E09228" points="138.005,192.732 132.005,195.486 132.005,214.047 138.005,207.978 			"/>
		</g>
		<g>
			<rect x="79.005" y="195.484" fill="#EDC58D" width="19" height="19"/>
			<polygon fill="#E6AB5D" points="97.876,195.484 79.315,195.484 93.201,193.484 104.222,193.484 			"/>
			<polygon fill="#E09228" points="104.005,192.732 98.005,195.486 98.005,214.047 104.005,207.978 			"/>
		</g>
		<g>
			<path fill="#E3EAF3" d="M224.355,233.878c7.434-8.226,11.955-25.23,15.469-39.349c-2.924-8.156-9.442-9.055-15.469,5.231
				c-8.445,20.02-23.126,28.869-30.574,32.228c7.897,2.678,12.759,6.309,12.759,10.31c0,8.235-20.55,14.91-45.9,14.91
				c-25.35,0-35.395-1.423-35.395-9.657c0-3.819-6.081-12.553,1.187-15.191c-4.338-0.121-7.825-0.132-9.669,0.038
				c1.052,0.935,1.682,1.48,1.682,1.48c-3.745-0.824-3.866-1.278-1.682-1.48c-4.431-3.937-16.407-14.817-20.86-21.283
				c-10.438-15.156-13.078-20.496-25.49-14.427c-15.184,7.425,19.731,54.378,45.249,63.893c20.868,7.781,53.096,9.27,78.527,1.445
				C205.43,252.056,219.173,239.613,224.355,233.878z"/>
			<path fill="#C5D4E9" d="M193.781,231.988c-2.83,1.275-4.621,1.764-4.621,1.764l-19.613,0.976c0,0-27.252-1.925-43.115-2.368
				c-2.984,1.083-3.819,3.203-3.728,5.586c-2.042-0.623-4.26-1.671-4.26-1.671l5.318,6.551c0.608,1.841,1.288,3.534,1.482,4.726
				l-6.801-1.342l8.248,5.758c3.224,16.052,9.727,15.496,33.947,15.496c25.351,0,45.9-16.93,45.9-25.165
				C206.54,238.297,201.679,234.666,193.781,231.988z"/>
			<g>
				<path fill="#E3EAF3" d="M118.444,233.878c0,0-0.63-0.546-1.682-1.48C114.578,232.6,114.699,233.054,118.444,233.878z"/>
				<path fill="#A7BFDF" d="M130.245,234.551c2.981,18.245,7.34,23.673,32.668,22.639c19.695-0.805,40.859-13.025,37.325-16.56
					c-9.37-9.37-11.501-12.179-19.398-14.856c-2.83,1.275,13.32-5.021,13.32-5.021l-19.613,0.976c0,0-27.252-1.925-43.115-2.368
					C124.164,221.998,129.629,230.781,130.245,234.551z"/>
				<path fill="#C5D4E9" d="M241.356,203.114c-0.152-3.333-0.696-6.253-1.532-8.585c-3.514,14.118-8.035,31.123-15.469,39.349
					c-5.183,5.735-18.926,18.178-30.167,28.147c4.362-1.342,8.516-2.937,12.352-4.817
					C232.738,244.362,242.356,224.929,241.356,203.114z"/>
			</g>
			<g>
				<ellipse fill="#294172" cx="111.31" cy="187.33" rx="10.536" ry="11.288"/>
				<path fill="#E3EAF3" d="M133.663,175.914c-18.953,2.677-34.256,36.497-24.097,46.656c10.159,10.16,34.617,29.35,49.668,24.082
					c15.05-5.268,47.409-18.062,39.886-38.379C191.593,187.954,177.685,169.695,133.663,175.914z"/>
				<path fill="#294172" d="M203.634,185.125c0,6.775-4.58,13.493-11.746,13.493s-14.203-10.003-14.203-16.776
					s5.811-8.981,12.975-8.981C197.824,172.86,203.634,178.352,203.634,185.125z"/>
				<path fill="#294172" d="M157.729,199.994c0,0-6.774,8.279,0,15.051c6.772,6.773,28.596,3.012,21.822-3.762
					C172.78,204.51,169.394,188.33,157.729,199.994z"/>
				<ellipse cx="146.547" cy="220.971" rx="6.879" ry="2.354"/>
				<path fill="none" stroke="#3D3930" stroke-width="0.9178" stroke-linecap="round" stroke-miterlimit="10" d="M114.522,218.617
					c0,0,21.784,28.787,74.638,4.707"/>
				<circle cx="125.017" cy="209.134" r="3.209"/>
				<circle fill="#38342D" cx="167.695" cy="210.969" r="3.209"/>
				<circle fill="#FFFBF2" cx="125.245" cy="207.753" r="1.447"/>
				<circle fill="#FFFBF2" cx="168.102" cy="210.556" r="1.445"/>
			</g>
			<path fill="#C5D4E9" d="M178.005,257.311v-7.816c-3-2.968,4.458,6.748,4.458,6.748s4.862-7.004,4.862-8.691
				c0-1.689,3.374,4.88,3.374,4.88l1.657-10.679l4.995,5.799C197.352,247.551,187.005,257.311,178.005,257.311z"/>
			<path fill="#C5D4E9" d="M130.745,251.398c0-2.203,8.923-1.673,8.923-1.673s-5.665,7.319-4.462,6.116
				c1.203-1.202,16.635-2.991,16.635-2.991s-6.845,9.813-9.331,7.326S130.745,254.857,130.745,251.398z"/>
			<path fill="#A7BFDF" d="M189.16,236.173c0.333-1.974,5.041-0.696,6.751-3.404s-3.375,5.566-3.375,5.566s5.88-2.635,7.702-4.457
				s-0.635,6.447-3.057,6.447S188.751,238.595,189.16,236.173z"/>
			<path fill="#C5D4E9" d="M233.628,226.971c0,0,3.035-1.764,4.799,0c2.354,2.354-7.913,4.803-7.913,4.803s11.136,0.543,9.311,2.368
				s-11.732,4.256-11.732,4.256L233.628,226.971z"/>
			<polyline fill="#A7BFDF" points="190.659,236.274 197.352,232.929 188.748,232.292 189.16,236.173 			"/>
			<polygon fill="#A7BFDF" points="132.271,243.732 125.245,241.752 133.773,247.551 			"/>
			<polygon fill="#A7BFDF" points="133.773,244.65 130.745,249.67 136.974,249.494 			"/>
			<polygon fill="#C5D4E9" points="129.639,255.299 123.798,257.484 131.005,257.484 			"/>
			<path fill="#E3EAF3" d="M229.707,215.868c0,0,10.825-4.21,8.305-1.69s-11.28,5.182-9.619,5.182s8.743,0.065,7.197,1.611
				s-7.197,0-7.197,0l4.896,4.803l-7.041,0.414"/>
			<path fill="#E3EAF3" d="M193.05,260.177c0,0-11.166-8.282-4.302-6.096s8.604,3.403,8.604,3.403s-2.951-10.941,0-7.99
				s2.951,2.951,2.951,2.951s-2.688-7.909-0.064-5.285s4.534,5.391,4.534,5.391L193.05,260.177z"/>
			<path fill="#E3EAF3" d="M130.227,263.509c0,0,10.037-5.826,5.633-4.499c-4.404,1.328-8.843,1.167-8.843,1.167
				s11.092-2.692,5.988-2.692s-9.197,2.692-9.197,2.692L130.227,263.509z"/>
			<path fill="#C5D4E9" d="M209.045,232.916c0-2.848,3.854-11.607,3.854-4.75c0,6.858,5.105-5.527,5.105-2.393
				c0,3.133,0,6.711,0,6.711l-4.48,3.79l-2.752-3.137L209.045,232.916z"/>
			<path fill="#C5D4E9" d="M91.556,215.709c1.261-2.553,8.597-8.699,5.56-2.551c-3.038,6.148,7.025-2.693,5.638,0.115
				c-1.389,2.811-2.974,6.018-2.974,6.018l-5.695,1.413l-1.078-4.031L91.556,215.709z"/>
			<path fill="#C5D4E9" d="M104.105,244.037c-0.078-2.846,3.535-11.707,3.724-4.854c0.187,6.856,4.952-5.664,5.038-2.531
				c0.085,3.133,0.183,6.709,0.183,6.709l-4.375,3.911l-2.837-3.061L104.105,244.037z"/>
			<path fill="#C5D4E9" d="M223.415,211.285c0,0-9.703,5.631-6.549,2.031c3.154-3.601-5.504-4.705-1.027-5
				c4.476-0.295,3.635-0.779,4.746-2.047c1.11-1.267,6.839-0.323,5.345,1.381C224.437,209.355,220.896,209.078,223.415,211.285z"/>
		</g>
	</g>
</g>
<g>
	<path fill="#DF6495" d="M80.774,151.615c0,1.153-0.411,2.141-1.232,2.962c-0.822,0.821-1.809,1.231-2.962,1.231
		s-2.141-0.41-2.962-1.231c-0.822-0.821-1.232-1.809-1.232-2.962v-69.67l-6.762,2.254c-0.524,0.209-1.066,0.314-1.625,0.314
		c-1.153,0-2.141-0.411-2.962-1.232c-0.822-0.821-1.232-1.809-1.232-2.962s0.419-2.149,1.259-2.989
		c0.419-0.419,0.891-0.733,1.415-0.943l12.582-4.194c0.454-0.174,0.961-0.262,1.521-0.262c1.153,0,2.14,0.412,2.962,1.232
		c0.821,0.822,1.232,1.809,1.232,2.962V151.615z"/>
	<path fill="#DF6495" d="M89.162,113.87c0-16.775,3.442-28.71,10.327-35.805c4.089-4.089,9.034-6.134,14.836-6.134
		c5.801,0,10.747,2.045,14.835,6.134c6.885,7.095,10.328,19.029,10.328,35.805c0,16.776-3.443,28.711-10.328,35.806
		c-4.088,4.089-9.034,6.133-14.835,6.133c-5.802,0-10.747-2.044-14.836-6.133C92.604,142.581,89.162,130.646,89.162,113.87z
		 M114.325,80.32c-3.46,0-6.431,1.241-8.912,3.722c-5.242,5.906-7.864,15.849-7.864,29.828c0,13.979,2.622,23.923,7.864,29.829
		c2.481,2.482,5.452,3.723,8.912,3.723c3.459,0,6.43-1.24,8.912-3.723c5.243-5.906,7.864-15.85,7.864-29.829
		c0-13.979-2.621-23.922-7.864-29.828C120.755,81.561,117.785,80.32,114.325,80.32z"/>
	<path fill="#DF6495" d="M147.876,113.87c0-16.775,3.441-28.71,10.327-35.805c4.089-4.089,9.034-6.134,14.837-6.134
		c5.8,0,10.746,2.045,14.835,6.134c6.885,7.095,10.327,19.029,10.327,35.805c0,16.776-3.442,28.711-10.327,35.806
		c-4.089,4.089-9.035,6.133-14.835,6.133c-5.803,0-10.748-2.044-14.837-6.133C151.317,142.581,147.876,130.646,147.876,113.87z
		 M173.04,80.32c-3.461,0-6.432,1.241-8.913,3.722c-5.241,5.906-7.863,15.849-7.863,29.828c0,13.979,2.622,23.923,7.863,29.829
		c2.481,2.482,5.452,3.723,8.913,3.723c3.459,0,6.43-1.24,8.911-3.723c5.243-5.906,7.863-15.85,7.863-29.829
		c0-13.979-2.62-23.922-7.863-29.828C179.47,81.561,176.499,80.32,173.04,80.32z"/>
	<path fill="#DF6495" d="M206.59,113.87c0-16.775,3.442-28.71,10.327-35.805c4.09-4.089,9.035-6.134,14.836-6.134
		s10.747,2.045,14.836,6.134c6.885,7.095,10.328,19.029,10.328,35.805c0,16.776-3.443,28.711-10.328,35.806
		c-4.089,4.089-9.035,6.133-14.836,6.133s-10.746-2.044-14.836-6.133C210.032,142.581,206.59,130.646,206.59,113.87z M231.753,80.32
		c-3.459,0-6.431,1.241-8.912,3.722c-5.242,5.906-7.863,15.849-7.863,29.828c0,13.979,2.621,23.923,7.863,29.829
		c2.481,2.482,5.453,3.723,8.912,3.723c3.46,0,6.43-1.24,8.912-3.723c5.242-5.906,7.863-15.85,7.863-29.829
		c0-13.979-2.621-23.922-7.863-29.828C238.183,81.561,235.213,80.32,231.753,80.32z"/>
</g>
<g>
	<path fill="#D63279" d="M80.081,145.521c0,1.153-0.411,2.141-1.232,2.962c-0.821,0.821-1.809,1.231-2.962,1.231
		c-1.153,0-2.141-0.41-2.962-1.231c-0.821-0.821-1.232-1.809-1.232-2.962V75.851l-6.762,2.254c-0.524,0.21-1.067,0.315-1.625,0.315
		c-1.153,0-2.141-0.411-2.962-1.232c-0.821-0.821-1.232-1.809-1.232-2.962s0.419-2.149,1.258-2.988
		c0.42-0.419,0.892-0.733,1.416-0.943L74.367,66.1c0.454-0.174,0.96-0.262,1.52-0.262c1.153,0,2.141,0.411,2.962,1.232
		c0.821,0.822,1.232,1.809,1.232,2.962V145.521z"/>
	<path fill="#D63279" d="M88.469,107.776c0-16.775,3.442-28.71,10.328-35.805c4.089-4.089,9.034-6.133,14.836-6.133
		c5.801,0,10.746,2.044,14.835,6.133c6.885,7.095,10.328,19.03,10.328,35.805s-3.443,28.711-10.328,35.806
		c-4.089,4.089-9.035,6.133-14.835,6.133c-5.802,0-10.747-2.044-14.836-6.133C91.911,136.487,88.469,124.552,88.469,107.776z
		 M113.632,74.226c-3.46,0-6.431,1.241-8.913,3.722c-5.242,5.906-7.863,15.85-7.863,29.829c0,13.98,2.621,23.923,7.863,29.829
		c2.481,2.482,5.452,3.722,8.913,3.722c3.459,0,6.43-1.239,8.912-3.722c5.243-5.906,7.863-15.849,7.863-29.829
		c0-13.979-2.621-23.922-7.863-29.829C120.062,75.466,117.092,74.226,113.632,74.226z"/>
	<path fill="#D63279" d="M147.183,107.776c0-16.775,3.442-28.71,10.328-35.805c4.088-4.089,9.033-6.133,14.835-6.133
		s10.747,2.044,14.836,6.133c6.886,7.095,10.327,19.03,10.327,35.805s-3.441,28.711-10.327,35.806
		c-4.089,4.089-9.034,6.133-14.836,6.133s-10.747-2.044-14.835-6.133C150.625,136.487,147.183,124.552,147.183,107.776z
		 M172.346,74.226c-3.46,0-6.431,1.241-8.911,3.722c-5.243,5.906-7.864,15.85-7.864,29.829c0,13.98,2.621,23.923,7.864,29.829
		c2.48,2.482,5.451,3.722,8.911,3.722s6.431-1.239,8.912-3.722c5.242-5.906,7.864-15.849,7.864-29.829
		c0-13.979-2.622-23.922-7.864-29.829C178.776,75.466,175.806,74.226,172.346,74.226z"/>
	<path fill="#D63279" d="M205.897,107.776c0-16.775,3.441-28.71,10.326-35.805c4.09-4.089,9.035-6.133,14.836-6.133
		s10.747,2.044,14.836,6.133c6.885,7.095,10.328,19.03,10.328,35.805s-3.443,28.711-10.328,35.806
		c-4.089,4.089-9.035,6.133-14.836,6.133s-10.746-2.044-14.836-6.133C209.339,136.487,205.897,124.552,205.897,107.776z
		 M231.06,74.226c-3.459,0-6.431,1.241-8.912,3.722c-5.242,5.906-7.863,15.85-7.863,29.829c0,13.98,2.621,23.923,7.863,29.829
		c2.481,2.482,5.453,3.722,8.912,3.722c3.461,0,6.431-1.239,8.912-3.722c5.242-5.906,7.863-15.849,7.863-29.829
		c0-13.979-2.621-23.922-7.863-29.829C237.49,75.466,234.521,74.226,231.06,74.226z"/>
</g>
</svg>
