<?xml version="1.0" encoding="utf-8"?>
<!-- Generator: Adobe Illustrator 15.1.0, SVG Export Plug-In . SVG Version: 6.00 Build 0)  -->
<!DOCTYPE svg PUBLIC "-//W3C//DTD SVG 1.1//EN" "http://www.w3.org/Graphics/SVG/1.1/DTD/svg11.dtd">
<svg version="1.1" id="Layer_1" xmlns="http://www.w3.org/2000/svg" xmlns:xlink="http://www.w3.org/1999/xlink" x="0px" y="0px"
	 width="308px" height="314.667px" viewBox="0 0 308 314.667" enable-background="new 0 0 308 314.667" xml:space="preserve">
<g>
	<g id="g5241_169_">
		<path id="path35_175_" fill="#3C6EAF" d="M299.798,162.686c0-79.041-64.068-143.116-143.113-143.116
			c-78.999,0-143.05,64.022-143.104,143.018l-0.005-0.005v110.746l0.005,0.007c0.041,17.936,14.586,32.453,32.533,32.453
			c0.051,0,0.102-0.005,0.156-0.005l0.009,0.005h110.466l0,0c79.018-0.033,143.059-64.088,143.059-143.103H299.798z"/>
	</g>
	<g id="g5241_168_">
		<path id="path35_174_" fill="#294172" d="M296.798,155.686c0-79.041-64.068-143.116-143.113-143.116
			c-78.999,0-143.05,64.022-143.104,143.018l-0.005-0.005v110.746l0.005,0.007c0.041,17.936,14.586,32.453,32.533,32.453
			c0.051,0,0.102-0.005,0.156-0.005l0.009,0.005h110.466l0,0c79.018-0.033,143.059-64.088,143.059-143.103H296.798z"/>
	</g>
	<g>
		<path fill="#3C6EAF" d="M49.996,250.769c4.444,0,8.532,1.482,11.837,3.956c-3.61-4.821-9.35-7.956-15.837-7.956
			c-10.933,0-19.794,8.863-19.794,19.797c0,6.486,3.135,12.227,7.957,15.838c-2.475-3.305-3.957-7.394-3.957-11.838
			C30.202,259.632,39.063,250.769,49.996,250.769z"/>
		<path fill="#8AA9D4" d="M65.79,266.566c0-4.446-1.483-8.536-3.957-11.841c-3.305-2.474-7.393-3.956-11.837-3.956
			c-10.933,0-19.794,8.863-19.794,19.797c0,4.444,1.482,8.533,3.957,11.838c3.304,2.473,7.393,3.956,11.837,3.956
			C56.928,286.36,65.79,277.497,65.79,266.566z"/>
	</g>
	<g>
		<path fill="#3C6EAF" d="M45.49,150.497c0-53.769,33.451-99.721,80.677-118.189C72.395,44.935,32.363,93.206,32.363,150.833
			c0,59.174,42.215,108.482,98.172,119.463C81.018,253.013,45.49,205.908,45.49,150.497z"/>
		<path fill="#8AA9D4" d="M275.862,150.833c0-67.244-54.513-121.753-121.754-121.753c-9.615,0-18.969,1.119-27.941,3.227
			C78.941,50.776,45.49,96.728,45.49,150.497c0,55.411,35.528,102.517,85.045,119.8c7.628,1.497,15.507,2.289,23.573,2.289
			C221.349,272.585,275.862,218.074,275.862,150.833z"/>
	</g>
	<text transform="matrix(1 0 0 1 21.9946 279.2964)" fill="#E09228" font-family="'BaskOldFace'" font-size="57.4636">IV</text>
</g>
<path fill="#7091CB" d="M123.288,247.624l96.379-1.933v-62.024l44.683-2.866c0,0-45.594-27.048-42.628-27.048
	s17.337-38.582,17.337-38.582l-9.304-1.604c0,0,6.936-32.465,2.405-36.995c-4.53-4.53-15.441-2.469-15.441,6.882
	c0,9.35-24.284,38.317-24.284,31.717c0-6.601,5.512-23.76,1.768-27.504s-3.744-3.744-3.744-3.744s10.147-6.625,6.249-10.523
	s-10.523-12.34-18.386-4.478s-10.234,1.76-31.08,1.76S123.288,247.624,123.288,247.624z"/>
<g>
	<g>
		<polygon fill="#E6AB5D" points="149.37,136.667 137.1,116.667 57.977,116.667 77.527,136.667 		"/>
		<rect x="116.667" y="153.667" fill="#EDC58D" width="96" height="99"/>
		<polygon fill="#E6AB5D" points="117.274,153.965 75.667,135.906 75.667,218.212 116.821,252.673 		"/>
		<polygon fill="#EDC58D" points="75.763,135.667 149.131,135.667 214.718,153.596 117.323,153.752 		"/>
		<polygon fill="#E6AB5D" points="149.245,137.141 159.567,112.75 227.424,119.955 211.145,153.059 		"/>
		<polygon fill="#E09228" points="75.763,135.951 50.888,146.165 92.208,181.682 117.323,153.965 		"/>
		<polygon fill="#E09228" points="148.667,135.951 148.667,152.667 210.272,152.667 		"/>
		<polygon fill="#E6AB5D" points="117.544,153.847 151.911,183.751 252.514,178.193 211.718,152.738 		"/>
		<rect x="116.667" y="152.667" fill="#F2DCBC" width="32" height="1"/>
	</g>
	<path fill="#E3EAF3" d="M210.017,82.943c-8.445,20.02-23.126,28.869-30.574,32.228c7.897,2.678,12.759,6.308,12.759,10.31
		c0,8.235-20.55,14.91-45.9,14.91c-25.35,0-35.395-1.423-35.395-9.658c0-3.819-6.081-12.553,1.187-15.191
		c-4.338-0.121-7.825-0.132-9.669,0.038c1.052,0.935,1.682,1.48,1.682,1.48c-3.745-0.824-3.866-1.279-1.682-1.48
		c-4.431-3.937-16.407-14.817-20.86-21.283C71.125,79.14,68.486,73.8,56.074,79.87c-14.616,7.147,19.585,56.31,41.602,65.36
		c0.856,0.353,1.693,0.644,2.509,0.869l17.139,7.866l0.344-0.299h71c0,0-3.324-6.808-4.488-9.904
		c-0.15-0.397-0.877-0.579-2.031-0.597c10.754-9.571,23.035-20.755,27.87-26.106c7.434-8.226,11.955-25.23,15.469-39.348
		C222.562,69.555,216.043,68.657,210.017,82.943z"/>
	<path fill="#C5D4E9" d="M179.443,115.17c-2.83,1.276-4.621,1.763-4.621,1.763l-19.613,0.976c0,0-27.252-1.924-43.115-2.368
		c-2.984,1.083-3.819,3.203-3.728,5.586c-2.042-0.623-4.26-1.671-4.26-1.671l5.318,6.551c0.608,1.841,1.288,3.534,1.482,4.725
		l-6.801-1.341l8.248,5.758c3.224,16.051,9.727,15.495,33.947,15.495c25.351,0,45.9-16.929,45.9-25.164
		C192.202,121.478,187.34,117.848,179.443,115.17z"/>
	<g>
		<path fill="#E3EAF3" d="M104.106,117.06c0,0-0.63-0.546-1.682-1.48C100.24,115.781,100.361,116.236,104.106,117.06z"/>
		<path fill="#A7BFDF" d="M115.907,117.732c2.981,18.246,7.34,23.673,32.668,22.639c19.695-0.804,40.859-13.025,37.325-16.56
			c-9.37-9.371-11.501-12.179-19.398-14.857c-2.83,1.276,13.32-5.021,13.32-5.021l-19.613,0.976c0,0-27.252-1.924-43.115-2.368
			C109.826,105.18,115.291,113.963,115.907,117.732z"/>
		<path fill="#C5D4E9" d="M227.018,86.296c-0.152-3.332-0.696-6.253-1.532-8.584c-3.514,14.118-8.035,31.122-15.469,39.348
			c-5.183,5.736-18.926,18.178-30.167,28.147c4.362-1.342,8.516-2.937,12.352-4.817C218.4,127.544,228.018,108.111,227.018,86.296z"
			/>
	</g>
	<g>
		<ellipse fill="#294172" cx="96.972" cy="70.512" rx="10.536" ry="11.288"/>
		<path fill="#E3EAF3" d="M119.325,59.096c-18.953,2.677-34.256,36.497-24.097,46.657c10.159,10.159,34.617,29.349,49.668,24.082
			c15.05-5.268,47.409-18.062,39.886-38.379C177.254,71.136,163.346,52.877,119.325,59.096z"/>
		<path fill="#294172" d="M189.295,68.308c0,6.774-4.58,13.493-11.746,13.493s-14.203-10.003-14.203-16.776
			s5.811-8.981,12.975-8.981C183.486,56.042,189.295,61.534,189.295,68.308z"/>
		<path fill="#294172" d="M143.391,83.177c0,0-6.774,8.278,0,15.05c6.772,6.773,28.596,3.011,21.822-3.762
			C158.442,87.692,155.055,71.513,143.391,83.177z"/>
		<ellipse cx="132.209" cy="104.153" rx="6.879" ry="2.354"/>
		<path fill="none" stroke="#3D3930" stroke-width="0.9178" stroke-linecap="round" stroke-miterlimit="10" d="M100.184,101.799
			c0,0,21.784,28.787,74.638,4.707"/>
		<circle cx="110.679" cy="92.316" r="3.209"/>
		<circle fill="#38342D" cx="153.357" cy="94.152" r="3.209"/>
		<circle fill="#FFFBF2" cx="110.907" cy="90.935" r="1.447"/>
		<circle fill="#FFFBF2" cx="153.764" cy="93.738" r="1.445"/>
	</g>
	<path fill="#C5D4E9" d="M163.667,140.493v-7.817c-3-2.967,4.458,6.749,4.458,6.749s4.862-7.003,4.862-8.692s3.374,4.88,3.374,4.88
		l1.657-10.679l4.995,5.799C183.013,130.732,172.667,140.493,163.667,140.493z"/>
	<path fill="#C5D4E9" d="M116.407,134.58c0-2.203,8.923-1.672,8.923-1.672s-5.665,7.319-4.462,6.117s16.635-2.992,16.635-2.992
		s-6.845,9.813-9.331,7.326S116.407,138.04,116.407,134.58z"/>
	<path fill="#A7BFDF" d="M174.822,119.355c0.333-1.974,5.041-0.696,6.751-3.404s-3.375,5.566-3.375,5.566s5.88-2.635,7.702-4.457
		s-0.635,6.447-3.057,6.447S174.413,121.777,174.822,119.355z"/>
	<path fill="#C5D4E9" d="M219.29,110.153c0,0,3.035-1.764,4.799,0c2.354,2.354-7.913,4.802-7.913,4.802s11.136,0.543,9.311,2.369
		s-11.732,4.256-11.732,4.256L219.29,110.153z"/>
	<polyline fill="#A7BFDF" points="176.321,119.457 183.013,116.111 174.41,115.474 174.822,119.355 	"/>
	<polygon fill="#A7BFDF" points="117.933,126.915 110.907,124.934 119.435,130.732 	"/>
	<polygon fill="#A7BFDF" points="119.435,127.833 116.407,132.852 122.635,132.676 	"/>
	<polygon fill="#C5D4E9" points="115.3,138.481 109.459,140.667 116.667,140.667 	"/>
	<path fill="#E3EAF3" d="M215.369,99.05c0,0,10.825-4.21,8.305-1.69s-11.28,5.182-9.619,5.182s8.743,0.065,7.197,1.611
		s-7.197,0-7.197,0l4.896,4.802l-7.041,0.414"/>
	<path fill="#E3EAF3" d="M178.711,143.359c0,0-11.166-8.282-4.302-6.096c6.864,2.187,8.604,3.403,8.604,3.403s-2.951-10.942,0-7.991
		s2.951,2.951,2.951,2.951s-2.688-7.909-0.064-5.285s4.534,5.391,4.534,5.391L178.711,143.359z"/>
	<path fill="#E3EAF3" d="M115.888,146.691c0,0,10.037-5.826,5.633-4.499s-8.843,1.167-8.843,1.167s11.092-2.692,5.988-2.692
		s-9.197,2.692-9.197,2.692L115.888,146.691z"/>
	<path fill="#C5D4E9" d="M194.707,116.098c0-2.848,3.854-11.607,3.854-4.75c0,6.858,5.105-5.527,5.105-2.393
		c0,3.134,0,6.711,0,6.711l-4.48,3.79l-2.752-3.137L194.707,116.098z"/>
	<path fill="#C5D4E9" d="M77.217,98.891c1.261-2.553,8.597-8.699,5.56-2.551c-3.038,6.149,7.025-2.693,5.638,0.117
		c-1.389,2.809-2.974,6.017-2.974,6.017l-5.695,1.413l-1.078-4.031L77.217,98.891z"/>
	<path fill="#C5D4E9" d="M89.767,127.219c-0.078-2.846,3.535-11.708,3.724-4.853c0.187,6.856,4.952-5.664,5.038-2.532
		c0.085,3.133,0.183,6.709,0.183,6.709l-4.375,3.911l-2.837-3.061L89.767,127.219z"/>
	<path fill="#C5D4E9" d="M209.077,94.467c0,0-9.703,5.631-6.549,2.031s-5.504-4.705-1.027-5c4.476-0.295,3.635-0.779,4.746-2.046
		c1.11-1.267,6.839-0.324,5.345,1.38C210.098,92.537,206.558,92.261,209.077,94.467z"/>
	<g>
		<path fill="#E6AB5D" d="M122.877,229.032c-0.571,0-1.062-0.203-1.468-0.611c-0.408-0.406-0.612-0.896-0.612-1.468
			c0-0.45,0.131-0.858,0.39-1.223l18.713-27.026c0.378-0.57,0.941-0.856,1.688-0.856c0.57,0,1.063,0.204,1.471,0.61
			c0.405,0.408,0.609,0.896,0.609,1.469v24.947h4.155c0.573,0,1.063,0.203,1.471,0.61c0.405,0.407,0.609,0.896,0.609,1.469
			c0,0.571-0.204,1.062-0.609,1.468c-0.408,0.408-0.897,0.611-1.471,0.611h-4.155v8.314c0,0.572-0.204,1.063-0.609,1.47
			c-0.408,0.407-0.9,0.61-1.471,0.61c-0.573,0-1.06-0.203-1.468-0.61s-0.612-0.897-0.612-1.47v-8.314H122.877z M139.507,224.874
			v-18.295l-12.653,18.295H139.507z"/>
		<path fill="#E6AB5D" d="M154.061,218.636c0-8.315,1.707-14.231,5.119-17.749c2.027-2.027,4.479-3.04,7.354-3.04
			c2.877,0,5.328,1.013,7.353,3.04c3.414,3.518,5.122,9.434,5.122,17.749c0,8.316-1.708,14.233-5.122,17.749
			c-2.024,2.027-4.476,3.041-7.353,3.041c-2.875,0-5.327-1.014-7.354-3.041C155.768,232.87,154.061,226.953,154.061,218.636z
			 M166.535,202.004c-1.715,0-3.189,0.615-4.419,1.846c-2.599,2.928-3.896,7.856-3.896,14.786c0,6.931,1.298,11.859,3.896,14.787
			c1.229,1.229,2.704,1.846,4.419,1.846c1.714,0,3.187-0.616,4.418-1.846c2.599-2.928,3.898-7.856,3.898-14.787
			c0-6.93-1.3-11.858-3.898-14.786C169.721,202.62,168.249,202.004,166.535,202.004z"/>
		<path fill="#E6AB5D" d="M183.167,218.636c0-8.315,1.705-14.231,5.12-17.749c2.026-2.027,4.477-3.04,7.353-3.04
			s5.327,1.013,7.355,3.04c3.412,3.518,5.118,9.434,5.118,17.749c0,8.316-1.706,14.233-5.118,17.749
			c-2.028,2.027-4.479,3.041-7.355,3.041s-5.326-1.014-7.353-3.041C184.872,232.87,183.167,226.953,183.167,218.636z
			 M195.639,202.004c-1.714,0-3.188,0.615-4.418,1.846c-2.598,2.928-3.896,7.856-3.896,14.786c0,6.931,1.299,11.859,3.896,14.787
			c1.23,1.229,2.704,1.846,4.418,1.846c1.715,0,3.188-0.616,4.419-1.846c2.6-2.928,3.896-7.856,3.896-14.787
			c0-6.93-1.297-11.858-3.896-14.786C198.827,202.62,197.354,202.004,195.639,202.004z"/>
	</g>
	<g>
		<path fill="#294172" d="M122.877,225.258c-0.571,0-1.062-0.203-1.468-0.611c-0.408-0.407-0.612-0.897-0.612-1.469
			c0-0.449,0.131-0.857,0.39-1.222L139.9,194.93c0.378-0.57,0.941-0.857,1.688-0.857c0.57,0,1.063,0.205,1.471,0.611
			c0.405,0.407,0.609,0.896,0.609,1.469V221.1h4.155c0.573,0,1.063,0.203,1.471,0.61c0.405,0.407,0.609,0.896,0.609,1.468
			c0,0.571-0.204,1.062-0.609,1.469c-0.408,0.408-0.897,0.611-1.471,0.611h-4.155v8.314c0,0.571-0.204,1.063-0.609,1.469
			c-0.408,0.408-0.9,0.61-1.471,0.61c-0.573,0-1.06-0.202-1.468-0.61c-0.408-0.406-0.612-0.897-0.612-1.469v-8.314H122.877z
			 M139.507,221.1v-18.295L126.854,221.1H139.507z"/>
		<path fill="#294172" d="M154.061,214.863c0-8.315,1.707-14.231,5.119-17.749c2.027-2.026,4.479-3.041,7.354-3.041
			c2.877,0,5.328,1.015,7.353,3.041c3.414,3.518,5.122,9.434,5.122,17.749s-1.708,14.233-5.122,17.749
			c-2.024,2.027-4.476,3.04-7.353,3.04c-2.875,0-5.327-1.013-7.354-3.04C155.768,229.096,154.061,223.178,154.061,214.863z
			 M166.535,198.23c-1.715,0-3.189,0.616-4.419,1.846c-2.599,2.929-3.896,7.857-3.896,14.787c0,6.931,1.298,11.858,3.896,14.786
			c1.229,1.23,2.704,1.846,4.419,1.846c1.714,0,3.187-0.615,4.418-1.846c2.599-2.928,3.898-7.855,3.898-14.786
			c0-6.93-1.3-11.858-3.898-14.787C169.721,198.846,168.249,198.23,166.535,198.23z"/>
		<path fill="#294172" d="M183.167,214.863c0-8.315,1.705-14.231,5.12-17.749c2.026-2.026,4.477-3.041,7.353-3.041
			s5.327,1.015,7.355,3.041c3.412,3.518,5.118,9.434,5.118,17.749s-1.706,14.233-5.118,17.749c-2.028,2.027-4.479,3.04-7.355,3.04
			s-5.326-1.013-7.353-3.04C184.872,229.096,183.167,223.178,183.167,214.863z M195.639,198.23c-1.714,0-3.188,0.616-4.418,1.846
			c-2.598,2.929-3.896,7.857-3.896,14.787c0,6.931,1.299,11.858,3.896,14.786c1.23,1.23,2.704,1.846,4.418,1.846
			c1.715,0,3.188-0.615,4.419-1.846c2.6-2.928,3.896-7.855,3.896-14.786c0-6.93-1.297-11.858-3.896-14.787
			C198.827,198.846,197.354,198.23,195.639,198.23z"/>
	</g>
</g>
</svg>
