<?xml version="1.0" encoding="utf-8"?>
<!-- Generator: Adobe Illustrator 15.1.0, SVG Export Plug-In . SVG Version: 6.00 Build 0)  -->
<!DOCTYPE svg PUBLIC "-//W3C//DTD SVG 1.1//EN" "http://www.w3.org/Graphics/SVG/1.1/DTD/svg11.dtd">
<svg version="1.1" id="Layer_1" xmlns="http://www.w3.org/2000/svg" xmlns:xlink="http://www.w3.org/1999/xlink" x="0px" y="0px"
	 width="302.164px" height="313.394px" viewBox="0 0 302.164 313.394" enable-background="new 0 0 302.164 313.394"
	 xml:space="preserve">
<g>
	<g id="g5241_169_">
		<path id="path35_175_" fill="#3C6EAF" d="M297.137,158.504c0-79.041-64.068-143.116-143.113-143.116
			c-78.999,0-143.05,64.022-143.104,143.018l-0.005-0.005v110.746l0.005,0.007c0.041,17.936,14.586,32.453,32.533,32.453
			c0.051,0,0.102-0.005,0.156-0.005l0.009,0.005h110.466l0,0c79.018-0.033,143.059-64.088,143.059-143.103H297.137z"/>
	</g>
	<g id="g5241_168_">
		<path id="path35_174_" fill="#294172" d="M294.137,151.504c0-79.041-64.068-143.116-143.113-143.116
			C72.024,8.388,7.974,72.41,7.919,151.405L7.914,151.4v110.746l0.005,0.007c0.041,17.936,14.586,32.453,32.533,32.453
			c0.051,0,0.102-0.005,0.156-0.005l0.009,0.005h110.466l0,0c79.018-0.033,143.059-64.088,143.059-143.103H294.137z"/>
	</g>
	<g>
		<path fill="#3C6EAF" d="M47.334,246.587c4.444,0,8.532,1.482,11.837,3.956c-3.61-4.821-9.35-7.956-15.837-7.956
			c-10.933,0-19.794,8.863-19.794,19.797c0,6.486,3.135,12.227,7.957,15.838c-2.475-3.305-3.957-7.394-3.957-11.838
			C27.54,255.45,36.401,246.587,47.334,246.587z"/>
		<path fill="#8AA9D4" d="M63.128,262.384c0-4.446-1.483-8.536-3.957-11.841c-3.305-2.474-7.393-3.956-11.837-3.956
			c-10.933,0-19.794,8.863-19.794,19.797c0,4.444,1.482,8.533,3.957,11.838c3.304,2.473,7.393,3.956,11.837,3.956
			C54.267,282.178,63.128,273.314,63.128,262.384z"/>
	</g>
	<g>
		<path fill="#3C6EAF" d="M42.828,146.314c0-53.769,33.451-99.721,80.677-118.189C69.733,40.753,29.701,89.023,29.701,146.651
			c0,59.174,42.215,108.482,98.172,119.463C78.356,248.831,42.828,201.726,42.828,146.314z"/>
		<path fill="#8AA9D4" d="M273.2,146.651c0-67.244-54.513-121.753-121.754-121.753c-9.615,0-18.969,1.119-27.941,3.227
			C76.279,46.594,42.828,92.546,42.828,146.314c0,55.411,35.528,102.517,85.045,119.8c7.628,1.497,15.507,2.289,23.573,2.289
			C218.688,268.403,273.2,213.892,273.2,146.651z"/>
	</g>
	<text transform="matrix(1 0 0 1 19.333 269.1143)" fill="#E09228" font-family="'BaskOldFace'" font-size="57.4636">IV</text>
</g>
<path fill="#7091CB" d="M120.626,243.441l96.379-1.933v-62.024l44.683-2.866c0,0-45.594-27.048-42.628-27.048
	s17.337-38.582,17.337-38.582l-9.304-1.604c0,0,6.936-32.465,2.405-36.995s-15.441-2.468-15.441,6.882s-24.284,38.318-24.284,31.717
	s5.512-23.76,1.768-27.504s-3.744-3.744-3.744-3.744s10.147-6.625,6.249-10.523s-10.523-12.34-18.386-4.478s-10.234,1.76-31.08,1.76
	S120.626,243.441,120.626,243.441z"/>
<g>
	<g>
		<polygon fill="#E6AB5D" points="146.708,132.484 134.438,112.484 55.315,112.484 74.865,132.484 		"/>
		<rect x="114.005" y="149.484" fill="#EDC58D" width="96" height="99"/>
		<polygon fill="#E6AB5D" points="114.612,149.783 73.005,131.724 73.005,214.03 114.159,248.491 		"/>
		<polygon fill="#EDC58D" points="73.102,131.484 146.47,131.484 212.057,149.414 114.661,149.57 		"/>
		<polygon fill="#E6AB5D" points="146.583,132.959 156.905,108.567 224.763,115.772 208.483,148.877 		"/>
		<polygon fill="#E09228" points="73.102,131.769 48.227,141.982 89.547,177.5 114.661,149.783 		"/>
		<polygon fill="#E09228" points="146.005,131.769 146.005,148.484 207.61,148.484 		"/>
		<polygon fill="#E6AB5D" points="114.883,149.665 149.249,179.569 249.853,174.011 209.057,148.556 		"/>
		<rect x="114.005" y="148.484" fill="#F2DCBC" width="32" height="1"/>
	</g>
	<path fill="#E3EAF3" d="M207.355,78.761c-8.445,20.02-23.126,28.869-30.574,32.228c7.897,2.678,12.759,6.308,12.759,10.31
		c0,8.235-20.55,14.91-45.9,14.91c-25.35,0-35.395-1.423-35.395-9.658c0-3.819-6.081-12.553,1.187-15.191
		c-4.338-0.121-7.825-0.132-9.669,0.038c1.052,0.934,1.682,1.48,1.682,1.48c-3.745-0.824-3.866-1.279-1.682-1.48
		c-4.431-3.937-16.407-14.817-20.86-21.283c-10.438-15.156-13.078-20.496-25.49-14.427c-14.616,7.147,19.585,56.31,41.602,65.361
		c0.856,0.352,1.693,0.643,2.509,0.868l17.139,7.866l0.344-0.299h71c0,0-3.324-6.808-4.488-9.904
		c-0.15-0.396-0.877-0.578-2.031-0.596c10.754-9.572,23.035-20.756,27.87-26.106c7.434-8.226,11.955-25.23,15.469-39.348
		C219.9,65.373,213.382,64.475,207.355,78.761z"/>
	<path fill="#C5D4E9" d="M176.781,110.988c-2.83,1.276-4.621,1.763-4.621,1.763l-19.613,0.976c0,0-27.252-1.924-43.115-2.368
		c-2.984,1.083-3.819,3.203-3.728,5.586c-2.042-0.623-4.26-1.671-4.26-1.671l5.318,6.551c0.608,1.841,1.288,3.534,1.482,4.725
		l-6.801-1.341l8.248,5.757c3.224,16.052,9.727,15.496,33.947,15.496c25.351,0,45.9-16.93,45.9-25.165
		C189.54,117.296,184.679,113.666,176.781,110.988z"/>
	<g>
		<path fill="#E3EAF3" d="M101.444,112.878c0,0-0.63-0.546-1.682-1.48C97.578,111.599,97.699,112.054,101.444,112.878z"/>
		<path fill="#A7BFDF" d="M113.245,113.55c2.981,18.246,7.34,23.673,32.668,22.639c19.695-0.805,40.859-13.025,37.325-16.56
			c-9.37-9.371-11.501-12.179-19.398-14.857c-2.83,1.276,13.32-5.021,13.32-5.021l-19.613,0.976c0,0-27.252-1.924-43.115-2.368
			C107.164,100.998,112.629,109.781,113.245,113.55z"/>
		<path fill="#C5D4E9" d="M224.356,82.114c-0.152-3.333-0.696-6.253-1.532-8.584c-3.514,14.118-8.035,31.122-15.469,39.348
			c-5.183,5.736-18.926,18.178-30.167,28.147c4.362-1.342,8.516-2.937,12.352-4.817C215.738,123.362,225.356,103.929,224.356,82.114
			z"/>
	</g>
	<g>
		<ellipse fill="#294172" cx="94.31" cy="66.33" rx="10.536" ry="11.288"/>
		<path fill="#E3EAF3" d="M116.663,54.914c-18.953,2.677-34.256,36.497-24.097,46.657c10.159,10.159,34.617,29.349,49.668,24.082
			c15.05-5.268,47.409-18.062,39.886-38.379C174.593,66.954,160.685,48.695,116.663,54.914z"/>
		<path fill="#294172" d="M186.634,64.125c0,6.774-4.58,13.493-11.746,13.493s-14.203-10.003-14.203-16.776
			s5.811-8.981,12.975-8.981C180.824,51.86,186.634,57.352,186.634,64.125z"/>
		<path fill="#294172" d="M140.729,78.995c0,0-6.774,8.278,0,15.051c6.772,6.773,28.596,3.011,21.822-3.762
			C155.78,83.51,152.394,67.331,140.729,78.995z"/>
		<ellipse cx="129.547" cy="99.971" rx="6.879" ry="2.353"/>
		<path fill="none" stroke="#3D3930" stroke-width="0.9178" stroke-linecap="round" stroke-miterlimit="10" d="M97.522,97.617
			c0,0,21.784,28.787,74.638,4.707"/>
		<circle cx="108.017" cy="88.134" r="3.209"/>
		<circle fill="#38342D" cx="150.695" cy="89.969" r="3.209"/>
		<circle fill="#FFFBF2" cx="108.245" cy="86.753" r="1.447"/>
		<circle fill="#FFFBF2" cx="151.102" cy="89.556" r="1.445"/>
	</g>
	<path fill="#C5D4E9" d="M161.005,136.311v-7.816c-3-2.968,4.458,6.748,4.458,6.748s4.862-7.004,4.862-8.692
		c0-1.688,3.374,4.88,3.374,4.88l1.657-10.679l4.995,5.799C180.352,126.55,170.005,136.311,161.005,136.311z"/>
	<path fill="#C5D4E9" d="M113.745,130.398c0-2.203,8.923-1.673,8.923-1.673s-5.665,7.319-4.462,6.116
		c1.203-1.202,16.635-2.991,16.635-2.991s-6.845,9.813-9.331,7.326S113.745,133.857,113.745,130.398z"/>
	<path fill="#A7BFDF" d="M172.16,115.173c0.333-1.974,5.041-0.696,6.751-3.404s-3.375,5.566-3.375,5.566s5.88-2.635,7.702-4.457
		s-0.635,6.447-3.057,6.447S171.751,117.595,172.16,115.173z"/>
	<path fill="#C5D4E9" d="M216.628,105.971c0,0,3.035-1.764,4.799,0c2.354,2.353-7.913,4.802-7.913,4.802s11.136,0.543,9.311,2.369
		s-11.732,4.256-11.732,4.256L216.628,105.971z"/>
	<polyline fill="#A7BFDF" points="173.659,115.274 180.352,111.929 171.748,111.292 172.16,115.173 	"/>
	<polygon fill="#A7BFDF" points="115.271,122.732 108.245,120.751 116.773,126.55 	"/>
	<polygon fill="#A7BFDF" points="116.773,123.651 113.745,128.67 119.974,128.494 	"/>
	<polygon fill="#C5D4E9" points="112.639,134.299 106.798,136.484 114.005,136.484 	"/>
	<path fill="#E3EAF3" d="M212.707,94.868c0,0,10.825-4.21,8.305-1.69s-11.28,5.182-9.619,5.182s8.743,0.065,7.197,1.611
		s-7.197,0-7.197,0l4.896,4.802l-7.041,0.414"/>
	<path fill="#E3EAF3" d="M176.05,139.177c0,0-11.166-8.282-4.302-6.096s8.604,3.403,8.604,3.403s-2.951-10.942,0-7.99
		c2.951,2.951,2.951,2.951,2.951,2.951s-2.688-7.909-0.064-5.285s4.534,5.391,4.534,5.391L176.05,139.177z"/>
	<path fill="#E3EAF3" d="M113.227,142.509c0,0,10.037-5.826,5.633-4.499c-4.404,1.328-8.843,1.167-8.843,1.167
		s11.092-2.692,5.988-2.692s-9.197,2.692-9.197,2.692L113.227,142.509z"/>
	<path fill="#C5D4E9" d="M192.045,111.916c0-2.847,3.854-11.607,3.854-4.75c0,6.858,5.105-5.527,5.105-2.393s0,6.711,0,6.711
		l-4.48,3.79l-2.752-3.137L192.045,111.916z"/>
	<path fill="#C5D4E9" d="M74.556,94.708c1.261-2.553,8.597-8.699,5.56-2.551c-3.038,6.149,7.025-2.693,5.638,0.116
		c-1.389,2.81-2.974,6.017-2.974,6.017l-5.695,1.413l-1.078-4.031L74.556,94.708z"/>
	<path fill="#C5D4E9" d="M87.105,123.037c-0.078-2.846,3.535-11.708,3.724-4.853c0.187,6.856,4.952-5.664,5.038-2.532
		c0.085,3.133,0.183,6.709,0.183,6.709l-4.375,3.911l-2.837-3.061L87.105,123.037z"/>
	<path fill="#C5D4E9" d="M206.415,90.285c0,0-9.703,5.631-6.549,2.031s-5.504-4.705-1.027-5c4.476-0.295,3.635-0.779,4.746-2.046
		c1.11-1.267,6.839-0.324,5.345,1.38C207.437,88.355,203.896,88.079,206.415,90.285z"/>
	<g>
		<path fill="#E6AB5D" d="M120.216,224.85c-0.571,0-1.062-0.203-1.468-0.611c-0.408-0.406-0.612-0.896-0.612-1.468
			c0-0.45,0.131-0.858,0.39-1.222l18.713-27.027c0.378-0.57,0.941-0.856,1.688-0.856c0.57,0,1.063,0.204,1.471,0.61
			c0.405,0.408,0.609,0.896,0.609,1.469v24.947h4.155c0.573,0,1.063,0.203,1.471,0.61c0.405,0.407,0.609,0.896,0.609,1.469
			c0,0.571-0.204,1.062-0.609,1.468c-0.408,0.408-0.897,0.611-1.471,0.611h-4.155v8.314c0,0.572-0.204,1.063-0.609,1.47
			c-0.408,0.407-0.9,0.61-1.471,0.61c-0.573,0-1.06-0.203-1.468-0.61s-0.612-0.897-0.612-1.47v-8.314H120.216z M136.846,220.691
			v-18.295l-12.653,18.295H136.846z"/>
		<path fill="#E6AB5D" d="M151.399,214.454c0-8.315,1.707-14.231,5.119-17.749c2.027-2.027,4.479-3.04,7.354-3.04
			c2.877,0,5.328,1.013,7.353,3.04c3.414,3.518,5.122,9.434,5.122,17.749c0,8.316-1.708,14.233-5.122,17.749
			c-2.024,2.027-4.476,3.041-7.353,3.041c-2.875,0-5.327-1.014-7.354-3.041C153.106,228.688,151.399,222.771,151.399,214.454z
			 M163.873,197.822c-1.715,0-3.189,0.615-4.419,1.846c-2.599,2.928-3.896,7.856-3.896,14.786c0,6.931,1.298,11.859,3.896,14.787
			c1.229,1.229,2.704,1.845,4.419,1.845c1.714,0,3.187-0.615,4.418-1.845c2.599-2.928,3.898-7.856,3.898-14.787
			c0-6.93-1.3-11.858-3.898-14.786C167.06,198.438,165.587,197.822,163.873,197.822z"/>
		<path fill="#E6AB5D" d="M180.505,214.454c0-8.315,1.705-14.231,5.12-17.749c2.026-2.027,4.477-3.04,7.353-3.04
			s5.327,1.013,7.355,3.04c3.412,3.518,5.118,9.434,5.118,17.749c0,8.316-1.706,14.233-5.118,17.749
			c-2.028,2.027-4.479,3.041-7.355,3.041s-5.326-1.014-7.353-3.041C182.21,228.688,180.505,222.771,180.505,214.454z
			 M192.978,197.822c-1.714,0-3.188,0.615-4.418,1.846c-2.598,2.928-3.896,7.856-3.896,14.786c0,6.931,1.299,11.859,3.896,14.787
			c1.23,1.229,2.704,1.845,4.418,1.845c1.715,0,3.188-0.615,4.419-1.845c2.6-2.928,3.896-7.856,3.896-14.787
			c0-6.93-1.297-11.858-3.896-14.786C196.165,198.438,194.692,197.822,192.978,197.822z"/>
	</g>
	<g>
		<path fill="#294172" d="M120.216,221.076c-0.571,0-1.062-0.203-1.468-0.611c-0.408-0.407-0.612-0.897-0.612-1.469
			c0-0.449,0.131-0.857,0.39-1.222l18.713-27.026c0.378-0.57,0.941-0.857,1.688-0.857c0.57,0,1.063,0.205,1.471,0.611
			c0.405,0.407,0.609,0.896,0.609,1.469v24.947h4.155c0.573,0,1.063,0.203,1.471,0.61c0.405,0.407,0.609,0.896,0.609,1.468
			c0,0.571-0.204,1.062-0.609,1.469c-0.408,0.408-0.897,0.611-1.471,0.611h-4.155v8.314c0,0.572-0.204,1.063-0.609,1.469
			c-0.408,0.408-0.9,0.61-1.471,0.61c-0.573,0-1.06-0.202-1.468-0.61c-0.408-0.406-0.612-0.896-0.612-1.469v-8.314H120.216z
			 M136.846,216.918v-18.295l-12.653,18.295H136.846z"/>
		<path fill="#294172" d="M151.399,210.681c0-8.315,1.707-14.231,5.119-17.749c2.027-2.026,4.479-3.041,7.354-3.041
			c2.877,0,5.328,1.015,7.353,3.041c3.414,3.518,5.122,9.434,5.122,17.749s-1.708,14.233-5.122,17.749
			c-2.024,2.027-4.476,3.04-7.353,3.04c-2.875,0-5.327-1.013-7.354-3.04C153.106,224.914,151.399,218.996,151.399,210.681z
			 M163.873,194.049c-1.715,0-3.189,0.615-4.419,1.845c-2.599,2.929-3.896,7.857-3.896,14.787c0,6.931,1.298,11.858,3.896,14.786
			c1.229,1.23,2.704,1.846,4.419,1.846c1.714,0,3.187-0.615,4.418-1.846c2.599-2.928,3.898-7.855,3.898-14.786
			c0-6.93-1.3-11.858-3.898-14.787C167.06,194.664,165.587,194.049,163.873,194.049z"/>
		<path fill="#294172" d="M180.505,210.681c0-8.315,1.705-14.231,5.12-17.749c2.026-2.026,4.477-3.041,7.353-3.041
			s5.327,1.015,7.355,3.041c3.412,3.518,5.118,9.434,5.118,17.749s-1.706,14.233-5.118,17.749c-2.028,2.027-4.479,3.04-7.355,3.04
			s-5.326-1.013-7.353-3.04C182.21,224.914,180.505,218.996,180.505,210.681z M192.978,194.049c-1.714,0-3.188,0.615-4.418,1.845
			c-2.598,2.929-3.896,7.857-3.896,14.787c0,6.931,1.299,11.858,3.896,14.786c1.23,1.23,2.704,1.846,4.418,1.846
			c1.715,0,3.188-0.615,4.419-1.846c2.6-2.928,3.896-7.855,3.896-14.786c0-6.93-1.297-11.858-3.896-14.787
			C196.165,194.664,194.692,194.049,192.978,194.049z"/>
	</g>
</g>
</svg>
