<?xml version="1.0" encoding="utf-8"?>
<!-- Generator: Adobe Illustrator 15.1.0, SVG Export Plug-In . SVG Version: 6.00 Build 0)  -->
<!DOCTYPE svg PUBLIC "-//W3C//DTD SVG 1.1//EN" "http://www.w3.org/Graphics/SVG/1.1/DTD/svg11.dtd">
<svg version="1.1" id="Layer_1" xmlns="http://www.w3.org/2000/svg" xmlns:xlink="http://www.w3.org/1999/xlink" x="0px" y="0px"
	 width="308px" height="314.667px" viewBox="0 0 308 314.667" enable-background="new 0 0 308 314.667" xml:space="preserve">
<g>
	<g id="g5241_161_">
		<path id="path35_167_" fill="#3C6EAF" d="M300.798,162.686c0-79.041-64.068-143.116-143.113-143.116
			c-78.999,0-143.05,64.022-143.104,143.018l-0.005-0.005v110.746l0.005,0.007c0.041,17.936,14.586,32.453,32.533,32.453
			c0.051,0,0.102-0.005,0.156-0.005l0.009,0.005h110.466l0,0c79.018-0.033,143.059-64.088,143.059-143.103H300.798z"/>
	</g>
	<g id="g5241_160_">
		<path id="path35_166_" fill="#294172" d="M297.798,155.686c0-79.041-64.068-143.116-143.113-143.116
			c-78.999,0-143.05,64.022-143.104,143.018l-0.005-0.005v110.746l0.005,0.007c0.041,17.936,14.586,32.453,32.533,32.453
			c0.051,0,0.102-0.005,0.156-0.005l0.009,0.005h110.466l0,0c79.018-0.033,143.059-64.088,143.059-143.103H297.798z"/>
	</g>
	<g>
		<path fill="#3C6EAF" d="M50.996,250.769c4.444,0,8.532,1.482,11.837,3.956c-3.61-4.821-9.35-7.956-15.837-7.956
			c-10.933,0-19.794,8.863-19.794,19.797c0,6.486,3.135,12.227,7.957,15.838c-2.475-3.305-3.957-7.394-3.957-11.838
			C31.202,259.632,40.063,250.769,50.996,250.769z"/>
		<path fill="#8AA9D4" d="M66.79,266.566c0-4.446-1.483-8.536-3.957-11.841c-3.305-2.474-7.393-3.956-11.837-3.956
			c-10.933,0-19.794,8.863-19.794,19.797c0,4.444,1.482,8.533,3.957,11.838c3.304,2.473,7.393,3.956,11.837,3.956
			C57.928,286.36,66.79,277.497,66.79,266.566z"/>
	</g>
	<g>
		<path fill="#3C6EAF" d="M46.49,150.497c0-53.769,33.451-99.721,80.677-118.189C73.395,44.935,33.363,93.206,33.363,150.833
			c0,59.174,42.215,108.482,98.172,119.463C82.018,253.013,46.49,205.908,46.49,150.497z"/>
		<path fill="#8AA9D4" d="M276.862,150.833c0-67.244-54.513-121.753-121.754-121.753c-9.615,0-18.969,1.119-27.941,3.227
			C79.941,50.776,46.49,96.728,46.49,150.497c0,55.411,35.528,102.517,85.045,119.8c7.628,1.497,15.507,2.289,23.573,2.289
			C222.349,272.585,276.862,218.074,276.862,150.833z"/>
	</g>
	<text transform="matrix(1 0 0 1 17.2017 275.5854)" fill="#E09228" font-family="'BaskOldFace'" font-size="57.4636">III</text>
</g>
<path fill="#7091CB" d="M128.667,235.667h97v-57l45.439-0.987l-42.572-31.599l6.952-19.511c0,0,21.028,9.214,21.028-5.572
	s-21.564-43.782-37.796-43.452c-25.585,0.521-3.208-16.302-14.291-21.596s-6.301,2.362-17.106,5.971s-20.504,4.033-44.786,4.033
	c-24.282,0-30.626-2.866-20.854,22.571S128.667,235.667,128.667,235.667z"/>
<g>
	<g>
		<polygon fill="#E6AB5D" points="153.37,131.667 141.1,111.667 61.977,111.667 81.527,131.667 		"/>
		<rect x="120.667" y="148.667" fill="#EDC58D" width="96" height="99"/>
		<polygon fill="#E6AB5D" points="121.274,148.965 79.667,130.906 79.667,213.212 120.821,247.673 		"/>
		<polygon fill="#EDC58D" points="79.763,130.667 153.131,130.667 218.718,148.596 121.323,148.752 		"/>
		<polygon fill="#E6AB5D" points="153.245,132.141 163.567,107.75 231.424,114.955 215.145,148.059 		"/>
		<polygon fill="#E09228" points="152.667,130.951 152.667,147.667 214.272,147.667 		"/>
		<rect x="120.667" y="147.667" fill="#F2DCBC" width="32" height="1"/>
	</g>
	<g>
		<path fill="#E3EAF3" d="M210.363,148.738c0,0,0.011-0.209,0.035-0.596c-0.629,0.213-1.246,0.414-1.839,0.594L210.363,148.738z"/>
		<path fill="#E3EAF3" d="M240.018,102.204c-21.3-28.722-56.386-14.634-65.672,1.895c-9.123,16.238-28.203,23.533-37.68,14.056
			c-9.477-9.476-34.482-42.278-56.903-19.856s20.707,21.93,20.707,21.93l20.196,28.438l79.999,0.063
			c1.813-8.94,10.143-46.775,21.352-46.775c12.664,0,13.463,16.378,13.469,16.499C244.737,124.582,247.581,112.402,240.018,102.204z
			"/>
		<path fill="#E3EAF3" d="M200.295,150.614c0,0,3.487-0.427,8.264-1.877l-7.894-0.006
			C200.422,149.928,200.295,150.614,200.295,150.614z"/>
		<path fill="#C5D4E9" d="M222.017,101.955c-11.209,0-19.539,37.834-21.352,46.775l7.894,0.006c0.593-0.18,1.21-0.381,1.839-0.594
			c0.369-5.771,3.844-51.182,21.026-33.188c1.464,1.534,2.818,2.676,4.062,3.499C235.48,118.333,234.681,101.955,222.017,101.955z"
			/>
	</g>
	<path fill="#C5D4E9" d="M121.907,109.111c0,0,26.877,36.549,52.439,22.556s29.855-27.472,29.855-34.514s-7.309-6.793-7.309-6.793
		L121.907,109.111z"/>
	<path fill="#A7BFDF" d="M117.907,102.111c0,0,26.877,36.549,52.439,22.556s29.855-27.472,29.855-34.514s-7.309-6.793-7.309-6.793
		L117.907,102.111z"/>
	<g>
		<ellipse fill="#294172" cx="107.972" cy="63.512" rx="10.536" ry="11.288"/>
		<path fill="#E3EAF3" d="M130.325,52.096c-18.953,2.677-34.256,36.497-24.097,46.657c10.159,10.159,34.617,29.349,49.668,24.082
			c15.05-5.268,47.409-18.062,39.886-38.379C188.254,64.136,174.346,45.877,130.325,52.096z"/>
		<path fill="#294172" d="M200.295,61.308c0,6.774-4.58,13.493-11.746,13.493s-14.203-10.003-14.203-16.776
			s5.811-8.981,12.975-8.981C194.486,49.042,200.295,54.534,200.295,61.308z"/>
		<path fill="#294172" d="M154.391,76.177c0,0-6.774,8.278,0,15.05c6.772,6.773,28.596,3.011,21.822-3.762
			C169.442,80.692,166.055,64.513,154.391,76.177z"/>
		<ellipse cx="143.209" cy="97.153" rx="6.879" ry="2.354"/>
		<path fill="none" stroke="#3D3930" stroke-width="0.9178" stroke-linecap="round" stroke-miterlimit="10" d="M111.184,94.799
			c0,0,21.784,28.787,74.638,4.707"/>
		<circle cx="121.679" cy="85.316" r="3.209"/>
		<circle fill="#38342D" cx="164.357" cy="87.152" r="3.209"/>
		<circle fill="#FFFBF2" cx="121.907" cy="83.935" r="1.447"/>
		<circle fill="#FFFBF2" cx="164.764" cy="86.738" r="1.445"/>
	</g>
	<polygon fill="#E6AB5D" points="121.544,148.847 155.911,178.751 256.514,173.193 215.718,147.738 	"/>
	<path fill="#C5D4E9" d="M83.011,105.608c0,0,14.461-17.111,26.435,6.38S83.011,105.608,83.011,105.608z"/>
	<polygon fill="#E09228" points="79.763,130.951 65.274,101.328 109.446,111.989 121.323,148.965 	"/>
</g>
<g>
	<path fill="#E6AB5D" d="M154.675,220.894c-0.972,0.181-1.977,0.271-3.017,0.271c-4.496,0-8.331-1.587-11.503-4.762
		c-3.176-3.174-4.763-7.009-4.763-11.506c0-4.495,1.586-8.33,4.763-11.506c3.173-3.174,7.007-4.761,11.503-4.761
		s8.333,1.587,11.506,4.761c3.174,3.176,4.762,7.011,4.762,11.506c0,3.322-0.871,6.282-2.61,8.88l-16.639,27.586
		c-0.135,0.249-0.305,0.475-0.51,0.679c-0.542,0.541-1.186,0.813-1.931,0.813s-1.383-0.264-1.915-0.797
		c-0.531-0.53-0.797-1.168-0.797-1.914c0-0.52,0.125-0.983,0.374-1.39L154.675,220.894z M140.814,204.897
		c0,3.006,1.057,5.564,3.169,7.676c2.111,2.112,4.67,3.17,7.675,3.17c3.006,0,5.564-1.058,7.676-3.17
		c2.111-2.111,3.17-4.67,3.17-7.676c0-3.004-1.059-5.563-3.17-7.676c-2.112-2.111-4.67-3.169-7.676-3.169
		c-3.005,0-5.564,1.058-7.675,3.169C141.871,199.333,140.814,201.893,140.814,204.897z"/>
	<path fill="#E6AB5D" d="M173.348,215.743c0-10.846,2.226-18.561,6.676-23.147c2.645-2.644,5.842-3.965,9.592-3.965
		s6.947,1.321,9.592,3.965c4.45,4.587,6.676,12.302,6.676,23.147c0,10.844-2.226,18.561-6.676,23.146
		c-2.645,2.644-5.842,3.965-9.592,3.965s-6.947-1.321-9.592-3.965C175.574,234.303,173.348,226.586,173.348,215.743z
		 M189.616,194.052c-2.235,0-4.158,0.803-5.76,2.405c-3.391,3.82-5.086,10.248-5.086,19.285s1.695,15.465,5.086,19.283
		c1.602,1.604,3.524,2.406,5.76,2.406c2.236,0,4.156-0.803,5.76-2.406c3.392-3.818,5.086-10.246,5.086-19.283
		s-1.694-15.465-5.086-19.285C193.772,194.855,191.852,194.052,189.616,194.052z"/>
</g>
<g>
	<path fill="#294172" d="M153.886,216.698c-0.971,0.181-1.977,0.271-3.016,0.271c-4.496,0-8.331-1.588-11.504-4.763
		c-3.176-3.173-4.763-7.009-4.763-11.505s1.586-8.331,4.763-11.506c3.173-3.175,7.008-4.762,11.504-4.762s8.332,1.587,11.505,4.762
		c3.175,3.175,4.762,7.01,4.762,11.506c0,3.321-0.87,6.281-2.609,8.879l-16.639,27.586c-0.135,0.249-0.305,0.475-0.509,0.678
		c-0.542,0.543-1.186,0.814-1.932,0.814s-1.383-0.265-1.915-0.797c-0.531-0.53-0.796-1.17-0.796-1.915
		c0-0.519,0.125-0.982,0.373-1.39L153.886,216.698z M140.026,200.702c0,3.005,1.056,5.564,3.169,7.676
		c2.111,2.112,4.669,3.168,7.675,3.168c3.006,0,5.564-1.056,7.675-3.168c2.112-2.111,3.17-4.671,3.17-7.676s-1.058-5.564-3.17-7.676
		c-2.111-2.112-4.669-3.17-7.675-3.17c-3.005,0-5.564,1.058-7.675,3.17C141.082,195.137,140.026,197.697,140.026,200.702z"/>
	<path fill="#294172" d="M172.56,211.545c0-10.844,2.226-18.56,6.676-23.146c2.644-2.644,5.841-3.965,9.592-3.965
		s6.947,1.321,9.591,3.965c4.451,4.587,6.677,12.303,6.677,23.146c0,10.846-2.226,18.561-6.677,23.147
		c-2.644,2.644-5.84,3.966-9.591,3.966s-6.948-1.322-9.592-3.966C174.786,230.106,172.56,222.391,172.56,211.545z M188.828,189.856
		c-2.235,0-4.158,0.803-5.761,2.406c-3.39,3.82-5.085,10.246-5.085,19.283c0,9.039,1.695,15.466,5.085,19.284
		c1.603,1.604,3.525,2.406,5.761,2.406s4.157-0.802,5.761-2.406c3.391-3.818,5.085-10.245,5.085-19.284
		c0-9.037-1.694-15.463-5.085-19.283C192.985,190.659,191.063,189.856,188.828,189.856z"/>
</g>
</svg>
