<?xml version="1.0" encoding="utf-8"?>
<!-- Generator: Adobe Illustrator 15.1.0, SVG Export Plug-In . SVG Version: 6.00 Build 0)  -->
<!DOCTYPE svg PUBLIC "-//W3C//DTD SVG 1.1//EN" "http://www.w3.org/Graphics/SVG/1.1/DTD/svg11.dtd">
<svg version="1.1" id="Layer_1" xmlns="http://www.w3.org/2000/svg" xmlns:xlink="http://www.w3.org/1999/xlink" x="0px" y="0px"
	 width="302.164px" height="313.394px" viewBox="0 0 302.164 313.394" enable-background="new 0 0 302.164 313.394"
	 xml:space="preserve">
<g>
	<g id="g5241_159_">
		<path id="path35_165_" fill="#3C6EAF" d="M296.137,160.504c0-79.041-64.068-143.116-143.113-143.116
			c-78.999,0-143.05,64.022-143.104,143.018L9.914,160.4v110.746l0.005,0.007c0.041,17.936,14.586,32.453,32.533,32.453
			c0.051,0,0.102-0.005,0.156-0.005l0.009,0.005h110.466l0,0c79.018-0.033,143.059-64.088,143.059-143.103H296.137z"/>
	</g>
	<g id="g5241_158_">
		<path id="path35_164_" fill="#294172" d="M293.137,153.504c0-79.041-64.068-143.116-143.113-143.116
			c-78.999,0-143.05,64.022-143.104,143.018L6.914,153.4v110.746l0.005,0.007c0.041,17.936,14.586,32.453,32.533,32.453
			c0.051,0,0.102-0.005,0.156-0.005l0.009,0.005h110.466l0,0c79.018-0.033,143.059-64.088,143.059-143.103H293.137z"/>
	</g>
	<g>
		<path fill="#3C6EAF" d="M46.334,248.587c4.444,0,8.532,1.482,11.837,3.956c-3.61-4.821-9.35-7.956-15.837-7.956
			c-10.933,0-19.794,8.863-19.794,19.797c0,6.486,3.135,12.227,7.957,15.838c-2.475-3.305-3.957-7.394-3.957-11.838
			C26.54,257.45,35.401,248.587,46.334,248.587z"/>
		<path fill="#8AA9D4" d="M62.128,264.384c0-4.446-1.483-8.536-3.957-11.841c-3.305-2.474-7.393-3.956-11.837-3.956
			c-10.933,0-19.794,8.863-19.794,19.797c0,4.444,1.482,8.533,3.957,11.838c3.304,2.473,7.393,3.956,11.837,3.956
			C53.267,284.178,62.128,275.314,62.128,264.384z"/>
	</g>
	<g>
		<path fill="#3C6EAF" d="M41.828,148.314c0-53.769,33.451-99.721,80.677-118.189C68.733,42.753,28.701,91.023,28.701,148.651
			c0,59.174,42.215,108.482,98.172,119.463C77.356,250.831,41.828,203.726,41.828,148.314z"/>
		<path fill="#8AA9D4" d="M272.2,148.651c0-67.244-54.513-121.753-121.754-121.753c-9.615,0-18.969,1.119-27.941,3.227
			C75.279,48.594,41.828,94.546,41.828,148.314c0,55.411,35.528,102.517,85.045,119.8c7.628,1.497,15.507,2.289,23.573,2.289
			C217.688,270.403,272.2,215.892,272.2,148.651z"/>
	</g>
	<text transform="matrix(1 0 0 1 32.7725 275.4033)" fill="#E09228" font-family="'BaskOldFace'" font-size="57.4636">I</text>
</g>
<g>
	<g>
		<polygon fill="#E09228" points="105.96,133.276 86.873,156.484 212.143,156.484 190.648,133.372 		"/>
		<polygon fill="#E6AB5D" points="105.96,133.669 87.703,95.753 64.335,115.489 86.873,157.27 		"/>
		<polygon fill="#EDC58D" points="191.417,133.669 209.674,95.753 233.042,115.489 210.503,157.27 		"/>
		<rect x="107.005" y="132.484" fill="#E6AB5D" width="83" height="24"/>
	</g>
	<ellipse fill="#294172" cx="109.31" cy="58.33" rx="10.536" ry="11.288"/>
	<path fill="#E3EAF3" d="M131.663,46.914c-18.953,2.677-34.256,36.497-24.097,46.657c10.159,10.159,34.617,29.349,49.668,24.082
		c15.05-5.268,47.409-18.062,39.886-38.379C189.593,58.954,175.685,40.695,131.663,46.914z"/>
	<path fill="#294172" d="M201.634,56.125c0,6.774-4.58,13.493-11.746,13.493s-14.203-10.003-14.203-16.776s5.811-8.981,12.975-8.981
		C195.824,43.86,201.634,49.352,201.634,56.125z"/>
	<path fill="#294172" d="M155.729,70.995c0,0-6.774,8.278,0,15.051c6.772,6.773,28.596,3.011,21.822-3.762
		C170.78,75.51,167.394,59.331,155.729,70.995z"/>
	<ellipse cx="144.547" cy="91.971" rx="6.879" ry="2.353"/>
	<path fill="none" stroke="#3D3930" stroke-width="0.9178" stroke-linecap="round" stroke-miterlimit="10" d="M112.522,89.617
		c0,0,21.784,28.787,74.638,4.707"/>
	<circle cx="123.017" cy="80.134" r="3.209"/>
	<circle fill="#38342D" cx="165.695" cy="81.969" r="3.209"/>
	<circle fill="#FFFBF2" cx="123.245" cy="78.753" r="1.447"/>
	<circle fill="#FFFBF2" cx="166.102" cy="81.556" r="1.445"/>
	<path fill="#E3EAF3" d="M145.982,118.946l-5.489,14.253c0,0,10.638,7.961,16.484,2.115c5.846-5.846,5.846-5.846,5.846-5.846
		l-8.725-10.123L145.982,118.946z"/>
	<path fill="none" stroke="#3D3930" stroke-width="0.9178" stroke-linecap="round" stroke-miterlimit="10" d="M145.982,118.946
		l8.116,0.399c0,0-7.447,18.016,0,25.464c7.449,7.448,19.056,15.251,6.788,27.896c-12.269,12.646-2.038,24.892,1.6,28.528"/>
	<rect x="87.005" y="156.484" fill="#EDC58D" width="124" height="81"/>
	<g>
		<path fill="#E6AB5D" d="M161.774,171.659c0.779,0,1.446,0.278,2,0.832c0.555,0.556,0.832,1.222,0.832,2.001
			c0,0.778-0.277,1.445-0.832,2c-0.554,0.555-1.221,0.832-2,0.832h-22.66v14.163h9.913c5.075,0,9.413,1.8,13.013,5.399
			c3.599,3.601,5.399,7.938,5.399,13.012c0,5.076-1.801,9.412-5.399,13.012c-3.6,3.602-7.938,5.4-13.013,5.4
			s-9.412-1.799-13.012-5.4c-3.6-3.6-5.399-7.936-5.399-13.012c0-0.779,0.277-1.445,0.832-2s1.222-0.832,2-0.832
			c0.779,0,1.446,0.277,2.001,0.832s0.832,1.221,0.832,2c0,3.518,1.245,6.521,3.735,9.012c2.491,2.49,5.494,3.734,9.011,3.734
			c3.518,0,6.521-1.244,9.012-3.734c2.49-2.49,3.735-5.494,3.735-9.012c0-3.516-1.245-6.521-3.735-9.012
			c-2.491-2.488-5.494-3.734-9.012-3.734h-12.746c-0.779,0-1.445-0.277-2-0.832s-0.833-1.222-0.833-2v-19.828
			c0-0.779,0.278-1.445,0.833-2.001c0.555-0.554,1.221-0.832,2-0.832H161.774z"/>
	</g>
	<g>
		<path fill="#294172" d="M164.173,167.851c0.779,0,1.446,0.278,2,0.832c0.555,0.556,0.832,1.222,0.832,2.001
			c0,0.778-0.277,1.445-0.832,2c-0.554,0.555-1.221,0.832-2,0.832h-22.66v14.163h9.913c5.075,0,9.413,1.8,13.013,5.399
			c3.599,3.601,5.399,7.938,5.399,13.012c0,5.076-1.801,9.412-5.399,13.012c-3.6,3.602-7.938,5.4-13.013,5.4
			s-9.412-1.799-13.012-5.4c-3.6-3.6-5.399-7.936-5.399-13.012c0-0.779,0.277-1.445,0.832-2s1.222-0.832,2-0.832
			c0.779,0,1.446,0.277,2.001,0.832s0.832,1.221,0.832,2c0,3.518,1.245,6.521,3.735,9.012c2.491,2.49,5.494,3.734,9.011,3.734
			c3.518,0,6.521-1.244,9.012-3.734c2.49-2.49,3.735-5.494,3.735-9.012c0-3.516-1.245-6.521-3.735-9.012
			c-2.491-2.488-5.494-3.734-9.012-3.734H138.68c-0.779,0-1.445-0.277-2-0.832s-0.833-1.222-0.833-2v-19.828
			c0-0.779,0.278-1.445,0.833-2.001c0.555-0.554,1.221-0.832,2-0.832H164.173z"/>
	</g>
</g>
</svg>
