<?xml version="1.0" encoding="utf-8"?>
<!-- Generator: Adobe Illustrator 15.1.0, SVG Export Plug-In . SVG Version: 6.00 Build 0)  -->
<!DOCTYPE svg PUBLIC "-//W3C//DTD SVG 1.1//EN" "http://www.w3.org/Graphics/SVG/1.1/DTD/svg11.dtd">
<svg version="1.1" id="Layer_1" xmlns="http://www.w3.org/2000/svg" xmlns:xlink="http://www.w3.org/1999/xlink" x="0px" y="0px"
	 width="308px" height="314.667px" viewBox="0 0 308 314.667" enable-background="new 0 0 308 314.667" xml:space="preserve">
<path fill-rule="evenodd" clip-rule="evenodd" fill="#7091CB" d="M147.526,51.726c8.949,1.021,7.752,13.94,7.752,13.94h-21.611
	C133.667,65.667,132.883,50.056,147.526,51.726z"/>
<g>
	<g>
		<g id="g5241_201_">
			<path id="path35_207_" fill="#3C6EAF" d="M299.798,162.686c0-79.041-64.068-143.116-143.113-143.116
				c-78.999,0-143.05,64.022-143.104,143.018l-0.005-0.005v110.746l0.005,0.007c0.041,17.936,14.586,32.453,32.533,32.453
				c0.051,0,0.102-0.005,0.156-0.005l0.009,0.005h110.466l0,0c79.018-0.033,143.059-64.088,143.059-143.103H299.798z"/>
		</g>
		<g id="g5241_200_">
			<path id="path35_206_" fill="#294172" d="M296.798,155.686c0-79.041-64.068-143.116-143.113-143.116
				c-78.999,0-143.05,64.022-143.104,143.018l-0.005-0.005v110.746l0.005,0.007c0.041,17.936,14.586,32.453,32.533,32.453
				c0.051,0,0.102-0.005,0.156-0.005l0.009,0.005h110.466l0,0c79.018-0.033,143.059-64.088,143.059-143.103H296.798z"/>
		</g>
		<g>
			<path fill="#3C6EAF" d="M49.996,250.769c4.444,0,8.532,1.482,11.837,3.956c-3.61-4.821-9.35-7.956-15.837-7.956
				c-10.933,0-19.794,8.863-19.794,19.797c0,6.486,3.135,12.227,7.957,15.838c-2.475-3.305-3.957-7.394-3.957-11.838
				C30.202,259.632,39.063,250.769,49.996,250.769z"/>
			<path fill="#8AA9D4" d="M65.79,266.566c0-4.446-1.483-8.536-3.957-11.841c-3.305-2.474-7.393-3.956-11.837-3.956
				c-10.933,0-19.794,8.863-19.794,19.797c0,4.444,1.482,8.533,3.957,11.838c3.304,2.473,7.393,3.956,11.837,3.956
				C56.928,286.36,65.79,277.497,65.79,266.566z"/>
		</g>
		<g>
			<path fill="#3C6EAF" d="M45.49,150.497c0-53.769,33.451-99.721,80.677-118.189C72.395,44.935,32.363,93.206,32.363,150.833
				c0,59.174,42.215,108.482,98.172,119.463C81.018,253.013,45.49,205.908,45.49,150.497z"/>
			<path fill="#8AA9D4" d="M275.862,150.833c0-67.244-54.513-121.753-121.754-121.753c-9.615,0-18.969,1.119-27.941,3.227
				C78.941,50.776,45.49,96.728,45.49,150.497c0,55.411,35.528,102.517,85.045,119.8c7.628,1.497,15.507,2.289,23.573,2.289
				C221.349,272.585,275.862,218.074,275.862,150.833z"/>
		</g>
		<text transform="matrix(1 0 0 1 26.2017 279.5854)" fill="#DF6495" font-family="'BaskOldFace'" font-size="57.4636">V</text>
	</g>
	<rect x="225.667" y="195.667" fill="#7091CB" width="24" height="24"/>
	<rect x="225.667" y="167.667" fill="#7091CB" width="24" height="24"/>
	<rect x="224.667" y="139.667" fill="#7091CB" width="24" height="24"/>
	<rect x="224.667" y="111.667" fill="#7091CB" width="24" height="24"/>
	<rect x="222.667" y="82.667" fill="#7091CB" width="24" height="24"/>
	<rect x="191.667" y="57.667" fill="#7091CB" width="24" height="24"/>
	<rect x="154.667" y="56.667" fill="#7091CB" width="24" height="24"/>
	<rect x="123.667" y="55.667" fill="#7091CB" width="24" height="24"/>
	<rect x="187.667" y="195.667" fill="#7091CB" width="24" height="24"/>
	<rect x="187.667" y="167.667" fill="#7091CB" width="24" height="24"/>
	<rect x="186.667" y="139.667" fill="#7091CB" width="24" height="24"/>
	<rect x="186.667" y="111.667" fill="#7091CB" width="24" height="24"/>
	<rect x="184.667" y="82.667" fill="#7091CB" width="24" height="24"/>
	<rect x="156.667" y="195.667" fill="#7091CB" width="24" height="24"/>
	<rect x="156.667" y="167.667" fill="#7091CB" width="24" height="24"/>
	<rect x="155.667" y="139.667" fill="#7091CB" width="24" height="24"/>
	<rect x="155.667" y="111.667" fill="#7091CB" width="24" height="24"/>
	<rect x="153.667" y="82.667" fill="#7091CB" width="24" height="24"/>
	<rect x="125.667" y="195.667" fill="#7091CB" width="24" height="24"/>
	<rect x="125.667" y="167.667" fill="#7091CB" width="24" height="24"/>
	<rect x="124.667" y="139.667" fill="#7091CB" width="24" height="24"/>
	<rect x="124.667" y="111.667" fill="#7091CB" width="24" height="24"/>
	<rect x="122.667" y="82.667" fill="#7091CB" width="24" height="24"/>
	<rect x="94.667" y="195.667" fill="#7091CB" width="24" height="24"/>
	<rect x="94.667" y="167.667" fill="#7091CB" width="24" height="24"/>
	<rect x="93.667" y="139.667" fill="#7091CB" width="24" height="24"/>
	<rect x="93.667" y="111.667" fill="#7091CB" width="24" height="24"/>
	<rect x="91.667" y="82.667" fill="#7091CB" width="24" height="24"/>
	<g>
		<g>
			<rect x="216.667" y="91.667" fill="#EDC58D" width="19" height="19"/>
			<polygon fill="#E6AB5D" points="235.538,91.667 216.977,91.667 230.863,89.667 241.883,89.667 			"/>
			<polygon fill="#E09228" points="241.667,88.915 235.667,91.668 235.667,110.229 241.667,104.16 			"/>
		</g>
		<g>
			<rect x="183.667" y="91.667" fill="#EDC58D" width="18" height="19"/>
			<polygon fill="#E6AB5D" points="202.129,91.667 183.569,91.667 197.455,89.667 208.475,89.667 			"/>
			<polygon fill="#E09228" points="208.667,88.915 201.667,91.668 201.667,110.229 208.667,104.16 			"/>
		</g>
		<g>
			<rect x="149.667" y="91.667" fill="#EDC58D" width="18" height="19"/>
			<polygon fill="#E6AB5D" points="168.265,91.667 149.706,91.667 163.59,89.667 174.612,89.667 			"/>
			<polygon fill="#E09228" points="174.667,88.915 167.667,91.668 167.667,110.229 174.667,104.16 			"/>
		</g>
		<g>
			<rect x="115.667" y="91.667" fill="#EDC58D" width="19" height="19"/>
			<polygon fill="#E6AB5D" points="134.401,91.667 115.841,91.667 129.727,89.667 140.748,89.667 			"/>
			<polygon fill="#E09228" points="140.667,88.915 134.667,91.668 134.667,110.229 140.667,104.16 			"/>
		</g>
		<g>
			<rect x="81.667" y="91.667" fill="#EDC58D" width="19" height="19"/>
			<polygon fill="#E6AB5D" points="100.538,91.667 81.977,91.667 95.863,89.667 106.883,89.667 			"/>
			<polygon fill="#E09228" points="106.667,88.915 100.667,91.668 100.667,110.229 106.667,104.16 			"/>
		</g>
		<g>
			<rect x="216.667" y="120.667" fill="#EDC58D" width="19" height="19"/>
			<polygon fill="#E6AB5D" points="235.538,120.667 216.977,120.667 230.863,118.667 241.883,118.667 			"/>
			<polygon fill="#E09228" points="241.667,117.915 235.667,120.668 235.667,139.229 241.667,133.16 			"/>
		</g>
		<g>
			<rect x="183.667" y="120.667" fill="#EDC58D" width="18" height="19"/>
			<polygon fill="#E6AB5D" points="202.129,120.667 183.569,120.667 197.455,118.667 208.475,118.667 			"/>
			<polygon fill="#E09228" points="208.667,117.915 201.667,120.668 201.667,139.229 208.667,133.16 			"/>
		</g>
		<g>
			<rect x="149.667" y="120.667" fill="#EDC58D" width="18" height="19"/>
			<polygon fill="#E6AB5D" points="168.265,120.667 149.706,120.667 163.59,118.667 174.612,118.667 			"/>
			<polygon fill="#E09228" points="174.667,117.915 167.667,120.668 167.667,139.229 174.667,133.16 			"/>
		</g>
		<g>
			<rect x="115.667" y="120.667" fill="#EDC58D" width="19" height="19"/>
			<polygon fill="#E6AB5D" points="134.401,120.667 115.841,120.667 129.727,118.667 140.748,118.667 			"/>
			<polygon fill="#E09228" points="140.667,117.915 134.667,120.668 134.667,139.229 140.667,133.16 			"/>
		</g>
		<g>
			<rect x="81.667" y="120.667" fill="#EDC58D" width="19" height="19"/>
			<polygon fill="#E6AB5D" points="100.538,120.667 81.977,120.667 95.863,118.667 106.883,118.667 			"/>
			<polygon fill="#E09228" points="106.667,117.915 100.667,120.668 100.667,139.229 106.667,133.16 			"/>
		</g>
		<g>
			<rect x="216.667" y="147.667" fill="#EDC58D" width="19" height="19"/>
			<polygon fill="#E6AB5D" points="235.937,147.667 217.377,147.667 231.262,145.667 242.284,145.667 			"/>
			<polygon fill="#E09228" points="241.667,144.915 235.667,147.668 235.667,166.229 241.667,160.16 			"/>
		</g>
		<g>
			<rect x="183.667" y="147.667" fill="#EDC58D" width="18" height="19"/>
			<polygon fill="#E6AB5D" points="202.53,147.667 183.969,147.667 197.854,145.667 208.875,145.667 			"/>
			<polygon fill="#E09228" points="208.667,144.915 201.667,147.668 201.667,166.229 208.667,160.16 			"/>
		</g>
		<g>
			<rect x="149.667" y="147.667" fill="#EDC58D" width="18" height="19"/>
			<polygon fill="#E6AB5D" points="168.665,147.667 150.105,147.667 163.991,145.667 175.012,145.667 			"/>
			<polygon fill="#E09228" points="174.667,144.915 167.667,147.668 167.667,166.229 174.667,160.16 			"/>
		</g>
		<g>
			<rect x="115.667" y="147.667" fill="#EDC58D" width="19" height="19"/>
			<polygon fill="#E6AB5D" points="134.801,147.667 116.241,147.667 130.126,145.667 141.147,145.667 			"/>
			<polygon fill="#E09228" points="140.667,144.915 134.667,147.668 134.667,166.229 140.667,160.16 			"/>
		</g>
		<g>
			<rect x="81.667" y="147.667" fill="#EDC58D" width="19" height="19"/>
			<polygon fill="#E6AB5D" points="100.938,147.667 82.377,147.667 96.262,145.667 107.284,145.667 			"/>
			<polygon fill="#E09228" points="106.667,144.915 100.667,147.668 100.667,166.229 106.667,160.16 			"/>
		</g>
		<g>
			<rect x="216.667" y="173.667" fill="#EDC58D" width="19" height="19"/>
			<polygon fill="#E6AB5D" points="235.538,173.667 216.977,173.667 230.863,171.667 241.883,171.667 			"/>
			<polygon fill="#E09228" points="241.667,170.915 235.667,173.668 235.667,192.229 241.667,186.16 			"/>
		</g>
		<g>
			<rect x="183.667" y="173.667" fill="#EDC58D" width="18" height="19"/>
			<polygon fill="#E6AB5D" points="202.129,173.667 183.569,173.667 197.455,171.667 208.475,171.667 			"/>
			<polygon fill="#E09228" points="208.667,170.915 201.667,173.668 201.667,192.229 208.667,186.16 			"/>
		</g>
		<g>
			<rect x="149.667" y="173.667" fill="#EDC58D" width="18" height="19"/>
			<polygon fill="#E6AB5D" points="168.265,173.667 149.706,173.667 163.59,171.667 174.612,171.667 			"/>
			<polygon fill="#E09228" points="174.667,170.915 167.667,173.668 167.667,192.229 174.667,186.16 			"/>
		</g>
		<g>
			<rect x="115.667" y="173.667" fill="#EDC58D" width="19" height="19"/>
			<polygon fill="#E6AB5D" points="134.401,173.667 115.841,173.667 129.727,171.667 140.748,171.667 			"/>
			<polygon fill="#E09228" points="140.667,170.915 134.667,173.668 134.667,192.229 140.667,186.16 			"/>
		</g>
		<g>
			<rect x="81.667" y="173.667" fill="#EDC58D" width="19" height="19"/>
			<polygon fill="#E6AB5D" points="100.538,173.667 81.977,173.667 95.863,171.667 106.883,171.667 			"/>
			<polygon fill="#E09228" points="106.667,170.915 100.667,173.668 100.667,192.229 106.667,186.16 			"/>
		</g>
		<g>
			<rect x="216.667" y="200.667" fill="#EDC58D" width="19" height="19"/>
			<polygon fill="#E6AB5D" points="235.538,200.667 216.977,200.667 230.863,198.667 241.883,198.667 			"/>
			<polygon fill="#E09228" points="241.667,197.915 235.667,200.668 235.667,219.229 241.667,213.16 			"/>
		</g>
		<g>
			<rect x="112.667" y="230.667" fill="#EDC58D" width="19" height="19"/>
			<polygon fill="#E6AB5D" points="131.538,230.667 112.977,230.667 126.863,228.667 137.883,228.667 			"/>
			<polygon fill="#E09228" points="137.667,227.915 131.667,230.668 131.667,249.229 137.667,243.16 			"/>
		</g>
		<g>
			<rect x="146.667" y="230.667" fill="#EDC58D" width="19" height="19"/>
			<polygon fill="#E6AB5D" points="165.538,230.667 146.977,230.667 160.863,228.667 171.883,228.667 			"/>
			<polygon fill="#E09228" points="171.667,227.915 165.667,230.668 165.667,249.229 171.667,243.16 			"/>
		</g>
		<g>
			<rect x="180.667" y="230.667" fill="#EDC58D" width="19" height="19"/>
			<polygon fill="#E6AB5D" points="199.538,230.667 180.977,230.667 194.863,228.667 205.883,228.667 			"/>
			<polygon fill="#E09228" points="205.667,227.915 199.667,230.668 199.667,249.229 205.667,243.16 			"/>
		</g>
		<g>
			<rect x="116.667" y="62.667" fill="#EDC58D" width="19" height="19"/>
			<polygon fill="#E6AB5D" points="135.538,62.667 116.977,62.667 130.863,60.667 141.883,60.667 			"/>
			<polygon fill="#E09228" points="141.667,59.915 135.667,62.668 135.667,81.229 141.667,75.16 			"/>
		</g>
		<g>
			<rect x="150.667" y="62.667" fill="#EDC58D" width="19" height="19"/>
			<polygon fill="#E6AB5D" points="169.538,62.667 150.977,62.667 164.863,60.667 175.883,60.667 			"/>
			<polygon fill="#E09228" points="175.667,59.915 169.667,62.668 169.667,81.229 175.667,75.16 			"/>
		</g>
		<g>
			<rect x="184.667" y="62.667" fill="#EDC58D" width="19" height="19"/>
			<polygon fill="#E6AB5D" points="203.538,62.667 184.977,62.667 198.863,60.667 209.883,60.667 			"/>
			<polygon fill="#E09228" points="209.667,59.915 203.667,62.668 203.667,81.229 209.667,75.16 			"/>
		</g>
		<g>
			<rect x="183.667" y="200.667" fill="#EDC58D" width="18" height="19"/>
			<polygon fill="#E6AB5D" points="202.129,200.667 183.569,200.667 197.455,198.667 208.475,198.667 			"/>
			<polygon fill="#E09228" points="208.667,197.915 201.667,200.668 201.667,219.229 208.667,213.16 			"/>
		</g>
		<g>
			<rect x="149.667" y="200.667" fill="#EDC58D" width="18" height="19"/>
			<polygon fill="#E6AB5D" points="168.265,200.667 149.706,200.667 163.59,198.667 174.612,198.667 			"/>
			<polygon fill="#E09228" points="174.667,197.915 167.667,200.668 167.667,219.229 174.667,213.16 			"/>
		</g>
		<g>
			<rect x="115.667" y="200.667" fill="#EDC58D" width="19" height="19"/>
			<polygon fill="#E6AB5D" points="134.401,200.667 115.841,200.667 129.727,198.667 140.748,198.667 			"/>
			<polygon fill="#E09228" points="140.667,197.915 134.667,200.668 134.667,219.229 140.667,213.16 			"/>
		</g>
		<g>
			<rect x="81.667" y="200.667" fill="#EDC58D" width="19" height="19"/>
			<polygon fill="#E6AB5D" points="100.538,200.667 81.977,200.667 95.863,198.667 106.883,198.667 			"/>
			<polygon fill="#E09228" points="106.667,197.915 100.667,200.668 100.667,219.229 106.667,213.16 			"/>
		</g>
		<g>
			<path fill="#E3EAF3" d="M227.017,239.06c7.434-8.226,11.955-25.23,15.469-39.349c-2.924-8.156-9.442-9.055-15.469,5.231
				c-8.445,20.02-23.126,28.869-30.574,32.228c7.897,2.678,12.759,6.308,12.759,10.31c0,8.235-20.55,14.91-45.9,14.91
				c-25.35,0-35.395-1.423-35.395-9.657c0-3.819-6.081-12.553,1.187-15.191c-4.338-0.121-7.825-0.132-9.669,0.038
				c1.052,0.935,1.682,1.48,1.682,1.48c-3.745-0.824-3.866-1.278-1.682-1.48c-4.431-3.937-16.407-14.817-20.86-21.283
				C88.125,201.14,85.486,195.8,73.074,201.87c-15.184,7.425,19.731,54.378,45.249,63.893c20.868,7.781,53.096,9.27,78.527,1.445
				C208.091,257.238,221.834,244.795,227.017,239.06z"/>
			<path fill="#C5D4E9" d="M196.443,237.17c-2.83,1.275-4.621,1.764-4.621,1.764l-19.613,0.976c0,0-27.252-1.925-43.115-2.368
				c-2.984,1.083-3.819,3.203-3.728,5.586c-2.042-0.623-4.26-1.671-4.26-1.671l5.318,6.551c0.608,1.841,1.288,3.534,1.482,4.726
				l-6.801-1.342l8.248,5.758c3.224,16.052,9.727,15.495,33.947,15.495c25.351,0,45.9-16.929,45.9-25.164
				C209.202,243.478,204.34,239.848,196.443,237.17z"/>
			<g>
				<path fill="#E3EAF3" d="M121.106,239.06c0,0-0.63-0.546-1.682-1.48C117.24,237.782,117.361,238.236,121.106,239.06z"/>
				<path fill="#A7BFDF" d="M132.907,239.733c2.981,18.245,7.34,23.673,32.668,22.639c19.695-0.805,40.859-13.025,37.325-16.56
					c-9.37-9.37-11.501-12.179-19.398-14.856c-2.83,1.275,13.32-5.021,13.32-5.021l-19.613,0.976c0,0-27.252-1.925-43.115-2.368
					C126.826,227.18,132.291,235.963,132.907,239.733z"/>
				<path fill="#C5D4E9" d="M244.018,208.296c-0.152-3.332-0.696-6.253-1.532-8.585c-3.514,14.118-8.035,31.123-15.469,39.349
					c-5.183,5.735-18.926,18.178-30.167,28.147c4.362-1.342,8.516-2.937,12.352-4.817
					C235.4,249.544,245.018,230.111,244.018,208.296z"/>
			</g>
			<g>
				<ellipse fill="#294172" cx="113.972" cy="192.512" rx="10.536" ry="11.288"/>
				<path fill="#E3EAF3" d="M136.325,181.096c-18.953,2.677-34.256,36.497-24.097,46.656c10.159,10.16,34.617,29.35,49.668,24.082
					c15.05-5.268,47.409-18.062,39.886-38.379C194.254,193.136,180.346,174.877,136.325,181.096z"/>
				<path fill="#294172" d="M206.295,190.307c0,6.775-4.58,13.493-11.746,13.493s-14.203-10.003-14.203-16.776
					s5.811-8.981,12.975-8.981C200.486,178.042,206.295,183.534,206.295,190.307z"/>
				<path fill="#294172" d="M160.391,205.177c0,0-6.774,8.278,0,15.05c6.772,6.773,28.596,3.012,21.822-3.762
					C175.442,209.692,172.055,193.512,160.391,205.177z"/>
				<ellipse cx="149.209" cy="226.153" rx="6.879" ry="2.354"/>
				<path fill="none" stroke="#3D3930" stroke-width="0.9178" stroke-linecap="round" stroke-miterlimit="10" d="M117.184,223.799
					c0,0,21.784,28.787,74.638,4.707"/>
				<circle cx="127.679" cy="214.316" r="3.209"/>
				<circle fill="#38342D" cx="170.357" cy="216.152" r="3.209"/>
				<circle fill="#FFFBF2" cx="127.907" cy="212.935" r="1.447"/>
				<circle fill="#FFFBF2" cx="170.764" cy="215.738" r="1.445"/>
			</g>
			<path fill="#C5D4E9" d="M180.667,262.493v-7.816c-3-2.968,4.458,6.748,4.458,6.748s4.862-7.004,4.862-8.691
				c0-1.689,3.374,4.88,3.374,4.88l1.657-10.679l4.995,5.799C200.013,252.733,189.667,262.493,180.667,262.493z"/>
			<path fill="#C5D4E9" d="M133.407,256.581c0-2.203,8.923-1.673,8.923-1.673s-5.665,7.319-4.462,6.116
				c1.203-1.202,16.635-2.991,16.635-2.991s-6.845,9.813-9.331,7.326S133.407,260.04,133.407,256.581z"/>
			<path fill="#A7BFDF" d="M191.822,241.355c0.333-1.974,5.041-0.696,6.751-3.404s-3.375,5.566-3.375,5.566s5.88-2.635,7.702-4.457
				s-0.635,6.447-3.057,6.447S191.413,243.777,191.822,241.355z"/>
			<path fill="#C5D4E9" d="M236.29,232.153c0,0,3.035-1.764,4.799,0c2.354,2.354-7.913,4.803-7.913,4.803s11.136,0.543,9.311,2.368
				s-11.732,4.256-11.732,4.256L236.29,232.153z"/>
			<polyline fill="#A7BFDF" points="193.321,241.457 200.013,238.111 191.41,237.474 191.822,241.355 			"/>
			<polygon fill="#A7BFDF" points="134.933,248.915 127.907,246.934 136.435,252.733 			"/>
			<polygon fill="#A7BFDF" points="136.435,249.833 133.407,254.852 139.635,254.676 			"/>
			<polygon fill="#C5D4E9" points="132.3,260.481 126.459,262.667 133.667,262.667 			"/>
			<path fill="#E3EAF3" d="M232.369,221.05c0,0,10.825-4.21,8.305-1.69s-11.28,5.182-9.619,5.182s8.743,0.065,7.197,1.611
				s-7.197,0-7.197,0l4.896,4.803l-7.041,0.414"/>
			<path fill="#E3EAF3" d="M195.711,265.359c0,0-11.166-8.282-4.302-6.096s8.604,3.403,8.604,3.403s-2.951-10.941,0-7.99
				s2.951,2.951,2.951,2.951s-2.688-7.909-0.064-5.285s4.534,5.391,4.534,5.391L195.711,265.359z"/>
			<path fill="#E3EAF3" d="M132.888,268.691c0,0,10.037-5.826,5.633-4.499c-4.404,1.328-8.843,1.167-8.843,1.167
				s11.092-2.692,5.988-2.692s-9.197,2.692-9.197,2.692L132.888,268.691z"/>
			<path fill="#C5D4E9" d="M211.707,238.098c0-2.848,3.854-11.607,3.854-4.75c0,6.858,5.105-5.527,5.105-2.393
				c0,3.134,0,6.711,0,6.711l-4.48,3.79l-2.752-3.137L211.707,238.098z"/>
			<path fill="#C5D4E9" d="M94.217,220.891c1.261-2.553,8.597-8.699,5.56-2.551c-3.038,6.148,7.025-2.693,5.638,0.116
				c-1.389,2.81-2.974,6.017-2.974,6.017l-5.695,1.413l-1.078-4.031L94.217,220.891z"/>
			<path fill="#C5D4E9" d="M106.767,249.219c-0.078-2.846,3.535-11.707,3.724-4.854c0.187,6.856,4.952-5.664,5.038-2.531
				c0.085,3.133,0.183,6.709,0.183,6.709l-4.375,3.911l-2.837-3.061L106.767,249.219z"/>
			<path fill="#C5D4E9" d="M226.077,216.467c0,0-9.703,5.631-6.549,2.031c3.154-3.601-5.504-4.705-1.027-5
				c4.476-0.295,3.635-0.779,4.746-2.047c1.11-1.267,6.839-0.323,5.345,1.381C227.098,214.538,223.558,214.26,226.077,216.467z"/>
		</g>
	</g>
</g>
<g>
	<path fill="#DF6495" d="M83.436,156.797c0,1.153-0.411,2.141-1.232,2.962c-0.822,0.821-1.809,1.231-2.962,1.231
		s-2.141-0.41-2.962-1.231c-0.822-0.821-1.232-1.809-1.232-2.962v-69.67l-6.762,2.254c-0.524,0.209-1.066,0.314-1.625,0.314
		c-1.153,0-2.141-0.41-2.962-1.231c-0.822-0.822-1.232-1.809-1.232-2.962s0.419-2.15,1.259-2.989
		c0.419-0.419,0.891-0.733,1.415-0.943l12.582-4.194c0.454-0.174,0.961-0.262,1.521-0.262c1.153,0,2.14,0.412,2.962,1.232
		c0.821,0.822,1.232,1.809,1.232,2.962V156.797z"/>
	<path fill="#DF6495" d="M91.824,119.052c0-16.775,3.442-28.71,10.327-35.805c4.089-4.089,9.034-6.134,14.836-6.134
		c5.801,0,10.747,2.045,14.835,6.134c6.885,7.095,10.328,19.029,10.328,35.805c0,16.776-3.443,28.711-10.328,35.806
		c-4.088,4.089-9.034,6.133-14.835,6.133c-5.802,0-10.747-2.044-14.836-6.133C95.266,147.763,91.824,135.828,91.824,119.052z
		 M116.987,85.502c-3.46,0-6.431,1.241-8.912,3.722c-5.242,5.906-7.864,15.849-7.864,29.828c0,13.98,2.622,23.923,7.864,29.829
		c2.481,2.482,5.452,3.722,8.912,3.722c3.459,0,6.43-1.24,8.912-3.722c5.243-5.906,7.864-15.849,7.864-29.829
		c0-13.979-2.621-23.922-7.864-29.828C123.417,86.743,120.446,85.502,116.987,85.502z"/>
	<path fill="#DF6495" d="M150.538,119.052c0-16.775,3.441-28.71,10.327-35.805c4.089-4.089,9.034-6.134,14.837-6.134
		c5.8,0,10.746,2.045,14.835,6.134c6.885,7.095,10.327,19.029,10.327,35.805c0,16.776-3.442,28.711-10.327,35.806
		c-4.089,4.089-9.035,6.133-14.835,6.133c-5.803,0-10.748-2.044-14.837-6.133C153.979,147.763,150.538,135.828,150.538,119.052z
		 M175.702,85.502c-3.461,0-6.432,1.241-8.913,3.722c-5.241,5.906-7.863,15.849-7.863,29.828c0,13.98,2.622,23.923,7.863,29.829
		c2.481,2.482,5.452,3.722,8.913,3.722c3.459,0,6.43-1.24,8.911-3.722c5.243-5.906,7.863-15.849,7.863-29.829
		c0-13.979-2.62-23.922-7.863-29.828C182.131,86.743,179.161,85.502,175.702,85.502z"/>
	<path fill="#DF6495" d="M209.251,119.052c0-16.775,3.442-28.71,10.327-35.805c4.09-4.089,9.035-6.134,14.836-6.134
		s10.747,2.045,14.836,6.134c6.885,7.095,10.328,19.029,10.328,35.805c0,16.776-3.443,28.711-10.328,35.806
		c-4.089,4.089-9.035,6.133-14.836,6.133s-10.746-2.044-14.836-6.133C212.694,147.763,209.251,135.828,209.251,119.052z
		 M234.415,85.502c-3.459,0-6.431,1.241-8.912,3.722c-5.242,5.906-7.863,15.849-7.863,29.828c0,13.98,2.621,23.923,7.863,29.829
		c2.481,2.482,5.453,3.722,8.912,3.722c3.46,0,6.43-1.24,8.912-3.722c5.242-5.906,7.863-15.849,7.863-29.829
		c0-13.979-2.621-23.922-7.863-29.828C240.844,86.743,237.875,85.502,234.415,85.502z"/>
</g>
<g>
	<path fill="#D63279" d="M82.743,150.704c0,1.153-0.411,2.141-1.232,2.962c-0.821,0.821-1.809,1.231-2.962,1.231
		c-1.153,0-2.141-0.41-2.962-1.231c-0.821-0.821-1.232-1.809-1.232-2.962V81.033l-6.762,2.254c-0.524,0.21-1.067,0.315-1.625,0.315
		c-1.153,0-2.141-0.411-2.962-1.232c-0.821-0.821-1.232-1.809-1.232-2.962s0.419-2.149,1.258-2.988
		c0.42-0.419,0.892-0.733,1.416-0.943l12.582-4.194c0.454-0.174,0.96-0.262,1.52-0.262c1.153,0,2.141,0.411,2.962,1.232
		c0.821,0.822,1.232,1.809,1.232,2.962V150.704z"/>
	<path fill="#D63279" d="M91.13,112.958c0-16.775,3.442-28.71,10.328-35.805c4.089-4.089,9.034-6.133,14.836-6.133
		c5.801,0,10.746,2.044,14.835,6.133c6.885,7.095,10.328,19.03,10.328,35.805s-3.443,28.711-10.328,35.806
		c-4.089,4.089-9.035,6.133-14.835,6.133c-5.802,0-10.747-2.044-14.836-6.133C94.572,141.669,91.13,129.734,91.13,112.958z
		 M116.294,79.408c-3.46,0-6.431,1.241-8.913,3.722c-5.242,5.906-7.863,15.849-7.863,29.829s2.621,23.923,7.863,29.829
		c2.481,2.482,5.452,3.722,8.913,3.722c3.459,0,6.43-1.24,8.912-3.722c5.243-5.906,7.863-15.849,7.863-29.829
		s-2.621-23.922-7.863-29.829C122.724,80.648,119.753,79.408,116.294,79.408z"/>
	<path fill="#D63279" d="M149.844,112.958c0-16.775,3.442-28.71,10.328-35.805c4.088-4.089,9.033-6.133,14.835-6.133
		s10.747,2.044,14.836,6.133c6.886,7.095,10.327,19.03,10.327,35.805s-3.441,28.711-10.327,35.806
		c-4.089,4.089-9.034,6.133-14.836,6.133s-10.747-2.044-14.835-6.133C153.287,141.669,149.844,129.734,149.844,112.958z
		 M175.007,79.408c-3.46,0-6.431,1.241-8.911,3.722c-5.243,5.906-7.864,15.849-7.864,29.829s2.621,23.923,7.864,29.829
		c2.48,2.482,5.451,3.722,8.911,3.722s6.431-1.24,8.912-3.722c5.242-5.906,7.864-15.849,7.864-29.829s-2.622-23.922-7.864-29.829
		C181.438,80.648,178.467,79.408,175.007,79.408z"/>
	<path fill="#D63279" d="M208.559,112.958c0-16.775,3.441-28.71,10.326-35.805c4.09-4.089,9.035-6.133,14.836-6.133
		s10.747,2.044,14.836,6.133c6.885,7.095,10.328,19.03,10.328,35.805s-3.443,28.711-10.328,35.806
		c-4.089,4.089-9.035,6.133-14.836,6.133s-10.746-2.044-14.836-6.133C212,141.669,208.559,129.734,208.559,112.958z M233.721,79.408
		c-3.459,0-6.431,1.241-8.912,3.722c-5.242,5.906-7.863,15.849-7.863,29.829s2.621,23.923,7.863,29.829
		c2.481,2.482,5.453,3.722,8.912,3.722c3.461,0,6.431-1.24,8.912-3.722c5.242-5.906,7.863-15.849,7.863-29.829
		s-2.621-23.922-7.863-29.829C240.152,80.648,237.182,79.408,233.721,79.408z"/>
</g>
</svg>
