<?xml version="1.0" encoding="utf-8"?>
<!-- Generator: Adobe Illustrator 15.1.0, SVG Export Plug-In . SVG Version: 6.00 Build 0)  -->
<!DOCTYPE svg PUBLIC "-//W3C//DTD SVG 1.1//EN" "http://www.w3.org/Graphics/SVG/1.1/DTD/svg11.dtd">
<svg version="1.1" id="Layer_1" xmlns="http://www.w3.org/2000/svg" xmlns:xlink="http://www.w3.org/1999/xlink" x="0px" y="0px"
	 width="302.164px" height="313.394px" viewBox="0 0 302.164 313.394" enable-background="new 0 0 302.164 313.394"
	 xml:space="preserve">
<g>
	<g id="g5241_161_">
		<path id="path35_167_" fill="#3C6EAF" d="M297.137,158.504c0-79.041-64.068-143.116-143.113-143.116
			c-78.999,0-143.05,64.022-143.104,143.018l-0.005-0.005v110.746l0.005,0.007c0.041,17.936,14.586,32.453,32.533,32.453
			c0.051,0,0.102-0.005,0.156-0.005l0.009,0.005h110.466l0,0c79.018-0.033,143.059-64.088,143.059-143.103H297.137z"/>
	</g>
	<g id="g5241_160_">
		<path id="path35_166_" fill="#294172" d="M294.137,151.504c0-79.041-64.068-143.116-143.113-143.116
			C72.024,8.388,7.974,72.41,7.919,151.405L7.914,151.4v110.746l0.005,0.007c0.041,17.936,14.586,32.453,32.533,32.453
			c0.051,0,0.102-0.005,0.156-0.005l0.009,0.005h110.466l0,0c79.018-0.033,143.059-64.088,143.059-143.103H294.137z"/>
	</g>
	<g>
		<path fill="#3C6EAF" d="M47.334,246.587c4.444,0,8.532,1.482,11.837,3.956c-3.61-4.821-9.35-7.956-15.837-7.956
			c-10.933,0-19.794,8.863-19.794,19.797c0,6.486,3.135,12.227,7.957,15.838c-2.475-3.305-3.957-7.394-3.957-11.838
			C27.54,255.45,36.401,246.587,47.334,246.587z"/>
		<path fill="#8AA9D4" d="M63.128,262.384c0-4.446-1.483-8.536-3.957-11.841c-3.305-2.474-7.393-3.956-11.837-3.956
			c-10.933,0-19.794,8.863-19.794,19.797c0,4.444,1.482,8.533,3.957,11.838c3.304,2.473,7.393,3.956,11.837,3.956
			C54.267,282.178,63.128,273.314,63.128,262.384z"/>
	</g>
	<g>
		<path fill="#3C6EAF" d="M42.828,146.314c0-53.769,33.451-99.721,80.677-118.189C69.733,40.753,29.701,89.023,29.701,146.651
			c0,59.174,42.215,108.482,98.172,119.463C78.356,248.831,42.828,201.726,42.828,146.314z"/>
		<path fill="#8AA9D4" d="M273.2,146.651c0-67.244-54.513-121.753-121.754-121.753c-9.615,0-18.969,1.119-27.941,3.227
			C76.279,46.594,42.828,92.546,42.828,146.314c0,55.411,35.528,102.517,85.045,119.8c7.628,1.497,15.507,2.289,23.573,2.289
			C218.688,268.403,273.2,213.892,273.2,146.651z"/>
	</g>
	<text transform="matrix(1 0 0 1 23.54 271.4033)" fill="#E09228" font-family="'BaskOldFace'" font-size="57.4636">II</text>
</g>
<path fill="#7091CB" d="M125.005,231.484h97v-57l45.439-0.987l-42.572-31.599l6.952-19.511c0,0,21.028,9.214,21.028-5.572
	s-21.564-43.782-37.796-43.452c-25.585,0.521-3.208-16.302-14.291-21.596s-6.301,2.362-17.106,5.971s-20.504,4.033-44.786,4.033
	c-24.282,0-30.626-2.866-20.854,22.571S125.005,231.484,125.005,231.484z"/>
<g>
	<g>
		<polygon fill="#E6AB5D" points="149.708,127.484 137.438,107.484 58.315,107.484 77.865,127.484 		"/>
		<rect x="117.005" y="144.484" fill="#EDC58D" width="96" height="99"/>
		<polygon fill="#E6AB5D" points="117.612,144.783 76.005,126.724 76.005,209.03 117.159,243.491 		"/>
		<polygon fill="#EDC58D" points="76.102,126.484 149.47,126.484 215.057,144.414 117.661,144.57 		"/>
		<polygon fill="#E6AB5D" points="149.583,127.959 159.905,103.567 227.763,110.772 211.483,143.877 		"/>
		<polygon fill="#E09228" points="149.005,126.769 149.005,143.484 210.61,143.484 		"/>
		<rect x="117.005" y="143.484" fill="#F2DCBC" width="32" height="1"/>
	</g>
	<g>
		<path fill="#E3EAF3" d="M206.701,144.556c0,0,0.011-0.209,0.035-0.596c-0.629,0.213-1.246,0.414-1.839,0.595L206.701,144.556z"/>
		<path fill="#E3EAF3" d="M236.356,98.022c-21.3-28.722-56.386-14.634-65.672,1.895c-9.123,16.238-28.203,23.532-37.68,14.056
			S98.522,71.695,76.102,94.116s20.707,21.93,20.707,21.93l20.196,28.438l79.999,0.063c1.813-8.94,10.143-46.775,21.352-46.775
			c12.664,0,13.463,16.378,13.469,16.499C241.075,120.399,243.919,108.22,236.356,98.022z"/>
		<path fill="#E3EAF3" d="M196.634,146.432c0,0,3.487-0.427,8.264-1.877l-7.894-0.007
			C196.761,145.746,196.634,146.432,196.634,146.432z"/>
		<path fill="#C5D4E9" d="M218.355,97.773c-11.209,0-19.539,37.834-21.352,46.775l7.894,0.007c0.593-0.181,1.21-0.382,1.839-0.595
			c0.369-5.771,3.844-51.182,21.026-33.188c1.464,1.534,2.818,2.676,4.062,3.499C231.818,114.151,231.02,97.773,218.355,97.773z"/>
	</g>
	<path fill="#C5D4E9" d="M118.245,104.929c0,0,26.877,36.549,52.439,22.556s29.855-27.472,29.855-34.514s-7.309-6.793-7.309-6.793
		L118.245,104.929z"/>
	<path fill="#A7BFDF" d="M114.245,97.929c0,0,26.877,36.549,52.439,22.556s29.855-27.472,29.855-34.514s-7.309-6.793-7.309-6.793
		L114.245,97.929z"/>
	<g>
		<ellipse fill="#294172" cx="104.31" cy="59.33" rx="10.536" ry="11.288"/>
		<path fill="#E3EAF3" d="M126.663,47.914c-18.953,2.677-34.256,36.497-24.097,46.657c10.159,10.159,34.617,29.349,49.668,24.082
			c15.05-5.268,47.409-18.062,39.886-38.379C184.593,59.954,170.685,41.695,126.663,47.914z"/>
		<path fill="#294172" d="M196.634,57.125c0,6.774-4.58,13.493-11.746,13.493s-14.203-10.003-14.203-16.776
			s5.811-8.981,12.975-8.981C190.824,44.86,196.634,50.352,196.634,57.125z"/>
		<path fill="#294172" d="M150.729,71.995c0,0-6.774,8.278,0,15.051c6.772,6.773,28.596,3.011,21.822-3.762
			C165.78,76.51,162.394,60.331,150.729,71.995z"/>
		<ellipse cx="139.547" cy="92.971" rx="6.879" ry="2.353"/>
		<path fill="none" stroke="#3D3930" stroke-width="0.9178" stroke-linecap="round" stroke-miterlimit="10" d="M107.522,90.617
			c0,0,21.784,28.787,74.638,4.707"/>
		<circle cx="118.017" cy="81.134" r="3.209"/>
		<circle fill="#38342D" cx="160.695" cy="82.969" r="3.209"/>
		<circle fill="#FFFBF2" cx="118.245" cy="79.753" r="1.447"/>
		<circle fill="#FFFBF2" cx="161.102" cy="82.556" r="1.445"/>
	</g>
	<polygon fill="#E6AB5D" points="117.883,144.665 152.249,174.569 252.853,169.011 212.057,143.556 	"/>
	<path fill="#C5D4E9" d="M79.35,101.426c0,0,14.461-17.111,26.435,6.38S79.35,101.426,79.35,101.426z"/>
	<polygon fill="#E09228" points="76.102,126.769 61.612,97.146 105.784,107.807 117.661,144.783 	"/>
</g>
<g>
	<path fill="#E6AB5D" d="M151.013,216.711c-0.971,0.182-1.977,0.271-3.016,0.271c-4.496,0-8.331-1.587-11.503-4.762
		c-3.176-3.174-4.763-7.009-4.763-11.506c0-4.496,1.586-8.33,4.763-11.506c3.173-3.174,7.007-4.761,11.503-4.761
		c4.497,0,8.333,1.587,11.506,4.761c3.174,3.176,4.762,7.01,4.762,11.506c0,3.322-0.871,6.282-2.61,8.879l-16.639,27.587
		c-0.135,0.249-0.305,0.475-0.51,0.679c-0.542,0.541-1.186,0.813-1.931,0.813s-1.383-0.264-1.915-0.797
		c-0.531-0.53-0.797-1.168-0.797-1.914c0-0.52,0.125-0.983,0.374-1.39L151.013,216.711z M137.152,200.715
		c0,3.006,1.057,5.564,3.169,7.676c2.111,2.113,4.67,3.17,7.675,3.17c3.006,0,5.564-1.057,7.676-3.17
		c2.111-2.111,3.17-4.67,3.17-7.676c0-3.004-1.059-5.563-3.17-7.676c-2.112-2.111-4.67-3.169-7.676-3.169
		c-3.005,0-5.564,1.058-7.675,3.169C138.209,195.151,137.152,197.711,137.152,200.715z"/>
	<path fill="#E6AB5D" d="M169.687,211.561c0-10.846,2.226-18.561,6.676-23.147c2.645-2.644,5.842-3.965,9.592-3.965
		s6.947,1.321,9.592,3.965c4.45,4.587,6.676,12.302,6.676,23.147c0,10.844-2.226,18.561-6.676,23.146
		c-2.645,2.644-5.842,3.965-9.592,3.965s-6.947-1.321-9.592-3.965C171.912,230.121,169.687,222.404,169.687,211.561z
		 M185.954,189.87c-2.235,0-4.158,0.803-5.76,2.405c-3.391,3.82-5.086,10.248-5.086,19.285s1.695,15.465,5.086,19.283
		c1.602,1.604,3.524,2.406,5.76,2.406c2.236,0,4.156-0.803,5.76-2.406c3.392-3.818,5.086-10.246,5.086-19.283
		s-1.694-15.465-5.086-19.285C190.11,190.673,188.19,189.87,185.954,189.87z"/>
</g>
<g>
	<path fill="#294172" d="M150.225,212.516c-0.971,0.181-1.977,0.271-3.016,0.271c-4.496,0-8.331-1.588-11.504-4.763
		c-3.176-3.173-4.763-7.009-4.763-11.505s1.586-8.331,4.763-11.506c3.173-3.175,7.008-4.762,11.504-4.762
		c4.496,0,8.332,1.587,11.505,4.762c3.175,3.175,4.762,7.01,4.762,11.506c0,3.321-0.87,6.281-2.609,8.879l-16.639,27.586
		c-0.135,0.249-0.305,0.475-0.509,0.678c-0.542,0.543-1.186,0.814-1.932,0.814s-1.383-0.266-1.915-0.797
		c-0.531-0.531-0.796-1.17-0.796-1.915c0-0.519,0.125-0.983,0.373-1.39L150.225,212.516z M136.364,196.52
		c0,3.005,1.056,5.564,3.169,7.676c2.111,2.112,4.669,3.168,7.675,3.168s5.564-1.056,7.675-3.168c2.112-2.111,3.17-4.671,3.17-7.676
		s-1.058-5.564-3.17-7.676c-2.111-2.112-4.67-3.17-7.675-3.17s-5.564,1.058-7.675,3.17
		C137.42,190.955,136.364,193.515,136.364,196.52z"/>
	<path fill="#294172" d="M168.898,207.363c0-10.844,2.226-18.56,6.676-23.146c2.644-2.644,5.841-3.965,9.592-3.965
		s6.947,1.321,9.591,3.965c4.451,4.587,6.677,12.303,6.677,23.146c0,10.846-2.226,18.561-6.677,23.147
		c-2.644,2.644-5.84,3.966-9.591,3.966s-6.948-1.322-9.592-3.966C171.124,225.924,168.898,218.209,168.898,207.363z
		 M185.166,185.674c-2.235,0-4.158,0.803-5.761,2.406c-3.39,3.82-5.085,10.246-5.085,19.283c0,9.039,1.695,15.466,5.085,19.284
		c1.603,1.604,3.525,2.406,5.761,2.406s4.157-0.802,5.761-2.406c3.391-3.818,5.085-10.245,5.085-19.284
		c0-9.037-1.694-15.463-5.085-19.283C189.323,186.477,187.401,185.674,185.166,185.674z"/>
</g>
</svg>
