<?xml version="1.0" encoding="utf-8"?>
<!-- Generator: Adobe Illustrator 15.1.0, SVG Export Plug-In . SVG Version: 6.00 Build 0)  -->
<!DOCTYPE svg PUBLIC "-//W3C//DTD SVG 1.1//EN" "http://www.w3.org/Graphics/SVG/1.1/DTD/svg11.dtd">
<svg version="1.1" id="Layer_1" xmlns="http://www.w3.org/2000/svg" xmlns:xlink="http://www.w3.org/1999/xlink" x="0px" y="0px"
	 width="302.296px" height="302.071px" viewBox="0 0 302.296 302.071" enable-background="new 0 0 302.296 302.071"
	 xml:space="preserve">
<g>
	<g id="g5241_137_">
		<path id="path35_143_" fill="#3C6EB4" d="M297.626,154.188c0-79.041-64.068-143.116-143.113-143.116
			c-78.999,0-143.05,64.022-143.104,143.018l-0.005-0.005V264.83l0.005,0.007c0.041,17.936,14.586,32.453,32.533,32.453
			c0.051,0,0.102-0.005,0.156-0.005l0.009,0.005h110.466l0,0c79.018-0.033,143.059-64.088,143.059-143.103H297.626z"/>
	</g>
	<g id="g5241_136_">
		<path id="path35_142_" fill="#294172" d="M294.626,147.188c0-79.041-64.068-143.116-143.113-143.116
			c-78.999,0-143.05,64.022-143.104,143.018l-0.005-0.005V257.83l0.005,0.007c0.041,17.936,14.586,32.453,32.533,32.453
			c0.051,0,0.102-0.005,0.156-0.005l0.009,0.005h110.466l0,0c79.018-0.033,143.059-64.088,143.059-143.103H294.626z"/>
	</g>
	<g>
		<path fill="#3C6EB4" d="M47.824,242.271c4.444,0,8.532,1.482,11.837,3.956c-3.61-4.821-9.35-7.956-15.837-7.956
			c-10.933,0-19.794,8.863-19.794,19.797c0,6.486,3.135,12.227,7.957,15.838c-2.475-3.305-3.957-7.394-3.957-11.838
			C28.03,251.134,36.891,242.271,47.824,242.271z"/>
		<path fill="#8FAED9" d="M63.618,258.067c0-4.446-1.483-8.536-3.957-11.841c-3.305-2.474-7.393-3.956-11.837-3.956
			c-10.933,0-19.794,8.863-19.794,19.797c0,4.444,1.482,8.533,3.957,11.838c3.304,2.473,7.393,3.956,11.837,3.956
			C54.756,277.861,63.618,268.998,63.618,258.067z"/>
	</g>
	<g>
		<path fill="#3C6EB4" d="M43.318,141.998c0-53.769,33.451-99.721,80.677-118.189C70.223,36.437,30.191,84.707,30.191,142.335
			c0,59.174,42.215,108.482,98.172,119.463C78.846,244.515,43.318,197.409,43.318,141.998z"/>
		<path fill="#8FAED9" d="M273.69,142.335c0-67.244-54.513-121.753-121.754-121.753c-9.615,0-18.969,1.119-27.941,3.227
			C76.769,42.277,43.318,88.229,43.318,141.998c0,55.411,35.528,102.517,85.045,119.8c7.628,1.497,15.507,2.289,23.573,2.289
			C219.177,264.087,273.69,209.575,273.69,142.335z"/>
	</g>
</g>
<ellipse fill="#3C6EB4" cx="170.186" cy="193.036" rx="84.517" ry="45.458"/>
<g>
	<g>
		<path fill="#F2CA92" d="M85.495,201.377v19.158c0,3.293,4,5.556,9,5.626v-30.835C89.495,195.41,85.495,198.083,85.495,201.377z"/>
		<path fill="#EBB05D" d="M95.176,226.168c4.998,0,9.318-2.286,9.318-5.633v-19.158c0-3.346-4.32-6.209-9.318-6.209h-0.412
			c-0.078,0-0.27,0.157-0.27,0.158v30.835c0,0.002,0.191,0.007,0.27,0.007H95.176z"/>
	</g>
	<g>
		<path fill="#F2CA92" d="M215.931,195.168h-0.413c-4.998,0-9.023,2.863-9.023,6.209v19.158c0,3.347,4.025,5.633,9.023,5.633h0.413
			c0.687,0,1.563-0.047,1.563-0.131v-30.565C217.495,195.375,216.618,195.168,215.931,195.168z"/>
		<path fill="#EBB05D" d="M224.495,220.535v-19.158c0-2.886-3-5.296-7-5.905v30.565
			C221.495,225.516,224.495,223.422,224.495,220.535z"/>
	</g>
	<polygon fill="#B69ACA" points="85.64,143.99 101.495,124.168 210.876,124.168 229.495,144.41 229.495,193.168 85.715,193.168 	"/>
	<ellipse fill="#CFBDDD" cx="156.083" cy="104.715" rx="57.233" ry="73.625"/>
	<polygon fill="#A07CBC" points="94.592,186.168 118.5,161.168 194.129,161.168 213.317,186.168 	"/>
	<path fill="#CFBDDD" d="M217.495,194.968c0,7.009-5.697,12.2-12.95,12.2h-96.881c-7.254,0-13.169-5.191-13.169-12.2v-0.181
		c0-7.008,5.915-12.619,13.169-12.619h96.881c7.253,0,12.95,5.611,12.95,12.619V194.968z"/>
	<ellipse fill="#CFBDDD" cx="85.672" cy="175.581" rx="13.178" ry="32.077"/>
	<ellipse fill="#CFBDDD" cx="226.699" cy="175.581" rx="13.178" ry="32.077"/>
	
		<ellipse transform="matrix(0.7071 0.7072 -0.7072 0.7071 124.9888 -25.2557)" fill="#CFBDDD" cx="92.978" cy="138.234" rx="5.598" ry="20.922"/>
	<path fill="#CFBDDD" d="M222.961,134.26c8.205,8.136,13.094,16.51,10.916,18.706c0.231-0.234-8.303-0.351-18.799-10.756
		c-8.204-8.136-13.092-16.511-10.914-18.706C206.339,121.309,214.755,126.125,222.961,134.26z"/>
	<ellipse fill="#A07CBC" cx="84.662" cy="178.447" rx="2.984" ry="6.29"/>
	<ellipse fill="#A07CBC" cx="226.951" cy="178.447" rx="2.984" ry="6.29"/>
	<path fill="none" stroke="#A07CBC" stroke-width="1.7628" stroke-linecap="round" stroke-miterlimit="10" d="M228.115,187.295
		c1.836,2.913-0.676,10.697-0.676,10.697"/>
	<path fill="none" stroke="#A07CBC" stroke-width="1.7628" stroke-linecap="round" stroke-miterlimit="10" d="M83.26,168.601
		c-1.373-3.159,2.292-10.472,2.292-10.472"/>
	<path fill="none" stroke="#A07CBC" stroke-width="1.7628" stroke-linecap="round" stroke-miterlimit="10" d="M232.23,178.723
		c1.56-2.256,5.655-0.998,5.655-0.998"/>
	<path fill="none" stroke="#A07CBC" stroke-width="1.7628" stroke-linecap="round" stroke-miterlimit="10" d="M90.323,179.604
		c1.561-2.256,5.654-0.999,5.654-0.999"/>
	<path fill="none" stroke="#A07CBC" stroke-width="1.7628" stroke-linecap="round" stroke-miterlimit="10" d="M222.045,178.639
		c-1.844-2.182-6.672-0.706-6.672-0.706"/>
	<path fill="none" stroke="#A07CBC" stroke-width="1.7628" stroke-linecap="round" stroke-miterlimit="10" d="M81.02,178.639
		c-1.845-2.182-6.673-0.706-6.673-0.706"/>
	<path fill="none" stroke="#A07CBC" stroke-width="1.7628" stroke-linecap="round" stroke-miterlimit="10" d="M83.26,188.979
		c-1.373,3.159,2.292,10.472,2.292,10.472"/>
	<path fill="none" stroke="#A07CBC" stroke-width="1.7628" stroke-linecap="round" stroke-miterlimit="10" d="M226.855,168.05
		c2.05-2.768,0.13-10.718,0.13-10.718"/>
	<g>
		
			<rect x="135.592" y="131.145" transform="matrix(0.6039 -0.7971 0.7971 0.6039 -36.878 196.8992)" fill="#E59728" width="88.141" height="8.815"/>
		<polygon fill="#EBB05D" points="234.059,114.838 208.509,148.562 194.311,132.274 214.537,105.577 		"/>
		<polygon fill="#EBB05D" points="184.178,77.047 158.628,110.77 178.151,120.031 198.378,93.334 		"/>
		
			<rect x="179.246" y="97.554" transform="matrix(0.6039 -0.7971 0.7971 0.6039 -12.0651 200.7986)" fill="#E59728" width="33.494" height="29.968"/>
	</g>
	<rect x="130.303" y="47.513" fill="none" width="64.889" height="32.951"/>
	<text transform="matrix(1 0 0 1 130.3032 70.5186)" fill="#A07CBC" font-family="'LiberationSans-Regular'" font-size="31.7309">IRC</text>
</g>
</svg>
