<?xml version="1.0" encoding="utf-8"?>
<!-- Generator: Adobe Illustrator 15.1.0, SVG Export Plug-In . SVG Version: 6.00 Build 0)  -->
<!DOCTYPE svg PUBLIC "-//W3C//DTD SVG 1.1//EN" "http://www.w3.org/Graphics/SVG/1.1/DTD/svg11.dtd">
<svg version="1.1" id="Layer_1" xmlns="http://www.w3.org/2000/svg" xmlns:xlink="http://www.w3.org/1999/xlink" x="0px" y="0px"
	 width="308px" height="314.667px" viewBox="0 0 308 314.667" enable-background="new 0 0 308 314.667" xml:space="preserve">
<g>
	<g id="g5241_137_">
		<path id="path35_143_" fill="#3C6EAF" d="M300.798,162.686c0-79.041-64.068-143.116-143.113-143.116
			c-78.999,0-143.05,64.022-143.104,143.018l-0.005-0.005v110.746l0.005,0.007c0.041,17.936,14.586,32.453,32.533,32.453
			c0.051,0,0.102-0.005,0.156-0.005l0.009,0.005h110.466l0,0c79.018-0.033,143.059-64.088,143.059-143.103H300.798z"/>
	</g>
	<g id="g5241_136_">
		<path id="path35_142_" fill="#294172" d="M297.798,155.686c0-79.041-64.068-143.116-143.113-143.116
			c-78.999,0-143.05,64.022-143.104,143.018l-0.005-0.005v110.746l0.005,0.007c0.041,17.936,14.586,32.453,32.533,32.453
			c0.051,0,0.102-0.005,0.156-0.005l0.009,0.005h110.466l0,0c79.018-0.033,143.059-64.088,143.059-143.103H297.798z"/>
	</g>
	<g>
		<path fill="#3C6EAF" d="M46.49,150.497c0-53.769,33.451-99.721,80.677-118.189C73.395,44.935,33.363,93.206,33.363,150.833
			c0,59.174,42.215,108.482,98.172,119.463C82.018,253.013,46.49,205.908,46.49,150.497z"/>
		<path fill="#8AA9D4" d="M276.862,150.833c0-67.244-54.513-121.753-121.754-121.753c-9.615,0-18.969,1.119-27.941,3.227
			C79.941,50.776,46.49,96.728,46.49,150.497c0,55.411,35.528,102.517,85.045,119.8c7.628,1.497,15.507,2.289,23.573,2.289
			C222.349,272.585,276.862,218.074,276.862,150.833z"/>
	</g>
</g>
<ellipse fill="#3C6EAF" cx="173.357" cy="201.535" rx="84.517" ry="45.458"/>
<g>
	<g>
		<path fill="#EDC58D" d="M88.667,209.875v19.158c0,3.293,4,5.556,9,5.626v-30.835C92.667,203.909,88.667,206.582,88.667,209.875z"
			/>
		<path fill="#E6AB5D" d="M98.348,234.667c4.998,0,9.318-2.286,9.318-5.633v-19.158c0-3.346-4.32-6.209-9.318-6.209h-0.412
			c-0.078,0-0.27,0.157-0.27,0.157v30.836c0,0.002,0.191,0.007,0.27,0.007H98.348z"/>
	</g>
	<g>
		<path fill="#EDC58D" d="M219.103,203.667h-0.413c-4.998,0-9.023,2.863-9.023,6.209v19.158c0,3.347,4.025,5.633,9.023,5.633h0.413
			c0.687,0,1.563-0.047,1.563-0.131V203.97C220.667,203.874,219.79,203.667,219.103,203.667z"/>
		<path fill="#E6AB5D" d="M227.667,229.034v-19.158c0-2.886-3-5.296-7-5.905v30.565C224.667,234.014,227.667,231.92,227.667,229.034
			z"/>
	</g>
	<polygon fill="#B195C5" points="88.812,152.489 104.667,132.667 214.048,132.667 232.667,152.909 232.667,201.667 88.887,201.667 	
		"/>
	<ellipse fill="#CAB8D8" cx="159.255" cy="113.213" rx="57.233" ry="73.625"/>
	<polygon fill="#9B7CB7" points="97.764,194.667 121.672,169.667 197.301,169.667 216.489,194.667 	"/>
	<path fill="#CAB8D8" d="M220.667,203.466c0,7.009-5.697,12.2-12.95,12.2h-96.881c-7.254,0-13.169-5.191-13.169-12.2v-0.181
		c0-7.008,5.915-12.619,13.169-12.619h96.881c7.253,0,12.95,5.611,12.95,12.619V203.466z"/>
	<ellipse fill="#CAB8D8" cx="88.844" cy="184.08" rx="13.178" ry="32.077"/>
	<ellipse fill="#CAB8D8" cx="229.871" cy="184.08" rx="13.178" ry="32.077"/>
	
		<ellipse transform="matrix(0.7071 0.7072 -0.7072 0.7071 131.9277 -25.0091)" fill="#CAB8D8" cx="96.15" cy="146.732" rx="5.598" ry="20.922"/>
	<path fill="#CAB8D8" d="M226.133,142.758c8.205,8.136,13.094,16.51,10.916,18.706c0.231-0.234-8.303-0.351-18.799-10.756
		c-8.204-8.136-13.092-16.511-10.914-18.706C209.511,129.807,217.927,134.624,226.133,142.758z"/>
	<ellipse fill="#9B7CB7" cx="87.834" cy="186.946" rx="2.984" ry="6.29"/>
	<ellipse fill="#9B7CB7" cx="230.123" cy="186.946" rx="2.984" ry="6.29"/>
	<path fill="none" stroke="#9B7CB7" stroke-width="1.7628" stroke-linecap="round" stroke-miterlimit="10" d="M231.287,195.793
		c1.836,2.913-0.676,10.697-0.676,10.697"/>
	<path fill="none" stroke="#9B7CB7" stroke-width="1.7628" stroke-linecap="round" stroke-miterlimit="10" d="M86.432,177.099
		c-1.373-3.159,2.292-10.472,2.292-10.472"/>
	<path fill="none" stroke="#9B7CB7" stroke-width="1.7628" stroke-linecap="round" stroke-miterlimit="10" d="M235.402,187.221
		c1.56-2.256,5.655-0.998,5.655-0.998"/>
	<path fill="none" stroke="#9B7CB7" stroke-width="1.7628" stroke-linecap="round" stroke-miterlimit="10" d="M93.495,188.103
		c1.561-2.256,5.654-0.999,5.654-0.999"/>
	<path fill="none" stroke="#9B7CB7" stroke-width="1.7628" stroke-linecap="round" stroke-miterlimit="10" d="M225.217,187.137
		c-1.844-2.182-6.672-0.706-6.672-0.706"/>
	<path fill="none" stroke="#9B7CB7" stroke-width="1.7628" stroke-linecap="round" stroke-miterlimit="10" d="M84.192,187.137
		c-1.845-2.182-6.673-0.706-6.673-0.706"/>
	<path fill="none" stroke="#9B7CB7" stroke-width="1.7628" stroke-linecap="round" stroke-miterlimit="10" d="M86.432,197.478
		c-1.373,3.159,2.292,10.472,2.292,10.472"/>
	<path fill="none" stroke="#9B7CB7" stroke-width="1.7628" stroke-linecap="round" stroke-miterlimit="10" d="M230.027,176.548
		c2.05-2.768,0.13-10.718,0.13-10.718"/>
	<g>
		
			<rect x="138.764" y="139.644" transform="matrix(0.6039 -0.7971 0.7971 0.6039 -42.3955 202.7939)" fill="#E09228" width="88.141" height="8.815"/>
		<polygon fill="#E6AB5D" points="237.231,123.336 211.681,157.06 197.483,140.773 217.708,114.076 		"/>
		<polygon fill="#E6AB5D" points="187.35,85.545 161.8,119.268 181.323,128.53 201.55,101.833 		"/>
		
			<rect x="182.417" y="106.052" transform="matrix(0.6039 -0.7971 0.7971 0.6039 -17.5826 206.6932)" fill="#E09228" width="33.494" height="29.968"/>
	</g>
	<rect x="133.475" y="56.011" fill="none" width="64.889" height="32.951"/>
	<text transform="matrix(1 0 0 1 133.4756 79.0171)" fill="#9B7CB7" font-family="'LiberationSans-Regular'" font-size="31.7309">IRC</text>
</g>
</svg>
