<?xml version="1.0" encoding="utf-8"?>
<!-- Generator: Adobe Illustrator 15.1.0, SVG Export Plug-In . SVG Version: 6.00 Build 0)  -->
<!DOCTYPE svg PUBLIC "-//W3C//DTD SVG 1.1//EN" "http://www.w3.org/Graphics/SVG/1.1/DTD/svg11.dtd">
<svg version="1.1" id="Layer_1" xmlns="http://www.w3.org/2000/svg" xmlns:xlink="http://www.w3.org/1999/xlink" x="0px" y="0px"
	 width="302.296px" height="302.071px" viewBox="0 0 302.296 302.071" enable-background="new 0 0 302.296 302.071"
	 xml:space="preserve">
<g>
	<g id="g5241_141_">
		<path id="path35_147_" fill="#3C6EB4" d="M296.626,154.188c0-79.041-64.068-143.116-143.113-143.116
			c-78.999,0-143.05,64.022-143.104,143.018l-0.005-0.005V264.83l0.005,0.007c0.041,17.936,14.586,32.453,32.533,32.453
			c0.051,0,0.102-0.005,0.156-0.005l0.009,0.005h110.466l0,0c79.018-0.033,143.059-64.088,143.059-143.103H296.626z"/>
	</g>
	<g id="g5241_140_">
		<path id="path35_146_" fill="#294172" d="M293.626,147.188c0-79.041-64.068-143.116-143.113-143.116
			c-78.999,0-143.05,64.022-143.104,143.018l-0.005-0.005V257.83l0.005,0.007c0.041,17.936,14.586,32.453,32.533,32.453
			c0.051,0,0.102-0.005,0.156-0.005l0.009,0.005h110.466l0,0c79.018-0.033,143.059-64.088,143.059-143.103H293.626z"/>
	</g>
	<g>
		<path fill="#3C6EB4" d="M46.824,242.271c4.444,0,8.532,1.482,11.837,3.956c-3.61-4.821-9.35-7.956-15.837-7.956
			c-10.933,0-19.794,8.863-19.794,19.797c0,6.486,3.135,12.227,7.957,15.838c-2.475-3.305-3.957-7.394-3.957-11.838
			C27.03,251.134,35.891,242.271,46.824,242.271z"/>
		<path fill="#8FAED9" d="M62.618,258.067c0-4.446-1.483-8.536-3.957-11.841c-3.305-2.474-7.393-3.956-11.837-3.956
			c-10.933,0-19.794,8.863-19.794,19.797c0,4.444,1.482,8.533,3.957,11.838c3.304,2.473,7.393,3.956,11.837,3.956
			C53.756,277.861,62.618,268.998,62.618,258.067z"/>
	</g>
	<g>
		<path fill="#3C6EB4" d="M42.318,141.998c0-53.769,33.451-99.721,80.677-118.189C69.223,36.437,29.191,84.707,29.191,142.335
			c0,59.174,42.215,108.482,98.172,119.463C77.846,244.515,42.318,197.409,42.318,141.998z"/>
		<path fill="#8FAED9" d="M272.69,142.335c0-67.244-54.513-121.753-121.754-121.753c-9.615,0-18.969,1.119-27.941,3.227
			C75.769,42.277,42.318,88.229,42.318,141.998c0,55.411,35.528,102.517,85.045,119.8c7.628,1.497,15.507,2.289,23.573,2.289
			C218.177,264.087,272.69,209.575,272.69,142.335z"/>
	</g>
</g>
<g>
	<defs>
		<path id="SVGID_1_" d="M272.69,142.335c0-67.244-54.513-121.753-121.754-121.753c-9.615,0-18.969,1.119-27.941,3.227
			C75.769,42.277,42.318,88.229,42.318,141.998c0,55.411,35.528,102.517,85.045,119.8c7.628,1.497,15.507,2.289,23.573,2.289
			C218.177,264.087,272.69,209.575,272.69,142.335z"/>
	</defs>
	<clipPath id="SVGID_2_">
		<use xlink:href="#SVGID_1_"  overflow="visible"/>
	</clipPath>
	<g clip-path="url(#SVGID_2_)">
		<rect x="53.824" y="116.699" fill="none" width="313.584" height="32.515"/>
		<text transform="matrix(1 0 0 1 53.8237 142.7988)" fill="#E59728" font-family="'LiberationSans-Regular'" font-size="36">*is awesome</text>
	</g>
	<g clip-path="url(#SVGID_2_)">
		<rect x="145.504" y="81.434" fill="none" width="313.584" height="32.515"/>
		<text transform="matrix(1 0 0 1 145.5044 107.5332)" fill="#79DB32" font-family="'LiberationSans-Regular'" font-size="36">*leaves</text>
	</g>
	<g clip-path="url(#SVGID_2_)">
		<rect x="89.817" y="41.112" fill="none" width="325.143" height="40.506"/>
		<text transform="matrix(1 0 0 1 89.8169 67.2119)" fill="#A07CBC" font-family="'LiberationSans-Regular'" font-size="36">*Giggles with Glee</text>
	</g>
	<g clip-path="url(#SVGID_2_)">
		<rect x="-54.691" y="185.455" fill="none" width="325.143" height="40.506"/>
		<text transform="matrix(1 0 0 1 -54.6909 211.5547)" fill="#A07CBC" font-family="'LiberationSans-Regular'" font-size="36">*Giggles with Glee</text>
	</g>
	<g clip-path="url(#SVGID_2_)">
		<rect x="68.755" y="77.842" fill="none" width="117.216" height="40.506"/>
		<text transform="matrix(1 0 0 1 68.7554 103.9414)" fill="#DB3279" font-family="'LiberationSans-Bold'" font-size="36">You</text>
	</g>
	<g clip-path="url(#SVGID_2_)">
		<rect x="44.824" y="153.608" fill="none" width="225.628" height="40.506"/>
		<text transform="matrix(1 0 0 1 44.8237 179.708)" fill="#DB3279" font-family="'LiberationSans-Bold'" font-size="36">******Do******</text>
	</g>
	<g clip-path="url(#SVGID_2_)">
		<rect x="93.26" y="220.018" fill="none" width="132.86" height="40.506"/>
		<text transform="matrix(1 0 0 1 93.2603 246.1172)" fill="#DB3279" font-family="'LiberationSans-Bold'" font-size="36">Things</text>
	</g>
</g>
</svg>
