<?xml version="1.0" encoding="utf-8"?>
<!-- Generator: Adobe Illustrator 15.1.0, SVG Export Plug-In . SVG Version: 6.00 Build 0)  -->
<!DOCTYPE svg PUBLIC "-//W3C//DTD SVG 1.1//EN" "http://www.w3.org/Graphics/SVG/1.1/DTD/svg11.dtd">
<svg version="1.1" id="Layer_1" xmlns="http://www.w3.org/2000/svg" xmlns:xlink="http://www.w3.org/1999/xlink" x="0px" y="0px"
	 width="302.296px" height="302.071px" viewBox="0 0 302.296 302.071" enable-background="new 0 0 302.296 302.071"
	 xml:space="preserve">
<g>
	<g id="g5241_139_">
		<path id="path35_145_" fill="#3C6EB4" d="M296.626,150.188c0-79.041-64.068-143.116-143.113-143.116
			c-78.999,0-143.05,64.022-143.104,143.018l-0.005-0.005V260.83l0.005,0.007c0.041,17.936,14.586,32.453,32.533,32.453
			c0.051,0,0.102-0.005,0.156-0.005l0.009,0.005h110.466l0,0c79.018-0.033,143.059-64.088,143.059-143.103H296.626z"/>
	</g>
	<g id="g5241_138_">
		<path id="path35_144_" fill="#294172" d="M293.626,143.188c0-79.041-64.068-143.116-143.113-143.116
			c-78.999,0-143.05,64.022-143.104,143.018l-0.005-0.005V253.83l0.005,0.007c0.041,17.936,14.586,32.453,32.533,32.453
			c0.051,0,0.102-0.005,0.156-0.005l0.009,0.005h110.466l0,0c79.018-0.033,143.059-64.088,143.059-143.103H293.626z"/>
	</g>
	<g>
		<path fill="#3C6EB4" d="M46.824,238.271c4.444,0,8.532,1.482,11.837,3.956c-3.61-4.821-9.35-7.956-15.837-7.956
			c-10.933,0-19.794,8.863-19.794,19.797c0,6.486,3.135,12.227,7.957,15.838c-2.475-3.305-3.957-7.394-3.957-11.838
			C27.03,247.134,35.891,238.271,46.824,238.271z"/>
		<path fill="#8FAED9" d="M62.618,254.067c0-4.446-1.483-8.536-3.957-11.841c-3.305-2.474-7.393-3.956-11.837-3.956
			c-10.933,0-19.794,8.863-19.794,19.797c0,4.444,1.482,8.533,3.957,11.838c3.304,2.473,7.393,3.956,11.837,3.956
			C53.756,273.861,62.618,264.998,62.618,254.067z"/>
	</g>
	<g>
		<path fill="#3C6EB4" d="M42.318,137.998c0-53.769,33.451-99.721,80.677-118.189C69.223,32.437,29.191,80.707,29.191,138.335
			c0,59.174,42.215,108.482,98.172,119.463C77.846,240.515,42.318,193.409,42.318,137.998z"/>
		<path fill="#8FAED9" d="M272.69,138.335c0-67.244-54.513-121.753-121.754-121.753c-9.615,0-18.969,1.119-27.941,3.227
			C75.769,38.277,42.318,84.229,42.318,137.998c0,55.411,35.528,102.517,85.045,119.8c7.628,1.497,15.507,2.289,23.573,2.289
			C218.177,260.087,272.69,205.575,272.69,138.335z"/>
	</g>
</g>
<g>
	<defs>
		<path id="SVGID_1_" d="M272.69,138.335c0-67.244-54.513-121.753-121.754-121.753c-9.615,0-18.969,1.119-27.941,3.227
			C75.769,38.277,42.318,84.229,42.318,137.998c0,55.411,35.528,102.517,85.045,119.8c7.628,1.497,15.507,2.289,23.573,2.289
			C218.177,260.087,272.69,205.575,272.69,138.335z"/>
	</defs>
	<clipPath id="SVGID_2_">
		<use xlink:href="#SVGID_1_"  overflow="visible"/>
	</clipPath>
	<g clip-path="url(#SVGID_2_)">
		<rect x="35.733" y="125.392" fill="none" width="323.797" height="63.026"/>
		<text transform="matrix(1 0 0 1 35.7329 151.4912)"><tspan x="0" y="0" fill="#A07CBC" font-family="'LiberationSans-Regular'" font-size="36">YOU: </tspan><tspan x="98.016" y="0" fill="#DB3279" font-family="'LiberationSans-Bold'" font-size="36">are</tspan><tspan x="152.068" y="0" fill="#A07CBC" font-family="'LiberationSans-Regular'" font-size="36"> important</tspan></text>
	</g>
	<g clip-path="url(#SVGID_2_)">
		<rect x="-70.035" y="83.655" fill="none" width="323.797" height="41.736"/>
		<text transform="matrix(1 0 0 1 -70.0347 109.7549)" fill="#9AE464" font-family="'LiberationSans-Regular'" font-size="36">YOU: are important</text>
	</g>
	<g clip-path="url(#SVGID_2_)">
		<rect x="134.733" y="162.479" fill="none" width="323.797" height="63.026"/>
		<text transform="matrix(1 0 0 1 134.7329 188.5791)" fill="#A07CBC" font-family="'LiberationSans-Regular'" font-size="36">YOU: are important</text>
	</g>
	<g clip-path="url(#SVGID_2_)">
		<rect x="-182.622" y="159.958" fill="none" width="323.797" height="63.026"/>
		<text transform="matrix(1 0 0 1 -182.6216 186.0576)" fill="#E59728" font-family="'LiberationSans-Regular'" font-size="36">YOU: are important</text>
	</g>
	<g clip-path="url(#SVGID_2_)">
		<rect x="-203.917" y="50.655" fill="none" width="323.797" height="63.026"/>
		<text transform="matrix(1 0 0 1 -203.9165 76.7549)" fill="#E59728" font-family="'LiberationSans-Regular'" font-size="36">YOU: are important</text>
	</g>
	<g clip-path="url(#SVGID_2_)">
		<rect x="-88.082" y="194.655" fill="none" width="359.658" height="63.026"/>
		<text transform="matrix(1 0 0 1 -88.0815 220.7549)"><tspan x="0" y="0" fill="#A07CBC" font-family="'LiberationSans-Regular'" font-size="36">YOU: are </tspan><tspan x="160.049" y="0" fill="#DB3279" font-family="'LiberationSans-Bold'" font-size="36">important</tspan></text>
	</g>
	<g clip-path="url(#SVGID_2_)">
		<rect x="114.618" y="50.288" fill="none" width="323.797" height="63.026"/>
		<text transform="matrix(1 0 0 1 114.6177 76.3877)"><tspan x="0" y="0" fill="#DB3279" font-family="'LiberationSans-Bold'" font-size="36">YOU:</tspan><tspan x="90" y="0" fill="#9AE464" font-family="'LiberationSans-Regular'" font-size="36"> are important</tspan></text>
	</g>
	<g clip-path="url(#SVGID_2_)">
		<rect x="243.087" y="83.654" fill="none" width="323.797" height="63.026"/>
		<text transform="matrix(1 0 0 1 243.0874 109.7539)" fill="#E59728" font-family="'LiberationSans-Regular'" font-size="36">YOU: are important</text>
	</g>
	<g clip-path="url(#SVGID_2_)">
		<rect x="-15.015" y="12" fill="none" width="323.797" height="63.026"/>
		<text transform="matrix(1 0 0 1 -15.0151 38.0996)" fill="#A07CBC" font-family="'LiberationSans-Regular'" font-size="36">YOU: are important</text>
	</g>
	<g clip-path="url(#SVGID_2_)">
		<rect x="32.733" y="229.507" fill="none" width="323.797" height="63.026"/>
		<text transform="matrix(1 0 0 1 32.7329 255.6064)" fill="#9AE464" font-family="'LiberationSans-Regular'" font-size="36">YOU: are important</text>
	</g>
</g>
</svg>
