<?xml version="1.0" encoding="utf-8"?>
<!-- Generator: Adobe Illustrator 15.1.0, SVG Export Plug-In . SVG Version: 6.00 Build 0)  -->
<!DOCTYPE svg PUBLIC "-//W3C//DTD SVG 1.1//EN" "http://www.w3.org/Graphics/SVG/1.1/DTD/svg11.dtd">
<svg version="1.1" id="Layer_1" xmlns="http://www.w3.org/2000/svg" xmlns:xlink="http://www.w3.org/1999/xlink" x="0px" y="0px"
	 width="308px" height="314.667px" viewBox="0 0 308 314.667" enable-background="new 0 0 308 314.667" xml:space="preserve">
<g>
	<g>
		<g id="g5241_197_">
			<path id="path35_203_" fill="#3C6EAF" d="M299.798,162.686c0-79.041-64.068-143.116-143.113-143.116
				c-78.999,0-143.05,64.022-143.104,143.018l-0.005-0.005v110.746l0.005,0.007c0.041,17.936,14.586,32.453,32.533,32.453
				c0.051,0,0.102-0.005,0.156-0.005l0.009,0.005h110.466l0,0c79.018-0.033,143.059-64.088,143.059-143.103H299.798z"/>
		</g>
		<g id="g5241_196_">
			<path id="path35_202_" fill="#294172" d="M296.798,155.686c0-79.041-64.068-143.116-143.113-143.116
				c-78.999,0-143.05,64.022-143.104,143.018l-0.005-0.005v110.746l0.005,0.007c0.041,17.936,14.586,32.453,32.533,32.453
				c0.051,0,0.102-0.005,0.156-0.005l0.009,0.005h110.466l0,0c79.018-0.033,143.059-64.088,143.059-143.103H296.798z"/>
		</g>
		<g>
			<path fill="#3C6EAF" d="M49.996,250.769c4.444,0,8.532,1.482,11.837,3.956c-3.61-4.821-9.35-7.956-15.837-7.956
				c-10.933,0-19.794,8.863-19.794,19.797c0,6.486,3.135,12.227,7.957,15.838c-2.475-3.305-3.957-7.394-3.957-11.838
				C30.202,259.632,39.063,250.769,49.996,250.769z"/>
			<path fill="#A7BFDF" d="M65.79,266.566c0-4.446-1.483-8.536-3.957-11.841c-3.305-2.474-7.393-3.956-11.837-3.956
				c-10.933,0-19.794,8.863-19.794,19.797c0,4.444,1.482,8.533,3.957,11.838c3.304,2.473,7.393,3.956,11.837,3.956
				C56.928,286.36,65.79,277.497,65.79,266.566z"/>
		</g>
		<g>
			<path fill="#3C6EAF" d="M45.49,150.497c0-53.769,33.451-99.721,80.677-118.189C72.395,44.935,32.363,93.206,32.363,150.833
				c0,59.174,42.215,108.482,98.172,119.463C81.018,253.013,45.49,205.908,45.49,150.497z"/>
			<path fill="#8AA9D4" d="M275.862,149.833c0-67.244-54.513-121.753-121.754-121.753c-9.615,0-18.969,1.119-27.941,3.227
				C78.941,49.776,45.49,95.728,45.49,149.497c0,55.411,35.528,102.517,85.045,119.8c7.628,1.497,15.507,2.289,23.573,2.289
				C221.349,271.585,275.862,217.074,275.862,149.833z"/>
		</g>
		<text transform="matrix(1 0 0 1 27.7173 281.5854)" font-family="'BaskOldFace'" font-size="57.4636">V</text>
	</g>
	<g>
		<path fill="#E09228" d="M228.458,172.843c0.018-0.239,0.209-0.479,0.209-0.72v-0.002c0,0,11.629-6.688,5.271-13.045
			c-2.787-2.788-5.265-5.404-6.619-7.464c-0.217-1.273-0.5-2.558-0.773-3.855c0.391-0.329,1.03-0.509,2.012-0.509
			c5.447,0,9.504-10.988,1.949-10.988c-3.168,0-5.5,0.633-7.137,0.801c-0.726-1.613-1.784-3.394-3.213-6.394h-0.002
			c0-9,1.088-17.134-5.096-16.034c-1.867,0.332-3.458,1.406-4.772,2.655c-9.487-10.347-24.259-20.219-45.972-19.969
			c-26.43,0.303-45.006,8.316-56.963,17.506c-1.564-2.193-3.84-4.434-6.813-4.963c-6.185-1.101-5.096,6.503-5.096,16.159
			c0,0.315-0.004,0.617-0.01,0.903c-0.305,0.427-0.598,0.851-0.876,1.27c-0.837,1.26-1.55,2.64-2.152,4.12
			c-1.646-0.129-4.024-0.939-7.304-0.939c-7.556,0-3.488,10.988,1.958,10.988s1.116,5.472-5.241,11.829
			c-6.357,6.357,5.43,13.045,5.43,13.045s0.895,7.696-3.775,12.365c-4.669,4.67,1.475,11.237,6.893,11.237
			c5.416,0,5.261,6.972,0,12.232c-5.262,5.261,1.252,18.341,6.254,13.339s19.639,2.965,13.281,9.32
			c-6.355,6.357,9.229,8.118,16.389,8.118c7.158,0,2.477,8.774,6.365,12.662c3.545,3.546,9.258-0.527,12.066-3.102
			c0.672,0.613,1.331,1.213,1.975,1.796c0.408,4.42,0.44,12.937,4.006,15.796c3.041,2.44,4.479-2.812,5.15-7.661
			c2.049,1.783,3.369,2.907,3.685,3.175c0.56,5.192,1.954,12.104,5.36,9.371c3.069-2.462,3.52-9.118,3.846-13.743
			c1.254-0.676,2.607-1.43,4.041-2.263c3.02,2.272,7.297,4.379,10.16,1.516c2.389-2.39,1.545-6.622,2.198-9.532
			c1.374-0.991,2.767-2.035,4.172-3.131c7.162,0,22.737-1.762,16.382-8.117s8.279-14.322,13.282-9.32
			c5.002,5.002,11.516-8.078,6.255-13.339c-2.564-2.563-3.912-5.532-3.997-7.903c0.553-1.207,1.081-2.433,1.581-3.68
			c0.621-0.414,1.424-0.649,2.416-0.649c5.416,0,11.641-6.567,6.971-11.237C228.397,180.68,228.368,174.864,228.458,172.843z"/>
		
			<rect x="96.077" y="122.927" transform="matrix(0.9584 0.2855 -0.2855 0.9584 44.6098 -22.3891)" fill="#D63279" width="6.045" height="37.779"/>
		<path opacity="0.93" fill="#C5D4E9" d="M117.446,154.667h-0.012c0.003,0,0.012-0.221,0.012-0.331
			c0-7.693-8.458-13.931-18.891-13.931c-10.432,0-18.889,6.238-18.889,13.931c0,0.109,0.008,0.33,0.012,0.33h-0.012l0.022,0.318
			c0.003,0.046,0.006-0.106,0.009-0.061l3.746,53.743h30.224l3.746-53.744c0.004-0.046,0.007,0.009,0.009-0.037L117.446,154.667z"/>
		<path opacity="0.57" fill="#FFFFFF" d="M95.072,170.667h-0.003c0.001,0,0.003-0.385,0.003-0.455c0-4.961-2.233-9.105-4.989-9.105
			c-2.755,0-4.988,4.205-4.988,9.166c0,0.071,0.002,0.395,0.002,0.395h-0.002l0.006-0.037c0,0.03,0.001,0.14,0.002,0.17
			l0.989,34.867h7.983l0.988-34.99c0.002-0.029,0.002,0.084,0.003,0.055L95.072,170.667z"/>
		<rect x="79.667" y="155.667" fill="#FFFFFF" width="38" height="2"/>
		
			<rect x="70.983" y="182.469" transform="matrix(-0.0154 0.9999 -0.9999 -0.0154 274.6277 96.1422)" fill="#FFFFFF" width="37.991" height="1.628"/>
		<g>
			<path fill="#EDC58D" d="M177.803,161.327c0.646-1.905,1.234-3.86,1.738-5.814c5.812-1,12.555-1.474,12.555-1.474l-11.639-2.504
				c0.328-1.621,0.592-3.211,0.783-4.739l6.367-1.896l-6.148-0.196c0.426-5.08-0.072-9.217-1.869-11.013
				c-5.664-5.665-44.105-5.729-44.105-5.729s-0.451,5.706-0.441,11.706h-7.684l6.805,9h-6.221l7.947,6.376
				c0.099,0.807,0.213,1.65,0.334,2.452c3.895,0.577,8.735,1.863,14.238,4.445C160.204,166.512,171.425,163.704,177.803,161.327z"/>
			<path fill="#F2DCBC" d="M147.989,181.667h-0.006l3.402,4.59C150.475,184.854,149.357,182.667,147.989,181.667z"/>
			<path fill="#F2DCBC" d="M132.502,176.667h9.301l-3.697,5h9.698l-9.698,9.197l13.299-4.79c3.958,6.112,4.01,9.686,4.01,9.686
				s2.6-3.937,5.749-8.343l6.755,3.314l-3.314-8.013c0.525-0.69,1.044-1.365,1.552-2.005l11.768-3.768l-6.2-2.81
				c0.364-0.52,0.723-1.072,1.077-1.655l15.127-0.077l-12.901-4.112c1.012-2.156,1.945-4.52,2.777-6.965
				c-6.378,2.377-17.6,5.204-27.34,0.633c-5.503-2.583-10.344-3.85-14.238-4.427c0.576,3.823,1.41,7.633,2.605,10.921
				L132.502,176.667z M147.989,181.667c1.368,1,2.486,3.188,3.396,4.59l-3.402-4.59H147.989z"/>
		</g>
		<ellipse cx="112.917" cy="73.132" rx="16.054" ry="17.507"/>
		<ellipse cx="212.463" cy="75.845" rx="15.482" ry="17.508"/>
		<path fill="#F2DCBC" d="M204.026,59.465c-11.93-23.101-74.929-33.791-88.395,7.014c-13.465,40.804,5.637,56.318,16.055,65.338
			c10.418,9.021,28.23,19.509,46.826,6.666C197.352,125.471,233.217,115.991,204.026,59.465z"/>
		<path d="M146.944,76.878c-1.213-2.805-15.021-5.204-16.65,0c-1.628,5.204-4.783,11.952-1.415,11.952
			S152.094,88.782,146.944,76.878z"/>
		<path d="M179.09,73.333c0,0-6.169,2.643-6.169,9.432s9.396,14.759,13.276,14.759c3.879,0,19.492-4.777,19.492-7.991
			S206.846,68.977,179.09,73.333z"/>
		<ellipse cx="159.24" cy="110.021" rx="11.993" ry="1.9"/>
		<circle fill="#E3EAF3" cx="138.134" cy="82.004" r="3.209"/>
		<circle fill="#E3EAF3" cx="186.979" cy="82.004" r="3.209"/>
	</g>
	<ellipse fill="#F2DCBC" cx="79.863" cy="181.167" rx="7.546" ry="13.5"/>
</g>
</svg>
