<?xml version="1.0" encoding="utf-8"?>
<!-- Generator: Adobe Illustrator 15.1.0, SVG Export Plug-In . SVG Version: 6.00 Build 0)  -->
<!DOCTYPE svg PUBLIC "-//W3C//DTD SVG 1.1//EN" "http://www.w3.org/Graphics/SVG/1.1/DTD/svg11.dtd">
<svg version="1.1" id="Layer_1" xmlns="http://www.w3.org/2000/svg" xmlns:xlink="http://www.w3.org/1999/xlink" x="0px" y="0px"
	 width="308px" height="314.667px" viewBox="0 0 308 314.667" enable-background="new 0 0 308 314.667" xml:space="preserve">
<g>
	<g>
		<g id="g5241_173_">
			<path id="path35_179_" fill="#3C6EAF" d="M299.798,162.686c0-79.041-64.068-143.116-143.113-143.116
				c-78.999,0-143.05,64.022-143.104,143.018l-0.005-0.005v110.746l0.005,0.007c0.041,17.936,14.586,32.453,32.533,32.453
				c0.051,0,0.102-0.005,0.156-0.005l0.009,0.005h110.466l0,0c79.018-0.033,143.059-64.088,143.059-143.103H299.798z"/>
		</g>
		<g id="g5241_172_">
			<path id="path35_178_" fill="#294172" d="M296.798,155.686c0-79.041-64.068-143.116-143.113-143.116
				c-78.999,0-143.05,64.022-143.104,143.018l-0.005-0.005v110.746l0.005,0.007c0.041,17.936,14.586,32.453,32.533,32.453
				c0.051,0,0.102-0.005,0.156-0.005l0.009,0.005h110.466l0,0c79.018-0.033,143.059-64.088,143.059-143.103H296.798z"/>
		</g>
		<g>
			<path fill="#3C6EAF" d="M49.996,250.769c4.444,0,8.532,1.482,11.837,3.956c-3.61-4.821-9.35-7.956-15.837-7.956
				c-10.933,0-19.794,8.863-19.794,19.797c0,6.486,3.135,12.227,7.957,15.838c-2.475-3.305-3.957-7.394-3.957-11.838
				C30.202,259.632,39.063,250.769,49.996,250.769z"/>
			<path fill="#A7BFDF" d="M65.79,266.566c0-4.446-1.483-8.536-3.957-11.841c-3.305-2.474-7.393-3.956-11.837-3.956
				c-10.933,0-19.794,8.863-19.794,19.797c0,4.444,1.482,8.533,3.957,11.838c3.304,2.473,7.393,3.956,11.837,3.956
				C56.928,286.36,65.79,277.497,65.79,266.566z"/>
		</g>
		<g>
			<path fill="#3C6EAF" d="M45.49,150.497c0-53.769,33.451-99.721,80.677-118.189C72.395,44.935,32.363,93.206,32.363,150.833
				c0,59.174,42.215,108.482,98.172,119.463C81.018,253.013,45.49,205.908,45.49,150.497z"/>
			<path fill="#8AA9D4" d="M275.862,149.833c0-67.244-54.513-121.753-121.754-121.753c-9.615,0-18.969,1.119-27.941,3.227
				C78.941,49.776,45.49,95.728,45.49,149.497c0,55.411,35.528,102.517,85.045,119.8c7.628,1.497,15.507,2.289,23.573,2.289
				C221.349,271.585,275.862,217.074,275.862,149.833z"/>
		</g>
		<text transform="matrix(1 0 0 1 26.2017 281.5649)" font-family="'BaskOldFace'" font-size="57.4636">III</text>
	</g>
	<g>
		
			<image overflow="visible" opacity="0.35" width="87" height="131" xlink:href="2C4CD4B1.png"  transform="matrix(1 0 0 1 47.6665 73.6665)">
		</image>
		<g>
			<g>
				<g>
					<path fill="#7091CB" d="M83.463,97.71c3.861-0.081,7.057,2.983,7.138,6.843s-2.981,7.055-6.843,7.137
						c-3.86,0.082-7.056-2.982-7.137-6.842C76.54,100.988,79.604,97.792,83.463,97.71z"/>
				</g>
				<g>
					<path fill="#E4F4D8" d="M113.307,185.545l-1.643-77.758l-0.811,0.017L88.559,86.34l-27.854,22.524l-0.439,0.009l1.642,77.758
						L113.307,185.545z M85.499,94.553c3.656-0.077,6.686,2.826,6.762,6.483c0.078,3.658-2.826,6.685-6.482,6.763
						c-3.658,0.077-6.686-2.825-6.763-6.483S81.84,94.631,85.499,94.553z"/>
				</g>
				<g>
					<path fill="#EFF7E9" d="M116.602,185.475l-1.643-77.757l-0.512,0.011L88.559,86.34L64.3,108.788l-0.081,0.002l1.643,77.757
						L116.602,185.475z M89.092,94.477c3.658-0.078,6.686,2.826,6.762,6.483c0.078,3.658-2.824,6.685-6.482,6.763
						c-3.657,0.077-6.686-2.825-6.762-6.482C82.532,97.582,85.434,94.555,89.092,94.477z"/>
				</g>
			</g>
		</g>
	</g>
	<g>
		
			<image overflow="visible" opacity="0.35" width="87" height="131" xlink:href="2C4CD4B3.png"  transform="matrix(1 0 0 1 113.6665 135.6665)">
		</image>
		<g>
			<g>
				<g>
					<path fill="#7091CB" d="M149.001,159.265c3.86-0.081,7.057,2.984,7.138,6.843c0.082,3.859-2.982,7.055-6.843,7.137
						s-7.056-2.981-7.138-6.842C142.078,162.543,145.141,159.347,149.001,159.265z"/>
				</g>
				<g>
					<path fill="#E4F4D8" d="M178.844,247.1l-1.641-77.758l-0.812,0.018l-22.294-21.465l-27.854,22.524l-0.441,0.01l1.643,77.757
						L178.844,247.1z M151.036,156.107c3.658-0.077,6.686,2.826,6.764,6.483c0.076,3.658-2.826,6.686-6.484,6.764
						c-3.656,0.076-6.685-2.826-6.762-6.483C144.477,159.213,147.379,156.185,151.036,156.107z"/>
				</g>
				<g>
					<path fill="#EFF7E9" d="M182.14,247.03l-1.642-77.758l-0.512,0.012l-25.889-21.389l-24.26,22.448l-0.081,0.002l1.643,77.758
						L182.14,247.03z M154.629,156.032c3.658-0.078,6.686,2.826,6.764,6.482c0.076,3.658-2.826,6.686-6.483,6.764
						c-3.657,0.076-6.686-2.826-6.763-6.482C148.07,159.137,150.973,156.109,154.629,156.032z"/>
				</g>
			</g>
		</g>
	</g>
	<g>
		
			<image overflow="visible" opacity="0.35" width="87" height="132" xlink:href="2C4CD4B6.png"  transform="matrix(1 0 0 1 183.6665 95.6665)">
		</image>
		<g>
			<g>
				<g>
					<path fill="#7091CB" d="M219.05,119.937c3.86-0.081,7.057,2.983,7.138,6.843c0.082,3.86-2.982,7.055-6.843,7.137
						c-3.86,0.082-7.056-2.982-7.138-6.842C212.126,123.215,215.19,120.019,219.05,119.937z"/>
				</g>
				<g>
					<path fill="#E4F4D8" d="M248.893,207.772l-1.641-77.757l-0.812,0.017l-22.294-21.465l-27.854,22.524l-0.441,0.009l1.643,77.757
						L248.893,207.772z M221.084,116.78c3.658-0.077,6.686,2.826,6.764,6.483c0.076,3.658-2.826,6.685-6.484,6.763
						c-3.656,0.077-6.685-2.825-6.762-6.483C214.526,119.885,217.428,116.858,221.084,116.78z"/>
				</g>
				<g>
					<path fill="#EFF7E9" d="M252.189,207.703l-1.642-77.758l-0.512,0.011l-25.889-21.389l-24.26,22.448l-0.081,0.002l1.643,77.757
						L252.189,207.703z M224.678,116.704c3.658-0.078,6.686,2.826,6.764,6.483c0.076,3.658-2.826,6.685-6.483,6.763
						c-3.657,0.077-6.686-2.825-6.763-6.482C218.119,119.809,221.022,116.782,224.678,116.704z"/>
				</g>
			</g>
		</g>
	</g>
	<path fill="none" stroke="#000000" stroke-width="1.2764" stroke-linecap="round" stroke-miterlimit="10" d="M86.786,98.471
		c-5.448-5.448,29.816,7.813,29.816-12.131s11.054-52.159,38.691-42.684s14.327,26.556-2.705,26.556"/>
	<path fill="none" stroke="#000000" stroke-width="1.2764" stroke-linecap="round" stroke-miterlimit="10" d="M154.629,156.032
		c0,0-38.417-5.79-22.095-22.112s73.618-8.711,53.109-29.219s-47.208,20.401-47.208-8.952s-11.619-50.443-25.129-36.933"/>
	<path fill="none" stroke="#000000" stroke-width="1.2764" stroke-linecap="round" stroke-miterlimit="10" d="M224.678,116.704
		c0,0,37.686-13.662,20.984-30.364c-16.703-16.702-53.307-9.792-43.515,0s33.208,3.882,13.198-16.128"/>
	<g>
		<path fill="#294172" d="M81.823,170.209c-0.371,0.004-0.688-0.123-0.953-0.382c-0.263-0.258-0.397-0.573-0.4-0.944
			c-0.004-0.371,0.123-0.688,0.382-0.952s0.574-0.397,0.944-0.401l16.209-0.161l-0.094-9.38c-0.003-0.371,0.124-0.688,0.383-0.953
			c0.259-0.263,0.574-0.398,0.943-0.402c0.372-0.003,0.689,0.124,0.953,0.383s0.397,0.573,0.401,0.945l0.106,10.721
			c0.002,0.193-0.03,0.371-0.096,0.531c-0.066,0.161-0.16,0.304-0.281,0.427s-0.261,0.22-0.42,0.289
			c-0.159,0.068-0.336,0.104-0.53,0.105L81.823,170.209z"/>
		<path fill="#294172" d="M90.271,137.277c2.79-0.028,5.185,0.939,7.185,2.9c1.992,1.953,3.002,4.324,3.029,7.113
			c0.028,2.8-0.935,5.194-2.887,7.186c-1.953,1.992-4.328,3.002-7.127,3.03c-2.79,0.027-5.181-0.936-7.172-2.888
			c-2.001-1.96-3.016-4.336-3.043-7.126c-0.027-2.781,0.939-5.173,2.9-7.173c0.985-1.004,2.065-1.759,3.24-2.264
			C87.573,137.55,88.864,137.291,90.271,137.277z M82.937,147.464c0.011,1.046,0.201,1.999,0.572,2.858
			c0.371,0.861,0.927,1.653,1.667,2.38c0.74,0.726,1.543,1.263,2.406,1.614c0.862,0.35,1.816,0.52,2.862,0.509
			c2.057-0.021,3.803-0.763,5.237-2.227c1.436-1.464,2.144-3.225,2.123-5.281c-0.021-2.056-0.762-3.803-2.227-5.238
			c-1.465-1.436-3.225-2.143-5.281-2.123c-2.049,0.02-3.789,0.763-5.225,2.227C83.628,143.657,82.917,145.417,82.937,147.464z"/>
		<path fill="#294172" d="M81.477,135.404c-0.371,0.003-0.688-0.123-0.952-0.381c-0.264-0.259-0.397-0.574-0.401-0.944
			c-0.004-0.372,0.124-0.689,0.383-0.953s0.574-0.398,0.944-0.401l16.208-0.161l-0.093-9.38c-0.003-0.371,0.124-0.688,0.382-0.953
			c0.26-0.264,0.574-0.397,0.945-0.402c0.371-0.004,0.688,0.125,0.951,0.383c0.265,0.259,0.398,0.574,0.401,0.944l0.106,10.722
			c0.002,0.194-0.029,0.371-0.096,0.531c-0.065,0.162-0.159,0.303-0.28,0.427c-0.12,0.124-0.261,0.22-0.42,0.288
			c-0.159,0.069-0.337,0.104-0.53,0.106L81.477,135.404z"/>
	</g>
	<g>
		<path fill="#294172" d="M144,232.964c-0.371,0.004-0.688-0.123-0.953-0.382c-0.262-0.258-0.396-0.573-0.4-0.944
			s0.123-0.688,0.383-0.952c0.258-0.264,0.574-0.398,0.944-0.401l16.208-0.161l-0.093-9.38c-0.003-0.371,0.124-0.688,0.382-0.952
			c0.26-0.264,0.574-0.398,0.944-0.402c0.372-0.003,0.688,0.124,0.952,0.383s0.398,0.573,0.402,0.945l0.105,10.721
			c0.002,0.193-0.029,0.371-0.096,0.531c-0.066,0.161-0.16,0.303-0.281,0.427c-0.12,0.123-0.26,0.22-0.42,0.289
			c-0.158,0.069-0.336,0.104-0.529,0.106L144,232.964z"/>
		<path fill="#294172" d="M152.45,200.032c2.789-0.027,5.184,0.939,7.185,2.9c1.992,1.953,3.001,4.324,3.029,7.113
			c0.028,2.8-0.935,5.193-2.888,7.186s-4.328,3.002-7.126,3.03c-2.79,0.027-5.181-0.936-7.173-2.888
			c-2-1.961-3.015-4.337-3.042-7.127c-0.028-2.781,0.938-5.173,2.9-7.173c0.985-1.004,2.065-1.759,3.239-2.264
			C149.75,200.305,151.042,200.045,152.45,200.032z M145.116,210.219c0.01,1.047,0.201,1.999,0.572,2.858
			c0.371,0.861,0.926,1.653,1.666,2.38c0.741,0.727,1.543,1.264,2.406,1.614c0.863,0.35,1.817,0.52,2.863,0.509
			c2.057-0.021,3.803-0.764,5.236-2.227c1.437-1.464,2.145-3.225,2.123-5.281c-0.02-2.057-0.762-3.803-2.227-5.238
			c-1.464-1.436-3.224-2.143-5.28-2.122c-2.049,0.021-3.79,0.763-5.226,2.227C145.807,206.412,145.094,208.171,145.116,210.219z"/>
		<path fill="#294172" d="M143.656,198.159c-0.371,0.003-0.688-0.123-0.952-0.381c-0.264-0.26-0.398-0.574-0.402-0.945
			c-0.003-0.371,0.125-0.688,0.383-0.952c0.26-0.264,0.574-0.398,0.945-0.401l16.207-0.161l-0.092-9.38
			c-0.004-0.371,0.123-0.689,0.382-0.953s0.573-0.397,0.944-0.402c0.371-0.004,0.688,0.125,0.952,0.384
			c0.265,0.259,0.397,0.573,0.401,0.944l0.106,10.722c0.002,0.194-0.03,0.371-0.096,0.53c-0.065,0.162-0.159,0.304-0.28,0.428
			s-0.262,0.22-0.42,0.288c-0.16,0.069-0.338,0.104-0.531,0.106L143.656,198.159z"/>
	</g>
	<g>
		<path fill="#294172" d="M216.633,197.438c-0.371,0.004-0.688-0.123-0.953-0.383c-0.263-0.258-0.397-0.572-0.4-0.943
			c-0.004-0.371,0.123-0.689,0.382-0.953s0.574-0.397,0.944-0.401l16.209-0.161l-0.094-9.379c-0.003-0.371,0.124-0.689,0.383-0.953
			s0.574-0.398,0.943-0.402c0.372-0.002,0.689,0.125,0.953,0.383c0.264,0.26,0.397,0.574,0.401,0.945l0.106,10.721
			c0.002,0.193-0.03,0.371-0.096,0.531c-0.066,0.162-0.16,0.304-0.281,0.428c-0.121,0.123-0.261,0.219-0.42,0.289
			c-0.159,0.068-0.336,0.104-0.53,0.105L216.633,197.438z"/>
		<path fill="#294172" d="M225.082,164.504c2.79-0.027,5.185,0.939,7.185,2.9c1.992,1.953,3.002,4.324,3.029,7.113
			c0.028,2.801-0.935,5.194-2.887,7.186c-1.953,1.992-4.328,3.002-7.127,3.031c-2.79,0.027-5.181-0.936-7.172-2.889
			c-2.001-1.961-3.016-4.336-3.043-7.127c-0.027-2.781,0.939-5.172,2.9-7.172c0.985-1.004,2.065-1.76,3.24-2.264
			C222.383,164.778,223.674,164.518,225.082,164.504z M217.748,174.692c0.011,1.047,0.201,2,0.572,2.859
			c0.371,0.861,0.927,1.652,1.667,2.38c0.74,0.726,1.543,1.263,2.406,1.614c0.862,0.35,1.816,0.52,2.862,0.508
			c2.057-0.02,3.803-0.763,5.237-2.227c1.436-1.463,2.144-3.225,2.123-5.281c-0.021-2.056-0.762-3.803-2.227-5.237
			c-1.465-1.436-3.225-2.144-5.281-2.123c-2.049,0.021-3.789,0.763-5.225,2.228C218.439,170.885,217.727,172.645,217.748,174.692z"
			/>
		<path fill="#294172" d="M216.288,162.631c-0.371,0.004-0.688-0.123-0.952-0.381c-0.264-0.259-0.397-0.574-0.401-0.944
			c-0.004-0.372,0.124-0.689,0.383-0.953s0.574-0.398,0.944-0.401l16.208-0.161l-0.093-9.38c-0.003-0.372,0.124-0.688,0.382-0.953
			c0.26-0.264,0.574-0.398,0.945-0.402s0.688,0.125,0.951,0.383c0.265,0.259,0.398,0.574,0.401,0.944l0.106,10.722
			c0.002,0.193-0.029,0.371-0.096,0.53c-0.065,0.161-0.159,0.304-0.28,0.427c-0.12,0.125-0.261,0.221-0.42,0.289
			s-0.337,0.104-0.53,0.105L216.288,162.631z"/>
	</g>
</g>
</svg>
