<?xml version="1.0" encoding="utf-8"?>
<!-- Generator: Adobe Illustrator 15.1.0, SVG Export Plug-In . SVG Version: 6.00 Build 0)  -->
<!DOCTYPE svg PUBLIC "-//W3C//DTD SVG 1.1//EN" "http://www.w3.org/Graphics/SVG/1.1/DTD/svg11.dtd">
<svg version="1.1" id="Layer_1" xmlns="http://www.w3.org/2000/svg" xmlns:xlink="http://www.w3.org/1999/xlink" x="0px" y="0px"
	 width="308px" height="314.667px" viewBox="0 0 308 314.667" enable-background="new 0 0 308 314.667" xml:space="preserve">
<g>
	<g id="g5241_194_">
		<path id="path35_200_" fill="#3C6EAF" d="M301.798,160.686c0-79.041-64.068-143.116-143.113-143.116
			c-78.999,0-143.05,64.022-143.104,143.018l-0.005-0.005v110.746l0.005,0.007c0.041,17.936,14.586,32.453,32.533,32.453
			c0.051,0,0.102-0.005,0.156-0.005l0.009,0.005h110.466l0,0c79.018-0.033,143.059-64.088,143.059-143.103H301.798z"/>
	</g>
	<g id="g5241_193_">
		<path id="path35_199_" fill="#294172" d="M298.798,153.686c0-79.041-64.068-143.116-143.113-143.116
			c-78.999,0-143.05,64.022-143.104,143.018l-0.005-0.005v110.746l0.005,0.007c0.041,17.936,14.586,32.453,32.533,32.453
			c0.051,0,0.102-0.005,0.156-0.005l0.009,0.005h110.466l0,0c79.018-0.033,143.059-64.088,143.059-143.103H298.798z"/>
	</g>
	<g>
		<path fill="#3C6EAF" d="M51.996,248.769c4.444,0,8.532,1.482,11.837,3.956c-3.61-4.821-9.35-7.956-15.837-7.956
			c-10.933,0-19.794,8.863-19.794,19.797c0,6.486,3.135,12.227,7.957,15.838c-2.475-3.305-3.957-7.394-3.957-11.838
			C32.202,257.632,41.063,248.769,51.996,248.769z"/>
		<path fill="#A7BFDF" d="M67.79,264.566c0-4.446-1.483-8.536-3.957-11.841c-3.305-2.474-7.393-3.956-11.837-3.956
			c-10.933,0-19.794,8.863-19.794,19.797c0,4.444,1.482,8.533,3.957,11.838c3.304,2.473,7.393,3.956,11.837,3.956
			C58.928,284.36,67.79,275.497,67.79,264.566z"/>
	</g>
	<g>
		<path fill="#3C6EAF" d="M47.49,148.497c0-53.769,33.451-99.721,80.677-118.189C74.395,42.935,34.363,91.206,34.363,148.833
			c0,59.174,42.215,108.482,98.172,119.463C83.018,251.013,47.49,203.908,47.49,148.497z"/>
		<path fill="#8AA9D4" d="M277.862,147.833c0-67.244-54.513-121.753-121.754-121.753c-9.615,0-18.969,1.119-27.941,3.227
			C80.941,47.776,47.49,93.728,47.49,147.497c0,55.411,35.528,102.517,85.045,119.8c7.628,1.497,15.507,2.289,23.573,2.289
			C223.349,269.585,277.862,215.074,277.862,147.833z"/>
	</g>
	<g>
		
			<image overflow="visible" opacity="0.75" width="99" height="84" xlink:href="D4889C43.png"  transform="matrix(1 0 0 1 1.6665 224.6665)">
		</image>
		<g>
			<text transform="matrix(1 0 0 1 15.4341 277.4038)" font-family="'BaskOldFace'" font-size="48">VII</text>
		</g>
	</g>
</g>
<g>
	
		<image overflow="visible" opacity="0.75" width="111" height="125" xlink:href="D4889C41.png"  transform="matrix(1 0 0 1 30.6665 76.6665)">
	</image>
	<g>
		<path fill="#FFFFFF" d="M99.667,179.667v-52c0,0,20,0,20-14.465c0-7.789-8.997-12.577-10.354-19.147
			c-2.764-13.388-11.646-8.388-11.646-8.388s-45.459,4.162-44.008,5.612c1.449,1.45-14.412,36.052-14.412,36.052
			s21.219,42.628,24.42,45.651S97.971,172.899,99.667,179.667z"/>
	</g>
</g>
<g>
	
		<image overflow="visible" opacity="0.75" width="83" height="107" xlink:href="D4889C47.png"  transform="matrix(1 0 0 1 104.417 137.417)">
	</image>
	<g>
		<path fill="#FFFFFF" d="M170.752,204.411c-1.238-9.215-0.349-7.82-8.076-8.65c0.725-1.249-3.76-4.895-2.227-4.253
			c18.877,7.904-3.842-11.761-7.155-11.761c-1.844,0-3.033,2.552-4.141,4.188c-2.492-2.168-7.544-1.861-10.487,0.795
			c-2.234,2.018-6.883-0.719-3.523-1.682c-1.701-2.75-0.93-4.795-3.762-5.997c14.285,3.616,14.554-6.293,14.599-14.04
			c0.093-15.999-5.845-20.365-15.335-20.365c-13.156,0-15.313,7.403-18.113,19.565c-1.494,6.487,4.67,11.883,11.22,13.987
			c-7.054,1.285-18.382-5.336-12.438,16.439c2.037,7.464,4.696,14.24,11.061,16.113c-0.716,1.817-1.111,3.813-1.111,5.908
			c0,8.42,6.389,15.247,14.269,15.247c6.288,0,11.624-4.349,13.524-10.382c0.807,5.911,2.625,13.197,9.054,12.174
			c11.085-1.768,23.563-9.815,10.569-7.883c-2.145,0.319-1.741-10.887-2.431-12.675
			C170.247,209.565,171.119,207.138,170.752,204.411z"/>
	</g>
</g>
<path fill="none" stroke="#000000" stroke-width="2" stroke-linecap="round" stroke-miterlimit="10" d="M53.659,91.279
	c0,0,51.711-8.984,51.711-5.983s7.474,15.016,11.976,19.518c4.501,4.501,3.361,12.927-0.015,16.303s-12.02,9.55-18.772,9.55
	s-15.519,0-15.519,0s-12.242-0.502-15.994-4.254s-4.502,7.212-9.004,7.212s-13.506-3.896-13.506-3.896l-5.252,3.678
	C39.284,133.407,50.026,91.279,53.659,91.279z"/>
<path fill="none" stroke="#000000" stroke-width="2.3802" stroke-linecap="round" stroke-miterlimit="10" d="M105.37,85.296
	c0-3.733,5.943-11.986,5.943-11.986"/>
<line fill="none" stroke="#000000" stroke-width="2" stroke-linecap="round" stroke-miterlimit="10" x1="97.667" y1="85.667" x2="97.667" y2="75.667"/>
<line fill="none" stroke="#000000" stroke-width="2" stroke-linecap="round" stroke-miterlimit="10" x1="83.667" y1="85.667" x2="83.667" y2="78.667"/>
<line fill="none" stroke="#000000" stroke-width="2" stroke-linecap="round" stroke-miterlimit="10" x1="73.667" y1="87.667" x2="73.667" y2="80.667"/>
<line fill="none" stroke="#000000" stroke-width="2" stroke-linecap="round" stroke-miterlimit="10" x1="65.667" y1="87.667" x2="65.667" y2="80.667"/>
<path fill="none" stroke="#000000" stroke-width="2.3802" stroke-linecap="round" stroke-miterlimit="10" d="M105.37,104.823
	c0,0,10.7,18.199,5.943,20.818"/>
<path fill="none" stroke="#000000" stroke-width="2.3802" stroke-linecap="round" stroke-miterlimit="10" d="M102.31,109.111
	c0,0,6.941,18.439,3.06,19.663"/>
<polyline fill="none" stroke="#000000" stroke-width="2" stroke-linecap="round" stroke-miterlimit="10" points="97.795,115.015 
	101.667,128.774 101.667,178.667 "/>
<path fill="none" stroke="#000000" stroke-width="2.3802" stroke-linecap="round" stroke-miterlimit="10" d="M87.303,104.823
	c0,0,7.908,20.544,4.502,23.951"/>
<line fill="none" stroke="#000000" stroke-width="2.3802" stroke-linecap="round" stroke-miterlimit="10" x1="84.689" y1="109.111" x2="83.04" y2="130.331"/>
<path fill="none" stroke="#000000" stroke-width="2.3802" stroke-linecap="round" stroke-miterlimit="10" d="M79.796,109.111
	c0,0-5.557,15.964-5.557,21.219"/>
<path fill="none" stroke="#000000" stroke-width="2.3802" stroke-linecap="round" stroke-miterlimit="10" d="M74.24,109.111
	c0,0-7.194,11.542-7.194,17.132"/>
<path fill="none" stroke="#000000" stroke-width="2.3802" stroke-linecap="round" stroke-miterlimit="10" d="M61.793,109.111
	c0,0-6.754,17.132-6.754,24.429"/>
<path fill="none" stroke="#000000" stroke-width="2.3802" stroke-linecap="round" stroke-miterlimit="10" d="M50.539,115.232
	c0,0-9.327,11.129-6.003,14.455"/>
<line fill="none" stroke="#000000" stroke-width="2" stroke-linecap="round" stroke-miterlimit="10" x1="65.667" y1="176.667" x2="65.667" y2="129.667"/>
<line fill="none" stroke="#000000" stroke-width="2" stroke-linecap="round" stroke-miterlimit="10" x1="102.288" y1="152.879" x2="67.045" y2="158.095"/>
<line fill="none" stroke="#000000" stroke-width="2.3802" stroke-linecap="round" stroke-miterlimit="10" x1="102.288" y1="128.774" x2="66.54" y2="139.336"/>
<line fill="none" stroke="#000000" stroke-width="2" stroke-linecap="round" stroke-miterlimit="10" x1="70.667" y1="157.667" x2="70.667" y2="137.667"/>
<line fill="none" stroke="#000000" stroke-width="2.3802" stroke-linecap="round" stroke-miterlimit="10" x1="79.796" y1="155.487" x2="77.018" y2="136.242"/>
<line fill="none" stroke="#000000" stroke-width="2.3802" stroke-linecap="round" stroke-miterlimit="10" x1="84.689" y1="152.879" x2="87.303" y2="133.202"/>
<line fill="none" stroke="#000000" stroke-width="2.3802" stroke-linecap="round" stroke-miterlimit="10" x1="92.657" y1="152.879" x2="89.98" y2="132.411"/>
<line fill="none" stroke="#000000" stroke-width="2" stroke-linecap="round" stroke-miterlimit="10" x1="97.667" y1="152.667" x2="97.667" y2="127.667"/>
<g>
	
		<image overflow="visible" opacity="0.75" width="136" height="144" xlink:href="D4889C40.png"  transform="matrix(1 0 0 1 36.417 131.417)">
	</image>
	<g>
		<path fill="#FFFFFF" d="M42.034,136.242c0,0,22.51,25.604,22.51,30.106s8.849,19.107,8.849,12.93s-0.314-4.506,3.597-8.416
			c3.912-3.912,24.199-5.242,24.199,0c0,5.24,1.799,17.555,5.991,21.746c4.191,4.192,15.878,10.505,15.878,15.757
			s6.762,30.762,11.264,30.762s15.007,7.504,15.007,7.504l9.753,13.505c0,0-31.512,6.753-54.021-6.002
			S34.531,209.676,42.034,136.242z"/>
	</g>
</g>
<path fill="none" stroke="#000000" stroke-width="3.8498" stroke-miterlimit="10" d="M40.383,136.242c0,0,22.51,25.604,22.51,30.106
	s8.85,19.107,8.85,12.93s-0.314-4.506,3.597-8.416c3.912-3.912,24.199-5.242,24.199,0c0,5.24,1.799,17.555,5.991,21.746
	c4.191,4.192,15.878,10.505,15.878,15.757s6.761,30.762,11.264,30.762c4.502,0,15.006,7.504,15.006,7.504l9.754,13.505
	c0,0-31.513,6.753-54.021-6.002C80.9,241.378,32.881,209.676,40.383,136.242z"/>
<path d="M55.04,186.606c0,0,8.762,15.215,11.5,12.476c2.74-2.739-1.053-0.918,4.102-6.073c5.155-5.154,7.766-2.943,7.766-9.925
	s-3.067-12.222-3.067-12.222s-6.911,10.008-4.698,12.222c2.215,2.214-0.604,9.272-4.102,5.773S44.1,169.54,50.539,175.978
	c6.439,6.439,14.256,17.38,11.255,14.38C58.792,187.356,53.303,183.754,55.04,186.606z"/>
<path d="M157.285,260.667c0,0-8.549-12.277-12.872-15.858c-0.142-0.171-0.38-0.49-0.73-0.689c-3.995-2.647-7.325-2.746-7.325-2.746
	l0,0c-2.503-0.852-4.724-2.086-6.287-5.213c-3-6.002-3.769-30.813-9.762-30.813c-5.994,0-17.998,5.277-17.998,2.277
	c0-3.002-9.653-14.261-9.653-18.012s-10.707-12.696-5.354-4.474s5.751,17.019,2.677,13.944s-5.216-4.223-5.216-10.226
	c0-6.002-7.072-18.294-7.072-11.716s2.865,19.788,5.348,22.27c0,0,10.951,15.729,15.475,15.729c4.522,0,10.152-0.164,14.018-0.773
	c12.424-1.956,7.308,32.264,12.424,32.264c2.633,0,8.89,0.351,13.635,0.025l6.045,14.011H157.285z"/>
<path d="M132.322,260.124c0,0-3.478-9.409-7.366-9.409s1.729,2.302-4.647-4.076c-6.378-6.377-5.243-27.77-8.995-27.77
	c-3.751,0-8.271,5.497-4.764,9.004c3.507,3.508,9.177,12.11,5.982,12.11c-4.121,0-7.162-7.684-7.162-3.932
	s14.938,18.336,14.938,18.336s-17.998-0.988-17.998-7.749s-0.089-27.77-3.796-27.77s1.256,20.594-4.967,17.128
	c-5.94-3.309,0.61-17.128-3.567-17.128c-4.177,0-2.677,2.251-2.677,10.505c0,8.253,6.315,19.043,11.211,21.9
	C103.41,254.133,128.201,264.245,132.322,260.124z"/>
<path fill="none" stroke="#000000" stroke-width="2" stroke-miterlimit="10" d="M109.825,183.164c0,0-0.75-7.866,5.49-7.866
	c6.238,0,14.416,1.375,17.043,4.002c2.625,2.625,1.618,5.848,4.737,5.848s7.103-6.253,11.297-2.059
	c4.194,4.195,3.115,9.635,3.115,11.584s-3.124,10.994-9.363,10.994c-6.237,0-16.478,0-16.478,0"/>
<path fill="none" stroke="#000000" stroke-width="2.1999" stroke-linecap="round" stroke-miterlimit="10" d="M122.261,185.136
	c0,0,8.536-0.528,10.061-2.053"/>
<path fill="none" stroke="#000000" stroke-width="2.1999" stroke-linecap="round" stroke-miterlimit="10" d="M134.971,199.082
	c0,0-1.66-13.312,0-14.972c1.687-1.688-9.592,9.312-9.592,9.312"/>
<path fill="none" stroke="#000000" stroke-width="2.1999" stroke-linecap="round" stroke-miterlimit="10" d="M140.975,195.76
	c0,0-6.237-10.613-3.898-10.613"/>
<line fill="none" stroke="#000000" stroke-width="2" stroke-linecap="round" stroke-miterlimit="10" x1="145.667" y1="193.667" x2="145.667" y2="180.667"/>
<path fill="none" stroke="#000000" stroke-width="2.1999" stroke-linecap="round" stroke-miterlimit="10" d="M117.489,172.757
	c0,0,20.092,7.844,25.437,2.5c5.344-5.344,0.879-10.071,3.055-12.247c2.177-2.176,0.064-10.138-1.886-12.086
	c-1.95-1.95-2.971-5.523-5.331-7.884s-16-1.016-21.274,4.258c-5.275,5.275-1.019,6.571-2.636,8.188S105.669,167.994,117.489,172.757
	z"/>
<path fill="none" stroke="#000000" stroke-width="2.1999" stroke-linecap="round" stroke-miterlimit="10" d="M125.379,157.83
	c0,0,10.392-6.741,13.384,0"/>
<path fill="none" stroke="#000000" stroke-width="2" stroke-linecap="round" stroke-miterlimit="10" d="M138.667,166.667h4.869
	c0,0-4.339-10.885-2.475-10.885s4.959,0.991,4.959,0.991"/>
<path fill="none" stroke="#000000" stroke-width="2.1999" stroke-miterlimit="10" d="M132.072,160.783c0,0,2.27,0.43,4.48-1.262"/>
<path fill="none" stroke="#000000" stroke-width="2.1999" stroke-miterlimit="10" d="M142.283,159.521c0,0,3.697,0.337,3.697-1.426"
	/>
<path fill="none" stroke="#000000" stroke-width="2.1999" stroke-linecap="round" stroke-miterlimit="10" d="M125.379,168.079
	c0,0-12.085,1.49-9.746-7.247c2.338-8.738,6.628-1.311,6.628-1.311"/>
<line fill="none" stroke="#000000" stroke-width="2" stroke-linecap="round" stroke-miterlimit="10" x1="119.667" y1="162.667" x2="121.667" y2="162.667"/>
<path fill="none" stroke="#000000" stroke-width="2.1999" stroke-linecap="round" stroke-miterlimit="10" d="M127.292,212.916
	c1.384-1.384,9.261,0.338,11.472-7.239"/>
<path fill="none" stroke="#000000" stroke-width="2.1999" stroke-linecap="round" stroke-miterlimit="10" d="M127.292,209.295
	c0,0,5.853,3.62,9.472,0"/>
<path fill="none" stroke="#000000" stroke-width="2.1999" stroke-miterlimit="10" d="M128.214,229.274
	c0,0,13.541,4.305,21.729-7.392"/>
<path fill="none" stroke="#000000" stroke-width="2.1999" stroke-miterlimit="10" d="M151.625,212.916
	c0,0,12.353-1.611,12.353-7.239c0-5.627-0.826-14.169-4.897-14.169c-4.069,0-7.455,1.538-7.455,7.574"/>
<path fill="none" stroke="#000000" stroke-width="2.1999" stroke-linecap="round" stroke-miterlimit="10" d="M157.285,199.082
	c0,0-6.797,11.823-10.384,11.823"/>
<path fill="none" stroke="#000000" stroke-width="2" stroke-linecap="round" stroke-miterlimit="10" d="M157.893,205.971
	c0,0-3.89,7.08-8.042,7.08c0,0-0.344,18.646,4.725,18.646s16.351-1.983,14.792-3.543c-1.559-1.559-9.701-0.424-9.701-5.883
	c0-5.457,0-11.605,0-11.605"/>
<path fill="none" stroke="#000000" stroke-width="2.1999" stroke-miterlimit="10" d="M142.283,209.295c0,0,2.383,4.252,7.522,3.608"
	/>
<path fill="none" stroke="#000000" stroke-width="2.1999" stroke-linecap="round" stroke-miterlimit="10" d="M142.283,228.361
	c0,0,5.129-13.714,3.453-15.391"/>
<path fill="none" stroke="#000000" stroke-width="2.1999" stroke-linecap="round" stroke-miterlimit="10" d="M136.552,229.906
	c0,0,2.261-14.674,0-16.936"/>
<path fill="none" stroke="#000000" stroke-width="2" stroke-linecap="round" stroke-miterlimit="10" d="M169.194,228.139
	c0,0,6.504-4.296,3.775-4.296c-2.728,0-6.303,1.063-6.303-3.179c0-4.24,0-9.488,0-9.488l-2.947-0.271c0,0,7.146-0.718,7.146-3.447
	c0-2.73-0.259-15.018-6.953-11.697"/>
<path fill="none" stroke="#000000" stroke-width="2.1999" stroke-miterlimit="10" d="M148.383,183.088c0,0,6.888-6.926,8.901-1.61
	c0.438,1.155,0.917,2.263,1.367,3.293c1.622,3.711,2.867,6.421,0.429,6.736"/>
<path fill="none" stroke="#000000" stroke-width="2.1999" stroke-linecap="round" stroke-miterlimit="10" d="M163.978,185.49
	c3.575,3.575,6.698,5.904,3.349,8.087"/>
<path fill="none" stroke="#000000" stroke-width="2.1999" stroke-miterlimit="10" d="M160.45,239.983
	c7.158,0,22.393,5.221,24.736,2.877"/>
<path fill="none" stroke="#000000" stroke-width="2.1999" stroke-miterlimit="10" d="M167.327,236.416c0,0,12,3.567,14.345,3.567"/>
<path fill="none" stroke="#000000" stroke-width="2.1999" stroke-miterlimit="10" d="M195.734,238.2c0,0,6.445,3.524,12.891,3.524
	c6.444,0,14.648,1.741,14.648,1.741"/>
<path fill="none" stroke="#000000" stroke-width="2.1999" stroke-miterlimit="10" d="M179.327,225.965c0,0,14.3,3.94,20.334,3.94
	s4.862,4.165,9.843,4.165s13.77,2.345,13.77,2.345"/>
<g>
	
		<image overflow="visible" opacity="0.75" width="46" height="46" xlink:href="D4889C4E.png"  transform="matrix(1 0 0 1 182.4165 49.417)">
	</image>
	<g>
		<circle fill="#FFFFFF" cx="201.034" cy="68.095" r="12.738"/>
		<circle fill="none" stroke="#000000" stroke-width="2.7499" stroke-miterlimit="10" cx="201.034" cy="68.095" r="12.738"/>
	</g>
</g>
<path d="M221.743,162.51c0.202,0.572-0.098,1.201-0.67,1.403l-30.597,10.805c-0.574,0.202-1.202-0.099-1.404-0.671l0,0
	c-0.202-0.572,0.098-1.201,0.671-1.403l30.597-10.805C220.913,161.637,221.541,161.937,221.743,162.51L221.743,162.51z"/>
<path d="M229.683,128.007c0.479,0.372,0.608,1.011,0.285,1.426l-17.228,22.207c-0.323,0.416-0.974,0.451-1.453,0.078l0,0
	c-0.48-0.373-0.607-1.011-0.285-1.426l17.229-22.207C228.552,127.669,229.204,127.634,229.683,128.007L229.683,128.007z"/>
<path d="M242.086,124.419c0.38,0.475,0.356,1.125-0.055,1.454l-21.918,17.593c-0.409,0.33-1.051,0.212-1.431-0.261l0,0
	c-0.381-0.474-0.356-1.124,0.055-1.454l21.917-17.594C241.065,123.829,241.706,123.946,242.086,124.419L242.086,124.419z"/>
<path d="M229.7,133.221c0.558,0.239,0.844,0.825,0.635,1.309l-11.078,25.831c-0.206,0.484-0.827,0.681-1.386,0.442l0,0
	c-0.559-0.239-0.842-0.825-0.635-1.309l11.077-25.83C228.521,133.18,229.141,132.982,229.7,133.221L229.7,133.221z"/>
<path d="M233.534,133.136c0.605,0.039,1.071,0.495,1.037,1.021l-1.777,28.05c-0.033,0.524-0.551,0.919-1.158,0.88l0,0
	c-0.605-0.038-1.07-0.495-1.037-1.02l1.777-28.049C232.409,133.493,232.928,133.098,233.534,133.136L233.534,133.136z"/>
<path d="M238.482,144.686c0.608,0.039,1.088,0.249,1.073,0.473l-0.753,11.887c-0.016,0.224-0.518,0.373-1.124,0.334l0,0
	c-0.606-0.039-1.086-0.25-1.071-0.473l0.754-11.888C237.375,144.797,237.876,144.647,238.482,144.686L238.482,144.686z"/>
<path d="M219.882,163.199c0.191,0.577-0.059,1.18-0.559,1.344l-26.685,8.824c-0.499,0.165-1.06-0.167-1.25-0.745l0,0
	c-0.19-0.576,0.061-1.178,0.56-1.343l26.685-8.825C219.132,162.289,219.692,162.623,219.882,163.199L219.882,163.199z"/>
<path d="M248.264,157.435c0.446,0.413,0.519,1.06,0.161,1.446l-19.066,20.65c-0.356,0.387-1.008,0.366-1.454-0.047l0,0
	c-0.446-0.412-0.519-1.059-0.161-1.445l19.065-20.65C247.167,157.003,247.817,157.024,248.264,157.435L248.264,157.435z"/>
<path d="M263.113,155.236c0.446,0.412,0.52,1.06,0.162,1.446l-19.066,20.65c-0.357,0.387-1.008,0.366-1.454-0.047l0,0
	c-0.446-0.412-0.519-1.059-0.161-1.445l19.065-20.65C262.015,154.803,262.667,154.824,263.113,155.236L263.113,155.236z"/>
<path d="M261.433,132.089c0.527,0.305,0.802,0.814,0.612,1.14l-10.043,17.373c-0.188,0.325-0.766,0.343-1.292,0.038l0,0
	c-0.526-0.304-0.801-0.814-0.611-1.139l10.042-17.374C260.33,131.803,260.908,131.786,261.433,132.089L261.433,132.089z"/>
<path d="M272.862,123.44c0.527,0.304,0.748,0.906,0.493,1.344l-13.535,23.412c-0.253,0.438-0.884,0.548-1.411,0.244l0,0
	c-0.525-0.305-0.746-0.906-0.493-1.344l13.535-23.413C271.705,123.246,272.335,123.137,272.862,123.44L272.862,123.44z"/>
<path d="M260.212,150.389c0.526,0.304,0.748,0.905,0.494,1.344l-13.536,23.412c-0.252,0.439-0.884,0.549-1.41,0.244l0,0
	c-0.525-0.304-0.746-0.905-0.493-1.344l13.535-23.414C259.056,150.194,259.686,150.084,260.212,150.389L260.212,150.389z"/>
<path d="M245.545,184.875c0.214,0.569,0.089,1.142-0.279,1.277l-19.607,7.314c-0.367,0.138-0.837-0.212-1.05-0.782l0,0
	c-0.212-0.569-0.086-1.142,0.28-1.278l19.608-7.314C244.865,183.955,245.334,184.305,245.545,184.875L245.545,184.875z"/>
<path d="M240.617,200.099c-0.095,0.601-0.407,1.051-0.696,1.004l-15.525-2.441c-0.29-0.045-0.449-0.567-0.354-1.167l0,0
	c0.095-0.601,0.407-1.051,0.696-1.004l15.524,2.439C240.551,198.976,240.71,199.5,240.617,200.099L240.617,200.099z"/>
<path d="M239.345,204.373c0.127,0.595-0.239,1.178-0.817,1.301l-30.977,6.647c-0.579,0.125-1.153-0.255-1.281-0.85l0,0
	c-0.128-0.594,0.24-1.177,0.819-1.3l30.976-6.647C238.644,203.399,239.218,203.779,239.345,204.373L239.345,204.373z"/>
<path d="M244.294,209.323c0.128,0.595-0.391,1.21-1.155,1.372l-40.905,8.78c-0.766,0.164-1.489-0.184-1.618-0.777l0,0
	c-0.127-0.595,0.392-1.21,1.155-1.373l40.905-8.779C243.442,208.381,244.167,208.729,244.294,209.323L244.294,209.323z"/>
<path d="M249.985,209.229c0.28,0.54-0.057,1.271-0.752,1.629l-37.143,19.256c-0.695,0.36-1.484,0.215-1.765-0.324l0,0
	c-0.28-0.539,0.058-1.271,0.751-1.628l37.143-19.256C248.916,208.545,249.707,208.69,249.985,209.229L249.985,209.229z"/>
<path d="M253.561,209.076c0.382,0.424,0.388,1.04,0.014,1.375l-19.972,17.956c-0.374,0.336-0.985,0.266-1.366-0.157l0,0
	c-0.381-0.424-0.386-1.04-0.013-1.375l19.973-17.955C252.57,208.583,253.181,208.653,253.561,209.076L253.561,209.076z"/>
<path d="M241.179,227.555c0.469,0.39,0.71,0.87,0.541,1.072l-9.04,10.878c-0.168,0.204-0.685,0.055-1.151-0.334l0,0
	c-0.468-0.389-0.709-0.868-0.54-1.071l9.038-10.877C240.197,227.019,240.711,227.167,241.179,227.555L241.179,227.555z"/>
<path d="M230.497,228.84c0.201,0.574,0.213,1.093,0.027,1.157l-9.946,3.481c-0.185,0.066-0.498-0.346-0.699-0.919l0,0
	c-0.201-0.573-0.213-1.092-0.026-1.156l9.944-3.482C229.983,227.857,230.296,228.268,230.497,228.84L230.497,228.84z"/>
<path d="M248.796,177.852c0.116,0.597-0.103,1.141-0.486,1.215l-20.545,3.984c-0.385,0.076-0.79-0.347-0.906-0.943l0,0
	c-0.116-0.597,0.103-1.141,0.486-1.214l20.546-3.987C248.275,176.833,248.68,177.255,248.796,177.852L248.796,177.852z"/>
<path d="M246.355,183.346c0.564,0.225,0.904,0.701,0.759,1.064l-7.73,19.448c-0.145,0.364-0.718,0.478-1.283,0.252l0,0
	c-0.565-0.224-0.905-0.701-0.76-1.063l7.73-19.448C245.215,183.235,245.79,183.122,246.355,183.346L246.355,183.346z"/>
<path d="M260.104,160.248c0.565,0.224,0.905,0.701,0.761,1.065l-7.732,19.447c-0.144,0.364-0.719,0.478-1.283,0.252l0,0
	c-0.564-0.224-0.905-0.701-0.761-1.064l7.731-19.447C258.964,160.136,259.54,160.023,260.104,160.248L260.104,160.248z"/>
<path d="M264.398,165.508c0.608,0.009,1.097,0.246,1.092,0.528l-0.232,15.11c-0.004,0.283-0.5,0.504-1.107,0.495l0,0
	c-0.607-0.01-1.097-0.247-1.093-0.529l0.234-15.109C263.295,165.72,263.791,165.499,264.398,165.508L264.398,165.508z"/>
<path d="M277.776,155.321c0.423,0.437,0.601,0.951,0.396,1.147l-10.87,10.497c-0.203,0.197-0.711,0.002-1.133-0.435l0,0
	c-0.422-0.437-0.599-0.951-0.396-1.147l10.87-10.498C276.848,154.689,277.355,154.884,277.776,155.321L277.776,155.321z"/>
<path d="M271.727,147.072c0.422,0.437,0.6,0.95,0.396,1.146l-10.871,10.497c-0.203,0.197-0.711,0.002-1.133-0.435l0,0
	c-0.422-0.437-0.599-0.95-0.396-1.147l10.87-10.498C270.798,146.439,271.305,146.635,271.727,147.072L271.727,147.072z"/>
<path d="M276.89,133.022c0.423,0.438,0.636,0.916,0.478,1.068l-8.497,8.204c-0.157,0.154-0.628-0.076-1.051-0.513l0,0
	c-0.423-0.437-0.635-0.916-0.477-1.069l8.496-8.203C275.999,132.355,276.467,132.585,276.89,133.022L276.89,133.022z"/>
<path d="M247.485,183.132c0.576-0.193,1.144-0.048,1.268,0.324l6.634,19.848c0.126,0.371-0.241,0.828-0.817,1.021l0,0
	c-0.576,0.192-1.144,0.047-1.268-0.323l-6.635-19.85C246.542,183.782,246.908,183.326,247.485,183.132L247.485,183.132z"/>
<path d="M254.084,179.833c0.576-0.193,1.144-0.049,1.268,0.324l6.635,19.848c0.125,0.371-0.242,0.828-0.818,1.021l0,0
	c-0.575,0.192-1.144,0.047-1.268-0.323l-6.635-19.85C253.142,180.482,253.508,180.026,254.084,179.833L254.084,179.833z"/>
<path d="M256.1,186.736c-0.088-0.603,0.067-1.123,0.345-1.162l14.874-2.174c0.278-0.041,0.575,0.412,0.662,1.015l0,0
	c0.089,0.601-0.066,1.121-0.345,1.161l-14.873,2.174C256.486,187.791,256.188,187.336,256.1,186.736L256.1,186.736z"/>
<path d="M248.797,150.483c0.38,0.435,0.221,1.194-0.357,1.697l-30.806,26.87c-0.578,0.503-1.353,0.559-1.73,0.123l0,0
	c-0.38-0.435-0.221-1.194,0.358-1.697l30.805-26.868C247.644,150.104,248.417,150.048,248.797,150.483L248.797,150.483z"/>
<path d="M209.224,233.425c-0.133,0.721-0.825,1.195-1.547,1.061l-31.993-5.968c-0.719-0.135-1.195-0.827-1.061-1.548l0.018-0.095
	c0.135-0.721,0.828-1.195,1.548-1.061l31.993,5.969c0.72,0.134,1.194,0.826,1.061,1.547L209.224,233.425z"/>
<path d="M223.524,243.325c-0.134,0.721-0.827,1.195-1.547,1.061l-31.993-5.968c-0.72-0.135-1.196-0.827-1.061-1.548l0.018-0.095
	c0.135-0.721,0.827-1.194,1.547-1.061l31.994,5.968c0.719,0.135,1.194,0.828,1.061,1.548L223.524,243.325z"/>
<path d="M188.305,244.356c-0.133,0.72-0.771,1.206-1.422,1.084l-28.923-5.396c-0.651-0.121-1.07-0.803-0.936-1.524l0.018-0.095
	c0.134-0.72,0.771-1.205,1.422-1.083l28.924,5.395c0.65,0.122,1.069,0.805,0.936,1.524L188.305,244.356z"/>
<path d="M182.225,237.012c-0.135,0.72-0.454,1.264-0.716,1.215l-11.605-2.164c-0.261-0.05-0.364-0.673-0.23-1.393l0.019-0.096
	c0.134-0.72,0.455-1.265,0.717-1.215l11.604,2.164c0.262,0.049,0.364,0.672,0.23,1.393L182.225,237.012z"/>
<path d="M101.667,187.752"/>
</svg>
