<?xml version="1.0" encoding="utf-8"?>
<!-- Generator: Adobe Illustrator 15.1.0, SVG Export Plug-In . SVG Version: 6.00 Build 0)  -->
<!DOCTYPE svg PUBLIC "-//W3C//DTD SVG 1.1//EN" "http://www.w3.org/Graphics/SVG/1.1/DTD/svg11.dtd">
<svg version="1.1" id="Layer_1" xmlns="http://www.w3.org/2000/svg" xmlns:xlink="http://www.w3.org/1999/xlink" x="0px" y="0px"
	 width="308px" height="314.667px" viewBox="0 0 308 314.667" enable-background="new 0 0 308 314.667" xml:space="preserve">
<g>
	<g id="g5241_189_">
		<path id="path35_195_" fill="#3C6EAF" d="M301.798,157.686c0-79.041-64.068-143.116-143.113-143.116
			c-78.999,0-143.05,64.022-143.104,143.018l-0.005-0.005v110.746l0.005,0.007c0.041,17.936,14.586,32.453,32.533,32.453
			c0.051,0,0.102-0.005,0.156-0.005l0.009,0.005h110.466l0,0c79.018-0.033,143.059-64.088,143.059-143.103H301.798z"/>
	</g>
	<g id="g5241_188_">
		<path id="path35_194_" fill="#294172" d="M298.798,150.686c0-79.041-64.068-143.116-143.113-143.116
			c-78.999,0-143.05,64.022-143.104,143.018l-0.005-0.005v110.746l0.005,0.007c0.041,17.936,14.586,32.453,32.533,32.453
			c0.051,0,0.102-0.005,0.156-0.005l0.009,0.005h110.466l0,0c79.018-0.033,143.059-64.088,143.059-143.103H298.798z"/>
	</g>
	<g>
		<path fill="#3C6EAF" d="M51.996,245.769c4.444,0,8.532,1.482,11.837,3.956c-3.61-4.821-9.35-7.956-15.837-7.956
			c-10.933,0-19.794,8.863-19.794,19.797c0,6.486,3.135,12.227,7.957,15.838c-2.475-3.305-3.957-7.394-3.957-11.838
			C32.202,254.632,41.063,245.769,51.996,245.769z"/>
		<path fill="#A7BFDF" d="M67.79,261.566c0-4.446-1.483-8.536-3.957-11.841c-3.305-2.474-7.393-3.956-11.837-3.956
			c-10.933,0-19.794,8.863-19.794,19.797c0,4.444,1.482,8.533,3.957,11.838c3.304,2.473,7.393,3.956,11.837,3.956
			C58.928,281.36,67.79,272.497,67.79,261.566z"/>
	</g>
	<g>
		<path fill="#3C6EAF" d="M47.49,145.497c0-53.769,33.451-99.721,80.677-118.189C74.395,39.935,34.363,88.206,34.363,145.833
			c0,59.174,42.215,108.482,98.172,119.463C83.018,248.013,47.49,200.908,47.49,145.497z"/>
		<path fill="#8AA9D4" d="M277.862,144.833c0-67.244-54.513-121.753-121.754-121.753c-9.615,0-18.969,1.119-27.941,3.227
			C80.941,44.776,47.49,90.728,47.49,144.497c0,55.411,35.528,102.517,85.045,119.8c7.628,1.497,15.507,2.289,23.573,2.289
			C223.349,266.585,277.862,212.074,277.862,144.833z"/>
	</g>
	<g>
		
			<image overflow="visible" opacity="0.75" width="72" height="94" xlink:href="25942ED6.png"  transform="matrix(1 0 0 1 14.6665 213.6665)">
		</image>
		<g>
			<text transform="matrix(1 0 0 1 26.7173 273.5854)" font-family="'BaskOldFace'" font-size="57.4636">II</text>
		</g>
	</g>
</g>
<g>
	<g>
		
			<image overflow="visible" opacity="0.75" width="140" height="140" xlink:href="25942EDA.png"  transform="matrix(1 0 0 1 102.3921 122.3921)">
		</image>
		<g>
			<path fill="#FFFFFF" d="M136.667,244.448c0,0,18.584,3.152,18.304-2.006c-0.281-5.158-0.686-13.934,0.438-16.211
				s7.218-10.626,7.218-10.626s7.609,6.335,9.878,6.194c2.27-0.143,13.477,9.867,20.782,10.186s24.767-1.959,24.767-1.959
				s-5.117,7.479-1.316,7.479s9.097-4.442,9.003-11.274c-0.094-6.831-4.737-7.719-8.487-6.516c-3.751,1.203-4.508-0.151-7.545-0.613
				c-3.035-0.461,3.461-1.53,6.051-4.713c2.591-3.182,6.853-11.688,6.853-11.688s-11.411,5.838-18.975,3.178
				c-7.564-2.66-18.977-8.49-18.977-8.49s3.404-0.702,3.601-7.182c0.194-6.48-1.324-6.466-1.324-6.466s9.867,3.02,16.699,2.261
				c6.831-0.758,11.339-5.889,5.961-8.452c-5.379-2.563-16.603-8.184-18.941-10.522c-2.338-2.338-15.104-4.555-15.104-4.555
				s2.737-9.413,0-14.421c-2.737-5.008-10.292-14.555-15.18-14.393c-4.888,0.162-7.918-1.758-8.35,0.73
				c-0.431,2.489-0.819,4.104-0.819,4.104s-9.807-1.005-9.807,1.209c0,2.213,0.51,6.451,0.51,6.451s-6.361,1.745-5.552,4.189
				c0.809,2.443,14.149,16.684,14.149,16.684s0.76,1.519-7.589,2.277c-8.35,0.759-16.699-4.555-16.699-4.555
				s-1.361-9.266-6.072-4.555c-4.711,4.712-9.108,13.662-4.554,12.903c4.554-0.759,4.554-0.759,4.554-0.759s4.699,7.25,11.035,9.802
				c6.335,2.552,14.653,4.159,14.653,4.159s2.212,7.251,1.439,8.811c-0.773,1.559-0.202,7.59-3.269,7.59s-12.566-1.053-12.109,7.309
				c0.457,8.361,2.229,17.396,8.63,18.497c6.402,1.102,6.402,1.102,6.402,1.102s-2.186,7.121-1.735,8.907
				c0.451,1.786-0.088,3.07-0.088,3.07l-8.436-0.176V244.448z"/>
		</g>
	</g>
	<g>
		<g>
			<path d="M157.636,180.439c-8.16,7.096-18.489,5.029-27.056-0.081c-1.956-1.167-3.708-2.621-5.404-4.127
				c-2.395-2.126-2.46-3.299-1.061-6.287c0.501-1.07,1.048-2.11,1.689-3.104c-0.484-0.342-0.484-0.373,0-0.093
				c0.576,0.302,1.093,0.736,1.624,1.108c3.813,2.672,7.983,3.849,12.631,3.502c4.247-0.316,10.322-0.888,13.376-4.296
				c0.881-0.982-2.175-0.792-2.825-0.066c-3.316,3.698-12.895,3.171-16.909,1.577c-2.24-0.89-3.96-2.797-6.184-3.608
				c-4.64-1.692-6.9,6.33-8.131,9.085c-0.036,0.154,0,0.289,0.108,0.405c10.172,11.396,27.906,17.507,40.576,6.487
				C161.397,179.788,158.379,179.792,157.636,180.439L157.636,180.439z"/>
		</g>
	</g>
	<g>
		<g>
			<path d="M141.397,169.711c0.928,4.117,4.084,6.965,7.865,8.551c0.69,0.289,3.448-0.812,2.481-1.217
				c-3.56-1.493-6.448-4.308-7.313-8.146C144.269,168.18,141.223,168.94,141.397,169.711L141.397,169.711z"/>
		</g>
	</g>
	<g>
		<g>
			<path d="M145.3,185.079c4.173,3.878,9.909,4.553,15.274,3.197c1.831-0.463,1.417-1.972-0.405-1.512
				c-4.322,1.093-8.757,0.19-12.052-2.871C147.335,183.167,144.483,184.32,145.3,185.079L145.3,185.079z"/>
		</g>
	</g>
	<g>
		<g>
			<path d="M143.673,185.651c2.449,4.008,4.657,8.067,9.353,9.534c4.311,1.346,9.273,0.804,13.589-0.195
				c1.823-0.422,1.459-1.692-0.342-1.275c-3.832,0.887-7.892,1.033-11.675-0.148c-1.811-0.565-3.271-1.698-4.26-3.302
				c-0.295-0.479-0.319-1.406-0.693-1.786c-1.131-1.15-2.077-2.231-2.938-3.64C146.153,183.933,143.287,185.019,143.673,185.651
				L143.673,185.651z"/>
		</g>
	</g>
	<g>
		<g>
			<path d="M145.192,187.926c0.109,3.272,0.563,6.447,0.016,9.714c-0.076,0.453,0.561,0.422,0.858,0.413
				c7.57-0.236,13.816,4.462,21.093,5.714c5.088,0.875,10.125-0.692,14.555-3.108c11.143-6.074,9.13-18.079,2.095-26.574
				c-0.512-0.618-3.387,0.418-2.85,1.066c3.736,4.511,6.565,9.782,5.723,15.798c-1.154,8.245-10.98,12.624-18.36,11.354
				c-5.172-0.89-9.818-3.832-14.905-5.102c-1.286-0.32-5.257,0.236-4.944-1.638c0.456-2.725-0.155-5.71-0.247-8.45
				C148.205,186.492,145.161,187.002,145.192,187.926L145.192,187.926z"/>
		</g>
	</g>
	<g>
		<g>
			<path d="M187.249,184.465c4.612,1.85,10.537,2.223,15.423,1.627c0.443-0.055,1.723-0.396,1.723-1.036
				c-0.004-3.877,0.03-7.792-0.761-11.604c-0.052-0.251-0.372-0.386-0.589-0.423c-6.399-1.096-10.205-6.764-15.661-9.776
				c-4.212-2.325-10.698-1.615-15.327-2.217c-4.917-0.639-9.676-0.621-14.425,0.906c-5.086,1.636-9.553,4.848-14.56,6.731
				c-1.986,0.747-0.171,1.778,1.202,1.262c5.099-1.918,9.658-5.139,14.833-6.803c5.902-1.898,12.746-0.226,18.798,0.302
				c2.943,0.257,5.71,0.546,8.323,1.988c3.063,1.69,5.506,4.489,8.303,6.565c0.898,0.666,6.082,2.339,6.295,3.366
				c0.676,3.254,0.53,6.774,0.533,10.078c0.574-0.346,1.148-0.69,1.723-1.036c-4.209,0.514-9.428,0.194-13.421-1.408
				C188.742,182.621,185.977,183.955,187.249,184.465L187.249,184.465z"/>
		</g>
	</g>
	<g>
		<g>
			<path d="M146.08,195.171c-9.646,8.789,1.946,30.794,13.956,20.555c1.245-1.061-1.776-0.744-2.364-0.242
				c-5.15,4.391-9.65-2.536-11.211-6.88c-1.644-4.573-1.355-10.133,2.396-13.552C149.614,194.361,146.672,194.631,146.08,195.171
				L146.08,195.171z"/>
		</g>
	</g>
	<g>
		<g>
			<path d="M148.228,197.036c4.32,14.799,14.925,26.301,31.215,25.229c0.767-0.05,3.325-1.306,1.326-1.174
				c-15.598,1.026-25.479-11.067-29.508-24.867C151.069,195.565,148.045,196.41,148.228,197.036L148.228,197.036z"/>
		</g>
	</g>
	<g>
		<g>
			<path d="M167.205,203.108c4.021,13.448,30.228,34.992,40.972,16.816c0.335-0.567-2.526-0.348-3.01,0.471
				c-8.894,15.046-31.854-7.815-34.929-18.1C169.983,201.442,166.959,202.289,167.205,203.108L167.205,203.108z"/>
		</g>
	</g>
	<g>
		<g>
			<path d="M180.415,211.02c8.441,3.082,17.521,8.318,26.774,7.863c9.519-0.468,14.148-9.115,16.938-17.135
				c0.354-1.017-2.682-0.618-3.031,0.387c-2.781,7.996-6.982,16.193-16.687,14.872c-7.448-1.015-14.577-4.888-21.576-7.444
				C181.925,209.232,179.167,210.564,180.415,211.02L180.415,211.02z"/>
		</g>
	</g>
	<g>
		<g>
			<path d="M183.23,197.903c10.818,7.784,28.479,12.489,40.54,4.836c1.267-0.804-1.784-0.413-2.318-0.074
				c-10.196,6.471-26.404,0.655-35.362-5.789C185.406,196.383,182.809,197.6,183.23,197.903L183.23,197.903z"/>
		</g>
	</g>
	<g>
		<g>
			<path d="M143.092,200.235c-12.984,1.64-16.429,17.152-8.072,26.218c4.011,4.351,10.158,4.259,15.35,2.557
				c2.708-0.889,5.109-2.322,7.219-4.216c2.699-2.424,3.865-6.183,6.296-8.859c1.244-1.369-1.702-1.509-2.475-0.658
				c-2.47,2.717-3.84,6.146-6.297,8.859c-4.452,4.916-12.494,5.38-17.292,1.069c-7.061-6.342-5.833-21.716,4.915-23.073
				C144.291,201.935,145.179,199.971,143.092,200.235L143.092,200.235z"/>
		</g>
	</g>
	<g>
		<g>
			<path d="M155.083,224.232c-3.772,5.493-1.609,14.414-1.542,20.622c0.836-0.332,1.672-0.664,2.508-0.997
				c-4.048,0-8.096,0-12.144,0c-0.428,0-5.546,0.034-5.546-0.041c0-0.937,0-1.874,0-2.812c-0.923,0.324-1.846,0.649-2.768,0.974
				c2.859,0.678,5.715,0.121,8.608,0.023c0.501-0.018,2.507-0.238,2.508-0.997c0.003-3.656-0.913-10.684,2.128-13.391
				c0.607-0.54-2.211-0.197-2.735,0.27c-3.341,2.974-2.423,9.982-2.426,13.934c0.836-0.332,1.672-0.664,2.508-0.997
				c-2.694,0.092-5.431,0.653-8.087,0.023c-0.533-0.126-2.768,0.2-2.768,0.974c0,1.013,0,2.025,0,3.037
				c0,0.178,0.451,0.185,0.525,0.185c6.072,0,12.144,0,18.215,0c0.493,0,2.516-0.253,2.508-0.997
				c-0.066-6.11-2.193-14.995,1.495-20.366C158.242,223.424,155.578,223.511,155.083,224.232L155.083,224.232z"/>
		</g>
	</g>
	<g>
		<g>
			<path d="M206.067,219.446c2.9,0.154,6.446,0.968,4.199,4.415c-1.248,1.913-2.788,3.612-4.483,5.134
				c-3.616,3.245-8.096,3.297-12.48,1.916c-7.081-2.231-13.243-7.313-19.374-11.327c-0.855-0.561-3.572,0.664-2.826,1.152
				c7.437,4.87,15.087,11.272,24.143,12.613c8.961,1.327,15.463-5.393,19.661-12.431c0.103-0.171,0.213-0.415,0.01-0.576
				c-2.253-1.793-4.81-2.355-7.64-2.506C206.199,217.779,204.02,219.337,206.067,219.446L206.067,219.446z"/>
		</g>
	</g>
	<g>
		<g>
			<path d="M206.042,231.334c-1.751-0.563-2.677-1.158-4.53-0.828c-0.634,0.113-1.909,0.537-1.671,1.443
				c0.047,0.179,0.094,0.356,0.141,0.535c0.288-0.409,0.576-0.818,0.864-1.228c-0.031,0.003-0.062,0.006-0.093,0.009
				c-1.237,0.096-2.599,1.905-0.697,2.074c6.291,0.558,12.222-0.659,18.259-2.352c-0.565-0.366-1.132-0.732-1.697-1.098
				c-1.306,2.663-2.796,6.123-0.854,8.838c0.959,1.342,3.438,0.84,4.577,0.156c6.603-3.957,7.763-12.902,6.823-19.892
				c-0.058-0.434-0.633-0.579-0.974-0.631c-4.188-0.629-8.811-0.344-12.581,1.735c-1.813,0.999-0.161,2.449,1.305,1.641
				c2.727-1.503,5.825-1.701,8.876-1.5c1.271,0.084,0.437,5.943,0.333,6.871c-0.284,2.525-1.069,4.937-2.291,7.155
				c-0.691,1.972-1.98,2.624-3.864,1.958c-0.627-1.954,0.707-4.383,1.529-6.063c0.52-1.059-1.009-1.291-1.697-1.098
				c-5.502,1.542-10.903,2.714-16.657,2.203c-0.232,0.691-0.465,1.383-0.697,2.074c0.622-0.048,1.122-0.227,1.706-0.441
				c0.451-0.167,1.004-0.694,0.864-1.228c-0.047-0.178-0.094-0.356-0.141-0.534c-0.557,0.48-1.114,0.962-1.671,1.443
				c0.972-0.174,2.12,0.389,3.06,0.691C205.469,233.66,207.842,231.915,206.042,231.334L206.042,231.334z"/>
		</g>
	</g>
	<g>
		<g>
			<path d="M119.183,171.818c-0.484,0.272-1.454,0.71-1.665,0.779c-0.347,0.114-0.546,0.15-0.55,0.15
				c-0.498,0.08-0.07,0.057-0.53,0.014c0.15,0.014-0.294-0.14-0.392-0.23c-0.324-0.3-0.372-0.454-0.501-0.882
				c-0.598-1.98,0.325-4.481,1.133-6.291c0.93-2.084,2.428-4.452,4.121-5.565c0.432-0.284,0.304-0.214,0.702-0.309
				c-0.317,0.075,0.123,0.013,0.289,0.081c0.988,0.404,1.634,1.48,2.085,2.459c0.888,1.928,1.277,4.087,1.583,6.17
				c0.167,1.144,3.214,0.418,3.033-0.813c-0.446-3.044-1.081-7.333-3.923-9.167c-2.188-1.412-5.013-0.135-6.771,1.355
				c-1.94,1.646-3.324,4.035-4.276,6.363c-0.811,1.984-1.629,4.476-0.981,6.622c1.141,3.78,6.361,1.55,8.563,0.308
				c0.471-0.266,0.859-0.96,0.235-1.299C120.667,171.2,119.795,171.472,119.183,171.818L119.183,171.818z"/>
		</g>
	</g>
	<g>
		<g>
			<path d="M124.699,182.615c-0.004,2.696-0.039,5.414-0.336,8.095c-0.192,1.725-1.308,2.815-2.6,3.925
				c-1.384,1.188-2.439,0.696-3.583-0.474c-3.993-4.081-4.104-13.418-1.846-18.266c0.3-0.645-2.616-0.356-3.006,0.48
				c-1.699,3.649-1.584,8.066-0.921,11.948c0.533,3.12,1.92,7.602,5.461,8.41c3.532,0.806,7.311-2.128,9.092-4.899
				c0.766-1.19,0.579-3.377,0.649-4.736c0.092-1.763,0.121-3.531,0.123-5.296C127.733,181.15,124.7,181.634,124.699,182.615
				L124.699,182.615z"/>
		</g>
	</g>
	<g>
		<g>
			<path d="M117.115,160.798c0.052-2.301,0.706-4.53,0.758-6.831c-0.298,0.3-0.596,0.601-0.894,0.901
				c0.863-0.385,2.42,0.202,3.362,0.224c-0.322-0.271-0.643-0.541-0.964-0.811c-0.637,2.009-0.758,3.977-0.759,6.071
				c-0.001,1.422,3.05,0.84,3.051-0.314c0.001-2.094,0.122-4.062,0.759-6.071c0.168-0.529-0.588-0.802-0.964-0.811
				c-2.051-0.047-3.768-0.658-5.747,0.224c-0.316,0.141-0.885,0.486-0.894,0.901c-0.052,2.301-0.706,4.53-0.758,6.831
				C114.032,162.529,117.088,161.959,117.115,160.798L117.115,160.798z"/>
		</g>
	</g>
	<g>
		<g>
			<path d="M198.324,192.656c0.253-1.498,0.476-3.102,1.269-4.425c0.742-1.239,2.146-1.315,3.463-1.33
				c-0.215-0.393-0.43-0.786-0.645-1.179c-1.626,1.642-3.164,3.418-4.565,5.254c-0.326,0.428-1.16,1.338-0.725,1.908
				c0.641,0.837,2.245,0.106,2.911-0.32c0.424-0.271,0.902-0.91,0.25-1.244c-0.644-0.329-1.577-0.101-2.152,0.268
				c-0.526,0.337,2.358-0.509,1.895,0.472c0.107-0.229,0.269-0.438,0.413-0.644c0.416-0.59,0.882-1.146,1.343-1.702
				c0.979-1.181,2-2.34,3.08-3.431c0.6-0.605,0.118-1.188-0.645-1.179c-2.376,0.026-4.905,0.363-6.698,2.073
				c-1.547,1.475-1.895,3.836-2.232,5.836C195.075,194.254,198.141,193.74,198.324,192.656L198.324,192.656z"/>
		</g>
	</g>
	<g>
		<g>
			<path d="M202.015,186.321c2.792,0.762,5.502,0.179,8.336,0.108c0.608-0.016,1.333-0.388,1.576-0.972
				c1.179-2.844,1.449-5.882-0.685-8.335c-2.092-2.404-5.601-3.261-8.619-3.674c-1.576-0.216-3.055,2.059-1.014,2.338
				c2.309,0.316,4.574,0.884,6.445,2.334c2.251,1.745,1.922,4.568,0.95,6.911c0.525-0.323,1.051-0.647,1.576-0.972
				c-2.236,0.056-4.644,0.708-6.844,0.108C202.34,183.788,200.156,185.814,202.015,186.321L202.015,186.321z"/>
		</g>
	</g>
	<g>
		<g>
			<path d="M211.203,174.348c3.92-7.353,9.855-12.114,16.279-17.145c6.029-4.722,11.789-9.779,17.753-14.583
				c0.642-0.517-2.184-0.213-2.744,0.238c-6.434,5.182-12.671,10.603-19.177,15.697c-6.081,4.763-11.412,9.411-15.102,16.331
				C207.994,175.296,210.797,175.109,211.203,174.348L211.203,174.348z"/>
		</g>
	</g>
	<g>
		<g>
			<path d="M211.107,174.272c7.718-1.007,14.059-1.569,19.644-7.468c5.585-5.899,4.203-16.193,12.283-20.072
				c1.865-0.895,0.207-2.674-1.377-1.914c-5.974,2.867-7.881,8.617-10.028,14.463c-1.464,3.983-3.595,7.585-7.296,9.901
				c-3.688,2.307-8.797,2.196-12.989,2.744C209.623,172.151,209.052,174.541,211.107,174.272L211.107,174.272z"/>
		</g>
	</g>
	<g>
		<g>
			<path d="M154.616,160.19c3.105,1.962,7.632,1.873,10.945,0.523c1.322-0.539,2.658-1.54,2.959-3.008
				c0.407-1.99-1.624-3.83-2.948-4.945c-0.853-0.718-3.686,0.473-2.811,1.209c1.514,1.275,4.395,4.271,1.336,5.517
				c-2.137,0.871-5.174,0.398-7.078-0.805C156.141,158.126,153.349,159.39,154.616,160.19L154.616,160.19z"/>
		</g>
	</g>
	<g>
		<g>
			<path d="M151.131,166.352c-2.893-2.854-5.854-5.617-8.556-8.659c-2.741-3.083-8.043-9.423-0.548-9.262
				c0.765,0.016,1.83-0.68,1.644-1.544c-0.541-2.524-0.049-5.116-0.76-7.59c-0.548,0.515-1.096,1.029-1.644,1.544
				c3.188-0.194,6.266-1.241,9.477-0.77c0.789,0.116,1.941-0.343,2.057-1.235c0.199-1.539,0.56-3.016,0.759-4.554
				c-0.417,0.392-0.835,0.784-1.252,1.175c15.776-3.212,28.723,7.971,27.017,24.086c0.556-0.415,1.111-0.83,1.666-1.246
				c-1.837,0.034-3.252,0.226-4.967,0.83c0.608,0.32,1.217,0.64,1.825,0.959c2.547-10.316-3.106-17.228-9.261-24.856
				c-0.752,0.573-1.505,1.146-2.257,1.718c5.255,1.623,8.169,5.685,7.681,11.21c1.026-0.072,2.052-0.144,3.078-0.216
				c-0.169-2.718-0.859-5.257-1.54-7.889c-0.968,0.36-1.936,0.721-2.903,1.082c3.511,3.835,7.996,12.707,4.666,17.831
				c-1.06,1.629,1.769,2.137,2.549,0.936c3.904-6.006-0.11-15.385-4.441-20.118c-0.793-0.866-3.276-0.36-2.903,1.082
				c0.625,2.417,1.34,4.784,1.495,7.292c0.101,1.611,2.952,1.201,3.078-0.216c0.562-6.368-2.973-11.211-9.019-13.079
				c-0.813-0.25-3.233,0.508-2.257,1.718c5.869,7.273,11.408,13.792,8.956,23.72c-0.229,0.928,1.249,1.163,1.825,0.959
				c1.338-0.548,2.718-0.778,4.141-0.689c0.672-0.013,1.587-0.505,1.666-1.246c1.935-18.291-13.458-29.51-30.667-26.005
				c-0.557,0.113-1.175,0.581-1.252,1.175c-0.199,1.539-0.56,3.016-0.759,4.554c0.686-0.412,1.372-0.823,2.057-1.235
				c-3.5-0.513-6.779,0.537-10.259,0.749c-0.708,0.043-1.902,0.647-1.644,1.544c0.702,2.443,0.223,5.085,0.76,7.59
				c0.548-0.515,1.096-1.029,1.644-1.544c-4.616-0.099-9.351,1.947-6.56,7.208c2.994,5.644,8.149,9.915,12.635,14.34
				C149.358,168.691,152.223,167.429,151.131,166.352L151.131,166.352z"/>
		</g>
	</g>
	<g>
		<g>
			<path d="M177.972,148.061c4.096-0.125,8.837-0.801,12.571-2.525c0.839-0.387,1.422-1.304,0.044-1.287
				c-4.221,0.054-8.392,0.734-12.523,1.549c-0.845,0.167-2.813,1.503-0.851,1.503c3.862,0,7.725,0,11.587,0
				c1.012,0,3.271-1.534,1.23-1.534c-0.573,0-1.146,0-1.72,0c-1.012,0-3.271,1.534-1.23,1.534c0.573,0,1.146,0,1.72,0
				c1.012,0,3.271-1.534,1.23-1.534c-3.862,0-7.725,0-11.587,0c-0.283,0.501-0.567,1.002-0.851,1.503
				c3.883-0.766,7.797-1.435,11.764-1.486c0.015-0.429,0.029-0.858,0.044-1.287c-3.005,1.387-6.896,1.929-10.198,2.03
				C178.203,146.557,175.935,148.123,177.972,148.061L177.972,148.061z"/>
		</g>
	</g>
	<g>
		<g>
			<path d="M175.721,139.58c3.211-0.779,6.528-1.351,9.838-1.4c-0.099-0.366-0.196-0.732-0.295-1.098
				c-3.16,1.552-6.436,2.765-9.883,3.502c-0.919,0.197-2.095,1.414-0.448,1.39c3.839-0.056,7.206-1.004,10.64-2.687
				c0.907-0.445,0.625-1.098-0.295-1.098c-3.036,0-6.072,0-9.108,0c-0.402,0-3.073,1.052-1.842,1.426
				c2.682,0.814,5.414,0.839,8.195,0.841c0.993,0.001,3.277-1.503,1.236-1.508c-1.621-0.004-3.189-0.045-4.707-0.677
				c-0.726,0.47-1.45,0.939-2.176,1.409c3.114,0.71,6.261,0.774,9.441,0.776c0.412-0.502,0.824-1.005,1.236-1.508
				c-2.924,0.067-5.57,0.905-8.377,1.635c-0.587,0.153-2.146,1.085-0.782,1.373c3.191,0.672,6.068,0.016,9.108-0.991
				c2.034-0.674,0.143-1.433-1.135-1.01c-2.059,0.682-3.91,0.982-6.069,0.527c-0.261,0.458-0.521,0.915-0.782,1.373
				c2.274-0.592,4.428-1.344,6.801-1.399c0.971-0.022,3.292-1.506,1.236-1.508c-2.963-0.002-5.873-0.081-8.773-0.742
				c-0.602-0.137-3.368,0.912-2.176,1.409c1.887,0.785,3.9,0.836,5.918,0.841c0.412-0.502,0.824-1.005,1.236-1.508
				c-2.36-0.002-4.704,0.016-6.984-0.677c-0.614,0.476-1.229,0.951-1.842,1.426c3.036,0,6.072,0,9.108,0
				c-0.099-0.366-0.196-0.732-0.295-1.098c-2.473,1.212-4.814,1.826-7.577,1.866c-0.149,0.463-0.299,0.926-0.448,1.39
				c3.968-0.849,7.733-2.301,11.369-4.086c0.896-0.44,0.635-1.111-0.295-1.098c-3.844,0.057-7.687,0.732-11.414,1.636
				C173.566,138.749,173.922,140.016,175.721,139.58L175.721,139.58z"/>
		</g>
	</g>
	<g>
		<g>
			<path d="M157.764,141.936c-0.706-0.334-1.391-0.493-2.159-0.605c0.312,0.045-0.033-0.011-0.084-0.023
				c-0.308-0.075,0.182,0.114-0.099-0.042c-0.157-0.087-0.351-0.425-0.483-0.675c-0.767,0.518-1.534,1.036-2.301,1.554
				c0.759,0.253,1.518,0.506,2.277,0.759c-0.208-0.257-0.416-0.513-0.624-0.77c0,0.253,0,0.507,0,0.76
				c0.694-0.378,1.389-0.756,2.084-1.134c-0.759,0-1.518,0-2.277,0c-0.713,0-1.603,0.201-1.989,0.878
				c-0.352,0.617,0.298,1.083,0.874,1.083c0.759,0,1.518,0,2.277,0c0.105-0.626,0.211-1.253,0.317-1.879
				c-0.243,0.06-0.486,0.116-0.731,0.168c-0.092,0.02-0.185,0.039-0.278,0.057c-0.34,0.068,0.377-0.065,0.049-0.01
				c-0.079,0.013-0.159,0.023-0.239,0.033c-0.044,0.005-0.088,0.008-0.132,0.011c0.286-0.034,0.561,0.014,0.826,0.145
				c0.109,0.133,0.219,0.266,0.329,0.398c-0.586,0.769-0.72,1.041-0.4,0.816c-0.209,0.112-0.231,0.125-0.065,0.039
				c0.441-0.226,1.247-0.812,0.763-1.389c-0.45-0.538-1.488-0.408-2.034-0.127c-0.498,0.255-1.203,0.586-1.316,1.206
				c-0.154,0.85,1.086,0.894,1.618,0.858c0.699-0.047,1.412-0.238,2.092-0.407c0.5-0.124,1.187-0.483,1.286-1.051
				c0.093-0.534-0.525-0.828-0.969-0.828c-0.759,0-1.518,0-2.277,0c-0.713,0-1.603,0.201-1.989,0.878
				c-0.352,0.617,0.298,1.083,0.874,1.083c0.759,0,1.518,0,2.277,0c0.595,0,2.084-0.27,2.084-1.134c0-0.253,0-0.507,0-0.76
				c0-0.432-0.224-0.636-0.624-0.77c-0.759-0.253-1.518-0.506-2.277-0.759c-0.844-0.281-2.916,0.389-2.301,1.554
				c0.349,0.662,0.854,1.085,1.574,1.3c0.325,0.097,0.674,0.125,1.009,0.175c-0.281-0.042,0.167,0.043,0.179,0.046
				c0.171,0.041,0.326,0.097,0.484,0.171c0.688,0.326,1.54,0.188,2.162-0.233C157.971,143.025,158.45,142.26,157.764,141.936
				L157.764,141.936z"/>
		</g>
	</g>
	<g>
		<g>
			<path d="M153.856,136.661c4.566,2.404,7.974,6.501,10.312,11.039c0.556,1.079,3.507,0.106,3.033-0.813
				c-2.498-4.849-6.058-9.162-10.941-11.733C155.344,134.672,152.563,135.98,153.856,136.661L153.856,136.661z"/>
		</g>
	</g>
	<g>
		<g>
			<path d="M117.882,229.515c-0.071,0.159-0.164,0.305-0.279,0.435c1.893,0.163,2.539-0.009,1.937-0.514
				c-0.135-0.123-0.148-0.411-0.158-0.576c-0.829,0.357-1.658,0.716-2.487,1.073c1.086,0.032,1.968,0.7,3.036,0.76
				c0.632,0.036,1.297-0.124,1.86-0.408c0.298-0.15,1.013-0.671,0.347-0.881c-0.745-0.235-1.496-0.339-2.275-0.252
				c-0.299,0.033,0.028,0.012,0.159,0.037c-0.094-0.019-0.139-0.049-0.258-0.125c-0.46-0.29-0.85-0.712-1.233-1.092
				c-0.798,0.401-1.597,0.802-2.395,1.202c0.904,0.04,1.372,0.994,0.988,1.86c-0.242,0.548,1.048,0.408,1.237,0.377
				c0.527-0.088,1.516-0.312,1.765-0.875c0.67-1.515-0.568-2.632-2.049-2.696c-0.338-0.015-3.09,0.514-2.395,1.202
				c0.623,0.616,1.286,1.35,2.208,1.45c0.286,0.031,0.568,0.01,0.853-0.021c0.335-0.035-0.072-0.023,0.188-0.006
				c0.251,0.017,0.497,0.106,0.734,0.182c0.736-0.43,1.472-0.859,2.208-1.289c-0.355-0.021-0.721-0.236-1.052-0.368
				c-0.632-0.253-1.306-0.372-1.984-0.392c-0.556-0.017-2.538,0.21-2.487,1.073c0.049,0.852,0.717,1.185,1.508,1.14
				c1.299-0.074,2.404-0.654,3.026-1.795c0.289-0.529-1.085-0.402-1.236-0.377C119.076,228.735,118.188,228.955,117.882,229.515
				L117.882,229.515z"/>
		</g>
	</g>
	<g>
		<g>
			<path d="M110.887,232.282c-0.41,0.005-0.819,0.044-1.227,0.087c-0.128,0.014-0.256,0.028-0.384,0.041
				c-0.16,0.015-0.119,0.012,0.123-0.01c-0.093,0.006-0.367-0.011,0.044,0.019c-0.108-0.008,0.129,0.041,0.177,0.081
				c0.081,0.068,0.024,0.065,0.039-0.009c0.066-0.35,0.309-0.673,0.499-0.962c0.376-0.574-0.318-0.781-0.789-0.766
				c-0.571,0.021-2.721,0.461-2.124,1.401c0.152,0.239,0.574,0.378,0.824,0.499c1.046,0.505,1.966,0.848,3.143,0.384
				c0.404-0.16,0.951-0.442,0.942-0.94c-0.008-0.434-1.128-0.567-1.243-0.575c-0.245-0.017-0.001-0.009,0.061,0.124
				c0.01,0.062-0.008,0.114-0.055,0.158c0.071-0.086,0.067-0.09-0.012-0.013c0.295-0.285,0.632-0.434,1.049-0.646
				c0.375-0.19,0.954-0.794,0.3-1.056c-0.675-0.271-1.531,0.007-2.139,0.317c-0.713,0.362-1.836,0.88-2.146,1.691
				c-0.346,0.908,1.183,0.965,1.694,0.976c-0.203-0.031-0.406-0.063-0.608-0.094c0.077,0.039,0.154,0.079,0.23,0.12
				c0.085,0.048,0.052,0.027-0.101-0.063c0.092,0.058-0.063,0.024-0.065-0.128c0.314-0.313,0.628-0.627,0.941-0.94
				c-0.001,0.001-0.003,0.002-0.005,0.003c0.396-0.082,0.792-0.164,1.187-0.246c-0.01-0.001,0.754,0.154,0.435,0.046
				c-0.079-0.027-0.158-0.058-0.236-0.088c-0.208-0.08-0.412-0.168-0.616-0.258c-0.203-0.09-0.403-0.185-0.6-0.288
				c-0.232-0.122,0.125,0.091-0.054-0.03c-0.265-0.18,0.249-0.046-0.108,0.429c-0.16,0.128-0.32,0.257-0.48,0.385
				c0.004-0.003,0.009-0.005,0.014-0.008c-0.247,0.099-0.494,0.197-0.741,0.296c-0.237,0.035-0.474,0.069-0.71,0.104
				c-0.263-0.256-0.525-0.511-0.789-0.766c-0.392,0.599-1.3,1.822-0.251,2.271c0.496,0.212,1.101,0.13,1.618,0.089
				c0.192-0.016,0.383-0.04,0.575-0.06c0.073-0.008,0.431-0.032,0.041-0.006c0.108-0.007,0.216-0.009,0.324-0.01
				c0.671-0.008,1.574-0.239,2.011-0.795C112.119,232.484,111.3,232.278,110.887,232.282L110.887,232.282z"/>
		</g>
	</g>
	<g>
		<g>
			<path d="M94.862,224.373c0.128,0.024,0.248,0.071,0.359,0.141c0.128,0.138,0.155,0.159,0.08,0.064
				c0.158,0.212,0.111,0.625-0.351,0.933c-0.243,0.115-0.485,0.23-0.728,0.347c-0.297-0.005-0.594-0.009-0.891-0.013
				c-0.136-0.082-0.13-0.078,0.017,0.012c0.128,0.078,0.25,0.18,0.358,0.283c0.37-0.567,0.741-1.135,1.111-1.703
				c-1.012,0.253-2.024,0.506-3.037,0.759c0.556,0.123,1.111,0.246,1.667,0.369c-0.164-0.168-0.321-0.338-0.471-0.519
				c-0.056-0.068-0.108-0.14-0.159-0.213c-0.197-0.279,0.042,0.159-0.055-0.086c-0.03-0.125-0.035-0.093-0.015,0.095
				c0.027-0.21-0.04-0.085-0.202,0.376c-0.216,0.23-0.473,0.384-0.772,0.459c0.247-0.087-0.441,0.055-0.166,0.028
				c0.372-0.036-0.296-0.021-0.043-0.006c0.112,0.007,0.224,0.022,0.334,0.038c0.198,0.029,0.616,0.138,0.042-0.004
				c0.753,0.186,1.614,0.044,2.145-0.574c0.428-0.498,0.314-1.291-0.393-1.465c-0.627-0.155-1.297-0.281-1.944-0.188
				c-0.631,0.091-1.383,0.304-1.768,0.86c-0.414,0.599-0.348,1.096-0.004,1.705c0.495,0.874,1.325,1.454,2.358,1.196
				c0.262-0.065,0.524-0.131,0.787-0.196c0.75-0.188,1.5-0.375,2.25-0.563c0.533-0.133,1.817-1.023,1.111-1.703
				c-0.427-0.412-0.885-0.872-1.482-1.021c-0.851-0.213-1.8-0.033-2.398,0.653c-0.84,0.967,0.171,2.059,1.206,2.135
				c0.73,0.055,1.633-0.214,1.976-0.928C96.105,224.979,95.505,224.42,94.862,224.373L94.862,224.373z"/>
		</g>
	</g>
	<g>
		<g>
			<path d="M101.047,221.042c-0.243-0.233-0.506-0.434-0.801-0.596c-0.092-0.051-0.187-0.097-0.28-0.144
				c-0.337-0.169,0.12,0.072,0.144,0.276c-0.027,0.173-0.055,0.345-0.083,0.518c0.001-0.003,0.003-0.006,0.004-0.009
				c-0.152,0.157-0.304,0.315-0.456,0.474c-0.314,0.207-0.654,0.331-1.021,0.372c0.034-0.004,0.067-0.007,0.102-0.009
				c0.102-0.008,0.204-0.009,0.306-0.011c-0.45,0.01,0.135,0,0.214,0c0.227-0.001,0.453-0.001,0.68-0.001
				c0.651,0,1.329-0.146,1.8-0.636c0.488-0.507,0.284-1.078-0.347-1.294c-0.571-0.195-0.942-0.367-1.503-0.658
				c-0.355-0.184-0.723-0.436-1.112-0.543c-0.896-0.247-2.978,0.384-2.31,1.616c0.235,0.433,0.771,0.813,1.111,1.154
				c0.524,0.525,1.417,0.422,2.037,0.14c0.414-0.188,1.287-0.88,0.758-1.409c-0.276-0.276-0.553-0.552-0.825-0.832
				c-0.071-0.074-0.141-0.148-0.209-0.226c-0.208-0.234,0.15,0,0.042,0.345c-0.296,0.308-0.592,0.615-0.888,0.923
				c0.003-0.001,0.006-0.002,0.01-0.003c-0.398,0.073-0.796,0.146-1.193,0.221c-0.002,0-0.605-0.185-0.49-0.13
				c0.075,0.035,0.146,0.075,0.219,0.114c0.191,0.103,0.382,0.205,0.575,0.306c0.638,0.33,1.302,0.619,1.982,0.852
				c0.484-0.644,0.968-1.286,1.453-1.93c-0.657,0-1.317-0.015-1.973,0.021c-0.691,0.038-1.791,0.394-1.924,1.191
				c-0.072,0.431,0.283,0.671,0.613,0.836c0.122,0.061,0.241,0.124,0.358,0.193c0.057,0.034,0.111,0.071,0.166,0.108
				c0.247,0.169-0.083-0.089,0.05,0.039c0.538,0.516,1.405,0.427,2.037,0.14C100.692,222.269,101.589,221.561,101.047,221.042
				L101.047,221.042z"/>
		</g>
	</g>
	<g>
		<g>
			<path d="M77.521,200.562c-0.792-0.704-2.084-0.854-2.162-2.062c-0.903,0.397-1.806,0.795-2.709,1.192
				c0.449,0.253,0.793,0.565,1.004,1.043c0.074,0.168,0.191,0.998,0.183,0.609c0.03,1.396,3.042,0.806,3.048-0.324
				c0.002-0.305,0.006-0.608,0.024-0.912c0.013-0.214,0.163-0.41-0.004-0.186c-0.398,0.259-0.797,0.519-1.195,0.778
				c0.008-0.003,0.017-0.006,0.026-0.008c-0.475-0.025-0.949-0.051-1.424-0.076c-0.094-0.051-0.239-0.303-0.16-0.104
				c0.048,0.118,0.084,0.242,0.123,0.363c0.122,0.384,0.226,0.773,0.339,1.16c0.198,0.676,0.392,1.5,0.865,2.046
				c0.741,0.856,3.621-0.128,2.802-1.242c-0.282-0.384-0.593-0.768-0.778-1.21c-0.127-0.62-0.563-0.364-1.307,0.769
				c0.376-0.063-0.187-0.012,0.287-0.013c0.99-0.002,1.951-0.056,2.905-0.341c0.489-0.145,1.47-0.583,1.286-1.269
				c-0.179-0.667-1.26-0.602-1.748-0.456c-1.144,0.34-2.399-0.051-3.496,0.511c-1.669,0.854-0.799,2.098,0.049,3.251
				c0.934-0.414,1.868-0.828,2.802-1.242c-0.734-0.849-0.7-2.306-1.167-3.307c-0.452-0.971-1.855-0.727-2.601-0.235
				c-0.74,0.488-0.672,1.26-0.676,2.047c1.016-0.108,2.032-0.216,3.048-0.324c-0.027-1.275-0.75-2.281-1.849-2.9
				c-0.838-0.473-2.784,0.034-2.709,1.192c0.101,1.571,1.43,1.636,2.394,2.491C75.6,202.586,78.456,201.391,77.521,200.562
				L77.521,200.562z"/>
		</g>
	</g>
	<g>
		<g>
			<path d="M80.05,195.083c0.22,0.002-0.363-0.019-0.118-0.004c0.179,0.012,0.355,0.036,0.532,0.065
				c0.109,0.019,0.313,0.08,0.527,0.162c0.212,0.081,0.376,0.205,0.542,0.358c-0.029-0.107-0.058-0.216-0.087-0.324
				c-0.015,0.219-0.114,0.007,0.251-0.23c0.342-0.155,0.683-0.311,1.025-0.466c0.41-0.142,0.813-0.162,1.211-0.062
				c-0.045-0.014-0.198-0.099-0.014,0.005c-0.108-0.061-0.21-0.135-0.311-0.208c-0.24-0.174-0.465-0.368-0.687-0.564
				c-0.284-0.25-0.561-0.51-0.829-0.776c-0.681,0.429-1.362,0.856-2.043,1.285c0.184,0.004-0.022-0.041,0.048,0.016
				c-0.074-0.06-0.01-0.005,0.004,0.069c0.028,0.148,0.02-0.068-0.011,0.099c-0.064,0.346-0.162,0.653-0.175,1.01
				c-0.025,0.688,2.996,0.223,3.033-0.813c0.015-0.394,0.252-0.755,0.175-1.169c-0.13-0.695-1.334-0.665-1.826-0.675
				c-0.35-0.008-2.741,0.589-2.043,1.285c0.739,0.738,1.795,1.955,2.946,1.852c0.735-0.066,1.871-0.252,2.232-1.01
				c0.214-0.449-0.463-0.733-0.761-0.896c-0.695-0.378-1.592-0.468-2.374-0.473c-0.658-0.005-1.573,0.256-2.017,0.774
				C78.813,194.944,79.685,195.082,80.05,195.083L80.05,195.083z"/>
		</g>
	</g>
	<g>
		<g>
			<path d="M68.944,183.623c-0.458-0.411-1.094-0.536-1.682-0.63c-0.11-0.018-0.22-0.034-0.33-0.054
				c0.415,0.071-0.183-0.102,0.156,0.064c-0.227-0.111,0.089,0.151-0.062-0.064c0.088,0.126,0.005-0.029,0.003-0.094
				c-0.559,0.403-1.117,0.807-1.676,1.21c0.63-0.043,1.216-0.245,1.783-0.515c0.217-0.104,0.43-0.214,0.65-0.311
				c-0.531,0.231,0.653-0.151,0.651-0.15c1.333-0.634-1.592-0.031-1.579-0.021c-0.278-0.205-0.159-0.154-0.082-0.028
				c0.086,0.141-0.113-0.267,0,0.016c0.035,0.089,0.063,0.18,0.091,0.271c0.128,0.418,0.199,0.855,0.241,1.29
				c0.02,0.203-0.004-0.213,0.004,0.099c0.002,0.09,0,0.18-0.005,0.27c-0.004,0.074-0.014,0.148-0.027,0.222
				c-0.027,0.115-0.01,0.063,0.052-0.155c0.036-0.104,0.512-0.513,0.666-0.576c0.269-0.071,0.538-0.144,0.807-0.216
				c0.219,0.025,0.438,0.051,0.658,0.077c0.232,0.13,0.297,0.156,0.194,0.081c0.268,0.208,0.132,0.117,0.061,0.024
				c-0.143-0.186-0.249-0.4-0.355-0.608c0.048,0.181,0.097,0.36,0.145,0.54c0-0.2-0.036-0.449,0.018-0.646
				c-0.559,0.403-1.117,0.807-1.676,1.21c0.003,0,0.007-0.001,0.01-0.001c-0.417-0.142-0.833-0.283-1.25-0.426
				c-0.195-0.334-0.084-0.155-0.045-0.04c0.05,0.149,0.106,0.297,0.167,0.442c0.152,0.364,0.342,0.712,0.608,1.004
				c0.517,0.566,1.411,0.517,2.056,0.209c0.478-0.227,1.244-0.964,0.725-1.533c-0.388-0.425-0.45-0.927-0.73-1.405
				c-0.231-0.396-0.857-0.441-1.25-0.426c-0.003,0-0.007,0-0.01,0c-0.741,0.03-1.476,0.484-1.676,1.21
				c-0.269,0.974,0.552,2.392,1.625,2.46c1.276,0.082,2.314-0.678,2.302-1.96c-0.007-0.744-0.112-1.527-0.372-2.229
				c-0.139-0.373-0.312-0.685-0.635-0.923c-0.653-0.482-1.827-0.285-2.404,0.227c0.38-0.139,0.761-0.277,1.141-0.416
				c-0.573,0.039-1.097,0.21-1.62,0.438c-0.166,0.072-0.327,0.159-0.488,0.239c-0.107,0.053-0.215,0.103-0.325,0.148
				c0.048-0.03,0.1-0.053,0.155-0.066c-0.559,0.038-1.704,0.476-1.676,1.21c0.036,0.921,0.375,1.523,1.257,1.862
				c0.308,0.118,0.659,0.155,0.985,0.205c0.075,0.012,0.15,0.023,0.225,0.038c-0.164-0.038-0.17-0.035-0.02,0.007
				c0.136,0.053,0.141,0.054,0.013,0.003c0.065,0.042,0.125,0.09,0.18,0.145C67.578,186.226,70.24,184.784,68.944,183.623
				L68.944,183.623z"/>
		</g>
	</g>
	<g>
		<g>
			<path d="M73.541,178.469c-0.188-0.095-0.373-0.195-0.557-0.298c-0.149-0.084-0.236-0.137-0.314-0.189
				c-0.066-0.045-0.127-0.095-0.187-0.147c-0.132-0.114,0.018,0.116,0.01,0.021c-0.038,0.137-0.075,0.272-0.113,0.408
				c-0.638,1.175-2.815,0.577-1.664,0.779c0.225,0.039,0.447,0.097,0.668,0.15c0.541,0.131,2.433-0.184,2.453-0.987
				c0.001-0.029,0-0.057,0.009-0.084c-0.578,0.329-1.157,0.658-1.735,0.987c0.002,0,0.004,0,0.007,0
				c-0.397-0.068-0.793-0.137-1.19-0.204c-0.173-0.231-0.061-0.065-0.028,0.063c0.036,0.144,0.066,0.29,0.097,0.435
				c0.092,0.434,0.176,0.869,0.264,1.303c0.208,1.037,0.225,1.765,1.59,1.609c0.591-0.067,1.506-0.362,1.735-0.988
				c0.181-0.495-0.852-1.421-1.117-1.734c-0.608-0.719-1.459-1.86-2.48-1.961c-0.647-0.063-1.3,0.055-1.868,0.384
				c-0.415,0.24-0.912,0.779-0.288,1.101c1.315,0.678,2.479,1.601,3.794,2.277c0.514,0.265,1.304,0.064,1.799-0.138
				c0.25-0.103,1.377-0.732,0.829-1.143c-1.012-0.76-2.023-1.519-3.035-2.277c0.033,0.123,0.066,0.247,0.099,0.371
				c0-0.106,0.005-0.212,0.019-0.317c0-0.009,0.108-0.329,0.026-0.192c-0.682,0.627-1.373,0.83-2.073,0.61
				c0.091,0.03,0.176,0.081,0.26,0.127c0.181,0.101,0.498,0.369,0.729,0.533c0.463,0.327,0.939,0.429,1.51,0.351
				c0.552-0.075,1.742-0.403,1.805-1.111c0.102-1.146-2.94-0.537-3.024,0.412c-0.016,0.105,0.007,0.073,0.068-0.094
				c0.273-0.188,0.547-0.376,0.82-0.564c-0.01,0.004-0.02,0.008-0.03,0.012c0.396-0.081,0.792-0.162,1.188-0.243
				c0.482,0.126,0.623,0.14,0.421,0.04c0.192,0.103-0.058-0.047-0.08-0.063c-0.141-0.104-0.28-0.211-0.421-0.314
				c-0.363-0.267-0.731-0.493-1.173-0.596c-1.151-0.267-2.941,0.314-3.065,1.654c-0.066,0.725,0.861,1.115,1.374,1.5
				c0.585,0.439,1.171,0.879,1.757,1.317c0.876-0.427,1.752-0.854,2.628-1.28c-1.315-0.677-2.479-1.6-3.794-2.277
				c-0.719,0.494-1.437,0.989-2.156,1.484c0.124,0.012-0.118-0.07-0.015,0c0.177,0.118,0.335,0.268,0.491,0.412
				c0.342,0.317,0.652,0.671,0.958,1.022c0.393,0.452,0.77,0.92,1.129,1.398c-0.033-0.123-0.066-0.247-0.099-0.371
				c-0.001,0.029,0,0.057-0.009,0.084c0.578-0.329,1.157-0.658,1.735-0.987c-0.002,0-0.004,0-0.007,0
				c0.397,0.068,0.793,0.137,1.19,0.204c0.173,0.231,0.061,0.065,0.028-0.063c-0.036-0.144-0.066-0.29-0.097-0.435
				c-0.092-0.434-0.176-0.869-0.264-1.303c-0.208-1.037-0.225-1.765-1.59-1.609c-0.591,0.067-1.506,0.362-1.735,0.988
				c-0.01,0.027-0.009,0.055-0.009,0.083c0.817-0.329,1.635-0.658,2.453-0.987c-0.797-0.192-1.569-0.326-2.381-0.124
				c-0.369,0.093-1.719,0.586-1.405,1.228c0.273,0.559,1.1,0.874,1.63,1.141c0.62,0.312,1.59,0.015,2.143-0.306
				C73.663,179.333,74.17,178.786,73.541,178.469L73.541,178.469z"/>
		</g>
	</g>
	<g>
		<g>
			<path d="M73.837,161.122c-0.042,1.266-0.454,2.57-0.759,3.795c1.016-0.11,2.031-0.222,3.047-0.332
				c-0.003-0.753-0.018-1.506-0.074-2.257c-0.013-0.172-0.03-0.343-0.045-0.514c-0.007-0.111-0.008-0.09-0.002,0.065
				c-0.001-0.098,0.06-0.219-0.072,0.104c0.019-0.048-0.52,0.458-0.255,0.261c0.176-0.131,0.348-0.27,0.516-0.413
				c0.519-0.445,0.94-1.016,1.353-1.556c-0.98,0.109-1.961,0.219-2.941,0.328c0.253,1.013,0.506,2.025,0.759,3.037
				c0.904-0.396,1.808-0.791,2.711-1.187c-0.511-0.258-1.005-0.552-1.483-0.868c-0.343-0.227-0.657-0.478-0.931-0.785
				c-0.11-0.123-0.125-0.158-0.16-0.26c-0.016,0.092-0.015,0.085,0.003-0.02c-0.036,0.21-0.673,0.538-0.278,0.39
				c-0.397,0.075-0.794,0.151-1.191,0.228c0.308,0.002,1.618,0.037,1.421,0.499c-0.64,1.5,2.077,0.948,2.659,0.394
				c0.021-0.02-0.083,0.041-0.042,0.019c0.288-0.153,0.579-0.151,0.902-0.163c0.594-0.021,1.576-0.43,1.706-1.095
				c0.144-0.731-0.882-0.779-1.34-0.763c-1.293,0.045-2.733,0.458-3.694,1.373c0.886,0.131,1.772,0.262,2.659,0.394
				c0.582-1.364-0.39-2.083-1.656-2.367c-1.354-0.304-2.638-0.194-3.754,0.71c-1.791,1.45,1.77,3.363,2.791,3.877
				c0.705,0.355,3.006-0.006,2.711-1.187c-0.253-1.013-0.506-2.025-0.759-3.037c-0.306-1.224-2.495-0.258-2.941,0.328
				c-0.314,0.413-0.647,0.807-1.042,1.146c0.312-0.268,0.055-0.048-0.021,0.012c-0.22,0.172-0.404,0.306-0.551,0.551
				c-0.182,0.303-0.125,0.634-0.095,0.968c0.065,0.707,0.088,1.413,0.091,2.123c0.006,1.422,2.783,0.728,3.047-0.332
				c0.305-1.224,0.716-2.528,0.759-3.795C76.93,159.416,73.875,159.999,73.837,161.122L73.837,161.122z"/>
		</g>
	</g>
	<g>
		<g>
			<path d="M168.865,76.054c-3.877,3.113-11.868,3.776-13.683-1.86c-1.026-3.188,4.447-4.789,6.478-5.409
				c6.241-1.905,13.215-2.781,19.742-2.84c0.577-0.005,2.454-0.208,2.498-1.032c0.132-2.492,1.213-5.992,4.139-3.459
				c1.814,1.57,2.002,4.361,1.936,6.55c-0.019,0.618,2.195-0.111,2.393-0.198c6.83-3,9.054,3.325,7.494,8.404
				c-0.066,0.216,0.077,0.261,0.252,0.328c1.885,0.719,3.567,0.778,5.577,0.793c0.644,0.005,3.463-1.241,1.963-1.252
				c-1.198-0.009-5.13,0.681-4.363-1.816c0.371-1.208,0.343-2.487,0.228-3.724c-0.188-2.005-1.766-3.39-3.453-4.176
				c-2.945-1.371-6.686-0.188-9.449,1.026c0.798-0.066,1.595-0.132,2.393-0.198c0.114-3.718-1.56-8.648-6.146-8.286
				c-3.998,0.316-5.791,2.962-5.995,6.82c0.833-0.344,1.665-0.688,2.498-1.032c-4.846,0.043-9.708,0.662-14.481,1.458
				c-4.819,0.803-10.794,1.8-14.758,4.903c-3.125,2.445-2.073,6.91,1.89,8.149c4.659,1.457,11.828-0.338,15.598-3.367
				C172.276,75.304,169.434,75.597,168.865,76.054L168.865,76.054z"/>
		</g>
	</g>
	<g>
		<g>
			<path d="M164.379,71.333c-0.066,0.005-0.133,0.01-0.198,0.015c-0.406,0.032-2.656,1.114-1.423,1.542
				c1.285,0.445,2.766,0.488,4.104,0.694c3.198,0.493,5.938,1.65,8.748,3.255c6.789,3.877,12.212,3.962,19.841,3.743
				c1.096-0.032,3.233-1.741,1.189-1.683c-3.439,0.099-6.865,0.624-10.289,0.033c-3.48-0.601-6.373-2.427-9.371-4.139
				c-3.981-2.273-7.701-1.929-11.802-3.35c-0.475,0.514-0.949,1.028-1.423,1.542c0.065-0.005,0.132-0.01,0.198-0.016
				C165.428,72.855,166.485,71.169,164.379,71.333L164.379,71.333z"/>
		</g>
	</g>
	<g>
		<g>
			<path d="M177.627,72.097c7.11,1.294,12.91,6.647,19.452,9.471c6.041,2.608,12.259,2.042,18.084-0.763
				c1.824-0.878-0.977-1.01-1.805-0.611c-12.815,6.173-22.037-7.365-33.812-9.508C178.773,70.545,176.009,71.803,177.627,72.097
				L177.627,72.097z"/>
		</g>
	</g>
	<g>
		<g>
			<path d="M209.52,80.5c6.19,0.872,12.277,1.322,18.221-0.982c1.99-0.772,0.147-1.575-1.152-1.071
				c-4.909,1.904-10.095,1.25-15.176,0.535C210.557,78.86,207.854,80.265,209.52,80.5L209.52,80.5z"/>
		</g>
	</g>
</g>
<path fill="#FFFFFF" d="M201.358,71.804c0-1.723-4.752-3.199-11.509-3.823c0.079-0.515,0.123-1.059,0.123-1.623
	c0-3.199-1.359-5.792-3.036-5.792c-1.673,0-3.029,2.582-3.035,5.771c-3.023,0.136-6.949,0.484-11.239,1.034
	c-4.497,0.576-8.552,1.266-11.558,1.926c-4.222,0.161-7.564,2.261-7.564,4.834c0,2.679,3.62,4.85,8.084,4.85
	c4.104,0,7.484-1.835,8.007-4.211c2.33,0.502,5.251,0.868,8.509,1.048c1.055,2.254,4.758,3.922,9.178,3.922
	c2.166,0,4.156-0.405,5.754-1.079c0.676,0.201,1.422,0.32,2.215,0.32c2.935,0,5.313-1.529,5.313-3.416
	c0-0.751-0.389-1.439-1.028-2.004C200.706,73.028,201.358,72.434,201.358,71.804z"/>
<g>
	<g>
		<path d="M169.264,75.369c-3.673,2.95-10.376,3.998-13.492,0.064c-2.598-3.28,2.947-5.234,5.194-5.977
			c6.529-2.156,13.985-3.09,20.86-3.152c0.636-0.005,2.037-0.26,2.084-1.137c0.119-2.251,1.159-6.197,4.158-3.601
			c1.724,1.493,1.959,4.091,1.895,6.182c-0.033,1.082,1.524,0.894,2.164,0.613c6.469-2.841,9.458,2.021,7.703,7.735
			c-0.127,0.414,0.327,0.661,0.626,0.775c1.906,0.728,3.627,0.804,5.658,0.819c1.303,0.01,3.167-1.957,1.113-1.972
			c-1.117-0.009-4.558,0.774-3.908-1.343c0.248-0.808,0.378-1.908,0.299-2.756c-0.164-1.751-0.686-3.602-2.235-4.659
			c-3.253-2.22-7.101-1.633-10.529-0.127c0.721,0.204,1.442,0.409,2.164,0.613c0.106-3.501-1.206-8.63-5.579-8.871
			c-4.293-0.236-6.371,2.896-6.583,6.895c0.694-0.379,1.39-0.758,2.084-1.137c-8.843,0.079-21.627,0.723-28.868,6.389
			c-3.528,2.761-1.542,5.996,1.316,8.309c3.678,2.975,12.604,0.077,15.825-2.51C172.82,75.23,170.32,74.521,169.264,75.369
			L169.264,75.369z"/>
	</g>
</g>
<g>
	<g>
		<path d="M164.324,71.125c-0.066,0.005-0.132,0.01-0.198,0.015c-0.925,0.072-2.632,1.438-1.05,1.986
			c1.29,0.447,2.833,0.469,4.174,0.675c3.459,0.533,6.381,1.958,9.382,3.731c6.352,3.753,12.142,3.437,19.257,3.232
			c1.661-0.048,2.389-2.11,0.314-2.051c-3.968,0.114-7.691,0.618-11.613-0.367c-3.21-0.806-5.912-2.755-8.799-4.273
			c-3.606-1.898-7.242-1.591-10.931-2.869c-0.35,0.662-0.699,1.324-1.05,1.986c0.066-0.005,0.133-0.01,0.199-0.016
			C165.651,73.049,166.404,70.964,164.324,71.125L164.324,71.125z"/>
	</g>
</g>
<g>
	<g>
		<path d="M178.05,72.448c6.743,1.228,12.084,6.309,18.259,8.974c6.304,2.721,12.374,2.924,18.61-0.08
			c1.876-0.903,0.191-2.412-1.316-1.686c-13.287,6.4-22.276-7.101-34.479-9.322C177.691,70.074,176.024,72.08,178.05,72.448
			L178.05,72.448z"/>
	</g>
</g>
<g>
	<g>
		<path d="M209.52,80.5c6.19,0.872,12.277,1.322,18.221-0.982c1.99-0.772,0.147-1.575-1.152-1.071
			c-4.909,1.904-10.095,1.25-15.176,0.535C210.557,78.86,207.854,80.265,209.52,80.5L209.52,80.5z"/>
	</g>
</g>
</svg>
