<?xml version="1.0" encoding="utf-8"?>
<!-- Generator: Adobe Illustrator 15.1.0, SVG Export Plug-In . SVG Version: 6.00 Build 0)  -->
<!DOCTYPE svg PUBLIC "-//W3C//DTD SVG 1.1//EN" "http://www.w3.org/Graphics/SVG/1.1/DTD/svg11.dtd">
<svg version="1.1" id="Layer_1" xmlns="http://www.w3.org/2000/svg" xmlns:xlink="http://www.w3.org/1999/xlink" x="0px" y="0px"
	 width="324.49px" height="326.531px" viewBox="0 0 324.49 326.531" enable-background="new 0 0 324.49 326.531"
	 xml:space="preserve">
<g>
	<g id="g5241_210_">
		<path id="path35_216_" fill="#3C6EAF" d="M312.336,166.734c0-79.041-64.068-143.116-143.113-143.116
			c-78.999,0-143.05,64.022-143.104,143.018l-0.005-0.005v110.746l0.005,0.007c0.041,17.936,14.586,32.453,32.533,32.453
			c0.051,0,0.102-0.005,0.156-0.005l0.009,0.005h110.466l0,0c79.018-0.033,143.059-64.088,143.059-143.103H312.336z"/>
	</g>
	<g id="g5241_209_">
		<path id="path35_215_" fill="#294172" d="M309.336,159.734c0-79.041-64.068-143.116-143.113-143.116
			c-78.999,0-143.05,64.022-143.104,143.018l-0.005-0.005v110.746l0.005,0.007c0.041,17.936,14.586,32.453,32.533,32.453
			c0.051,0,0.102-0.005,0.156-0.005l0.009,0.005h110.466l0,0c79.018-0.033,143.059-64.088,143.059-143.103H309.336z"/>
	</g>
	<g>
		<path fill="#3C6EAF" d="M62.533,254.817c4.444,0,8.532,1.482,11.837,3.956c-3.61-4.821-9.35-7.956-15.837-7.956
			c-10.933,0-19.794,8.863-19.794,19.797c0,6.486,3.135,12.227,7.957,15.838c-2.475-3.305-3.957-7.394-3.957-11.838
			C42.739,263.68,51.601,254.817,62.533,254.817z"/>
		<path fill="#A7BFDF" d="M78.327,270.614c0-4.446-1.483-8.536-3.957-11.841c-3.305-2.474-7.393-3.956-11.837-3.956
			c-10.933,0-19.794,8.863-19.794,19.797c0,4.444,1.482,8.533,3.957,11.838c3.304,2.473,7.393,3.956,11.837,3.956
			C69.466,290.408,78.327,281.544,78.327,270.614z"/>
	</g>
	<g>
		<path fill="#3C6EAF" d="M58.027,154.544c0-53.769,33.451-99.721,80.677-118.189C84.933,48.983,44.9,97.253,44.9,154.881
			c0,59.174,42.215,108.482,98.172,119.463C93.556,257.061,58.027,209.956,58.027,154.544z"/>
		<path fill="#C5D4E9" d="M288.399,153.881c0-67.244-54.513-121.753-121.754-121.753c-9.615,0-18.969,1.119-27.941,3.227
			C91.479,53.824,58.027,99.776,58.027,153.544c0,55.411,35.528,102.517,85.045,119.8c7.628,1.497,15.507,2.289,23.573,2.289
			C233.887,275.633,288.399,221.122,288.399,153.881z"/>
	</g>
	<g>
		
			<image overflow="visible" opacity="0.75" width="71" height="94" xlink:href="E407021E.png"  transform="matrix(1 0 0 1 25.2041 225.7144)">
		</image>
		<g>
			<text transform="matrix(1 0 0 1 38.2549 285.6333)" font-family="'BaskOldFace'" font-size="57.4636">V</text>
		</g>
	</g>
</g>
<g>
	
		<image overflow="visible" opacity="0.75" width="140" height="177" xlink:href="E4070222.png"  transform="matrix(1 0 0 1 162.2041 102.7144)">
	</image>
	<g>
		<path fill="#FFFFFF" d="M266.337,173.355c-0.022-0.044,11.615-3.099,4.199-3.099c-0.082,0-6.012-6.781-10.375-9.526
			c-12.44-7.825-16.994-5.303-16.994-5.303s9.361-10.85,7.394-17.264c-1.752-5.71-7.229-11.303-12.2-11.303
			c-1.604,0-14.463-1.191-15.181,0.879c-4.021,0.119-11.909,8.428-12.059,10.424c-2.47,0.896-4.196,2.928-4.196,5.296
			c0,0.436,0.063,0.858,0.174,1.266c0.933,1.909,3.854,3.503,4.771,4.853c5.499,8.094,0.057,5.988-3.315,6.837
			c-17.867,7.155-8.309,19.778-5.965,21.84l-1.676,14.469c-5.813,5.486-14.514,15.991-14.514,15.991l4.622-1.733
			c-0.043,0.241-0.071,0.483-0.071,0.731c0,1.627,0.97,3.105,2.547,4.222l0.775,3.377c-1.186,0.973-1.938,2.399-1.938,3.993
			c0,0.41,0.055,0.808,0.147,1.19c-0.095,0.392-0.147,0.797-0.147,1.214c0,1.906,1.053,3.592,2.666,4.637
			c0.816,1.381,1.574,3.183,1.769,5.323c0,0.444,0.013,0.884,0.032,1.317c-0.118,6.338-3.313,21.729,1.793,21.729
			c2.064,0,15.632-0.087,15.632-0.087s-1.786-4.357-2.719-4.64c-3.304-2.273,0.891-10.929,0.891-16.421
			c0-1.292,0.203-1.946,0.479-2.05c0.053,1.678-1.054-0.625,2.971,2.918l1.293,16.66c0,0,14.278,2.088,14.278-3.721
			c0,0-4.11-0.801-5.508-7.457v-0.001c0.212-1.007,0.333-2.092,0.333-3.229c0-0.746-0.056-1.469-0.149-2.164
			c2.581-1.223,6.809-3.359,7.26-5.871c2.361-2.396,11.563-9.199,1.54-11.232c-1.16-0.236-0.108-2.327-0.294-3.421h1.993
			c0,0,2.771,1.604,3.318,1.604c2.791,0,9.445-2.056,10.604-4.933l6.09-5.094c0,0-14.523-5.947-17.409-13.318
			c0-14.587,10.088-5.891,10.42-5.891l7.123-2.368c1.234,0,2.276-0.788,2.674-1.886c0.654,0.304,1.372,0.473,2.125,0.473
			c2.054,0,3.843-1.248,4.798-3.098c0.837,1.85,2.401,3.098,4.199,3.098c2.675,0,6.927,4.944,6.927-6.164
			C277.463,173.016,267.174,171.504,266.337,173.355z M221.518,158.999c-0.008-0.006-0.015-0.011-0.021-0.017
			c0.094-0.002,0.187-0.006,0.28-0.009c0.01,0.008,0.02,0.018,0.03,0.026H221.518z"/>
	</g>
</g>
<path fill="#294172" d="M76.55,178.406c3.326,2.706,11.287-7.31,11.287-7.31s-5.462-4.703-4.249-24.686
	c0.604-0.97,1.389-1.437,2.231-1.638c0,0,0.396,9.985,0.396,11.065c0,5.169,1.235,9.877,3.255,13.473
	c0.006,0.016,0.006,0.03,0.012,0.045c2.645,7.277,13.669,10.442,16.756,13.529s4.798,7.838,2.335,10.301s-2.335,11.645-2.335,11.645
	s-4.383,4.031-7.004,4.031s7.004,5.374,7.004,5.374l6.016-7.613c0,0,2.59-8.509,2.59-13.884s8.467-13.841,8.467-13.841
	s0,0-2.645-2.645s-7.076-0.622-8.779-2.325c-1.703-1.702,0-13.277,0-13.277c2.025-2.026,9.945-12.814,11.424-16.282
	c0.962-2.256,3.383-9.958,3.383-12.544c0-3.227-1.028-6.241-2.8-8.837c4.57,2.459,8.545,5.428,8.545,7.049
	c0,3.543-1.205,10.199-1.621,12.39c-2.79,1.717-13.185,8.644-14.045,16.999c-0.479,4.65,0.043,7.667,1.594,9.222
	c0.747,0.749,10.476,1.656,11.538,1.688c-1.273,1.863-3.479,5.06-2.853,6.548c0.927,2.203,7.093,2.634,7.093,2.788
	c0,0.719-5.103,6.208-6.63,9.695c-3.289,7.514,0.46,10.609,2.249,12.094c0.223,0.184,0.438,0.354,0.597,0.51
	c0.324,0.326,0.756,0.49,1.182,0.49s0.854-0.162,1.18-0.486c0.649-0.649,0.65-1.701,0.001-2.352
	c-0.221-0.221-0.499-0.455-0.811-0.715c-1.597-1.324-3.583-2.973-1.299-8.189c2.974-6.795,8.2-10.457,8.25-10.492
	c0.758-0.519,0.729-1.442,0.433-2.312c-0.667-1.954-8.034-1.729-8.522-1.696c0.209-2.023,2.708-5.347,4.362-7.104
	c0.479-0.363,0.758-0.783,0.758-1.233c0-1.36-2.507-2.463-5.599-2.463c-1.413,0-5.138,0.453-5.934,0.453
	c-1.363,0-2.615,0.167-3.617,0.443c-0.221-0.217-1.185-1.483-0.663-6.548c0.798-7.753,12.931-14.78,13.053-14.85l0.657-0.376
	l0.148-0.742c0.074-0.372,1.825-9.172,1.825-13.762c0-5.157-10.768-10.364-14.068-11.837c-0.697-0.311-1.493-0.097-1.957,0.467
	c-2.263-1.708-4.958-3.004-7.939-3.727c0,0-15.716-0.203-18.798-0.43c-7.979-0.588-15.871-2.794-15.871-2.794s-1.267,0-1.881,0
	c-5.095,0-9.224,6.736-9.224,15.346c0,2.947,0.492,5.57,1.333,7.92c-0.833,3.829-1.333,8.68-1.333,14.037
	c0,8.095,1.143,15.141,2.848,19.002c0.07,0.481,0.146,0.931,0.226,1.38c-0.299,0.535-0.471,1.103-0.471,1.704
	c0,1.258,0.716,2.403,1.896,3.29"/>
<g>
	<path d="M278.269,173.32c-1.081-1.499-2.753-2.359-4.586-2.359c-0.588,0-1.144,0.037-1.669,0.096
		c-0.946-0.982-1.845-2.206-2.792-3.506c-2.349-3.227-4.778-6.563-8.425-6.563c-3.275,0-7.07-4.911-8.256-6.803l-0.294-0.469h-0.554
		l-6.489,2h5.95c1.146,1.692,5.264,7.272,9.643,7.272c2.629,0,4.754,2.918,6.809,5.741c0.683,0.938,1.385,1.891,2.114,2.762
		c-0.75,0.203-1.361,0.431-1.799,0.617c-0.991-1.188-2.136-2.322-3.127-3.303l-0.591-0.586c-2.629-2.633-8.771,1.699-11.515,3.882
		l0.211-0.88l-0.974-0.232c-1.67-0.398-16.44-3.775-20.483,0.267c-0.391,0.39-0.391,1.023,0,1.413c0.391,0.391,1.023,0.391,1.414,0
		c2.321-2.321,11.642-1.268,17.629,0.043l-2.336,9.73c-12.855,2.46-26.875,4.318-28.472,3.239c-1.042-1.042-3.27-1.913-6.089-3.015
		c-4.089-1.599-9.177-3.587-12.347-6.757c-5.047-5.048-3.243-12.228,0-15.471c1.801-1.8,8.245-2.359,13.676-2.457
		c5.488,3.538,13.662,3.921,17.4,2.7c0.525-0.171,0.812-0.736,0.64-1.261s-0.732-0.813-1.261-0.64
		c-2.472,0.807-7.56,0.743-12.009-0.775c0.634,0.019,1.205,0.041,1.688,0.066c0.538,0.025,1.021-0.396,1.051-0.947
		c0.028-0.552-0.396-1.022-0.947-1.05c-0.631-0.033-2.978-0.14-5.93-0.11c-1.595-1.117-2.861-2.547-3.527-4.341
		c-1.429-3.851-3.176-5.751-4.219-6.887c-1.004-1.092-1.004-1.092-0.003-2.093c1.396-1.395,2.092-3.334,2.765-5.209
		c1.009-2.81,1.728-4.532,3.695-4.532c0.532,0,1.033-0.089,1.515-0.236c0.359,0.192,3.365,1.824,4.948,3.405
		c0.171,0.505-0.761,1.78-2.739,3.778c-0.775-1.003-2.101-2.133-4.142-2.133l-1.322,1.001l1.322,0.999
		c1.355,0,2.224,0.859,2.701,1.544c-0.418,0.396-0.865,0.813-1.345,1.251c-0.656,0.6-1.234,1.129-1.646,1.541
		c-0.837,0.836-0.757,1.657-0.635,2.072c0.564,1.915,4.271,2.909,5.84,3.248c0.071,0.015,0.142,0.022,0.212,0.022
		c0.461,0,0.875-0.32,0.977-0.789c0.116-0.54-0.227-1.072-0.767-1.188c-2.046-0.442-4.157-1.346-4.343-1.783
		c0,0,0.021-0.058,0.13-0.167c0.396-0.396,0.951-0.903,1.581-1.479c0.471-0.43,0.928-0.852,1.369-1.267
		c0.007,0,0.013,0.003,0.02,0.003c0.119,0,0.24-0.021,0.357-0.066c0.39-0.149,0.631-0.517,0.641-0.91
		c2.191-2.145,3.758-4.045,3.792-5.576c0.014-0.59-0.191-1.114-0.593-1.515c-1.192-1.193-2.997-2.354-4.204-3.068
		c0.52-0.345,1.033-0.727,1.555-1.12c2.758-2.08,5.888-4.435,12.271-2.787c8.912,2.3,18.491,8.822,19.412,12.199
		c0.155,0.568-0.006,0.826-0.184,1.004c-1.938,1.938-2.69,3.305-2.939,4.231c-0.346-0.601-1.12-1.356-2.843-1.356
		c-0.553,0-1,0.448-1,1s0.447,1,1,1c0.442,0,0.998,0.07,1.136,0.402c0.195,0.473-0.108,1.494-0.815,2.558l-1.057,1.289
		c-1.409,1.396-2.788,1.647-5.602-1.166c-0.391-0.391-1.023-0.391-1.414,0s-0.391,1.023,0,1.414c1.092,1.091,2.482,2.254,4.035,2.63
		c-0.41,0.512-0.259,1.368,0.012,2.82c0.329,1.759,0.94,5.032-0.037,6.208c-0.17,0.204-0.484,0.475-1.258,0.475
		c-0.553,0-1,0.448-1,1s0.447,1,1,1c1.195,0,2.137-0.403,2.796-1.197c1.577-1.899,0.908-5.483,0.465-7.854
		c-0.046-0.25-0.098-0.526-0.142-0.779l2.648-3.232c0.41-0.417,0.802-0.893,1.148-1.401l3.016-3.68l-0.196-0.441
		c0.023-0.227,0.251-1.298,2.461-3.508c0.762-0.761,1.01-1.807,0.699-2.945c-0.626-2.296-3.665-5.19-7.727-7.79
		c1.194-0.306,2.023-0.941,2.023-1.683c0-0.082-0.026-0.159-0.046-0.238c1.884-1.354,4.003-3.082,5.504-4.341
		c0.425,0.504,1.027,0.825,1.702,0.825c1.284,0,2.325-1.142,2.325-2.549s-1.041-2.549-2.325-2.549c-0.626,0-1.191,0.274-1.608,0.716
		c-0.215-0.216-0.448-0.449-0.716-0.716l-3.739,4.222l-3.161,1.414c-0.731-0.17-1.608-0.27-2.554-0.27
		c-2.355,0-4.277,0.616-4.562,1.409c-0.001-0.001-0.003-0.001-0.004-0.002l2.927-10.913c2.902-2.903,1.234-2.98-2.98-2.98
		c-2.846,0-3.946,0.909-1.396,3.46c1.271,2.187,0.392,6.518-3.388,8.692c-0.373-0.109-0.747-0.223-1.118-0.318
		c-7.317-1.89-11.167,1.01-13.976,3.127c-1.506,1.135-2.695,2.032-4.021,2.032c-3.475,0-4.592,3.111-5.577,5.856
		c-0.6,1.668-1.219,3.393-2.297,4.471c-2.199,2.198-1.488,3.303-0.056,4.861c1.005,1.093,2.524,2.746,3.816,6.228
		c0.533,1.437,1.361,2.67,2.388,3.726c-5.035,0.221-10.672,0.944-12.708,2.98c-2.055,2.054-3.427,5.179-3.672,8.359
		c-0.288,3.754,1.016,7.284,3.672,9.94c0.533,0.534,1.122,1.024,1.732,1.495c-1.468,2.467-5.402,9.934-1.732,13.604
		c0.107,0.107,0.249,0.2,0.37,0.302c-1.711,0.162-3.837,2.444-7.364,6.406c-2.851,3.201-6.754,7.585-8.63,7.585v2h6.053
		c-0.38,0.392-0.379,1.016,0.008,1.402c3.537,3.537,11.908,6.521,15.291,6.521c0.341,0,0.669-0.068,0.991-0.168
		c1.368,1.19,4.761,1.973,8.138,1.973c1.506,0,3.004-0.155,4.311-0.498c0.86,4.961-3.134,8.779-5.579,11.114
		c-0.164,0.157-0.296,0.286-0.44,0.427l-4.075-0.313c-0.568-0.045-1.031,0.371-1.073,0.922s0.37,1.031,0.921,1.072l2.815,0.216
		c-0.629,1.373-0.679,2.868-0.586,3.974c-0.259,0.029-0.496,0.156-0.662,0.357h-12.26c-0.178-2.238-0.835-7.516-3.145-9.825
		c-1.152-1.152-1.976-2.673-2.259-4.17c-0.16-0.847-0.271-2.426,0.788-3.485c1.053-1.053,1.59-1.351,1.781-1.432
		c0.321,0.067,0.675-0.027,0.924-0.283c0.384-0.396,0.374-1.03-0.023-1.414c-1.203-1.167-3.381,1-4.096,1.715
		c-2.695,2.695-1.416,7.598,1.471,10.483c1.908,1.909,2.538,7.47,2.62,9.452l0.039,0.959h13.579
		c-0.683,3.163-1.752,9.8,0.644,12.195c1.101,1.1,2.153,2.055,3.021,2.805h-15.849c-0.544-1.523-0.112-8.198,0.644-13.867
		c0.073-0.549-0.312-1.051-0.859-1.124c-0.552-0.073-1.05,0.312-1.123,0.858c-0.547,4.104-1.651,13.841-0.089,15.626
		c0.287,0.327,0.67,0.507,1.08,0.507h19h2.995l-2.395-1.799c-0.023-0.019-2.41-1.819-5.012-4.42
		c-1.505-1.505-0.874-6.997-0.011-10.781h0.422l1.307-0.002l-0.342-1.262c-0.006-0.02-0.29-1.1-0.222-2.36
		c0.689,0.575,1.45,0.985,2.257,1.268v15.052l0.651,0.242c0.218,0.08,5.39,1.981,10.313,1.981c4.319,0,9.185-3.649,9.185-5.593
		c0-0.701-0.5-1.407-1.615-1.407c-2.679,0-6.569-0.958-6.569-2.46c0-2.174,0.761-6.771,0.968-7.982l8.012-8.211
		c0.16-0.148,3.929-3.678,3.994-7.095c0.021-1.134-0.361-2.122-1.107-2.954c0.498-0.101,0.98-0.206,1.422-0.322
		c5.463-1.426,9.022-4.488,9.171-4.617l0.738-0.643l-0.565-0.68c2.664-0.516,6.09-3.258,6.09-5.094c0-0.513-0.238-0.969-0.654-1.252
		c-0.328-0.224-0.741-0.333-1.265-0.333c-1.548,0-7.372-5.356-11.881-10.319l-0.887-0.977v-5.98c0-0.393-0.231-0.725-0.561-0.888
		c3.277-0.552,6.296-1.113,8.519-1.544l0.632-0.122l2.261-9.421c0.286,0.052,0.59-0.007,0.829-0.211
		c3.341-2.865,8.64-6.161,9.905-4.896l0.599,0.594c1.849,1.829,4.944,4.891,4.949,6.776c0.001,0.348-0.109,0.612-0.357,0.861
		c-2.902,2.903-5.406,4.438-7.24,4.438c-0.553,0-1,0.448-1,1s0.447,1,1,1c0.496,0,1.018-0.09,1.555-0.232
		c0.019,0.513,0.044,1.048,0.077,1.618c0.136,2.354,0.321,5.58-0.685,6.645c-0.128,0.136-0.323,0.281-0.674,0.334
		c-0.398-0.207-0.871-0.235-1.361-0.105c-0.728-0.174-1.271-0.521-1.544-1.041c-0.5-0.957-0.156-2.451,0.918-3.998
		c0.315-0.454,0.203-1.076-0.251-1.392c-0.453-0.314-1.077-0.204-1.392,0.251c-1.529,2.201-1.911,4.412-1.047,6.064
		c0.315,0.604,0.778,1.088,1.354,1.455c-0.338,0.363-0.668,0.771-0.967,1.226c-1.598,0.421-3.321,0.677-4.029,0.49
		c0.01-1.698,0.176-5.786,2.903-8.514c0.118-0.118,0.188-0.261,0.235-0.409c0.969-0.296,1.853-0.713,2.46-1.305
		c0.596-0.582,0.911-1.303,0.911-2.087v-7.587c0-0.552-0.447-1-1-1s-1,0.448-1,1v7.587c0,0.165-0.035,0.389-0.307,0.653
		c-1.173,1.145-4.91,1.482-6.972,1.438c-0.566-0.039-1.011,0.422-1.024,0.975c-0.015,0.553,0.422,1.011,0.974,1.025
		c0.075,0.002,0.221,0.004,0.424,0.004c0.549,0,1.513-0.021,2.606-0.139c-2.205,3.294-2.212,7.228-2.212,8.657
		c0,0.286,0.102,1.25,1.403,1.599c0.803,0.217,2.116,0.152,3.522-0.1c-0.47,1.491-0.441,2.999,0.556,3.996
		c0.508,0.508,1.15,0.73,1.859,0.73c1.561-0.001,3.44-1.076,4.906-2.541c0.71-0.711,1.641-1.838,2.041-3.179
		c0.414-1.383,0.132-2.653-0.793-3.579c-0.106-0.105-0.231-0.178-0.364-0.226c0.827-1.842,0.686-4.571,0.543-7.044
		c-0.048-0.83-0.093-1.614-0.093-2.271c0-0.01-0.005-0.018-0.006-0.027c1.572-0.83,3.282-2.152,5.125-3.996
		c0.62-0.62,0.946-1.409,0.943-2.281c-0.003-1.034-0.47-2.134-1.175-3.227c0.969-0.362,2.555-0.81,4.521-0.81
		c1.2,0,2.253,0.544,2.965,1.529c1.092,1.514,1.249,3.791,0.433,6.25c-0.836,2.518-3.012,2.453-3.911,2.309
		c-1.595-0.258-2.832-1.283-2.832-1.994c0-0.552-0.447-1-1-1s-1,0.448-1,1c0,2.027,2.294,3.609,4.513,3.969
		c0.334,0.053,0.679,0.082,1.029,0.082c2.016,0,4.181-0.967,5.1-3.735C280,178.294,279.741,175.359,278.269,173.32z
		 M194.328,200.459c1.963-2.205,4.893-5.495,5.952-5.752c1.126,2.892-2.019,9.243-3.642,12.007h-8.371
		C189.992,205.267,191.972,203.105,194.328,200.459z M191.691,208.714h6.07l0.293-0.475c0.605-0.98,5.861-9.712,4.089-14.26
		c-0.019-0.048-0.049-0.083-0.07-0.129c2.272,0.994,5.42,1.463,8.597,1.463c0.41,0,0.819-0.011,1.228-0.025
		c0.313,1.479,0.901,5.223-0.159,9.007c-1.679,5.993-4.279,10.343-6.183,10.343C202.875,214.638,194.947,211.957,191.691,208.714z
		 M232.885,247.605c-1.104,1.137-3.905,3.028-6.716,3.028c-3.589,0-7.458-1.14-8.965-1.634v-13.174
		c0.699,0.092,1.407,0.133,2.111,0.133c1.024,0,2.034-0.07,2.977-0.138c0.771-0.055,1.498-0.106,2.113-0.106h1.616
		c-0.306,1.865-0.853,5.483-0.853,7.459C225.169,246.438,230.093,247.427,232.885,247.605z M239.951,214.674
		c-0.829,0.217-1.705,0.394-2.597,0.541l-1.77-1.77c-0.391-0.391-1.023-0.391-1.414,0c-0.391,0.39-0.391,1.023,0,1.414l0.683,0.683
		c-4.594,0.453-9.015,0.123-9.741-0.604c-0.815-0.816-2.034-5.871-2.695-10.088c-0.086-0.544-0.586-0.922-1.144-0.832
		c-0.545,0.085-0.918,0.597-0.833,1.143c0.247,1.57,1.562,9.495,3.258,11.191c0.989,0.99,3.771,1.396,6.963,1.396
		c1.948,0,4.043-0.156,5.98-0.418l0.811,0.811c0.478,0.477,0.703,1.033,0.691,1.702c-0.039,2.13-2.436,4.813-3.391,5.703
		l-8.943,9.167l-1.404-1c-0.686,0-1.448,0.055-2.255,0.111c-2.786,0.197-6.257,0.443-8.249-1.549
		c-0.125-0.125-0.277-0.195-0.436-0.24c0.153-0.292,0.344-0.568,0.589-0.813c0.215-0.215,0.466-0.455,0.742-0.719
		c1.312-1.252,3.161-3.028,4.524-5.26c0.434,1.855,1.642,2.264,2.984,2.264c0.505,0,1.026-0.055,1.531-0.108
		c0.691-0.073,1.476-0.155,2.332-0.155c0.553,0,1-0.447,1-1s-0.447-1-1-1c-0.962,0-1.802,0.088-2.542,0.167
		c-2.229,0.234-2.29,0.153-2.435-0.984c-0.065-0.506-0.496-0.861-0.999-0.856c0.814-1.863,1.19-3.985,0.689-6.341
		c0.482-0.253,0.911-0.544,1.253-0.886c0.391-0.391,0.391-1.023,0-1.414s-1.023-0.391-1.414,0
		c-2.223,2.224-9.795,1.623-12.298,0.397c2.819-2.601,4.647-8.375,5.24-10.493c1.122-4.003,0.614-7.863,0.251-9.685
		c3.593-0.358,6.797-1.306,8.221-2.729c2.041-2.041,12.043-0.916,17.868,0.273l0.708,0.144l-1.475,5.622l-0.033,2.604l8.336,10.017
		C246.273,211.996,243.538,213.738,239.951,214.674z M253.676,205.968c-0.716,0.994-3.012,2.787-4.704,2.787
		c-0.225,0-0.432,0.074-0.599,0.199l-7.169-8.613v-1.498l0.65-2.48C244.905,199.615,250.823,205.558,253.676,205.968z
		 M239.204,186.714v3.787c-4.264-0.795-15.451-2.526-18.482,0.506c-2.83,2.83-16.13,3.35-19.479,0
		c-2.387-2.387,0.249-8.155,1.957-11.037c3.057,1.962,6.62,3.369,9.661,4.558c2.395,0.937,4.657,1.82,5.403,2.566
		c0.571,0.571,2.146,0.804,4.328,0.804c4.289,0,10.923-0.897,16.897-1.879C239.313,186.199,239.204,186.443,239.204,186.714z
		 M263.065,195.847c-0.22,0.734-0.766,1.564-1.539,2.337c-1.667,1.667-3.507,2.241-3.938,1.812c-0.368-0.369-0.357-1.209,0.03-2.249
		c0.122-0.325,0.266-0.638,0.424-0.93c1.705-0.541,3.183-1.288,3.632-2.065c0.041-0.07,0.055-0.144,0.084-0.216
		c0.331-0.097,0.641-0.232,0.916-0.429c0.034,0.049,0.056,0.104,0.1,0.148C263.028,194.509,263.334,194.951,263.065,195.847z"/>
	<path d="M218.971,170.96c-0.553,0-1,0.448-1,1c0,0.553,0.447,1,1,1c1.317,0,4.124-0.853,7.373-1.84
		c2.62-0.795,6.574-1.985,7.489-1.891c0.386,0.235,0.896,0.186,1.228-0.147c0.391-0.391,0.391-1.023,0-1.414
		c-0.406-0.406-1.021-0.533-2.226-0.353c-4.499-4.322-10.596-4.984-13.864-4.984c-0.553,0-1,0.448-1,1s0.447,1,1,1
		c2.716,0,7.571,0.495,11.438,3.523c-1.207,0.32-2.717,0.766-4.646,1.352C223.057,170.029,219.991,170.96,218.971,170.96z"/>
	<path d="M240.204,141.076c0.417,0,0.807-0.263,0.947-0.68c0.177-0.523-0.104-1.091-0.627-1.268
		c-4.766-1.611-13.825-2.969-14.208-3.026c-0.545-0.077-1.055,0.296-1.137,0.842c-0.081,0.546,0.296,1.055,0.842,1.136
		c0.093,0.014,9.265,1.389,13.862,2.942C239.99,141.059,240.098,141.076,240.204,141.076z"/>
	<path d="M221.022,151.32c-0.893,0.893-1.699,1.303-2.432,1.225c-0.925-0.104-1.518-1.014-1.536-1.043
		c-0.287-0.467-0.897-0.616-1.37-0.33c-0.472,0.287-0.622,0.901-0.335,1.374c0.043,0.072,1.085,1.754,2.989,1.983
		c0.146,0.018,0.292,0.026,0.438,0.026c1.22,0,2.449-0.611,3.659-1.821c0.391-0.391,0.391-1.023,0-1.414
		S221.413,150.929,221.022,151.32z"/>
	<path d="M231.914,140.692c-0.041,0.02-4.155,1.962-5.929,0.19c-0.391-0.391-1.023-0.391-1.414,0s-0.391,1.023,0,1.414
		c0.997,0.998,2.299,1.322,3.572,1.322c2.302,0,4.509-1.062,4.651-1.131c0.495-0.243,0.7-0.842,0.458-1.337
		C233.01,140.654,232.41,140.448,231.914,140.692z"/>
	<path d="M212.162,138.989l-0.958,0.726C211.661,139.714,212.044,139.408,212.162,138.989z"/>
	<path d="M211.195,137.714l0.967,0.73C212.044,138.023,211.654,137.714,211.195,137.714z"/>
</g>
<g>
	<path fill="#294172" d="M93.626,178.67c0,0,0.011-0.011,0.027-0.026c-0.01,0.008-0.019,0.016-0.028,0.023L93.626,178.67z"/>
	<path fill="#294172" d="M93.625,176.455c0-0.729-3.68-2.494-4.972-2.494c-3.123,0-6.517,5.083-11.081,9.647
		c-3.979,3.979,3.665,8.597,3.665,8.597L93.625,176.455z"/>
</g>
<g>
	
		<image overflow="visible" opacity="0.75" width="131" height="254" xlink:href="E4070225.png"  transform="matrix(1 0 0 1 43.2041 29.7144)">
	</image>
	<g>
		<path fill="#FFFFFF" d="M150.032,234.4c-4.488-4.488-23.616,1.757-25.373,0c-1.757-1.756-16.396-8.587-21.703-10.539
			c0,0,4.528-15.375-0.004-19.906c-4.532-4.532-26.445-16.657-28.66-18.871c-2.215-2.215-3.565-35.127-5.87-38.465
			c0,0,9.727-23.854,11.94-29.711s2.482-23.161,1.21-17.411c-0.338,1.528,10.665-0.708,13.666-3.709
			c3.001-3.001,1.463-8.82,1.463-8.82s-0.497,0,1.503-2.253V76.49c0,0,0.816-0.011,2.163-1.358c1.347-1.347,0.691-5.867,0.691-5.867
			s6.567-3.456,13.275-6.019S143.28,36.9,137.435,38.88c-26.619,9.015-48.136,29.628-48.136,29.628s-42.646,33.333-35.612,100.404
			c2.214,2.169,3.571,3.24,5.078,1.733c2.939-2.94-0.416-39.705,3.973-35.316c1.771,1.771,1.562,23.479,3.856,25.774
			s-2.065,14.048,0.05,16.165c2.117,2.115,6.738,7.416,4.089,10.065c-2.649,2.648-3.797,15.464,0.013,11.653
			c3.81-3.809,4.289-0.423,4.289,2.915s0.779,23.342,5.388,27.95s19.327,18.762,21.365,18.762s9.966-12.378,9.966-8.27
			c0,4.107-4.758,13.646-2.085,10.974s3.337-9.604,6.675-9.604s10.861-4,10.861,0c0,3-5,14.44-8.775,18.216
			c-0.08,0.079-0.184-0.091-0.297-0.011c7.868,1.234,13.362,0.219,13.945-0.364C134.004,257.628,154.522,238.889,150.032,234.4z"/>
		<path fill="none" stroke="#000000" stroke-width="2" stroke-miterlimit="10" d="M150.032,234.4
			c-4.488-4.488-23.616,1.757-25.373,0c-1.757-1.756-16.396-8.587-21.703-10.539c0,0,4.528-15.375-0.004-19.906
			c-4.532-4.532-26.445-16.657-28.66-18.871c-2.215-2.215-3.565-35.127-5.87-38.465c0,0,9.727-23.854,11.94-29.711
			s2.482-23.161,1.21-17.411c-0.338,1.528,10.665-0.708,13.666-3.709c3.001-3.001,1.463-8.82,1.463-8.82s-0.497,0,1.503-2.253V76.49
			c0,0,0.816-0.011,2.163-1.358c1.347-1.347,0.691-5.867,0.691-5.867s6.567-3.456,13.275-6.019S143.28,36.9,137.435,38.88
			c-26.619,9.015-48.136,29.628-48.136,29.628s-42.646,33.333-35.612,100.404c2.214,2.169,3.571,3.24,5.078,1.733
			c2.939-2.94-0.416-39.705,3.973-35.316c1.771,1.771,1.562,23.479,3.856,25.774s-2.065,14.048,0.05,16.165
			c2.117,2.115,6.738,7.416,4.089,10.065c-2.649,2.648-3.797,15.464,0.013,11.653c3.81-3.809,4.289-0.423,4.289,2.915
			s0.779,23.342,5.388,27.95s19.327,18.762,21.365,18.762s9.966-12.378,9.966-8.27c0,4.107-4.758,13.646-2.085,10.974
			s3.337-9.604,6.675-9.604s10.861-4,10.861,0c0,3-5,14.44-8.775,18.216c-0.08,0.079-0.184-0.091-0.297-0.011
			c7.868,1.234,13.362,0.219,13.945-0.364C134.004,257.628,154.522,238.889,150.032,234.4z"/>
	</g>
</g>
<path d="M127.204,239.714c0-4-7.523,0-10.861,0s-4.002,7.432-6.675,10.104s2.085-6.366,2.085-10.474c0-4.108-7.928,8.27-9.966,8.27
	s-16.757-14.153-21.365-18.762s-5.388-24.612-5.388-27.95s-0.479-6.724-4.289-2.915c-3.81,3.811-2.662-9.005-0.013-11.653
	c2.649-2.649-1.972-7.95-4.088-10.065c-2.116-2.117,2.245-13.87-0.05-16.165S64.51,136.1,62.739,134.33
	c-4.389-4.389-1.031,32.376-3.971,35.316c-1.507,1.507-2.86,0.436-5.074-1.733c0.616,5.875,1.608,12.005,3.049,18.398
	c12.476,55.361,43.251,69.514,61.389,72.358c0.113-0.08,0.217-0.16,0.297-0.239C122.204,254.655,127.204,242.714,127.204,239.714z"
	/>
<path d="M98.204,200.302c0,3.973-12.149-2.382-7.755,2.012c4.395,4.395,0,6.676,0,8.762s-13.818,12.907-10.024,4.159
	c3.794-8.749,6.922-10.626,5.045-12.503c-1.877-1.878-2.584,0.047-5.704-3.074c-3.12-3.12-1.179-6.73-3.057-8.607
	c-1.878-1.878-5.635-8.231-2.417-5.967C77.51,187.347,98.204,198.707,98.204,200.302z"/>
<path d="M130.945,260.396c-3.836,3.836-6.648,1.829-3.741-4.763s16.721-24.012,19.774-22.622
	C150.032,234.4,162.19,229.152,130.945,260.396z"/>
<path d="M173.204,246.214c0,0.828-0.672,1.5-1.5,1.5h-19c-0.828,0-1.5-0.672-1.5-1.5l0,0c0-0.828,0.672-1.5,1.5-1.5h19
	C172.532,244.714,173.204,245.386,173.204,246.214L173.204,246.214z"/>
<path d="M192.204,249.255c0,0.806-0.652,1.459-1.458,1.459h-18.084c-0.806,0-1.458-0.653-1.458-1.459v-0.082
	c0-0.806,0.652-1.459,1.458-1.459h18.084c0.806,0,1.458,0.653,1.458,1.459V249.255z"/>
<path d="M192.204,251.214c0,0.828-0.672,1.5-1.5,1.5h-8c-0.828,0-1.5-0.672-1.5-1.5l0,0c0-0.828,0.672-1.5,1.5-1.5h8
	C191.532,249.714,192.204,250.386,192.204,251.214L192.204,251.214z"/>
<path d="M198.204,258.8c0,0.505-0.409,0.914-0.914,0.914h-21.172c-0.505,0-0.914-0.409-0.914-0.914v-0.171
	c0-0.506,0.409-0.915,0.914-0.915h21.172c0.505,0,0.914,0.409,0.914,0.915V258.8z"/>
<path d="M219.204,261.214c0,0.828-0.672,1.5-1.5,1.5h-19c-0.828,0-1.5-0.672-1.5-1.5l0,0c0-0.828,0.672-1.5,1.5-1.5h19
	C218.532,259.714,219.204,260.386,219.204,261.214L219.204,261.214z"/>
<path d="M236.197,68.879c0-0.77-0.528-1.462-1.381-1.978c0.053-0.104,0.086-0.217,0.086-0.339c0-0.453-0.405-0.82-0.906-0.82
	c-0.108,0-0.21,0.024-0.307,0.056c0.001-0.02,0.005-0.037,0.005-0.056c0-0.905-0.622-1.639-1.391-1.639
	c-0.02,0-0.037,0.006-0.056,0.007c-0.306-1.344-1.304-2.336-2.501-2.336c-1.275,0-2.333,1.123-2.558,2.603
	c-1.289-0.204-2.749-0.364-4.314-0.48c-0.14-0.427-0.563-0.745-1.085-0.745c-0.119,0-0.229,0.03-0.337,0.061
	c-0.1-0.66-0.423-1.148-0.811-1.148c-0.156,0-0.301,0.084-0.427,0.222c-0.125-0.484-0.427-0.827-0.781-0.827
	c-0.267,0-0.494,0.204-0.649,0.505c-0.039-0.696-0.255-1.23-0.518-1.23c-0.258,0-0.472,0.516-0.516,1.193
	c-0.438-0.1-0.903-0.154-1.388-0.154c-1.271,0-2.406,0.374-3.224,0.968c-0.131-0.409-0.348-0.677-0.595-0.677
	c-0.329,0-0.603,0.475-0.692,1.123c-0.051-0.011-0.099-0.035-0.153-0.035c-0.33,0-0.608,0.219-0.748,0.529
	c-0.19,0.029-0.363,0.072-0.518,0.127c-0.119-0.379-0.448-0.656-0.85-0.656c-0.354,0-0.654,0.22-0.803,0.531
	c-0.095-0.019-0.184-0.048-0.285-0.048c-0.494,0-0.912,0.242-1.121,0.585c-0.067-0.019-0.134-0.042-0.207-0.042
	c-0.296,0-0.544,0.169-0.678,0.409c-1.046,0.201-1.962,0.429-2.704,0.681c-0.654-0.461,0.005-2.891-2.159-0.727
	c-0.28,0.28-1.072-2.942-2.188-1.826c-4.132,0.483,0.039-2.802-0.67-2.835c2.004-1.355-5.384-1.021-3.753-2.652
	c2.195-2.195,2.395-3.022-4.112-4.862c10.62-1.306,17.797-0.938,17.797-3.787c0-0.233-1.743-4.999-1.837-5.226
	c1.479-0.79,3.977,0.047,3.977-0.839c0-4.166-22.684-9.977-44.614-9.977c-21.93,0-34.802,5.812-34.802,9.977
	c0,1.16-5.216,1.164-2.753,2.146c-7.941,0.256-9.668,3.142-9.668,8.822c0,0.447-3.944,0.413-3.867,0.846
	c-0.044,0-0.318,3.299-0.362,3.299c-3.003,0,0.456,0.957-1.783,2.554c-1.747,0.227-3.248,0.845-4.23,1.694
	c-0.34-0.014-0.685-0.021-1.034-0.021c-5.556,0-10.06,1.849-10.06,4.129c0,0.939,0.773,1.803,2.062,2.497
	c-1.247,1.521-2.062,3.996-2.062,6.8c0,1.481,0.229,2.871,0.626,4.078c-1.635,0.379-2.925,4.62-2.925,9.81
	c0,1.467-1.772,0.977-1.587,2.227c-1.496-0.717-1.577,0.722-3.73,0.722c-4.683,0-8.479,2.059-8.479,4.599s3.796,4.599,8.479,4.599
	c3.391,0,6.308-1.083,7.665-2.642c0.26,0.216,0.532,0.342,0.814,0.342c1.713,0,5.239-6.898,6.084-6.898
	c1.41,0,2.587-2.889,2.862-6.733c0.682,0.587,1.53,0.953,2.466,0.973c0.097,0.123,0.188,0.252,0.291,0.364
	c0.077,2.418,3.49,3.042,3.764,1.248c1.817-0.483,3.26-2.412,3.669-4.89c1.067,0.262,2.179,0.416,3.33,0.416
	c0.142,0,0.278-0.016,0.418-0.02c4.648,4.648,9.91-1.83,10.797-1.83c1.239,0,2.244-1.322,2.244-2.954
	c0-1.173,0.771-2.953,1.467-2.953c1.597,0,2.9-2.307,3.005-5.224c0.344,0.394,0.719,0.592,0.979,0.466
	c0.393-0.191,0.374-1.038-0.04-1.892c-0.145-0.297-0.318-0.553-0.5-0.756c0.276-0.766,0.629-1.45,0.882-1.454
	c1.938,2.438,4.574,0.596,7.355,2.391c-0.027,0.142-0.046,0.289-0.046,0.445c0,0.868,0.45,1.572,1.005,1.572
	c0.004,0,0.008-0.002,0.012-0.002c0.062,1.049,0.556,1.869,1.164,1.869c0.301,0,0.571-0.206,0.779-0.534
	c0.188,0.269,0.393,0.538,0.612,0.799c-0.278,0.184-0.456,0.446-0.456,0.74c0,0.555,0.621,1.005,1.387,1.005
	c0.326,0,0.622-0.085,0.858-0.222c1.142,0.632,2.622,0.889,4.636,0.339c1.934-0.528,1.664-4.382,2.895-3.151
	c1.193,1.194,1.856-1.712,1.842-1.872c2.028-0.391,1.994,0.394,3.555-0.375c2.019,0.149,1.978,1.727,4.127,1.727
	c2.378,0,3.788-0.731,4.684-0.783c0.127,2.162,3.451,2.995,4.635,2.995c1.256,0,2.531-1.067,2.555-3.417
	c2.296,0.842,1.726-1.076,2.678-1.227c0.072,3.387,1.958,4.728,4.278,4.728c1.64,0,4.323-0.063,5.044-2.052
	c1.261,0.14,2.769-0.141,2.771-0.141c0.081,4,2.291,7.387,5.012,7.387c1.839,0,2.303-1.35,3.177-3.522
	c0.232,0.022,1.843,0.02,1.843,1.228c0,0.055,0.104,0.485,0.158,0.483c0.31,0.863,1.021-0.092,1.913,0.142
	c-0.003,0.033-0.018,0.065-0.018,0.1c0,0.989,1.403,1.791,3.135,1.791s3.135-0.802,3.135-1.791c0-0.956-1.313-1.73-2.964-1.782
	c0.123-0.317-0.164-1.022,0.197-1.022c1.182,0-0.225-1.231-0.589-1.705c0.13-0.321,0.221-0.654,0.221-1.006
	c0-0.843-0.411-1.596-1.078-2.217c0.562,0.053,1.179,0.337,1.802,0.549c0.035,0.639,0.308,1.143,0.65,1.143
	c0.301,0,0.545-0.389,0.627-0.912c0.072-0.004,0.144-0.013,0.215-0.025c0.138,0.324,0.342,0.534,0.573,0.534
	c0.197,0,0.376-0.153,0.51-0.397c0.064,0.14,0.138,0.276,0.24,0.397c-0.247,0.679-1.397,1.742-0.404,2.734
	c1.449,1.448,0.55,3.709,1.229,3.709c0.679,0,2.33-0.559,2.33-2.607c0-0.7,1.519,0.239,1.407-0.32
	c0.034,0.001-0.183-1.303-0.147-1.303c0.421,0-1.629-1.472-1.286-1.625c0.71,0.152,2.388,1.625,2.388,0.247
	c0-0.533,1.037-0.041,1.519-0.101c0.36,0.579,0.867,1.065,1.489,1.413c0.487,0.872,1.692,1.492,3.109,1.492
	c1.848,0,3.346-1.051,3.346-2.347c0-0.235-0.064-0.459-0.157-0.674c0.107,0.013,0.222,0.013,0.33,0.022
	c0.237,0.286,0.643,0.486,1.128,0.486c0.309,0,0.58-0.09,0.807-0.22c0.127,0.131,0.315,0.22,0.537,0.22
	c0.384,0,0.695-0.252,0.695-0.564c0-0.094-0.035-0.179-0.086-0.256c0.066-0.022,0.136-0.04,0.2-0.063
	c0.108,0.188,0.282,0.318,0.489,0.318c0.334,0,0.604-0.319,0.604-0.714c0-0.043-0.015-0.081-0.021-0.122
	C235.691,70.302,236.197,69.627,236.197,68.879z"/>
</svg>
