<?xml version="1.0" encoding="utf-8"?>
<!-- Generator: Adobe Illustrator 15.1.0, SVG Export Plug-In . SVG Version: 6.00 Build 0)  -->
<!DOCTYPE svg PUBLIC "-//W3C//DTD SVG 1.1//EN" "http://www.w3.org/Graphics/SVG/1.1/DTD/svg11.dtd">
<svg version="1.1" id="Layer_1" xmlns="http://www.w3.org/2000/svg" xmlns:xlink="http://www.w3.org/1999/xlink" x="0px" y="0px"
	 width="328.125px" height="318.75px" viewBox="0 0 328.125 318.75" enable-background="new 0 0 328.125 318.75"
	 xml:space="preserve">
<g>
	<g id="g5241_208_">
		<path id="path35_214_" fill="#3C6EAF" d="M313.257,162.645c0-79.041-64.068-143.116-143.113-143.116
			c-78.999,0-143.05,64.022-143.104,143.018l-0.005-0.005v110.746l0.005,0.007c0.041,17.936,14.586,32.453,32.533,32.453
			c0.051,0,0.102-0.005,0.156-0.005l0.009,0.005h110.466l0,0c79.018-0.033,143.059-64.088,143.059-143.103H313.257z"/>
	</g>
	<g id="g5241_199_">
		<path id="path35_205_" fill="#294172" d="M310.257,155.645c0-79.041-64.068-143.116-143.113-143.116
			c-78.999,0-143.05,64.022-143.104,143.018l-0.005-0.005v110.746l0.005,0.007c0.041,17.936,14.586,32.453,32.533,32.453
			c0.051,0,0.102-0.005,0.156-0.005l0.009,0.005h110.466l0,0c79.018-0.033,143.059-64.088,143.059-143.103H310.257z"/>
	</g>
	<g>
		<path fill="#3C6EAF" d="M63.454,250.728c4.444,0,8.532,1.482,11.837,3.956c-3.61-4.821-9.35-7.956-15.837-7.956
			c-10.933,0-19.794,8.863-19.794,19.797c0,6.486,3.135,12.227,7.957,15.838c-2.475-3.305-3.957-7.394-3.957-11.838
			C43.66,259.591,52.521,250.728,63.454,250.728z"/>
		<path fill="#A7BFDF" d="M79.248,266.524c0-4.446-1.483-8.536-3.957-11.841c-3.305-2.474-7.393-3.956-11.837-3.956
			c-10.933,0-19.794,8.863-19.794,19.797c0,4.444,1.482,8.533,3.957,11.838c3.304,2.473,7.393,3.956,11.837,3.956
			C70.387,286.318,79.248,277.455,79.248,266.524z"/>
	</g>
	<g>
		<path fill="#3C6EAF" d="M58.948,150.455c0-53.769,33.451-99.721,80.677-118.189C85.854,44.894,45.821,93.164,45.821,150.792
			c0,59.174,42.215,108.482,98.172,119.463C94.477,252.972,58.948,205.866,58.948,150.455z"/>
		<path fill="#8AA9D4" d="M289.32,149.792c0-67.244-54.513-121.753-121.754-121.753c-9.615,0-18.969,1.119-27.941,3.227
			C92.399,49.734,58.948,95.687,58.948,149.455c0,55.411,35.528,102.517,85.045,119.8c7.628,1.497,15.507,2.289,23.573,2.289
			C234.808,271.544,289.32,217.032,289.32,149.792z"/>
	</g>
	<g>
		
			<image overflow="visible" opacity="0.75" width="93" height="94" xlink:href="60746901.png"  transform="matrix(1 0 0 1 18.125 217.625)">
		</image>
		<g>
			<text transform="matrix(1 0 0 1 30.1758 277.5439)" font-family="'BaskOldFace'" font-size="57.4636">III</text>
		</g>
	</g>
</g>
</svg>
