<?xml version="1.0" encoding="utf-8"?>
<!-- Generator: Adobe Illustrator 15.1.0, SVG Export Plug-In . SVG Version: 6.00 Build 0)  -->
<!DOCTYPE svg PUBLIC "-//W3C//DTD SVG 1.1//EN" "http://www.w3.org/Graphics/SVG/1.1/DTD/svg11.dtd">
<svg version="1.1" id="Layer_1" xmlns="http://www.w3.org/2000/svg" xmlns:xlink="http://www.w3.org/1999/xlink" x="0px" y="0px"
	 width="324.49px" height="326.531px" viewBox="0 0 324.49 326.531" enable-background="new 0 0 324.49 326.531"
	 xml:space="preserve">
<g>
	<g id="g5241_212_">
		<path id="path35_218_" fill="#3C6EAF" d="M313.336,167.734c0-79.041-64.068-143.116-143.113-143.116
			c-78.999,0-143.05,64.022-143.104,143.018l-0.005-0.005v110.746l0.005,0.007c0.041,17.936,14.586,32.453,32.533,32.453
			c0.051,0,0.102-0.005,0.156-0.005l0.009,0.005h110.466l0,0c79.018-0.033,143.059-64.088,143.059-143.103H313.336z"/>
	</g>
	<g id="g5241_211_">
		<path id="path35_217_" fill="#294172" d="M310.336,160.734c0-79.041-64.068-143.116-143.113-143.116
			c-78.999,0-143.05,64.022-143.104,143.018l-0.005-0.005v110.746l0.005,0.007c0.041,17.936,14.586,32.453,32.533,32.453
			c0.051,0,0.102-0.005,0.156-0.005l0.009,0.005h110.466l0,0c79.018-0.033,143.059-64.088,143.059-143.103H310.336z"/>
	</g>
	<g>
		<path fill="#3C6EAF" d="M63.533,255.817c4.444,0,8.532,1.482,11.837,3.956c-3.61-4.821-9.35-7.956-15.837-7.956
			c-10.933,0-19.794,8.863-19.794,19.797c0,6.486,3.135,12.227,7.957,15.838c-2.475-3.305-3.957-7.394-3.957-11.838
			C43.739,264.68,52.601,255.817,63.533,255.817z"/>
		<path fill="#A7BFDF" d="M79.327,271.614c0-4.446-1.483-8.536-3.957-11.841c-3.305-2.474-7.393-3.956-11.837-3.956
			c-10.933,0-19.794,8.863-19.794,19.797c0,4.444,1.482,8.533,3.957,11.838c3.304,2.473,7.393,3.956,11.837,3.956
			C70.466,291.408,79.327,282.544,79.327,271.614z"/>
	</g>
	<g>
		<path fill="#3C6EAF" d="M59.027,155.544c0-53.769,33.451-99.721,80.677-118.189C85.933,49.983,45.9,98.253,45.9,155.881
			c0,59.174,42.215,108.482,98.172,119.463C94.556,258.061,59.027,210.956,59.027,155.544z"/>
		<path fill="#8AA9D4" d="M289.399,154.881c0-67.244-54.513-121.753-121.754-121.753c-9.615,0-18.969,1.119-27.941,3.227
			c-47.226,18.469-80.677,64.421-80.677,118.189c0,55.411,35.528,102.517,85.045,119.8c7.628,1.497,15.507,2.289,23.573,2.289
			C234.887,276.633,289.399,222.122,289.399,154.881z"/>
	</g>
	<g>
		
			<image overflow="visible" opacity="0.75" width="116" height="84" xlink:href="68612D20.png"  transform="matrix(1 0 0 1 21.2041 234.7144)">
		</image>
		<g>
			<text transform="matrix(1 0 0 1 34.2549 287.4517)" font-family="'BaskOldFace'" font-size="48">VIII</text>
		</g>
	</g>
</g>
<g>
	
		<image overflow="visible" opacity="0.75" width="102" height="140" xlink:href="68612D21.png"  transform="matrix(1 0 0 1 43.7183 108.2285)">
	</image>
	<g>
		<g>
			<path fill="#FFFFFF" d="M116.085,213.303c0-1.176-0.476-2.261-1.272-3.144c0.55-0.754,0.866-1.606,0.866-2.512
				c0-1.229-0.578-2.36-1.545-3.28c0.402-1.154,0.629-2.428,0.629-3.768c0-1.713-0.37-3.313-1.006-4.698
				c0.634-1.457,1.006-3.158,1.006-4.983c0-4.261-1.989-7.87-4.75-9.164c-0.338-3.442-2.054-6.173-4.247-6.789
				c-0.055-0.638-0.131-1.262-0.229-1.872c1.063,1.084,2.39,1.735,3.835,1.735c3.483,0,6.307-3.745,6.307-8.366
				c0-3.22-1.374-6.012-3.385-7.41c0.027-0.396,0.051-0.796,0.051-1.201c0-4.698-1.916-8.845-4.846-11.386
				c0.176-0.273,0.273-0.565,0.273-0.869c0-1.563-2.523-2.831-5.635-2.831c-1.961,0-3.686,0.504-4.695,1.267
				c-0.248-0.455-0.504-0.896-0.769-1.311c6.39-1.677,10.733-4.963,10.733-8.745c0-1.536-0.736-2.984-2.016-4.283
				c0.094-0.517,0.158-1.042,0.158-1.579c0-6.278-6.598-11.367-14.735-11.367c-0.275,0-0.544,0.021-0.815,0.032
				c-0.336-0.015-0.672-0.032-1.013-0.032c-7.148,0-13.098,3.173-14.426,7.377c-0.612,0.067-1.203,0.183-1.77,0.34
				c-0.562-0.553-1.289-0.901-2.094-0.901c-1.77,0-3.204,1.621-3.204,3.622c0,0.367,0.063,0.713,0.151,1.046
				c-0.429,0.795-0.668,1.663-0.668,2.575c0,0.366,0.049,0.724,0.122,1.074c-0.298,0.676-0.464,1.376-0.464,2.095
				c0,3.748,4.267,7.008,10.56,8.698c-4.386,1.02-7.414,3.151-7.414,5.624c0,1.117,0.623,2.164,1.703,3.071
				c-0.578,0.309-0.942,0.718-1.005,1.17c-0.856-0.055-1.728-0.092-2.621-0.092c-2.654,0-5.152,0.26-7.37,0.711
				c-0.592-1.381-2.193-2.378-4.098-2.378c-2.405,0-4.355,1.581-4.355,3.532c0,0.776,0.318,1.488,0.842,2.071
				c-0.892,0.814-1.396,1.712-1.396,2.659c0,1.853,1.904,3.524,4.961,4.722c0.506,2.753,5.098,4.909,10.694,4.909
				c1.787,0,3.469-0.223,4.951-0.612c-0.158,1.052-0.249,2.18-0.249,3.361c0,3.247,0.655,6.125,1.665,7.953
				c-1.689,0.426-2.954,1.124-3.467,1.955c-2.856,0.376-4.99,1.85-4.99,3.613c0,1.676,1.923,3.09,4.561,3.551
				c-0.476,1.731-0.749,3.597-0.749,5.552c0,5.936,2.403,11.104,5.962,13.862c-0.413,0.982-0.652,2.079-0.652,3.242
				c0,2.203,0.836,4.177,2.159,5.548c0.189,1.36,0.481,2.635,0.866,3.778c-1.739,0.372-2.912,1.063-2.912,1.857
				c0,1.088,2.195,1.984,5.043,2.129c0.977,1.146,2.111,1.816,3.328,1.816c3.629,0,6.571-5.859,6.571-13.086
				c0-2.504-0.359-4.835-0.972-6.823c2.138-2.386,3.631-5.769,4.118-9.616c1.131,0.993,2.716,1.612,4.474,1.612
				c0.176,0,0.349-0.011,0.521-0.022c-0.719,1.04-1.15,2.34-1.15,3.756c0,2.659,1.513,4.918,3.627,5.779
				c0.102,1.727,1.329,3.246,3.186,4.214c-0.111,0.389-0.176,0.792-0.176,1.209c0,2.484,2.1,4.566,4.942,5.167
				c0.061,1.602,0.802,3.005,1.929,3.889c-0.171-0.009-0.339-0.023-0.516-0.023c-2.416,0-4.375,0.884-4.375,1.973
				c0,1.09,1.959,1.973,4.375,1.973c2.417,0,4.376-0.883,4.376-1.973c0-0.375-0.245-0.721-0.648-1.02
				c2.381-0.251,4.248-2.39,4.248-5.022c0-1.377-0.514-2.623-1.34-3.536C115.996,214.275,116.085,213.798,116.085,213.303z"/>
			<path fill="#FFFFFF" d="M123.492,175.251c0-1.229-0.762-2.309-1.926-3.009c0.046-0.128,0.075-0.26,0.075-0.396
				c0-0.923-1.07-1.671-2.39-1.671c-1.227,0-2.227,0.648-2.363,1.48c-1.923,0.527-3.309,1.93-3.309,3.596
				c0,0.197,0.037,0.387,0.075,0.575c-0.045,0.231-0.075,0.468-0.075,0.713c0,2.13,1.805,3.856,4.03,3.856
				c1.459,0,2.726-0.749,3.433-1.859C122.503,177.871,123.492,176.656,123.492,175.251z"/>
		</g>
	</g>
</g>
<g>
	<path fill="#294172" d="M245.203,165.397c-2.771,0-11.252,23.772-14.437,28.955c-4.302,6.999,15.772-1.287,9.099-4.809
		c-2.003-1.057,3.872-2.687,3.872-2.687c-0.002,0-0.195-3.362-2.391-2.775c-2.537,0.679,5.775-10.241,11.85-16.314L245.203,165.397z
		"/>
	<path fill="#294172" d="M177.417,186.028c0,0-7.085-3.934-8.863-3.325c-15.665,5.357-1.738,14.793-1.738,14.793l3.788,3.788
		c0.032,4.011,0,8.152,0,8.152l6.228-5.108c0,0-2.791-6.777-7.626-11.146C170.824,192.675,176.009,187.435,177.417,186.028z"/>
</g>
<path fill="#2E00EF" d="M285.204,190.265c0,0.801-0.648,1.449-1.448,1.449h-6.104c-0.8,0-1.448-0.648-1.448-1.449v-0.102
	c0-0.801,0.648-1.449,1.448-1.449h6.104c0.8,0,1.448,0.648,1.448,1.449V190.265z"/>
<path d="M173.362,234.074c-0.086-0.253-0.359-0.389-0.612-0.304c0,0-16.03,4.402-16.108,4.43c0,0-10.037,2.542-10.094,2.562
	l-11.98,4.024c-0.086,0.032,0.074,0.747,0.361,1.6c0.29,0.858,0.592,1.527,0.679,1.497l11.98-4.025
	c0.034-0.012,0.027-0.14-0.012-0.34l9.752-3.275c0.037-0.013,0.037-0.123,0.016-0.277l15.714-5.279
	C173.311,234.601,173.446,234.328,173.362,234.074z"/>
<path d="M180.493,244.603c0.205,0.617,0.135,1.197-0.16,1.297l-40.507,13.608c-0.295,0.1-0.7-0.318-0.909-0.938l0,0
	c-0.205-0.615-0.136-1.194,0.158-1.295l40.509-13.608C179.878,243.567,180.284,243.986,180.493,244.603L180.493,244.603z"/>
<path d="M196.53,232.58c0.093,0.278-0.006,0.564-0.224,0.637l-29.895,10.044c-0.218,0.074-0.471-0.093-0.565-0.372l0,0
	c-0.093-0.28,0.008-0.565,0.226-0.639l29.896-10.044C196.185,232.132,196.436,232.299,196.53,232.58L196.53,232.58z"/>
<path stroke="#000000" stroke-width="0.9657" stroke-miterlimit="10" d="M174.212,227.082c0.085,0.253,0.013,0.505-0.163,0.564
	l-24.077,8.088c-0.176,0.061-0.386-0.097-0.472-0.351l0,0c-0.084-0.253-0.012-0.505,0.164-0.564l24.077-8.089
	C173.916,226.671,174.128,226.828,174.212,227.082L174.212,227.082z"/>
<path d="M158.817,244.281c0.114,0.344,0,0.69-0.258,0.776l-35.352,11.876c-0.257,0.089-0.559-0.119-0.675-0.464l0,0
	c-0.114-0.342,0.001-0.689,0.258-0.777l35.351-11.876C158.398,243.729,158.701,243.937,158.817,244.281L158.817,244.281z"/>
<polygon fill="#2E00EF" points="277.978,165.948 277.978,165.948 277.978,165.948 277.978,165.948 277.978,165.647 277.978,165.647 
	277.978,165.647 277.978,165.647 "/>
<path d="M284.912,181.293l-0.085-0.112c-0.785-1.031-1.883-1.703-1.883-1.703c-1.296,0.164-12.852,8.447-12.852,8.447
	c-1.56,0.197-3.143,1.684-2.945,3.243l-33.867,20.104c-0.257,0.145-0.082,0.481,0.092,0.791c0.176,0.31,0.643,0.428,0.898,0.283
	c0,0,32.88-17.331,30.967-15.876l-9.13,6.939c-1.338,1.018-2.171,2.305-2.292,3.342l-11.655,8.002
	c-0.351,0.219-0.6,0.567-0.665,1.584l-3.703,0.471c-0.793,0.1-1.412,0.381-1.312,1.174c0.102,0.794,0.771,0.91,1.563,0.81
	l5.348-0.679c0.034-0.005,0.067-0.009,0.102-0.014l0.299-0.037c0.419-0.054,0.737-0.535,0.964-0.854l11.243-7.397
	c0.393,0.075,0.732-0.055,0.726-0.104l0.105,0.831c0.042,0.329,0.683,0.563,0.809,0.854l-15.062,11.619
	c-0.092,0.068-0.001,0.46-0.088,0.529c-0.577-0.312-1.072-0.137-1.771-0.049l-9.837,1.25c-0.945,0.119-62.767,29.564-62.767,29.564
	c-0.775,0.345-1.135,1.261-0.81,1.99c0.326,0.73,1.225,1.063,1.998,0.716c0,0,35.044-12.116,37.042-13.021l21.114-9.553
	c0.283-0.128,0.836-0.321,1.545-0.559l-16.817,12.694c-0.007,0.006-0.05-0.299,0.068,0.693l-4.593,0.584
	c-0.37,0.047-0.772-0.443-0.998-0.182c-0.249-0.049-0.539-0.367-0.734-0.227l-19.173,13.521c-0.458,0.327-0.49,1.001-0.056,1.607
	l0.108,0.118c0.435,0.606,1.155,0.811,1.614,0.482l19.149-13.702c0.03-0.021,0.072,0.169,0.099,0.143
	c0.071,0.002,0.17,0.231,0.242,0.222l4.79-0.608c0.318-0.04,0.567-0.416,0.782-0.622c0.118-0.022,0.217-0.17,0.314-0.239
	l19.144-13.749c0.458-0.328,0.474-1.115,0.04-1.722l-0.116-0.176c-0.015-0.021-0.034-0.052-0.05-0.072
	c3.096-0.944,6.323-1.897,6.323-1.897c0.416-0.053,0.997-0.127,1.695-0.216l0.763-0.096c0.912-0.117,1.626-1.061,2.137-1.745
	c0.681-0.408,1.039-1.067,1.745-1.603c0,0-1.202,3.686-1.105,4.453l0.012,0.093c0.031,0.24-15.322,8.849-15.322,8.849
	c-1.741,0.894-3.093,2.572-4.104,3.523c-0.098-0.009-0.078,0.648-0.181,0.661l-0.957,0.122c-0.793,0.101-1.44,0.166-1.339,0.959
	c0.091,0.72,0.893,0.885,1.596,0.899c0.951,0.807-1.536,3.477-1.536,3.477l-0.05-0.396c-0.154-1.206-0.707-1.656-1.913-1.503
	l-2.341,0.298c-1.206,0.153-2.844,0.881-2.691,2.087l0.054,0.425c0.088,0.691,0.855,1.212,1.406,1.548l-5.833,2.606
	c-0.487,0.213-0.654,0.68-0.489,1.06l0.219,0.39c0.166,0.38,0.718,0.513,1.203,0.3l25.422-11.107l-4.939,3.758
	c-3.298,2.508-5.333,5.374-4.548,6.405l0.086,0.113c0.785,1.03,4.092-0.168,7.391-2.675l15.813-11.354
	c2.287-1.738,4.011-3.309,4.6-4.391l1.044-0.133c1.322-0.168,2.182-1.986,2.014-3.31c-0.044-0.341-0.197-0.959-0.362-1.237
	c0.009-0.03-0.005-0.213,0.004-0.245c0.8,0.009,1.54-0.365,2.023-0.978l4.376-5.593c0.505-0.642,0.601-1.505,0.365-2.318
	l3.842-4.884l2.331-1.673c0.121-0.086,0.01-0.477-0.262-1.029c0.706-1.105,1.031-2.235,0.937-3.095
	c0.505-0.476,0.983-1.085,1.379-1.811l5.477-10.077c0.785-1.443,1.085-2.446,0.802-3.441c0.018-0.002,0.094,0.478,0.11,0.476
	l0.424-0.054c1.206-0.153,0.786-2.062,0.633-3.267l-0.419-3.299c-0.035-0.275,0.451-0.603,0.327-0.834l1.165-1.648
	c0.732-1.349,1.142-2.751,0.943-3.74C284.739,184.081,285.642,182.254,284.912,181.293z M264.788,212.531
	c-0.221-0.101-0.322-0.193-0.548-0.245c1.496-1.651,2.312-2.813,2.312-2.813c0.051,0.401,0.691,0.698,0.919,0.998L264.788,212.531z"
	/>
<path fill="none" stroke="#000000" stroke-width="3" stroke-linecap="round" stroke-miterlimit="10" d="M72.479,171.385
	c2.099-5.4,13.2-16.369,13.2-18.769c0-2.4,12.3-10.584,16.2-10.584s5.726,2.057,5.726,4.157c0,2.1,2.1-0.343,2.1,2.357
	s0,3.023,0,3.023s2-0.323,2,2.077c0,2.399,0,2.752,0,2.752s2.486,0.547,2.486,2.647c0,2.1,1.195,8.127,2.695,9.626
	c1.499,1.5,2.846-0.026,2.846-0.026s5.012,5.7,3.443,9.9c-1.57,4.2-7.834,1.499-9.333,0c-1.5-1.5-8.08-5.963-11.08-5.963
	s-9.292-8.437-11.691-8.437"/>
<path d="M85.079,168.046c-1.648-1.649,4.801,4.538,8.4,4.538s4.537-2.269,4.537-2.269l-1.652-2.27
	C96.364,168.046,87.03,169.998,85.079,168.046z"/>
<path d="M87.179,163.847c0,0,5.51,3.172,6.726,1.956S88.828,162.198,87.179,163.847z"/>
<path fill="none" stroke="#000000" stroke-width="3" stroke-linecap="round" stroke-miterlimit="10" d="M80.696,160.079
	l-3.359-17.991c0,0-9.633-1.94-9.633-6.74s-2-11.783,0-11.783s4.692,1.374,6.066,0c1.375-1.374,4.221-6.817,8.721-6.817
	c4.499,0,16.593,1.8,18.094,7.5c1.5,5.7,1.246,17.785,1.246,17.785"/>
<path fill="none" stroke="#000000" stroke-width="3" stroke-linecap="round" stroke-miterlimit="10" d="M106.031,173.516
	l-2.339,2.042c0,0-7.537-0.596-9.627,1.494s-2.093,2.027-2.093,2.027s-6.593-2.883-8.693-2.883s-10.801-6.275-10.801-3.612
	s1.687,11.1,0,12.786c-1.688,1.688,0.001,7.658,4.501,5.858c1.081-0.433,2.076-0.35,3-0.405c2.925-0.174,5.148,1.391,7.199,1.391
	c2.7,0,3.975,0,3.975,0s1.095,4.927,2.905,3.115c1.811-1.811,5.72-0.142,10.221-1.641c4.5-1.5,11.399-5.795,11.399-5.795
	S106.031,175.685,106.031,173.516z"/>
<path fill="none" stroke="#000000" stroke-width="2.8972" stroke-linecap="round" stroke-miterlimit="10" d="M80.279,187.824
	c0-2.377,2.186-11.646,0-12.78"/>
<path fill="none" stroke="#000000" stroke-width="1.9314" stroke-linecap="round" stroke-miterlimit="10" d="M93.758,189.347
	c0,0-2.899-5.561-2.343-7.914c0.558-2.354,0.558-2.354,0.558-2.354"/>
<path d="M106.157,188.644c0,0,2.139,0.703,0.822-9.564c-0.232-1.806-0.948-5.563-0.948-5.563l-2.339,2.042
	C103.692,175.558,106.157,186.82,106.157,188.644z"/>
<path fill="none" stroke="#000000" stroke-width="2.8972" stroke-linecap="round" stroke-miterlimit="10" d="M76.08,165.636
	c0,0-3.602-0.026-3.602-5.558s1.801-12.432,1.801-12.432l-1.801-1.221"/>
<path fill="none" stroke="#000000" stroke-width="2.8972" stroke-linecap="round" stroke-miterlimit="10" d="M67.601,152.394
	c0,0-0.52,15.374,2.18,15.374"/>
<path fill="none" stroke="#000000" stroke-width="2.8972" stroke-linecap="round" stroke-miterlimit="10" d="M62.707,154.275
	c0,0-1.028,7.138,1.072,7.138"/>
<path fill="none" stroke="#000000" stroke-width="2.8972" stroke-linecap="round" stroke-miterlimit="10" d="M58.794,150.781
	c0,0,1.236,6.017-3.714,1.066"/>
<path fill="none" stroke="#000000" stroke-width="2.8972" stroke-linecap="round" stroke-miterlimit="10" d="M52.034,157.112
	c0,0,9.063-0.216,4.545,4.301"/>
<path fill="none" stroke="#000000" stroke-width="2.8972" stroke-linecap="round" stroke-miterlimit="10" d="M121.642,179.08
	c0,0,6.841,17.992,6.841,22.447c0,6.72,0.808,12.519,6.62,8.888c5.884-3.675,24.37-33.604,24.311-35.586"/>
<path fill="none" stroke="#000000" stroke-width="0.9657" stroke-linecap="round" stroke-miterlimit="10" d="M90.619,135.047
	c0,0,4.284,1.013,1.932,3.366s-7.8,3.066-7.8,0"/>
<path fill="none" stroke="#000000" stroke-width="0.9657" stroke-linecap="round" stroke-miterlimit="10" d="M89.004,127.248
	c0,0,0.646-10.5-4.189-10.5"/>
<path fill="none" stroke="#000000" stroke-linecap="round" stroke-miterlimit="10" d="M84.751,124.214c0,0-3.5-4.091-3.5-5.4
	s-0.486,5.4-0.486,5.4H84.751z"/>
<line fill="none" stroke="#000000" stroke-linecap="round" stroke-miterlimit="10" x1="89.204" y1="137.214" x2="87.204" y2="137.214"/>
<path fill="none" stroke="#000000" stroke-width="0.9657" stroke-linecap="round" stroke-miterlimit="10" d="M98.017,179.08"/>
<path fill="none" stroke="#000000" stroke-width="2.8972" stroke-linecap="round" stroke-miterlimit="10" d="M58.932,138.417
	c-1.377,1.377-5.241,33.311-1.926,36.626s1.8,5.453,16.04-4.867l-3.266-2.409c0,0-1.801,2.409-6.001,2.409s-7.2-8.763-7.2-8.763
	s-5.1-1.166-5.1-2.666s1.5-2.7,1.5-2.7s-1.5-2.1-1.5-3.6s3.601-0.601,3.601-0.601s-1.339-1.339,0-2.678s5.4,3.279,6.899,4.779
	c1.5,1.499,6.899-2.4,6.899-2.4s4.201-7.5,7.201-7.5"/>
<path fill="none" stroke="#000000" stroke-width="2.8972" stroke-linecap="round" stroke-miterlimit="10" d="M72.669,175.043
	c0,0-2.594,3.875-5.109,6.39c-2.515,2.516-2.515,2.516-2.515,2.516s2.647,3.875,4.735,3.875"/>
<path fill="none" stroke="#000000" stroke-width="2.8972" stroke-linecap="round" stroke-miterlimit="10" d="M94.059,195.047
	c0,0-1.991,7.859-7.136,6.479c-5.143-1.38-9.043-1.38-9.043-1.38"/>
<path d="M73.204,193.097v1.932c0,0-2.615,0.262-1.061,1.818c1.557,1.556,1.873,7.869,1.873,7.869c-2.999,0-0.683,1.259-2.312-0.37
	c-1.628-1.628-0.806-7.003-3.101-9.299s-1.885-5.7,0.618-5.7S73.204,193.097,73.204,193.097z"/>
<path d="M87.29,208.247c0,1.5-11.842,1.289-13.131,0c-1.29-1.289-2.383-3.9-2.383-3.9s0.893-2.657,8.503,2.438
	C84.02,209.288,87.29,206.747,87.29,208.247z"/>
<path fill="none" stroke="#000000" stroke-width="1.9314" stroke-linecap="round" stroke-miterlimit="10" d="M87.29,208.247
	c0,0,0.56-1.913,1.714-3.067s2.411-5.07,2.411-5.07"/>
<path fill="none" stroke="#000000" stroke-width="2.8972" stroke-linecap="round" stroke-miterlimit="10" d="M114.295,188.644
	c1.644,1.645,0,6.937,0,8.619c0,1.684,2.817,5.48,1.384,6.915c-1.434,1.434-11.986,5.116-11.986,5.116s-3.562,1.666-5.228,0
	s-1.985-9.186-1.985-9.186l-2.722-1.74"/>
<path fill="none" stroke="#000000" stroke-width="0.9657" stroke-linecap="round" stroke-miterlimit="10" d="M113.58,200.109"/>
<path fill="none" stroke="#000000" stroke-width="2.8972" stroke-linecap="round" stroke-miterlimit="10" d="M112.345,175.043
	c0,0,4.835-3.043,4.835-6.37"/>
<path d="M114.512,159.008c0.146-0.182,0.251-0.396,0.251-0.639c0-0.603-0.534-1.089-1.195-1.097l-0.867-1.594
	c0.277-0.437,0.45-1.008,0.45-1.641c0-1.363-0.778-2.467-1.74-2.467c-0.286,0-0.552,0.107-0.79,0.281l-0.082-0.15l0.4-0.096
	l-0.082-0.825l-0.348-0.523c0.214-0.323,0.348-0.77,0.348-1.263c0-0.987-0.531-1.787-1.187-1.787c-0.169,0-0.328,0.055-0.474,0.15
	c-0.152-0.086-0.323-0.15-0.518-0.15c-0.062,0-0.115,0.021-0.174,0.031l-0.701-1.055c0.002-0.069,0.01-0.134,0.01-0.205
	c0-1.574-0.572-2.85-1.277-2.85c-0.202,0-0.391,0.114-0.561,0.299l-0.71-0.663l-3.062,3.66v8.288h0.938
	c-1.136,0-2.638,2.796-3.55,11.129c-0.364,3.329,5.849-7.419,5.849-7.419c2.221-2.22,2.267-2.51,2.267-2.51l1.398-1.624
	l-1.292-1.899c-0.544,2.054,0.722,7.431,0.722,7.431s0.175,0.067-1.436,1.677c-1.609,1.61,0.176,4.74,0.176,4.74
	c3.896-1.213,3.752-6.018,5.068-4.703c1.315,1.315,2.749-1.457,2.749-1.457L114.512,159.008z"/>
<path fill="none" stroke="#000000" stroke-width="2.8972" stroke-linecap="round" stroke-miterlimit="10" d="M74.159,206.784
	c0,1.463,1.606,9.272,3.721,11.387s0.795,1.259,0,2.054s-9.859,0.848-5.211,2.734s13.199,4.316,14.621,2.895
	s1.676-16.896,0.966-17.606"/>
<path fill="none" stroke="#000000" stroke-width="2.8972" stroke-linecap="round" stroke-miterlimit="10" d="M101.903,210.035
	c0,2.146,3.691,6.323,5.504,8.136s3.312,1.8,2.257,2.854c-1.055,1.054-9.376,6.692-5.972,6.692s13.487-3.668,13.487-6.692
	c0-3.025-1.422-17.798-3.6-15.619"/>
<path fill="none" stroke="#000000" stroke-width="0.9657" stroke-linecap="round" stroke-miterlimit="10" d="M116.085,175.725
	c1.411,1.411,5.557,2.667,5.557,4.671"/>
<path d="M103.692,141.324c2.387-2.387,6.999-6.675,6.999-8.729s-2.642-7.017-1.15-7.017c1.492,0,8.579-2.64,7.639-3.581
	s-3.6-2.752-3.6-2.752s-2.45,2.752-4.039,2.752c-1.588,0-2.573-2.19-1.245-3.519c1.327-1.328,4.96-2.601,4.049-3.513
	c-0.912-0.912-2.804-1.369-2.804-1.369s-0.048,3.15-1.417,3.15s-2.574,1.984-2.574,3.353s-2.731-6.503-6.668-6.503
	s-21.923,2.196-15.232,3.15c6.689,0.955,16.255,2.748,17.029,7.5C101.454,129,100.635,144.382,103.692,141.324z"/>
<g>
	<path fill="#294172" d="M280.972,126.462l0.001,0.019c0.003-0.009,0.005-0.019,0.005-0.019H280.972z"/>
	<path fill="#294172" d="M136.906,145.163c-1.088,0-1.969,0.346-1.969,0.771c0,0.426,0.881,2.495,1.969,2.495
		c1.087,0,1.968-2.069,1.968-2.495C138.874,145.508,137.993,145.163,136.906,145.163z"/>
</g>
<path fill="#294172" d="M282.163,151.943c-0.441-0.039-1.184-0.749-1.184-1.455c0-1.107-0.898-3.059,1.228-3.583
	c0.618-0.152,0.637-3.866-0.648-3.866c-0.032,0-1.139-0.385-1.335-0.688c0.038-0.329,3.316-0.646,3.316-4.037
	c0-1.681-0.499-3.143-1.865-3.143c-0.104,0-0.648-1.073-0.617-2.129l0.192-0.836l-0.277-5.725c-0.005,0.019-0.01,0.038-0.013-0.012
	l-0.718-4.042c-0.592-1.879-1.521-3.259-2.795-4.155c-1.21-0.853-2.49-1.081-3.488-1.092c0.07-0.511,0.12-1.026,0.12-1.551
	c0-0.261-0.014-0.521-0.031-0.778c0.448-3.247,0.006-13.537,0.006-15.803c0-6.541-9.058-7.858-13.341-7.858
	c-2.751,0-4.558,2.145-6.4,5.676c-2.424-0.427-5.87-0.073-8.51-0.073c-1.395,0-12.176-0.276-16.71-0.276
	c-14.248,0-26.009,5.27-27.831,12.097c-4.113,0.904-9.792,5.38-15.604,5.38c-4.22,0-7.021,0.184-8.959,0.912
	c-4.058,1.524-5.515,4.237-6.052,7.155c-2.866-2.107-3.771-6.035-5.002-7.266c-1.535-1.535-1.551,4.792-1.551,4.792
	s2.91,1.027,5.01,4.621c1.024,1.752,0.226,3.297-0.859,4.425c-1.371-1.307-3.122-2.713-4.15-2.713c-1.689,0-2.815,2.715-3.551,3.691
	c-1.831-1.021-5.734-4.155-8.473-1.417c-3.925-0.927-6.089-0.323-7.984,1.135c-0.289-0.106-0.593-0.214-0.925-0.329
	c-3.475-1.198-2.058-4.677-2.058-6.046s5.875-7.132,8.101-7.132c2.225,0-1.54-2.225-3.424-2.225s-7.53,9.071-9.07,12.152
	c-1.448,2.896,3.284,6.624,3.857,7.06c-0.357,0.38-0.728,1.008-1.129,1.409c-3.054,3.055-3.71,7.497-3.839,10.497h-0.002
	c-0.046,0-4.717,4.618-2.236,7.996c0.023,0.033-0.158-0.183-0.158-0.151v5.449l-4.607,14.308c-0.012,0.012,0.089,0.025,0.077,0.037
	c0.077,1.023,0.24,1.902,0.379,2.638c-0.403,0.324-0.598,0.669-0.598,1.026c0,0.576,0.579,1.117,1.567,1.594
	c0.439,0.604,0.969,0.767,1.548,0.59c2.489,0.764,3.026,6.013,10.478,1.25c6.314-4.035,13.57-1.537,13.57-3.434
	c0-0.053-0.021-0.104-0.03-0.158c1.388-0.189,19.462,7.429,21.151,8.076c9.83,3.769,12.979,14.793,12.979,22.01
	c0,7.216-2.395,17.09-2.395,17.09s7.188,1.439,10.576-1.949c2.625-2.626-4.086-5.051-2.803-9.997
	c0.668-2.579,1.137-5.769,1.435-8.236c0.253-1.131,0.402-2.478,0.402-3.927c0-0.198,10.735-16.06,10.735-24.097
	c0-2.886-0.127-22.513,0.454-28.402c0.184,0.002,1.694,0.213,2.66,0.164c-0.663,4.892-2.736,29.863,0.546,38.457
	c4.889,12.797,36.332-17.819,28.298-23.634c-15.211-11.01-1.884-26.366-2.732-28.741c-0.015-0.041-0.006-0.088-0.007-0.133
	c1.039,0.217,3.11,0.401,4.198,0.541c-4.318,6.917-13.661,20.721,8.44,31.804c0.923,0.211,15.951,3.99,15.951,3.99
	c-2.127,7.926-8.303,22.835-8.303,22.835c8.419-3.331,10.464-3.886,10.464-3.886s-0.755-2.65,1.591-4.996s-2.897-3.377-2.897-3.377
	c0-3.84,11.353-24.497,11.353-24.497s-1.988-4.391-8.832-4.391c0-3.854,6.607-20.479,6.607-25.296c0-1.949-0.356-4.282-2.354-5
	c0.291-0.683,4.281,0.004,4.749,3.846c0.162,1.336-1.144,2.368-1.144,6.222c-0.749,0.468-1.832,1.774-1.832,3.316
	c0,1.238,0.545,3.22,1.069,3.844c-0.845,2.316-1.103,6.029-0.841,7.386c0.216,1.118,1.688,1.634,3.206,2.114
	c1.249,0.395,1.467,2.659,0.632,3.493c-0.743,0.743,1.331,2.677,1.666,3.372c1.251,2.601,3.793-1.962,3.831-1.975
	C284.442,151.885,283.444,152.053,282.163,151.943z M140.828,153.278c-0.289,0.017-0.644,0.376-1.077,1.239
	c-1.246,2.479-2.879,1.517-4.143,0.058c0.01-0.649-0.396-1.548-1.247-2.708c-1.444-1.966,0.204-5.152,1.228-6.152h3.851
	c0,0,0.07-0.016,0.177-0.087c-0.019,0.144-0.032,0.304-0.032,0.452c0,1.51,0.987,2.858,2.528,3.737L140.828,153.278z
	 M159.411,158.228c-2.084,0.259-4.98,0.232-8.384-0.863l0.97-4.847c0.5,0.486,1.134,0.791,1.835,0.791
	c1.592,0,2.883-1.509,2.883-3.37c0-1.431-0.767-2.646-1.844-3.134c0.459-0.191,0.943-0.352,1.456-0.472
	c1.758,0.184,3.604,0.293,5.532,0.293c1.183,0.366,2.025,0.786,2.599,1.246c0.088,1.171,0.299,2.29,0.612,3.337
	C163.726,153.899,159.411,156.779,159.411,158.228z M270.806,105.748c-2.707-3.223-6.786-5.303-11.936-6.973
	c0.512-3.457,0.721-5.139,2.337-5.139c3.983,0,9.905,4.996,9.905,6.436C271.112,101.493,270.732,102.721,270.806,105.748z"/>
</svg>
