<?xml version="1.0" encoding="utf-8"?>
<!-- Generator: Adobe Illustrator 15.1.0, SVG Export Plug-In . SVG Version: 6.00 Build 0)  -->
<!DOCTYPE svg PUBLIC "-//W3C//DTD SVG 1.1//EN" "http://www.w3.org/Graphics/SVG/1.1/DTD/svg11.dtd">
<svg version="1.1" id="Layer_1" xmlns="http://www.w3.org/2000/svg" xmlns:xlink="http://www.w3.org/1999/xlink" x="0px" y="0px"
	 width="308px" height="314.667px" viewBox="0 0 308 314.667" enable-background="new 0 0 308 314.667" xml:space="preserve">
<g>
	<g id="g5241_212_">
		<path id="path35_218_" fill="#3C6EAF" d="M300.798,159.686c0-79.041-64.068-143.116-143.113-143.116
			c-78.999,0-143.05,64.022-143.104,143.018l-0.005-0.005v110.746l0.005,0.007c0.041,17.936,14.586,32.453,32.533,32.453
			c0.051,0,0.102-0.005,0.156-0.005l0.009,0.005h110.466l0,0c79.018-0.033,143.059-64.088,143.059-143.103H300.798z"/>
	</g>
	<g id="g5241_211_">
		<path id="path35_217_" fill="#294172" d="M297.798,152.686c0-79.041-64.068-143.116-143.113-143.116
			c-78.999,0-143.05,64.022-143.104,143.018l-0.005-0.005v110.746l0.005,0.007c0.041,17.936,14.586,32.453,32.533,32.453
			c0.051,0,0.102-0.005,0.156-0.005l0.009,0.005h110.466l0,0c79.018-0.033,143.059-64.088,143.059-143.103H297.798z"/>
	</g>
	<g>
		<path fill="#3C6EAF" d="M50.996,247.769c4.444,0,8.532,1.482,11.837,3.956c-3.61-4.821-9.35-7.956-15.837-7.956
			c-10.933,0-19.794,8.863-19.794,19.797c0,6.486,3.135,12.227,7.957,15.838c-2.475-3.305-3.957-7.394-3.957-11.838
			C31.202,256.632,40.063,247.769,50.996,247.769z"/>
		<path fill="#A7BFDF" d="M66.79,263.566c0-4.446-1.483-8.536-3.957-11.841c-3.305-2.474-7.393-3.956-11.837-3.956
			c-10.933,0-19.794,8.863-19.794,19.797c0,4.444,1.482,8.533,3.957,11.838c3.304,2.473,7.393,3.956,11.837,3.956
			C57.928,283.36,66.79,274.497,66.79,263.566z"/>
	</g>
	<g>
		<path fill="#3C6EAF" d="M46.49,147.497c0-53.769,33.451-99.721,80.677-118.189C73.395,41.935,33.363,90.206,33.363,147.833
			c0,59.174,42.215,108.482,98.172,119.463C82.018,250.013,46.49,202.908,46.49,147.497z"/>
		<path fill="#8AA9D4" d="M276.862,146.833c0-67.244-54.513-121.753-121.754-121.753c-9.615,0-18.969,1.119-27.941,3.227
			C79.941,46.776,46.49,92.728,46.49,146.497c0,55.411,35.528,102.517,85.045,119.8c7.628,1.497,15.507,2.289,23.573,2.289
			C222.349,268.585,276.862,214.074,276.862,146.833z"/>
	</g>
	<g>
		
			<image overflow="visible" opacity="0.75" width="116" height="84" xlink:href="F2A1F3B.png"  transform="matrix(1 0 0 1 8.6665 226.6665)">
		</image>
		<g>
			<text transform="matrix(1 0 0 1 21.7173 279.4038)" font-family="'BaskOldFace'" font-size="48">VIII</text>
		</g>
	</g>
</g>
</svg>
