<?xml version="1.0" encoding="utf-8"?>
<!-- Generator: Adobe Illustrator 15.1.0, SVG Export Plug-In . SVG Version: 6.00 Build 0)  -->
<!DOCTYPE svg PUBLIC "-//W3C//DTD SVG 1.1//EN" "http://www.w3.org/Graphics/SVG/1.1/DTD/svg11.dtd">
<svg version="1.1" id="Layer_1" xmlns="http://www.w3.org/2000/svg" xmlns:xlink="http://www.w3.org/1999/xlink" x="0px" y="0px"
	 width="308px" height="314.667px" viewBox="0 0 308 314.667" enable-background="new 0 0 308 314.667" xml:space="preserve">
<g>
	<g id="g5241_185_">
		<path id="path35_191_" fill="#3C6EAF" d="M299.798,161.686c0-79.041-64.068-143.116-143.113-143.116
			c-78.999,0-143.05,64.022-143.104,143.018l-0.005-0.005v110.746l0.005,0.007c0.041,17.936,14.586,32.453,32.533,32.453
			c0.051,0,0.102-0.005,0.156-0.005l0.009,0.005h110.466l0,0c79.018-0.033,143.059-64.088,143.059-143.103H299.798z"/>
	</g>
	<g id="g5241_184_">
		<path id="path35_190_" fill="#294172" d="M296.798,154.686c0-79.041-64.068-143.116-143.113-143.116
			c-78.999,0-143.05,64.022-143.104,143.018l-0.005-0.005v110.746l0.005,0.007c0.041,17.936,14.586,32.453,32.533,32.453
			c0.051,0,0.102-0.005,0.156-0.005l0.009,0.005h110.466l0,0c79.018-0.033,143.059-64.088,143.059-143.103H296.798z"/>
	</g>
	<g>
		<path fill="#3C6EAF" d="M49.996,249.769c4.444,0,8.532,1.482,11.837,3.956c-3.61-4.821-9.35-7.956-15.837-7.956
			c-10.933,0-19.794,8.863-19.794,19.797c0,6.486,3.135,12.227,7.957,15.838c-2.475-3.305-3.957-7.394-3.957-11.838
			C30.202,258.632,39.063,249.769,49.996,249.769z"/>
		<path fill="#A7BFDF" d="M65.79,265.566c0-4.446-1.483-8.536-3.957-11.841c-3.305-2.474-7.393-3.956-11.837-3.956
			c-10.933,0-19.794,8.863-19.794,19.797c0,4.444,1.482,8.533,3.957,11.838c3.304,2.473,7.393,3.956,11.837,3.956
			C56.928,285.36,65.79,276.497,65.79,265.566z"/>
	</g>
	<g>
		<path fill="#3C6EAF" d="M45.49,149.497c0-53.769,33.451-99.721,80.677-118.189C72.395,43.935,32.363,92.206,32.363,149.833
			c0,59.174,42.215,108.482,98.172,119.463C81.018,252.013,45.49,204.908,45.49,149.497z"/>
		<path fill="#C5D4E9" d="M275.862,148.833c0-67.244-54.513-121.753-121.754-121.753c-9.615,0-18.969,1.119-27.941,3.227
			C78.941,48.776,45.49,94.728,45.49,148.497c0,55.411,35.528,102.517,85.045,119.8c7.628,1.497,15.507,2.289,23.573,2.289
			C221.349,270.585,275.862,216.074,275.862,148.833z"/>
	</g>
	<g>
		
			<image overflow="visible" opacity="0.75" width="81" height="84" xlink:href="A8094742.png"  transform="matrix(1 0 0 1 5.6665 222.6665)">
		</image>
		<g>
			<text transform="matrix(1 0 0 1 18.7173 275.4038)" font-family="'BaskOldFace'" font-size="48">VI</text>
		</g>
	</g>
</g>
<path fill="#294172" d="M190.207,182.748c0,0,5.249,1.642,9.911,0.731c3.746-0.731-8.961,12.092-4.958,12.092s2.075,1.688,0,3.763
	s-0.351,5.645-0.351,5.645s-10.143,5.645-10.143,2.509s4-3.18,0-3.18c-3,0-11.217-0.498-7.147-2.391
	C184.124,198.846,187.465,199.659,190.207,182.748z"/>
<g>
	<path fill="#294172" d="M180.459,192.204c0-5.327-9.13-3.625-12.731-7.228c-2.127-2.127-3.522-1.224-6.755-4.456
		s-9.006-9.406-9.006-9.406s0.851-6.326,3.168-4.009c2.318,2.318,5.838,4.009,5.838,4.009s4.503-3.956,3.377-5.082
		c-3.012-3.013,6.275-5.189,3.378-8.088c-2.253-2.252-15.761,8.477-15.761,4.865s4.423-4.238,4.423-7.374
		c0-3.135-3.428-3.247-6.675,0c-3.248,3.248-4.811,5.686-7.75,5.686c-2.996,0-3.979-4.992-6.05-1.923c-2.435,3.607-5.237,0-9,0
		s-3.763,3.611-6.898,3.611s-4.241,0.942-8.888-1.65c-8.502-4.744-4.604-13.626-4.604-13.626s-8.109,4.169,1.641,16.782
		l-20.936-0.035c0,0-6.081,1.289,1.654,7.365c3.726,2.928,9.025,8.65,13.572,6.688c3.896-1.681,3.764-3.389,3.764,0.018
		s2.194,15.645,6.271,19.721s15.051,3.768,25.085,3.768c10.033,0,19.416,0.846,23.396-3.134c3.979-3.979,11.095-3.135,14.23-3.135
		C178.338,195.57,180.459,195.289,180.459,192.204z M129.018,181.774c-1.413-3.563,0-6.176,0-6.176l4.932,0.495
		c0,0-3.215-0.495-2.224,3.29c0.99,3.783,8.358-5.135,8.358-0.697S130.754,186.153,129.018,181.774z"/>
</g>
<path fill="#294172" d="M173.721,197.652c1.865,0.54-1.344,5.215-5.961,6.509c-4.616,1.295-8.354,1.146-9.811,2.603
	c-1.455,1.456-1.463,4.052-2.92,5.507c-1.456,1.456-7.803,3.013-5.311,5.504c2.492,2.492,3.363,3.885,5.305,3.885
	s3.824,1.146,2.588,2.383s2.672,3.119,2.672,3.119s-3.32,3.559-2.35,4.529s-1.456,3.606-2.588,2.474
	c-1.133-1.132-3.379-1.497-3.379,0.503s-2.121,2-2.121,0c0-3-0.131-8.536-0.131-8.536s-4.076-2.721-6.018-4.661
	c-1.941-1.941-10.081,1.81-9.111-3.351c0.969-5.16,6.915-5.224,9.59-7.374c3.674-2.956,4.412-6.54,4.412-6.54
	s2.719-0.332,5.709-0.332s7.797-3.825,9.49-4.712C166.165,197.917,169.063,196.302,173.721,197.652z"/>
<path fill="#294172" d="M84.959,191.365c0,0,3.488,5.144,5.234,6.304c2.477,1.645,1.594,1.362,1.594,1.362s4.412,1.322,5.854,2.556
	c1.442,1.231,1.551,3.218,0.363,4.609c-1.189,1.393-7.262,6.736-7.135,8.35s-3.238,6.575-1.665,7.92s3.914,2.127,2.874,3.345
	c-1.041,1.218-0.589,4.914-0.589,4.914s1.065,1.54-1.501,1.741c-2.565,0.201-3.406,1.89-5.02,2.016
	c-1.613,0.127-3.625-0.689-3.725-1.979c-0.102-1.291-0.437-0.816-1.512,0.443c-1.075,1.259-5.535,0.759-4.049-0.98
	c1.486-1.74,7.855-7.433,7.729-9.045C83.286,221.307,82.243,189.257,84.959,191.365z"/>
<path fill="#294172" d="M261.746,116.554c-4.39,4.39-2.508,15.051-5.644,15.051c-3.137,0-5.018-3.135-6.898-1.254
	c-1.882,1.881,0,9.407-2.509,6.898c-2.509-2.508-4.39-4.389-6.897-1.881c-2.51,2.509-3.137,10.034-5.018,8.152
	c-1.881-1.881,2.508-9.407-1.881-19.44c-0.305-0.693-0.592-1.335-0.869-1.931l0,0c0,0,6.148-7.502,6.148-11.709
	s0.971-7.442-2.266-10.678c-3.235-3.235-9.502,2.86-12.038,5.396c-2.536,2.537-10.208,0-10.208,0v-0.225
	c-1-0.814-3.242-0.266-4.716,0.734h-10.695c0,0-11.99-1.019-15.678,2.669c-3.687,3.687-11.664,11.948-14.85,11.948
	s-56.491,7.542-60.881,11.932c-4.39,4.389-15.417,9.119-17.595,11.295C87.076,145.689,73.591,171.68,78,176.089
	c0.414,0.413,0.766,0.781,1.066,1.11c-0.083,1.154,0.037,2.472,0.484,2.919c0.787,0.787,3.847,5.072,6.454,9.094
	s4.299,5.158,5.611,6.47c1.311,1.312,2.369,0.955,3.147,1.733s2.448,1.589,3.672,1.589s3.323,1.4,4.022,3.848
	c0.699,2.449-0.263,2.535-1.225,3.498c-0.962,0.961,2.973,6.645,4.547,10.142c1.572,3.497,8.394,5.596,12.765,6.819
	c4.371,1.225,12.415-4.547,13.29-7.344c0.874-2.798,3.497-4.021,4.546-4.021c1.05,0,6.208-2.187,6.995-2.973
	c0.786-0.788,2.623-0.974,2.623-3.732c0-2.758-5.246-1.514-6.646-1.514c-1.398,0-12.415,0.874-15.038,0
	c-2.623-0.875-7.345-1.399-12.24-3.322c-4.896-1.924-4.896-8.044-5.771-12.766s-1.836-6.207-2.973-7.344s-4.022,0-5.421,0
	s-4.896-2.973-6.12-4.197c-1.224-1.224-5.786-4.746-5.786-4.746c-0.376-0.615-0.751-1.138-1.105-1.492
	c-1.882-1.882-2.119-5.004,0-7.121c2.118-2.12,6.271-0.072,10.033-0.072s9.447,0,9.447,0s-6.002-8.604-2.458-13.978
	c3.848-5.835,9.509-6.112,8.062-3.64c-2.105,3.599-3.255,6.461-1.932,8.77c0.961,1.675,3.078,6.008,9.928,6.367
	c5.01,0.264,2.121-3.232,10.884-2.685c0.964,0.061,4.979,1.385,5.059,1.513c0.026-0.242,1.705-2.976,4.032-2.976
	c4.797,0,2.407,5.829,7.86,0.376c2.822-2.822,4.588-4.54,6.218-4.964c5.807-1.512,7.135,2.505,7.135,4.042s-3.568,5.156-3.568,5.156
	s13.263-7.792,15.215-5.84c1.953,1.953,0.117,5.611-0.621,6.351c-2.531,2.531-3.781,3.684-3.781,3.684s-1.947,10.164-5.424,7.763
	c-10.188-7.036-6.839-1.097-6.839-1.097s10.308,9.99,15.509,12.607c2.918,1.468,10.803,3.622,10.803,3.622l7.287-5.835
	c0,0-9.981-4.577-8.592-16.195c1.741-14.561,5.782-24.412,7.424-32.295c0.396-1.898,3.065-1.819,3.065-0.286
	c0,0-8.161,27.46-8.161,34.358s6.895,18.521,24.453,12.521c17.561-6,20.693-8.858,20.693-5.096s-7.527,15.739-7.527,18.876
	c0,1.811-2.719,7.638-5.015,11.869c-1.681,3.098-3.139,6.012-3.139,6.012h3.631h3.378l7.709-6.688v-3.485v-3.94
	c0,0-5.19-1.98-2.683-4.49c2.509-2.509,25.652-29.16,23.457-31.354c-2.194-2.195-7.397-2.51-10.534,0.627
	c-3.135,3.135-12.479,1.254-9.97-1.255c2.508-2.509,5.675-13.169,5.675-13.169s3.152,1.254,5.034-0.628
	c1.881-1.881,2.515,3.763,5.651,3.763c3.136,0,4.542,0,4.542-5.017c0-5.017,6.124-1.882,6.124-1.882s6.272-3.762,6.272-8.152
	s6.272-19.441,6.272-19.441S266.135,112.165,261.746,116.554z M223.511,114.671c-0.564-0.564-1.245-1.364-2.007-2.267l0,0
	c0-3.213,0.495-1.911,3.084-1.911c2.588,0,2.906-4.266,4.529-5.889c1.623-1.624,5.016-3.71,6.148-2.577
	c1.132,1.133,0.323,4.854,0.323,6.471c0,1.618,0,4.53-2.589,7.118c-1.261,1.261-2.289,2.136-3.015,2.704
	C228.226,115.63,226.536,114.875,223.511,114.671z"/>
<g>
	
		<image overflow="visible" opacity="0.75" width="95" height="105" xlink:href="A8094746.png"  transform="matrix(1 0 0 1 106.2231 50.2231)">
	</image>
	<g>
		<path fill="#FFFFFF" d="M154.309,141.783l6.349-5.415c0,0-1.751-8.001-5.181-10.191c-3.43-2.191-4.506-4.349-1.767-4.373
			c2.738-0.023,8.479,0.052,10.466-2.209s1.353,1.818,4.115,0.72c2.762-1.098,3.604-3.429,5.574-4.139
			c1.972-0.71,4.311,0.849,6.912-1.061c2.602-1.909,1.452-6.15,2.363-6.713c0.91-0.564,5.222-10.954,5.222-10.954
			s-13.015,7.122-11.205,8.932c1.811,1.81,1.811,1.81-0.719,1.458c-2.993-0.417-6.827-1.949-4.546-3.104
			c2.281-1.154,2.495-5.406,2.495-5.406s2.005,1.062,4.575-3.436s4.391-8.59,2.275-10.615c-2.113-2.025-5.749-1.207-4.915-4.527
			s3.757-8.951,3.757-12.216c0-6.139,5.4-1.878,6.786-3.264c1.385-1.385,1.919-4.822-2.252-3.915c-4.17,0.908-6.056,1.886-6.056,0
			s5.149-7.209,1.553-6.42c-3.597,0.789-4.969,3.832-9.852,4.238s-8.784,3.502-11.592,4.276c-2.807,0.773-11.873,2.702-13.385,6.633
			s-3.551,7.322-1.63,9.244c1.922,1.922,2.012,2.821,0,5.927c-2.011,3.107-7.094,0.482-7.094-2.718c0-3.2-0.568-6.556-4.292-6.405
			c-3.723,0.149-4.593,1.471-3.723,4.25c0.869,2.779-2.02,7.767,0,9.786c2.019,2.018-4.223,2.31-4.223,2.31s2.855-3.418-1.107-2.95
			c-3.963,0.469-2.431-3.898-2.431-6.367s-5.381-2.883-2.249-5.729c3.133-2.845,0.451-3.323-0.906-4.223s-7.318-5.667-6.436-1.857
			c0.884,3.811,4.404,3.88,2.203,6.08c-2.198,2.2-4.051,11.104-1.224,15.704c2.827,4.6,7.482,9.015,9.899,9.015
			c2.418,0,12.75-2.357,13.086-2.694c0.337-0.337,1.051,1.212,4.201,1.212s3.168,0,3.168,0l0.796,6.947c0,0-9.8-2.468-14.778-1.805
			c-5.382,0.715-8.176,2.278-8.42,5.993c-0.244,3.713-1.253,13.884,0,14.974c1.252,1.09,3.48,1.322,5.708-0.7
			c2.228-2.022,2.228-2.03,2.228-2.03s2.658,6.449,4.863,4.244s2.145-4.284,2.145-4.284s3.9,7.026,6.574,7.026
			s8.203,0.535,8.203,0.535S158.79,130.443,154.309,141.783z"/>
	</g>
</g>
<g>
	
		<line fill="none" stroke="#000000" stroke-width="1.6887" stroke-linecap="round" stroke-miterlimit="10" x1="141.08" y1="86.265" x2="145.102" y2="84.241"/>
	<path fill="none" stroke="#000000" stroke-width="2" stroke-linecap="round" stroke-miterlimit="10" d="M156.405,80.958
		c0,0-13.598,0.385-13.598-3.544s2.133-9.811,9.992-12.312c7.859-2.5,14.425-3.654,17.748-3.654c3.325,0,6.18,4.246,6.18,7.462
		c0,3.214-5.058,6.355-5.058,6.355s1.841,0.702,1.841,2.845s-6.346,3.556-6.346,3.556h-2.498"/>
	<path fill="none" stroke="#000000" stroke-width="1.6887" stroke-linecap="round" stroke-miterlimit="10" d="M158.803,102.883
		c0,0,16.31-3.111,17.918-4.719c1.609-1.609,6.854-10.578,5.643-11.79c-1.213-1.212-7.426-7.296-8.625-6.097"/>
	<path fill="none" stroke="#000000" stroke-width="1.6887" stroke-linecap="round" stroke-miterlimit="10" d="M170.562,87.821
		c0,0-6.37-3.58-10.804,0.854c-1.262,1.26-5.573,2.49-5.541,4.459c-0.023-1.428-4.934,0-4.934,0"/>
	<path fill="none" stroke="#000000" stroke-width="1.6887" stroke-linecap="round" stroke-miterlimit="10" d="M148.884,95.892
		c0,0-0.601-4.152-2.41-5.962c-1.81-1.811-2.672-2.514-5.916-2.514c-1.761,0-3.817-4.258-3.817-4.258"/>
	<path fill="none" stroke="#000000" stroke-width="1.6887" stroke-linecap="round" stroke-miterlimit="10" d="M128.852,83.158
		c0,0-1.957,5.92,0,7.877c1.957,1.956,3.343,5.223,4.645,6.771c2.5,2.974,11.079,3.443,14.941,3.443
		c3.863,0,17.041-2.675,17.041-2.675"/>
	<path fill="none" stroke="#000000" stroke-width="2" stroke-linecap="round" stroke-miterlimit="10" d="M141.667,100.667
		c0,0,0,0.397,0,3.57c0,3.173,7.295,3.602,10.867,3.602c2.406,0,20.639-2.592,20.932-4.258c0.643-3.643-0.002-4.566-0.002-4.566"/>
	<path fill="none" stroke="#000000" stroke-width="1.6887" stroke-linecap="round" stroke-miterlimit="10" d="M144.721,110.652
		c0,0-0.921-4.271-11.939-4.271c-3.216,0-13.219,0.714-13.219,5.359c0,4.644-1.965,13.04,0,15.004s2.858,2.144,5.002,0
		s3.417-2.858,3.417-2.858s1.565,5.452,4.085,4.4c1.318-0.551,2.501-0.47,2.501-2.256c0-1.786-0.062-10.064-1.429-8.697
		C131.376,119.095,132.96,110.652,144.721,110.652z"/>
	<path fill="none" stroke="#000000" stroke-width="1.6887" stroke-linecap="round" stroke-miterlimit="10" d="M145.133,80.943
		c0,0-1.243,2.086,2.82,3.098c2.82,0.703,6.958,0.201,6.958,0.201"/>
	<path fill="none" stroke="#000000" stroke-width="2" stroke-linecap="round" stroke-miterlimit="10" d="M124.114,114.217
		c0,0,2.558,3.45,5.791,3.45c3.234,0,3.762,0,3.762,0"/>
	<path fill="none" stroke="#000000" stroke-width="1.6887" stroke-linecap="round" stroke-miterlimit="10" d="M138.797,111.774
		c0,0,4.415-1.123,5.924-1.123c3.232,0,7.882,0.809,9.681-0.991c1.799-1.799,7.905-1.983,9.798,1.694
		c1.359,2.641,2.242,5.415-0.587,8.244c-2.829,2.829-9.853,2.143-14.447,2.143s-8.044-3.215-8.044-3.215"/>
	<path fill="none" stroke="#000000" stroke-width="1.6887" stroke-linecap="round" stroke-miterlimit="10" d="M142.76,125.315
		c0,0,5.519,1.979,7.498,0c1.979-1.979,2.888-3.502,2.888-3.502"/>
	<path fill="none" stroke="#000000" stroke-width="1.6887" stroke-linecap="round" stroke-miterlimit="10" d="M135.997,126.195
		c0,0,2.008,5.057,7.095,5.607c2.868,0.311,11.82-3.656,11.82-5.607c0-1.951-3.43-2.191-3.43-2.191"/>
	<path fill="none" stroke="#000000" stroke-width="1.6887" stroke-linecap="round" stroke-miterlimit="10" d="M135.11,99.069
		c0,0-8.955,3.847-14.025,3.024c-6.045-0.981-10.865-9.542-10.865-14.561c0-5.018-0.459-9.878,2.756-9.878
		c3.217,0,6.146,4.405,7.246,5.504c1.1,1.1,0.096,6.836-1.532,6.836c-1.627,0,3.561-1.979,5.071-0.469
		c1.51,1.511-2.232,4.708-2.232,4.708s-0.716-1.758,2.232-1.758s4.222-2.31,4.222-2.31"/>
	<path fill="none" stroke="#000000" stroke-width="1.6887" stroke-linecap="round" stroke-miterlimit="10" d="M112.975,77.654
		c0,0-4.032-6.304-2.344-6.304c1.126,0,2.934,0.957,5.078,0.957c2.143,0,7.271,0.401,5.396,2.278
		C119.23,76.459,115.791,80.286,112.975,77.654z"/>
	<path fill="none" stroke="#000000" stroke-width="1.6887" stroke-linecap="round" stroke-miterlimit="10" d="M135.997,82.535
		c0,0-8.015,0.782-8.015-2.155s0.134-1.161,1.923-2.95c1.79-1.79,3.948-2.408,5.205-1.151
		C136.366,77.536,137.559,80.973,135.997,82.535z"/>
	<path fill="none" stroke="#000000" stroke-width="1.6887" stroke-linecap="round" stroke-miterlimit="10" d="M99.914,66.959
		c0,0,5.359,3.434,10.718,4.39c5.359,0.957,13.311,4.915,17.351,4.929c4.04,0.015,6.616-0.868,8.634,1.151
		c2.02,2.019,9.043,2.024,9.043,2.024"/>
	<path fill="none" stroke="#000000" stroke-width="1.6887" stroke-linecap="round" stroke-miterlimit="10" d="M154.711,126.256
		c-1.152,1.153-1.943,3.975-4.865,4.281c-4.713,0.494,2.791,1.645,3.891,2.746c1.102,1.1,0.975,3.215,0.975,3.215
		s-3.325,7.709-0.975,5.359c2.352-2.351,2.559-4.645,4.703-4.645c2.143,0,2.68-2.68,1.43-3.93
		C158.618,132.032,156.183,124.785,154.711,126.256z"/>
	<path fill="none" stroke="#000000" stroke-width="1.6887" stroke-linecap="round" stroke-miterlimit="10" d="M173.303,116.176
		c2.76-1.162-6.241-0.3-7.704,1.162c-1.462,1.463-0.849,2.975,1.565,2.975S171.764,116.824,173.303,116.176z"/>
	<path fill="none" stroke="#000000" stroke-width="1.6887" stroke-linecap="round" stroke-miterlimit="10" d="M172.86,107.838
		c0,0,5.251,0.48,9.338,0.48c4.086,0-1.167,7.301-3.125,7.301c-1.96,0-14.873-0.299-14.873-4.264s-2.48-0.993-2.48-3.517
		c0-1.782,4.606-1.658,4.606-1.658S172.54,104.309,172.86,107.838z"/>
	<path fill="none" stroke="#000000" stroke-width="1.6887" stroke-linecap="round" stroke-miterlimit="10" d="M183.489,107.838
		c0,0-6.894,1.758-6.894-1.458c0-3.216,11.204-8.932,11.204-8.932S184.948,106.38,183.489,107.838z"/>
	<path fill="none" stroke="#000000" stroke-width="1.6887" stroke-linecap="round" stroke-miterlimit="10" d="M158.803,61.355
		c0,0,2.676-1.776,6.012-1.776s6.816-0.388,8.488-2.06c1.671-1.67,4.068-2.584,6.246-2.584c2.177,0,1.395,3.209,1.395,3.209
		s-4.996,1.163-2.947,3.211s3.736,0,6.055,0c2.319,0,5.758,3.915,2.252,3.915c-3.505,0-8.082-1.177-6.905,0
		c1.593,1.592,0,0.025,0,5.546c0,5.521-2.803,6.614-2.803,6.614"/>
	<polyline fill="none" stroke="#000000" stroke-width="1.6887" stroke-linecap="round" stroke-miterlimit="10" points="
		167.859,69.492 161.667,68.929 159.367,67.575 	"/>
	<path fill="none" stroke="#000000" stroke-width="1.6887" stroke-linecap="round" stroke-miterlimit="10" d="M154.185,67.012
		c0,0-5.747,1.576-5.747,3.804c0,2.228,1.127,2.334,1.127,2.334"/>
	<path fill="none" stroke="#000000" stroke-width="1.6887" stroke-linecap="round" stroke-miterlimit="10" d="M158.461,71.942
		c0,0,2.027-0.419,3.258,0.812"/>
	<path fill="none" stroke="#000000" stroke-width="1.6887" stroke-linecap="round" stroke-miterlimit="10" d="M150.022,85.253
		c0,0-0.298,2.568,2.416,2.568s2.059,1.99,2.059,1.99"/>
</g>
</svg>
