<?xml version="1.0" encoding="utf-8"?>
<!-- Generator: Adobe Illustrator 15.1.0, SVG Export Plug-In . SVG Version: 6.00 Build 0)  -->
<!DOCTYPE svg PUBLIC "-//W3C//DTD SVG 1.1//EN" "http://www.w3.org/Graphics/SVG/1.1/DTD/svg11.dtd">
<svg version="1.1" id="Layer_1" xmlns="http://www.w3.org/2000/svg" xmlns:xlink="http://www.w3.org/1999/xlink" x="0px" y="0px"
	 width="308px" height="314.667px" viewBox="0 0 308 314.667" enable-background="new 0 0 308 314.667" xml:space="preserve">
<g>
	<g id="g5241_159_">
		<path id="path35_165_" fill="#3C6EAF" d="M299.798,162.686c0-79.041-64.068-143.116-143.113-143.116
			c-78.999,0-143.05,64.022-143.104,143.018l-0.005-0.005v110.746l0.005,0.007c0.041,17.936,14.586,32.453,32.533,32.453
			c0.051,0,0.102-0.005,0.156-0.005l0.009,0.005h110.466l0,0c79.018-0.033,143.059-64.088,143.059-143.103H299.798z"/>
	</g>
	<g id="g5241_158_">
		<path id="path35_164_" fill="#294172" d="M296.798,155.686c0-79.041-64.068-143.116-143.113-143.116
			c-78.999,0-143.05,64.022-143.104,143.018l-0.005-0.005v110.746l0.005,0.007c0.041,17.936,14.586,32.453,32.533,32.453
			c0.051,0,0.102-0.005,0.156-0.005l0.009,0.005h110.466l0,0c79.018-0.033,143.059-64.088,143.059-143.103H296.798z"/>
	</g>
	<g>
		<path fill="#3C6EAF" d="M49.996,250.769c4.444,0,8.532,1.482,11.837,3.956c-3.61-4.821-9.35-7.956-15.837-7.956
			c-10.933,0-19.794,8.863-19.794,19.797c0,6.486,3.135,12.227,7.957,15.838c-2.475-3.305-3.957-7.394-3.957-11.838
			C30.202,259.632,39.063,250.769,49.996,250.769z"/>
		<path fill="#8AA9D4" d="M65.79,266.566c0-4.446-1.483-8.536-3.957-11.841c-3.305-2.474-7.393-3.956-11.837-3.956
			c-10.933,0-19.794,8.863-19.794,19.797c0,4.444,1.482,8.533,3.957,11.838c3.304,2.473,7.393,3.956,11.837,3.956
			C56.928,286.36,65.79,277.497,65.79,266.566z"/>
	</g>
	<g>
		<path fill="#3C6EAF" d="M45.49,150.497c0-53.769,33.451-99.721,80.677-118.189C72.395,44.935,32.363,93.206,32.363,150.833
			c0,59.174,42.215,108.482,98.172,119.463C81.018,253.013,45.49,205.908,45.49,150.497z"/>
		<path fill="#8AA9D4" d="M275.862,150.833c0-67.244-54.513-121.753-121.754-121.753c-9.615,0-18.969,1.119-27.941,3.227
			C78.941,50.776,45.49,96.728,45.49,150.497c0,55.411,35.528,102.517,85.045,119.8c7.628,1.497,15.507,2.289,23.573,2.289
			C221.349,272.585,275.862,218.074,275.862,150.833z"/>
	</g>
	<text transform="matrix(1 0 0 1 36.4341 277.5854)" fill="#E09228" font-family="'BaskOldFace'" font-size="57.4636">I</text>
</g>
<path fill-rule="evenodd" clip-rule="evenodd" fill="#7091CB" d="M102.712,221.667l122.955,8.826v-70.826l28.813-44.359
	L225.598,93.57l-10.873,35.097l0,0l-42.034-4.922c-21.3,7.704,25.306-13.663,29.209-19.173c10.138-14.311,2.304-29.637,2.304-29.637
	s14.99-20.423-7.659-22.014c-19.95-1.401-36.968,20.256-36.968,20.256s-29.596-18.501-29.596-12.024s-17.15,28.972,4.343,34.514
	c21.493,5.542,21.019,22.641,21.019,22.641l-2.174,10.359l-36.985,1l-13.518-27.097l-13.835,15.737l20.835,49.265v27.095
	L102.712,221.667z"/>
<g>
	<g>
		<polygon fill="#E09228" points="109.622,135.458 90.535,158.667 215.804,158.667 194.31,135.554 		"/>
		<polygon fill="#E6AB5D" points="109.622,135.851 91.365,97.935 67.997,117.671 90.535,159.452 		"/>
		<polygon fill="#EDC58D" points="195.079,135.851 213.335,97.935 236.704,117.671 214.165,159.452 		"/>
		<rect x="110.667" y="134.667" fill="#E6AB5D" width="83" height="24"/>
	</g>
	<ellipse fill="#294172" cx="112.972" cy="60.512" rx="10.536" ry="11.288"/>
	<path fill="#E3EAF3" d="M135.325,49.096c-18.953,2.677-34.256,36.497-24.097,46.657c10.159,10.159,34.617,29.349,49.668,24.082
		c15.05-5.268,47.409-18.062,39.886-38.379C193.254,61.136,179.346,42.877,135.325,49.096z"/>
	<path fill="#294172" d="M205.295,58.308c0,6.774-4.58,13.493-11.746,13.493s-14.203-10.003-14.203-16.776s5.811-8.981,12.975-8.981
		C199.486,46.042,205.295,51.534,205.295,58.308z"/>
	<path fill="#294172" d="M159.391,73.177c0,0-6.774,8.278,0,15.05c6.772,6.773,28.596,3.011,21.822-3.762
		C174.442,77.692,171.055,61.513,159.391,73.177z"/>
	<ellipse cx="148.209" cy="94.153" rx="6.879" ry="2.354"/>
	<path fill="none" stroke="#3D3930" stroke-width="0.9178" stroke-linecap="round" stroke-miterlimit="10" d="M116.184,91.799
		c0,0,21.784,28.787,74.638,4.707"/>
	<circle cx="126.679" cy="82.316" r="3.209"/>
	<circle fill="#38342D" cx="169.357" cy="84.152" r="3.209"/>
	<circle fill="#FFFBF2" cx="126.907" cy="80.935" r="1.447"/>
	<circle fill="#FFFBF2" cx="169.764" cy="83.738" r="1.445"/>
	<path fill="#E3EAF3" d="M149.644,121.128l-5.489,14.253c0,0,10.638,7.961,16.484,2.115c5.846-5.846,5.846-5.846,5.846-5.846
		l-8.725-10.123L149.644,121.128z"/>
	<path fill="none" stroke="#3D3930" stroke-width="0.9178" stroke-linecap="round" stroke-miterlimit="10" d="M149.644,121.128
		l8.116,0.399c0,0-7.447,18.016,0,25.464c7.449,7.448,19.056,15.251,6.788,27.896c-12.269,12.646-2.038,24.892,1.6,28.528"/>
	<rect x="90.667" y="158.667" fill="#EDC58D" width="124" height="81"/>
	<g>
		<path fill="#E6AB5D" d="M165.436,173.841c0.779,0,1.446,0.278,2,0.832c0.555,0.556,0.832,1.222,0.832,2.001
			c0,0.778-0.277,1.445-0.832,2c-0.554,0.555-1.221,0.832-2,0.832h-22.66v14.163h9.913c5.075,0,9.413,1.8,13.013,5.399
			c3.599,3.601,5.399,7.938,5.399,13.012c0,5.076-1.801,9.413-5.399,13.012c-3.6,3.602-7.938,5.4-13.013,5.4
			s-9.412-1.799-13.012-5.4c-3.6-3.599-5.399-7.936-5.399-13.012c0-0.778,0.277-1.445,0.832-2s1.222-0.832,2-0.832
			c0.779,0,1.446,0.277,2.001,0.832s0.832,1.222,0.832,2c0,3.518,1.245,6.521,3.735,9.012c2.491,2.49,5.494,3.734,9.011,3.734
			c3.518,0,6.521-1.244,9.012-3.734c2.49-2.49,3.735-5.494,3.735-9.012c0-3.516-1.245-6.521-3.735-9.012
			c-2.491-2.488-5.494-3.734-9.012-3.734h-12.746c-0.779,0-1.445-0.277-2-0.832s-0.833-1.222-0.833-2v-19.828
			c0-0.779,0.278-1.445,0.833-2.001c0.555-0.554,1.221-0.832,2-0.832H165.436z"/>
	</g>
	<g>
		<path fill="#294172" d="M167.834,170.033c0.779,0,1.446,0.277,2,0.832c0.555,0.556,0.832,1.222,0.832,2.001
			c0,0.778-0.277,1.445-0.832,2c-0.554,0.555-1.221,0.832-2,0.832h-22.66v14.163h9.913c5.075,0,9.413,1.8,13.013,5.399
			c3.599,3.601,5.399,7.938,5.399,13.012c0,5.076-1.801,9.413-5.399,13.012c-3.6,3.602-7.938,5.4-13.013,5.4
			s-9.412-1.799-13.012-5.4c-3.6-3.599-5.399-7.936-5.399-13.012c0-0.778,0.277-1.445,0.832-2s1.222-0.832,2-0.832
			c0.779,0,1.446,0.277,2.001,0.832s0.832,1.222,0.832,2c0,3.518,1.245,6.521,3.735,9.012c2.491,2.49,5.494,3.735,9.011,3.735
			c3.518,0,6.521-1.245,9.012-3.735c2.49-2.49,3.735-5.494,3.735-9.012c0-3.516-1.245-6.521-3.735-9.012
			c-2.491-2.489-5.494-3.734-9.012-3.734h-12.746c-0.779,0-1.445-0.277-2-0.832s-0.833-1.222-0.833-2v-19.828
			c0-0.779,0.278-1.445,0.833-2.001c0.555-0.555,1.221-0.832,2-0.832H167.834z"/>
	</g>
</g>
</svg>
